<?xml version="1.0" encoding="UTF-8" standalone="no"?>
<!-- Created with Inkscape (http://www.inkscape.org/) -->
<svg
   xmlns:dc="http://purl.org/dc/elements/1.1/"
   xmlns:cc="http://web.resource.org/cc/"
   xmlns:rdf="http://www.w3.org/1999/02/22-rdf-syntax-ns#"
   xmlns:svg="http://www.w3.org/2000/svg"
   xmlns="http://www.w3.org/2000/svg"
   xmlns:sodipodi="http://sodipodi.sourceforge.net/DTD/sodipodi-0.dtd"
   xmlns:inkscape="http://www.inkscape.org/namespaces/inkscape"
   width="177.16534"
   height="53.149605"
   id="svg2292"
   sodipodi:version="0.32"
   inkscape:version="0.44.1"
   version="1.0"
   sodipodi:docbase="/home/lse10/lse/strieben/job/pics"
   sodipodi:docname="uni-klagenfurt_blau.svg">
  <defs
     id="defs2294" />
  <sodipodi:namedview
     id="base"
     pagecolor="#ffffff"
     bordercolor="#666666"
     borderopacity="1.0"
     gridtolerance="10000"
     guidetolerance="10"
     objecttolerance="10"
     inkscape:pageopacity="0.0"
     inkscape:pageshadow="2"
     inkscape:zoom="4.5611778"
     inkscape:cx="99.415614"
     inkscape:cy="26.401152"
     inkscape:document-units="px"
     inkscape:current-layer="layer1"
     width="5cm"
     height="1.5cm"
     units="cm"
     inkscape:window-width="861"
     inkscape:window-height="637"
     inkscape:window-x="178"
     inkscape:window-y="121" />
  <metadata
     id="metadata2297">
    <rdf:RDF>
      <cc:Work
         rdf:about="">
        <dc:format>image/svg+xml</dc:format>
        <dc:type
           rdf:resource="http://purl.org/dc/dcmitype/StillImage" />
      </cc:Work>
    </rdf:RDF>
  </metadata>
  <g
     inkscape:label="Layer 1"
     inkscape:groupmode="layer"
     id="layer1"
     transform="translate(442.9982,-73.46702)">
    <g
       id="g2336"
       transform="matrix(15.06859,0,0,15.06859,6232.711,-1033.407)">
      <path
         class="fil1"
         d="M -442.77037,73.525431 L -442.76821,73.525431 L -442.6819,73.943965 L -442.85669,73.943965 L -442.77037,73.525431 z M -442.82749,73.467294 L -442.99906,74.246108 L -442.91494,74.246108 L -442.86853,74.015226 L -442.67003,74.015226 L -442.62364,74.246108 L -442.53949,74.246108 L -442.71107,73.467294 L -442.82749,73.467294 L -442.82749,73.467294 z "
         id="path2179"
         style="fill:#1f1a17;fill-rule:evenodd" />
      <polygon
         transform="matrix(0.292293,0,0,0.292293,-466.5285,42.61018)"
         class="fil2"
         points="83.0821,105.569 83.0821,108.234 84.2336,108.234 84.2336,107.99 83.37,107.99 83.37,105.569 83.0821,105.569 "
         id="polygon2181"
         style="fill:#1f1a17;fill-rule:nonzero" />
      <path
         class="fil1"
         d="M -441.67477,74.246225 L -441.59065,74.246225 L -441.59065,73.894509 L -441.49145,73.894509 C -441.36637,73.894509 -441.28439,73.810358 -441.28439,73.68096 C -441.28439,73.551445 -441.36637,73.467411 -441.49145,73.467411 L -441.67477,73.467411 L -441.67477,74.246225 L -441.67477,74.246225 z M -441.59065,73.538555 L -441.50226,73.538555 C -441.41814,73.538555 -441.36854,73.583802 -441.36854,73.68096 C -441.36854,73.777972 -441.41814,73.823248 -441.50226,73.823248 L -441.59065,73.823248 L -441.59065,73.538555 z "
         id="path2183"
         style="fill:#1f1a17;fill-rule:evenodd" />
      <polygon
         transform="matrix(0.292293,0,0,0.292293,-466.5285,42.61018)"
         class="fil2"
         points="87.2178,105.569 87.2178,108.234 88.48,108.234 88.48,107.99 87.5056,107.99 87.5056,106.964 88.1921,106.964 88.1921,106.721 87.5056,106.721 87.5056,105.813 88.4355,105.813 88.4355,105.569 87.2178,105.569 "
         id="polygon2185"
         style="fill:#1f1a17;fill-rule:nonzero" />
      <polygon
         transform="matrix(0.292293,0,0,0.292293,-466.5285,42.61018)"
         class="fil2"
         points="89.5161,105.569 89.5161,108.234 89.804,108.234 89.804,105.916 89.8114,105.916 90.6379,108.234 90.948,108.234 90.948,105.569 90.6602,105.569 90.6602,107.533 90.6528,107.533 89.9666,105.569 89.5161,105.569 "
         id="polygon2187"
         style="fill:#1f1a17;fill-rule:nonzero" />
      <polygon
         transform="matrix(0.292293,0,0,0.292293,-466.5285,42.61018)"
         class="fil2"
         points="92.0109,107.396 92.9187,107.396 92.9187,107.152 92.0109,107.152 92.0109,107.396 "
         id="polygon2189"
         style="fill:#1f1a17;fill-rule:nonzero" />
      <path
         class="fil1"
         d="M -438.86893,73.525431 L -438.86677,73.525431 L -438.78046,73.943965 L -438.95513,73.943965 L -438.86893,73.525431 z M -438.92605,73.467294 L -439.09754,74.246108 L -439.01339,74.246108 L -438.96709,74.015226 L -438.76859,74.015226 L -438.7222,74.246108 L -438.63805,74.246108 L -438.80954,73.467294 L -438.92605,73.467294 z "
         id="path2191"
         style="fill:#1f1a17;fill-rule:evenodd" />
      <path
         class="fil1"
         d="M -438.2586,73.538584 L -438.21323,73.538584 C -438.09032,73.538584 -438.01906,73.590349 -438.01906,73.856774 C -438.01906,74.123228 -438.09032,74.174993 -438.21323,74.174993 L -438.2586,74.174993 L -438.2586,73.538584 z M -438.34275,74.246254 L -438.19818,74.246254 C -438.0342,74.246254 -437.93503,74.155614 -437.93503,73.856774 C -437.93503,73.557963 -438.0342,73.46744 -438.19818,73.46744 L -438.34275,73.46744 L -438.34275,74.246254 L -438.34275,74.246254 z "
         id="path2193"
         style="fill:#1f1a17;fill-rule:evenodd" />
      <path
         class="fil1"
         d="M -437.50463,73.538584 L -437.4312,73.538584 C -437.31046,73.538584 -437.27158,73.585994 -437.27158,73.67336 C -437.27158,73.760785 -437.31046,73.808224 -437.4312,73.808224 L -437.50463,73.808224 L -437.50463,73.538584 z M -437.58875,74.246254 L -437.50463,74.246254 L -437.50463,73.881531 L -437.39461,73.877293 L -437.26942,74.246254 L -437.18106,74.246254 L -437.31262,73.859989 C -437.22631,73.829766 -437.18743,73.756459 -437.18743,73.669122 C -437.18743,73.540747 -437.27591,73.46744 -437.4011,73.46744 L -437.58875,73.46744 L -437.58875,74.246254 z "
         id="path2195"
         style="fill:#1f1a17;fill-rule:evenodd" />
      <polygon
         transform="matrix(0.292293,0,0,0.292293,-466.5285,42.61018)"
         class="fil2"
         points="101.574,108.234 101.862,108.234 101.862,105.569 101.574,105.569 101.574,108.234 "
         id="polygon2197"
         style="fill:#1f1a17;fill-rule:nonzero" />
      <path
         class="fil1"
         d="M -436.22181,73.525431 L -436.21965,73.525431 L -436.13334,73.943965 L -436.30813,73.943965 L -436.22181,73.525431 z M -436.27896,73.467294 L -436.45042,74.246108 L -436.36629,74.246108 L -436.31999,74.015226 L -436.1215,74.015226 L -436.07508,74.246108 L -435.99096,74.246108 L -436.16242,73.467294 L -436.27896,73.467294 z "
         id="path2199"
         style="fill:#1f1a17;fill-rule:evenodd" />
      <path
         class="fil2"
         d="M -442.96659,74.765045 L -442.96659,75.310727 C -442.96659,75.482303 -442.86628,75.554587 -442.71314,75.554587 C -442.55992,75.554587 -442.45856,75.482303 -442.45856,75.310727 L -442.45856,74.765045 L -442.60733,74.765045 L -442.60733,75.309704 C -442.60733,75.384151 -442.64086,75.422909 -442.71314,75.422909 C -442.78531,75.422909 -442.8177,75.384151 -442.8177,75.309704 L -442.8177,74.765045 L -442.96659,74.765045 z "
         id="path2201"
         style="fill:#1f1a17;fill-rule:nonzero" />
      <polygon
         transform="matrix(0.292293,0,0,0.292293,-466.5285,42.61018)"
         class="fil2"
         points="83.7838,112.674 83.7838,110.954 83.7909,110.954 84.5698,112.674 85.0566,112.674 85.0566,110.009 84.5917,110.009 84.5917,111.589 84.5846,111.589 83.8759,110.009 83.3185,110.009 83.3185,112.674 83.7838,112.674 "
         id="polygon2203"
         style="fill:#1f1a17;fill-rule:nonzero" />
      <polygon
         transform="matrix(0.292293,0,0,0.292293,-466.5285,42.61018)"
         class="fil2"
         points="86.0268,112.674 86.5361,112.674 86.5361,110.009 86.0268,110.009 86.0268,112.674 "
         id="polygon2205"
         style="fill:#1f1a17;fill-rule:nonzero" />
      <polygon
         transform="matrix(0.292293,0,0,0.292293,-466.5285,42.61018)"
         class="fil2"
         points="87.9117,112.674 88.4913,112.674 89.1704,110.009 88.6719,110.009 88.2069,111.913 88.1995,111.913 87.731,110.009 87.229,110.009 87.9117,112.674 "
         id="polygon2207"
         style="fill:#1f1a17;fill-rule:nonzero" />
      <polygon
         transform="matrix(0.292293,0,0,0.292293,-466.5285,42.61018)"
         class="fil2"
         points="91.3026,112.674 91.3026,112.223 90.3801,112.223 90.3801,111.522 91.0553,111.522 91.0553,111.072 90.3801,111.072 90.3801,110.459 91.2655,110.459 91.2655,110.009 89.8706,110.009 89.8706,112.674 91.3026,112.674 "
         id="polygon2209"
         style="fill:#1f1a17;fill-rule:nonzero" />
      <path
         class="fil1"
         d="M -439.07877,75.544006 L -439.2255,75.196704 C -439.1424,75.16537 -439.10794,75.095249 -439.10794,74.998207 C -439.10794,74.851476 -439.19312,74.765279 -439.37212,74.765279 L -439.58795,74.765279 L -439.58795,75.544006 L -439.43905,75.544006 L -439.43905,75.226927 L -439.36791,75.226927 L -439.23839,75.544006 L -439.07877,75.544006 L -439.07877,75.544006 z M -439.43905,74.888188 L -439.36244,74.888188 C -439.29665,74.888188 -439.25675,74.920574 -439.25675,74.996044 C -439.25675,75.071544 -439.29665,75.103901 -439.36244,75.103901 L -439.43905,75.103901 L -439.43905,74.888188 z "
         id="path2211"
         style="fill:#1f1a17;fill-rule:evenodd" />
      <path
         class="fil2"
         d="M -438.39297,74.943052 C -438.41883,74.83312 -438.49977,74.754347 -438.63238,74.754347 C -438.78665,74.754347 -438.86645,74.838469 -438.86645,74.972223 C -438.86645,75.190098 -438.53423,75.192261 -438.53423,75.338992 C -438.53423,75.397158 -438.57413,75.431707 -438.62598,75.431707 C -438.67012,75.431707 -438.72405,75.398298 -438.74138,75.304443 L -438.88811,75.335689 C -438.84809,75.488938 -438.75427,75.554704 -438.63352,75.554704 C -438.47709,75.554704 -438.38542,75.466256 -438.38542,75.332503 C -438.38542,75.088731 -438.71767,75.080079 -438.71767,74.962518 C -438.71767,74.90973 -438.68847,74.877257 -438.63569,74.877257 C -438.58392,74.877257 -438.55153,74.90859 -438.52669,74.981927 L -438.39297,74.943052 L -438.39297,74.943052 z "
         id="path2213"
         style="fill:#1f1a17;fill-rule:nonzero" />
      <polygon
         transform="matrix(0.292293,0,0,0.292293,-466.5285,42.61018)"
         class="fil2"
         points="97.2095,112.674 97.7188,112.674 97.7188,110.009 97.2095,110.009 97.2095,112.674 "
         id="polygon2215"
         style="fill:#1f1a17;fill-rule:nonzero" />
      <polygon
         transform="matrix(0.292293,0,0,0.292293,-466.5285,42.61018)"
         class="fil2"
         points="98.3934,110.009 98.3934,110.459 98.9875,110.459 98.9875,112.674 99.4969,112.674 99.4969,110.459 100.091,110.459 100.091,110.009 98.3934,110.009 "
         id="polygon2217"
         style="fill:#1f1a17;fill-rule:nonzero" />
      <path
         class="fil1"
         d="M -436.87626,74.933406 L -436.87409,74.933406 L -436.80181,75.248323 L -436.94956,75.248323 L -436.87626,74.933406 z M -437.01854,75.54386 L -436.97648,75.379913 L -436.77056,75.379913 L -436.73271,75.54386 L -436.59042,75.54386 L -436.7781,74.765133 L -436.96897,74.765133 L -437.16209,75.54386 L -437.01854,75.54386 L -437.01854,75.54386 z "
         id="path2219"
         style="fill:#1f1a17;fill-rule:evenodd" />
      <polygon
         transform="matrix(0.292293,0,0,0.292293,-466.5285,42.61018)"
         class="fil2"
         points="102.889,110.009 102.889,110.459 103.483,110.459 103.483,112.674 103.992,112.674 103.992,110.459 104.587,110.459 104.587,110.009 102.889,110.009 "
         id="polygon2221"
         style="fill:#1f1a17;fill-rule:nonzero" />
      <polygon
         transform="matrix(0.292293,0,0,0.292293,-466.5285,42.61018)"
         class="fil2"
         points="101.561,109.787 102.005,109.787 102.005,109.343 101.561,109.343 101.561,109.787 "
         id="polygon2223"
         style="fill:#1f1a17;fill-rule:nonzero" />
      <polygon
         transform="matrix(0.292293,0,0,0.292293,-466.5285,42.61018)"
         class="fil2"
         points="100.895,109.787 101.339,109.787 101.339,109.343 100.895,109.343 100.895,109.787 "
         id="polygon2225"
         style="fill:#1f1a17;fill-rule:nonzero" />
      <polygon
         transform="matrix(0.292293,0,0,0.292293,-466.5285,42.61018)"
         class="fil2"
         points="81.12,117.114 81.12,116.298 81.319,115.995 81.8506,117.114 82.4224,117.114 81.6587,115.523 82.3448,114.449 81.7878,114.449 81.1274,115.549 81.12,115.549 81.12,114.449 80.6106,114.449 80.6106,117.114 81.12,117.114 "
         id="polygon2227"
         style="fill:#1f1a17;fill-rule:nonzero" />
      <polygon
         transform="matrix(0.292293,0,0,0.292293,-466.5285,42.61018)"
         class="fil2"
         points="84.5511,117.114 84.5511,116.664 83.7316,116.664 83.7316,114.449 83.2225,114.449 83.2225,117.114 84.5511,117.114 "
         id="polygon2229"
         style="fill:#1f1a17;fill-rule:nonzero" />
      <path
         class="fil1"
         d="M -441.38143,76.231187 L -441.37926,76.231187 L -441.30698,76.546191 L -441.45473,76.546191 L -441.38143,76.231187 z M -441.52383,76.841729 L -441.48174,76.677752 L -441.27573,76.677752 L -441.238,76.841729 L -441.09559,76.841729 L -441.28325,76.062885 L -441.47423,76.062885 L -441.66726,76.841729 L -441.52383,76.841729 L -441.52383,76.841729 z "
         id="path2231"
         style="fill:#1f1a17;fill-rule:evenodd" />
      <path
         class="fil2"
         d="M -440.45617,76.841787 L -440.37854,76.841787 L -440.37854,76.442632 L -440.63199,76.442632 L -440.63199,76.565629 L -440.52732,76.565629 L -440.52732,76.613068 C -440.52732,76.679974 -440.56187,76.720924 -440.61796,76.720924 C -440.67735,76.720924 -440.71509,76.697219 -440.71509,76.610905 L -440.71509,76.293825 C -440.71509,76.207511 -440.67735,76.183806 -440.61796,76.183806 C -440.56403,76.183806 -440.52732,76.216075 -440.52732,76.316507 L -440.37854,76.316507 C -440.38389,76.139553 -440.46588,76.052128 -440.61796,76.052128 C -440.76253,76.052128 -440.86389,76.121197 -440.86389,76.313204 L -440.86389,76.591526 C -440.86389,76.783504 -440.76253,76.852485 -440.61796,76.852485 C -440.56187,76.852485 -440.51875,76.822379 -440.47886,76.777015 L -440.45617,76.841787 L -440.45617,76.841787 z "
         id="path2233"
         style="fill:#1f1a17;fill-rule:nonzero" />
      <polygon
         transform="matrix(0.292293,0,0,0.292293,-466.5285,42.61018)"
         class="fil2"
         points="91.8924,117.114 91.8924,116.664 90.9699,116.664 90.9699,115.962 91.6451,115.962 91.6451,115.512 90.9699,115.512 90.9699,114.899 91.8554,114.899 91.8554,114.449 90.4605,114.449 90.4605,117.114 91.8924,117.114 "
         id="polygon2235"
         style="fill:#1f1a17;fill-rule:nonzero" />
      <polygon
         transform="matrix(0.292293,0,0,0.292293,-466.5285,42.61018)"
         class="fil2"
         points="93.361,117.114 93.361,115.394 93.3684,115.394 94.147,117.114 94.6342,117.114 94.6342,114.449 94.1692,114.449 94.1692,116.029 94.1618,116.029 93.4531,114.449 92.8961,114.449 92.8961,117.114 93.361,117.114 "
         id="polygon2237"
         style="fill:#1f1a17;fill-rule:nonzero" />
      <polygon
         transform="matrix(0.292293,0,0,0.292293,-466.5285,42.61018)"
         class="fil2"
         points="96.1907,117.114 96.1907,115.962 96.8327,115.962 96.8327,115.512 96.1907,115.512 96.1907,114.899 97.0098,114.899 97.0098,114.449 95.6812,114.449 95.6812,117.114 96.1907,117.114 "
         id="polygon2239"
         style="fill:#1f1a17;fill-rule:nonzero" />
      <path
         class="fil2"
         d="M -437.95339,76.062826 L -437.95339,76.608625 C -437.95339,76.780201 -437.85304,76.852368 -437.69991,76.852368 C -437.54669,76.852368 -437.44532,76.780201 -437.44532,76.608625 L -437.44532,76.062826 L -437.59422,76.062826 L -437.59422,76.607573 C -437.59422,76.682049 -437.62763,76.720807 -437.69991,76.720807 C -437.77219,76.720807 -437.80449,76.682049 -437.80449,76.607573 L -437.80449,76.062826 L -437.95339,76.062826 z "
         id="path2241"
         style="fill:#1f1a17;fill-rule:nonzero" />
      <path
         class="fil1"
         d="M -436.63015,76.841787 L -436.77688,76.494485 C -436.69375,76.463151 -436.65932,76.39303 -436.65932,76.295988 C -436.65932,76.149257 -436.74449,76.062943 -436.92349,76.062943 L -437.1392,76.062943 L -437.1392,76.841787 L -436.99043,76.841787 L -436.99043,76.524591 L -436.91917,76.524591 L -436.78977,76.841787 L -436.63015,76.841787 L -436.63015,76.841787 z M -436.99043,76.185969 L -436.91382,76.185969 C -436.84802,76.185969 -436.80812,76.218355 -436.80812,76.293825 C -436.80812,76.369295 -436.84802,76.401681 -436.91382,76.401681 L -436.99043,76.401681 L -436.99043,76.185969 z "
         id="path2243"
         style="fill:#1f1a17;fill-rule:evenodd" />
      <polygon
         transform="matrix(0.292293,0,0,0.292293,-466.5285,42.61018)"
         class="fil2"
         points="102.889,114.449 102.889,114.899 103.483,114.899 103.483,117.114 103.992,117.114 103.992,114.899 104.587,114.899 104.587,114.449 102.889,114.449 "
         id="polygon2245"
         style="fill:#1f1a17;fill-rule:nonzero" />
      <path
         class="fil3"
         d="M -434.79192,74.570378 L -434.01217,74.570378 C -434.01217,74.570378 -434.26696,75.041496 -434.26696,75.46725 C -434.26696,75.892916 -433.98741,76.364034 -433.1886,76.364034 C -432.2122,76.364034 -431.30995,75.378276 -431.30995,74.570378 L -431.28665,74.570378 C -431.28665,75.641223 -432.52989,76.97139 -433.90182,76.97139 C -434.54279,76.97139 -435.17993,76.509742 -435.17993,75.688545 C -435.17993,75.097909 -434.79192,74.570378 -434.79192,74.570378 L -434.79192,74.570378 z "
         id="path2247"
         style="fill:#00467f;fill-rule:nonzero" />
      <path
         class="fil4"
         d="M -434.12841,75.438488 C -434.12841,75.140993 -433.88587,74.899705 -433.58685,74.899705 C -433.28772,74.899705 -433.04529,75.140993 -433.04529,75.438488 C -433.04529,75.735867 -433.28772,75.977155 -433.58685,75.977155 C -433.88587,75.977155 -434.12841,75.735867 -434.12841,75.438488 z "
         id="path2249"
         style="fill:#6e82af;fill-rule:nonzero" />
    </g>
  </g>
</svg>
