<?xml version="1.0" encoding="UTF-8" standalone="no"?>
<!-- Created with Inkscape (http://www.inkscape.org/) -->

<svg
   xmlns:dc="http://purl.org/dc/elements/1.1/"
   xmlns:cc="http://creativecommons.org/ns#"
   xmlns:rdf="http://www.w3.org/1999/02/22-rdf-syntax-ns#"
   xmlns:svg="http://www.w3.org/2000/svg"
   xmlns="http://www.w3.org/2000/svg"
   xmlns:sodipodi="http://sodipodi.sourceforge.net/DTD/sodipodi-0.dtd"
   xmlns:inkscape="http://www.inkscape.org/namespaces/inkscape"
   width="192.83118"
   height="61.213623"
   id="svg2292"
   sodipodi:version="0.32"
   inkscape:version="0.47 r22583"
   version="1.0"
   sodipodi:docname="klu.svg">
  <defs
     id="defs2294">
    <inkscape:perspective
       sodipodi:type="inkscape:persp3d"
       inkscape:vp_x="0 : 26.574802 : 1"
       inkscape:vp_y="0 : 1000 : 0"
       inkscape:vp_z="177.16534 : 26.574802 : 1"
       inkscape:persp3d-origin="88.582672 : 17.716535 : 1"
       id="perspective3326" />
    <clipPath
       id="clipPath3367"
       clipPathUnits="userSpaceOnUse">
      <path
         id="path3369"
         d="M 0,549.961 0,0 l 1732.46,0 0,549.961 -1732.46,0 z" />
    </clipPath>
    <inkscape:perspective
       id="perspective3357"
       inkscape:persp3d-origin="0.5 : 0.33333333 : 1"
       inkscape:vp_z="1 : 0.5 : 1"
       inkscape:vp_y="0 : 1000 : 0"
       inkscape:vp_x="0 : 0.5 : 1"
       sodipodi:type="inkscape:persp3d" />
    <clipPath
       id="clipPath3910"
       clipPathUnits="userSpaceOnUse">
      <path
         id="path3912"
         d="m 0,350.079 350.079,0 L 350.079,0 0,0 0,350.079 z" />
    </clipPath>
    <inkscape:perspective
       id="perspective3902"
       inkscape:persp3d-origin="0.5 : 0.33333333 : 1"
       inkscape:vp_z="1 : 0.5 : 1"
       inkscape:vp_y="0 : 1000 : 0"
       inkscape:vp_x="0 : 0.5 : 1"
       sodipodi:type="inkscape:persp3d" />
  </defs>
  <sodipodi:namedview
     id="base"
     pagecolor="#ffffff"
     bordercolor="#666666"
     borderopacity="1.0"
     gridtolerance="10000"
     guidetolerance="10"
     objecttolerance="10"
     inkscape:pageopacity="0.0"
     inkscape:pageshadow="2"
     inkscape:zoom="3.6376999"
     inkscape:cx="74.289097"
     inkscape:cy="55.424369"
     inkscape:document-units="px"
     inkscape:current-layer="layer1"
     width="5cm"
     height="1.5cm"
     units="cm"
     inkscape:window-width="1274"
     inkscape:window-height="907"
     inkscape:window-x="-4"
     inkscape:window-y="-4"
     showgrid="false"
     inkscape:window-maximized="1" />
  <metadata
     id="metadata2297">
    <rdf:RDF>
      <cc:Work
         rdf:about="">
        <dc:format>image/svg+xml</dc:format>
        <dc:type
           rdf:resource="http://purl.org/dc/dcmitype/StillImage" />
        <dc:title></dc:title>
      </cc:Work>
    </rdf:RDF>
  </metadata>
  <g
     inkscape:label="Layer 1"
     inkscape:groupmode="layer"
     id="layer1"
     transform="translate(450.83113,-69.435015)">
    <g
       transform="matrix(1.1130458,0,0,-1.1130458,-546.3939,296.7055)"
       inkscape:label="UNI_KLU_Logo_cmyk"
       id="g3904">
      <g
         id="g3906">
        <g
           clip-path="url(#clipPath3910)"
           id="g3908">
          <g
             transform="translate(121.3799,202.6074)"
             id="g3914">
            <path
               id="path3916"
               style="fill:#569ac2;fill-opacity:1;fill-rule:nonzero;stroke:none"
               d="m 0,0 0,-37.125 c 0,-4.336 3.516,-7.852 7.853,-7.852 4.336,0 7.852,3.516 7.852,7.852 L 15.705,0 0,0 z" />
          </g>
          <g
             transform="translate(119.251,158.5449)"
             id="g3918">
            <path
               id="path3920"
               style="fill:#3e6377;fill-opacity:1;fill-rule:nonzero;stroke:none"
               d="m 0,0 0,37.672 c 0,4.401 -3.567,7.971 -7.969,7.971 -4.4,0 -7.967,-3.57 -7.967,-7.971 L -15.936,0 0,0 z" />
          </g>
          <g
             transform="translate(101.793,158.5449)"
             id="g3922">
            <path
               id="path3924"
               style="fill:#3e6377;fill-opacity:1;fill-rule:nonzero;stroke:none"
               d="m 0,0 0,37.672 c 0,4.401 -3.567,7.971 -7.968,7.971 -4.401,0 -7.968,-3.57 -7.968,-7.971 L -15.936,0 0,0 z" />
          </g>
          <g
             transform="translate(146.6787,149.2363)"
             id="g3926">
            <path
               id="path3928"
               style="fill:#3e6377;fill-opacity:1;fill-rule:nonzero;stroke:none"
               d="M 0,0 -1.368,2.423 -2.056,1.6 l 0,-1.6 -1.039,0 0,5.323 1.039,0 0,-2.317 1.877,2.317 1.263,0 L -0.68,3.208 1.211,0 0,0 z" />
          </g>
          <g
             transform="translate(149.7202,149.2363)"
             id="g3930">
            <path
               id="path3932"
               style="fill:#3e6377;fill-opacity:1;fill-rule:nonzero;stroke:none"
               d="m 0,0 0,5.323 1.039,0 0,-4.396 2.415,0 L 3.454,0 0,0 z" />
          </g>
          <g
             transform="translate(156.9702,152.9893)"
             id="g3934">
            <path
               id="path3936"
               style="fill:#3e6377;fill-opacity:1;fill-rule:nonzero;stroke:none"
               d="m 0,0 -0.673,-1.937 1.323,0 L 0,0 z m 1.241,-3.753 -0.314,0.942 -1.892,0 -0.321,-0.942 -1.084,0 1.936,5.323 0.815,0 1.944,-5.323 -1.084,0 z" />
          </g>
          <g
             transform="translate(164.3994,149.7969)"
             id="g3938">
            <path
               id="path3940"
               style="fill:#3e6377;fill-opacity:1;fill-rule:nonzero;stroke:none"
               d="m 0,0 c -0.426,-0.441 -0.935,-0.605 -1.503,-0.605 -0.583,0 -1.061,0.209 -1.435,0.583 -0.539,0.538 -0.524,1.204 -0.524,2.124 0,0.919 -0.015,1.585 0.524,2.123 0.374,0.374 0.837,0.583 1.435,0.583 1.234,0 1.862,-0.808 2.004,-1.704 l -1.047,0 c -0.12,0.5 -0.426,0.777 -0.957,0.777 -0.284,0 -0.516,-0.112 -0.665,-0.284 -0.202,-0.225 -0.254,-0.471 -0.254,-1.495 0,-1.025 0.052,-1.28 0.254,-1.503 0.149,-0.172 0.381,-0.278 0.665,-0.278 0.314,0 0.568,0.113 0.74,0.3 0.172,0.194 0.24,0.434 0.24,0.71 l 0,0.202 -0.98,0 0,0.867 2.011,0 0,-0.777 C 0.508,0.853 0.374,0.389 0,0" />
          </g>
          <g
             transform="translate(167.1265,149.2363)"
             id="g3942">
            <path
               id="path3944"
               style="fill:#3e6377;fill-opacity:1;fill-rule:nonzero;stroke:none"
               d="m 0,0 0,5.323 3.506,0 0,-0.927 -2.467,0 0,-1.249 2.101,0 0,-0.926 -2.101,0 0,-1.294 2.467,0 L 3.506,0 0,0 z" />
          </g>
          <g
             transform="translate(175.9619,149.2363)"
             id="g3946">
            <path
               id="path3948"
               style="fill:#3e6377;fill-opacity:1;fill-rule:nonzero;stroke:none"
               d="m 0,0 -2.109,3.268 0,-3.268 -1.039,0 0,5.323 0.927,0 2.109,-3.26 0,3.26 1.039,0 L 0.927,0 0,0 z" />
          </g>
          <g
             transform="translate(180.334,153.6328)"
             id="g3950">
            <path
               id="path3952"
               style="fill:#3e6377;fill-opacity:1;fill-rule:nonzero;stroke:none"
               d="m 0,0 0,-1.309 2.101,0 0,-0.926 -2.101,0 0,-2.161 -1.04,0 0,5.323 3.507,0 L 2.467,0 0,0 z" />
          </g>
          <g
             transform="translate(186.7471,149.1914)"
             id="g3954">
            <path
               id="path3956"
               style="fill:#3e6377;fill-opacity:1;fill-rule:nonzero;stroke:none"
               d="m 0,0 c -1.092,0 -1.959,0.74 -1.959,1.869 l 0,3.499 1.039,0 0,-3.462 c 0,-0.612 0.359,-0.979 0.92,-0.979 0.561,0 0.928,0.367 0.928,0.979 l 0,3.462 1.031,0 0,-3.499 C 1.959,0.74 1.092,0 0,0" />
          </g>
          <g
             transform="translate(193.0479,153.6328)"
             id="g3958">
            <path
               id="path3960"
               style="fill:#3e6377;fill-opacity:1;fill-rule:nonzero;stroke:none"
               d="m 0,0 -0.979,0 0,-1.406 0.979,0 c 0.456,0 0.755,0.292 0.755,0.703 C 0.755,-0.292 0.456,0 0,0 m 0.808,-4.396 -1.04,2.123 -0.747,0 0,-2.123 -1.041,0 0,5.323 2.087,0 c 1.084,0 1.727,-0.74 1.727,-1.63 0,-0.747 -0.456,-1.211 -0.972,-1.399 l 1.189,-2.294 -1.203,0 z" />
          </g>
          <g
             transform="translate(199.1172,153.6328)"
             id="g3962">
            <path
               id="path3964"
               style="fill:#3e6377;fill-opacity:1;fill-rule:nonzero;stroke:none"
               d="m 0,0 0,-4.396 -1.039,0 0,4.396 -1.391,0 0,0.927 3.821,0 L 1.391,0 0,0 z" />
          </g>
          <path
             id="path3966"
             style="fill:#569ac2;fill-opacity:1;fill-rule:nonzero;stroke:none"
             d="m 205.412,154.56 1.04,0 0,-5.323 -1.04,0 0,5.323 z" />
          <g
             transform="translate(216.2295,149.2363)"
             id="g3968">
            <path
               id="path3970"
               style="fill:#3e6377;fill-opacity:1;fill-rule:nonzero;stroke:none"
               d="M 0,0 -0.702,0 -1.787,3.73 -2.863,0 l -0.703,0 -1.391,5.323 0.853,0 0.926,-3.805 1.07,3.805 0.65,0 1.069,-3.805 0.928,3.805 0.852,0 L 0,0 z" />
          </g>
          <path
             id="path3972"
             style="fill:#3e6377;fill-opacity:1;fill-rule:nonzero;stroke:none"
             d="m 219.563,154.56 0.808,0 0,-5.323 -0.808,0 0,5.323 z" />
          <g
             transform="translate(222.9238,149.2363)"
             id="g3974">
            <path
               id="path3976"
               style="fill:#3e6377;fill-opacity:1;fill-rule:nonzero;stroke:none"
               d="m 0,0 0,5.323 3.402,0 0,-0.724 -2.594,0 0,-1.556 2.213,0 0,-0.718 -2.213,0 0,-1.599 2.594,0 L 3.402,0 0,0 z" />
          </g>
          <g
             transform="translate(231.8633,149.2363)"
             id="g3978">
            <path
               id="path3980"
               style="fill:#3e6377;fill-opacity:1;fill-rule:nonzero;stroke:none"
               d="m 0,0 -2.46,3.746 0,-3.746 -0.808,0 0,5.323 0.741,0 2.46,-3.738 0,3.738 0.807,0 L 0.74,0 0,0 z" />
          </g>
          <g
             transform="translate(241.7793,151.2998)"
             id="g3982">
            <path
               id="path3984"
               style="fill:#3e6377;fill-opacity:1;fill-rule:nonzero;stroke:none"
               d="m 0,0 c 0,-0.688 -0.128,-1.121 -0.479,-1.503 -0.412,-0.426 -0.897,-0.605 -1.465,-0.605 -0.561,0 -1.033,0.202 -1.399,0.568 -0.523,0.523 -0.515,1.121 -0.515,2.139 0,1.016 -0.008,1.614 0.515,2.137 0.366,0.367 0.83,0.569 1.399,0.569 1.121,0 1.794,-0.741 1.936,-1.653 l -0.815,0 C -0.965,2.243 -1.347,2.58 -1.944,2.58 -2.266,2.58 -2.543,2.452 -2.729,2.251 -2.991,1.967 -3.051,1.66 -3.051,0.599 c 0,-1.07 0.06,-1.376 0.322,-1.661 0.186,-0.202 0.463,-0.321 0.785,-0.321 0.351,0 0.658,0.135 0.867,0.374 0.202,0.232 0.269,0.486 0.269,0.837 l 0,0.299 -1.136,0 0,0.688 L 0,0.815 0,0 z" />
          </g>
          <g
             transform="translate(247.04,152.9971)"
             id="g3986">
            <path
               id="path3988"
               style="fill:#3e6377;fill-opacity:1;fill-rule:nonzero;stroke:none"
               d="m 0,0 c 0,0.531 -0.366,0.838 -0.904,0.838 l -1.197,0 0,-1.668 1.197,0 C -0.366,-0.83 0,-0.53 0,0 m 0.03,-3.761 -1.121,2.243 -1.01,0 0,-2.243 -0.807,0 0,5.324 2.063,0 c 1.01,0 1.653,-0.651 1.653,-1.555 0,-0.771 -0.463,-1.241 -1.062,-1.413 l 1.227,-2.356 -0.943,0 z" />
          </g>
          <g
             transform="translate(251.8535,153.3564)"
             id="g3990">
            <path
               id="path3992"
               style="fill:#3e6377;fill-opacity:1;fill-rule:nonzero;stroke:none"
               d="m 0,0 -0.83,-2.363 1.638,0 L 0,0 z m 1.397,-4.12 -0.366,1.069 -2.1,0 -0.367,-1.069 -0.86,0 1.952,5.323 0.651,0 1.951,-5.323 -0.861,0 z" />
          </g>
          <g
             transform="translate(255.6934,149.2363)"
             id="g3994">
            <path
               id="path3996"
               style="fill:#3e6377;fill-opacity:1;fill-rule:nonzero;stroke:none"
               d="m 0,0 0,0.695 2.46,3.904 -2.355,0 0,0.724 3.305,0 0,-0.657 -2.474,-3.94 2.474,0 L 3.41,0 0,0 z" />
          </g>
          <g
             transform="translate(155.7612,173.5029)"
             id="g3998">
            <path
               id="path4000"
               style="fill:#3e6377;fill-opacity:1;fill-rule:nonzero;stroke:none"
               d="m 0,0 0,11.808 1.79,0 0,-10.199 5.688,0 L 7.478,0 0,0 z" />
          </g>
          <g
             transform="translate(170.6514,183.7021)"
             id="g4002">
            <path
               id="path4004"
               style="fill:#3e6377;fill-opacity:1;fill-rule:nonzero;stroke:none"
               d="m 0,0 -2.588,0 0,-3.93 2.588,0 c 1.242,0 2.089,0.714 2.089,1.958 C 2.089,-0.729 1.242,0 0,0 m 0.099,-5.556 -2.687,0 0,-4.643 -1.789,0 0,11.807 4.476,0 c 2.305,0 3.781,-1.524 3.781,-3.58 0,-2.057 -1.476,-3.584 -3.781,-3.584" />
          </g>
          <g
             transform="translate(177.6982,173.5029)"
             id="g4006">
            <path
               id="path4008"
               style="fill:#3e6377;fill-opacity:1;fill-rule:nonzero;stroke:none"
               d="m 0,0 0,11.808 7.544,0 0,-1.609 -5.755,0 0,-3.448 4.909,0 0,-1.593 -4.909,0 0,-3.549 5.755,0 L 7.544,0 0,0 z" />
          </g>
          <g
             transform="translate(195.9355,173.5029)"
             id="g4010">
            <path
               id="path4012"
               style="fill:#3e6377;fill-opacity:1;fill-rule:nonzero;stroke:none"
               d="m 0,0 -5.454,8.309 0,-8.309 -1.791,0 0,11.808 1.641,0 5.458,-8.291 0,8.291 1.791,0 L 1.645,0 0,0 z" />
          </g>
          <path
             id="path4014"
             style="fill:#3e6377;fill-opacity:1;fill-rule:nonzero;stroke:none"
             d="m 200.944,178.894 4.842,0 0,-1.574 -4.842,0 0,1.574 z" />
          <g
             transform="translate(227.0967,182.9082)"
             id="g4016">
            <path
               id="path4018"
               style="fill:#3e6377;fill-opacity:1;fill-rule:nonzero;stroke:none"
               d="m 0,0 c -0.497,0.547 -1.161,0.794 -2.007,0.794 l -2.172,0 0,-8.588 2.172,0 c 0.846,0 1.51,0.247 2.007,0.795 0.614,0.681 0.628,1.956 0.628,3.582 C 0.628,-1.791 0.614,-0.681 0,0 M 1.226,-8.294 C 0.479,-9.038 -0.598,-9.405 -1.825,-9.405 l -4.147,0 0,11.808 4.147,0 c 1.227,0 2.304,-0.364 3.051,-1.11 1.277,-1.277 1.193,-3.002 1.193,-4.71 0,-1.708 0.084,-3.599 -1.193,-4.877" />
          </g>
          <g
             transform="translate(237.6084,183.7021)"
             id="g4020">
            <path
               id="path4022"
               style="fill:#3e6377;fill-opacity:1;fill-rule:nonzero;stroke:none"
               d="m 0,0 -2.654,0 0,-3.696 2.654,0 c 1.192,0 2.005,0.68 2.005,1.839 C 2.005,-0.695 1.192,0 0,0 m 2.071,-10.199 -2.487,4.975 -2.238,0 0,-4.975 -1.791,0 0,11.808 4.577,0 c 2.238,0 3.666,-1.443 3.666,-3.449 0,-1.691 -1.029,-2.768 -2.356,-3.134 l 2.719,-5.225 -2.09,0 z" />
          </g>
          <path
             id="path4024"
             style="fill:#3e6377;fill-opacity:1;fill-rule:nonzero;stroke:none"
             d="m 245.02,185.312 1.791,0 0,-11.809 -1.791,0 0,11.809 z" />
          <g
             transform="translate(144.4551,177.8721)"
             id="g4026">
            <path
               id="path4028"
               style="fill:#3e6377;fill-opacity:1;fill-rule:nonzero;stroke:none"
               d="m 0,0 5.848,0 0.802,-1.527 -7.504,0 L 0,0 z" />
          </g>
          <g
             transform="translate(147.3462,185.6279)"
             id="g4030">
            <path
               id="path4032"
               style="fill:#3e6377;fill-opacity:1;fill-rule:nonzero;stroke:none"
               d="m 0,0 c 2.441,0 4.293,-1.665 4.293,-4.141 l 0,-7.945 -1.817,0 0,7.863 c 0,1.598 -0.977,2.59 -2.476,2.59 -1.497,0 -2.492,-0.992 -2.492,-2.59 l 0,-7.863 -1.818,0 0,7.945 C -4.31,-1.665 -2.44,0 0,0" />
          </g>
          <g
             transform="translate(210.6992,177.833)"
             id="g4034">
            <path
               id="path4036"
               style="fill:#3e6377;fill-opacity:1;fill-rule:nonzero;stroke:none"
               d="m 0,0 5.847,0 0.803,-1.527 -7.505,0 L 0,0 z" />
          </g>
          <g
             transform="translate(213.5889,185.5889)"
             id="g4038">
            <path
               id="path4040"
               style="fill:#3e6377;fill-opacity:1;fill-rule:nonzero;stroke:none"
               d="m 0,0 c 2.44,0 4.294,-1.664 4.294,-4.14 l 0,-7.946 -1.818,0 0,7.863 c 0,1.598 -0.978,2.591 -2.476,2.591 -1.497,0 -2.491,-0.993 -2.491,-2.591 l 0,-7.863 -1.819,0 0,7.946 C -4.31,-1.664 -2.439,0 0,0" />
          </g>
          <g
             transform="translate(251.6738,177.833)"
             id="g4042">
            <path
               id="path4044"
               style="fill:#3e6377;fill-opacity:1;fill-rule:nonzero;stroke:none"
               d="m 0,0 5.848,0 0.802,-1.527 -7.505,0 L 0,0 z" />
          </g>
          <g
             transform="translate(254.5645,185.5889)"
             id="g4046">
            <path
               id="path4048"
               style="fill:#3e6377;fill-opacity:1;fill-rule:nonzero;stroke:none"
               d="m 0,0 c 2.44,0 4.293,-1.664 4.293,-4.14 l 0,-7.946 -1.817,0 0,7.863 c 0,1.598 -0.978,2.591 -2.476,2.591 -1.496,0 -2.492,-0.993 -2.492,-2.591 l 0,-7.863 -1.818,0 0,7.946 C -4.31,-1.664 -2.439,0 0,0" />
          </g>
          <g
             transform="translate(147.1299,158.4502)"
             id="g4050">
            <path
               id="path4052"
               style="fill:#569ac2;fill-opacity:1;fill-rule:nonzero;stroke:none"
               d="m 0,0 c -2.327,0 -4.093,1.587 -4.093,3.947 l 0,7.576 1.733,0 0,-7.496 c 0,-1.525 0.932,-2.47 2.36,-2.47 1.427,0 2.375,0.945 2.375,2.47 l 0,7.496 1.734,0 0,-7.576 C 4.109,1.587 2.327,0 0,0" />
          </g>
          <g
             transform="translate(162.2686,158.5449)"
             id="g4054">
            <path
               id="path4056"
               style="fill:#569ac2;fill-opacity:1;fill-rule:nonzero;stroke:none"
               d="m 0,0 -5.281,8.042 0,-8.042 -1.734,0 0,11.429 1.59,0 5.279,-8.024 0,8.024 1.735,0 L 1.589,0 0,0 z" />
          </g>
          <path
             id="path4058"
             style="fill:#569ac2;fill-opacity:1;fill-rule:nonzero;stroke:none"
             d="m 168.085,169.974 1.733,0 0,-11.429 -1.733,0 0,11.429 z" />
          <g
             transform="translate(178.9238,158.5449)"
             id="g4060">
            <path
               id="path4062"
               style="fill:#569ac2;fill-opacity:1;fill-rule:nonzero;stroke:none"
               d="m 0,0 -1.348,0 -3.755,11.429 1.798,0 2.631,-8.315 2.631,8.315 1.83,0 L 0,0 z" />
          </g>
          <g
             transform="translate(186.0566,158.5449)"
             id="g4064">
            <path
               id="path4066"
               style="fill:#569ac2;fill-opacity:1;fill-rule:nonzero;stroke:none"
               d="m 0,0 0,11.429 7.303,0 0,-1.559 -5.571,0 0,-3.338 4.752,0 0,-1.54 -4.752,0 0,-3.434 5.571,0 L 7.303,0 0,0 z" />
          </g>
          <g
             transform="translate(202.1104,168.415)"
             id="g4068">
            <path
               id="path4070"
               style="fill:#569ac2;fill-opacity:1;fill-rule:nonzero;stroke:none"
               d="m 0,0 -2.568,0 0,-3.577 2.568,0 c 1.156,0 1.941,0.659 1.941,1.782 C 1.941,-0.672 1.156,0 0,0 m 2.006,-9.87 -2.408,4.815 -2.166,0 0,-4.815 -1.733,0 0,11.429 4.43,0 c 2.166,0 3.545,-1.397 3.545,-3.339 0,-1.637 -0.994,-2.681 -2.279,-3.034 l 2.632,-5.056 -2.021,0 z" />
          </g>
          <g
             transform="translate(213.0322,158.4502)"
             id="g4072">
            <path
               id="path4074"
               style="fill:#569ac2;fill-opacity:1;fill-rule:nonzero;stroke:none"
               d="m 0,0 c -1.717,0 -2.951,0.4 -4.045,1.509 l 1.158,1.138 c 0.832,-0.833 1.748,-1.09 2.92,-1.09 1.492,0 2.36,0.642 2.36,1.75 0,0.496 -0.145,0.912 -0.45,1.187 -0.291,0.271 -0.578,0.385 -1.254,0.48 l -1.347,0.195 c -0.93,0.126 -1.668,0.448 -2.166,0.912 -0.563,0.531 -0.834,1.252 -0.834,2.184 0,1.99 1.443,3.353 3.82,3.353 1.508,0 2.568,-0.386 3.547,-1.298 L 2.602,9.228 C 1.895,9.902 1.074,10.11 0.113,10.11 c -1.349,0 -2.086,-0.769 -2.086,-1.782 0,-0.417 0.129,-0.786 0.432,-1.058 0.291,-0.258 0.756,-0.45 1.285,-0.529 L 1.043,6.548 C 2.104,6.388 2.697,6.132 3.178,5.697 3.805,5.15 4.107,4.332 4.107,3.354 4.107,1.253 2.393,0 0,0" />
          </g>
          <path
             id="path4076"
             style="fill:#569ac2;fill-opacity:1;fill-rule:nonzero;stroke:none"
             d="m 221.109,169.974 1.734,0 0,-11.429 -1.734,0 0,11.429 z" />
          <g
             transform="translate(231.2686,168.415)"
             id="g4078">
            <path
               id="path4080"
               style="fill:#569ac2;fill-opacity:1;fill-rule:nonzero;stroke:none"
               d="m 0,0 0,-9.87 -1.736,0 0,9.87 -3.147,0 0,1.559 8.028,0 L 3.145,0 0,0 z" />
          </g>
          <g
             transform="translate(255.7109,168.415)"
             id="g4082">
            <path
               id="path4084"
               style="fill:#569ac2;fill-opacity:1;fill-rule:nonzero;stroke:none"
               d="m 0,0 0,-9.87 -1.732,0 0,9.87 -3.145,0 0,1.559 8.023,0 L 3.146,0 0,0 z" />
          </g>
          <g
             transform="translate(239.9648,162.7295)"
             id="g4086">
            <path
               id="path4088"
               style="fill:#569ac2;fill-opacity:1;fill-rule:nonzero;stroke:none"
               d="m 0,0 5.652,0 0.776,-1.477 -7.252,0 L 0,0 z" />
          </g>
          <g
             transform="translate(242.7578,170.2236)"
             id="g4090">
            <path
               id="path4092"
               style="fill:#569ac2;fill-opacity:1;fill-rule:nonzero;stroke:none"
               d="m 0,0 c 2.359,0 4.15,-1.608 4.15,-4 l 0,-7.679 -1.757,0 0,7.599 c 0,1.544 -0.944,2.503 -2.393,2.503 -1.445,0 -2.406,-0.959 -2.406,-2.503 l 0,-7.599 -1.758,0 0,7.679 c 0,2.392 1.809,4 4.164,4" />
          </g>
          <g
             transform="translate(245.5723,169.9893)"
             id="g4094">
            <path
               id="path4096"
               style="fill:#569ac2;fill-opacity:1;fill-rule:nonzero;stroke:none"
               d="m 0,0 c 0.596,-0.397 1.068,-0.943 1.357,-1.614 l 0.991,0 L 2.348,0 0,0 z m -1.166,-1.614 0.004,0 c -0.002,0 -0.002,0.002 -0.004,0.002 l 0,-0.002 z" />
          </g>
          <g
             transform="translate(239.8848,169.9893)"
             id="g4098">
            <path
               id="path4100"
               style="fill:#569ac2;fill-opacity:1;fill-rule:nonzero;stroke:none"
               d="m 0,0 c -0.596,-0.397 -1.068,-0.943 -1.359,-1.614 l -0.989,0 0,1.614 L 0,0 z m 1.164,-1.614 -0.002,0 c 0.002,0 0.002,0.002 0.002,0.002 l 0,-0.002 z" />
          </g>
        </g>
      </g>
    </g>
  </g>
</svg>
