<?xml version="1.0" encoding="UTF-8" standalone="no"?>
<!-- Created with Inkscape (http://www.inkscape.org/) -->
<svg
   xmlns:dc="http://purl.org/dc/elements/1.1/"
   xmlns:cc="http://creativecommons.org/ns#"
   xmlns:rdf="http://www.w3.org/1999/02/22-rdf-syntax-ns#"
   xmlns:svg="http://www.w3.org/2000/svg"
   xmlns="http://www.w3.org/2000/svg"
   xmlns:sodipodi="http://sodipodi.sourceforge.net/DTD/sodipodi-0.dtd"
   xmlns:inkscape="http://www.inkscape.org/namespaces/inkscape"
   width="304.7244"
   height="187.79527"
   id="svg1877"
   sodipodi:version="0.32"
   inkscape:version="0.46"
   version="1.0"
   sodipodi:docbase="/home/lse10/lse/strieben/job/pics/LSE_Logo"
   sodipodi:docname="lse.svg"
   inkscape:output_extension="org.inkscape.output.svg.inkscape">
  <defs
     id="defs1879">
    <inkscape:perspective
       sodipodi:type="inkscape:persp3d"
       inkscape:vp_x="0 : 93.080017 : 1"
       inkscape:vp_y="0 : 1000 : 0"
       inkscape:vp_z="303.98102 : 93.080017 : 1"
       inkscape:persp3d-origin="151.99051 : 62.053345 : 1"
       id="perspective3452" />
  </defs>
  <sodipodi:namedview
     id="base"
     pagecolor="#ffffff"
     bordercolor="#666666"
     borderopacity="1.0"
     gridtolerance="10000"
     guidetolerance="10"
     objecttolerance="10"
     inkscape:pageopacity="0.0"
     inkscape:pageshadow="2"
     inkscape:zoom="2.5071836"
     inkscape:cx="152.3622"
     inkscape:cy="93.897636"
     inkscape:document-units="px"
     inkscape:current-layer="layer1"
     inkscape:window-width="861"
     inkscape:window-height="713"
     inkscape:window-x="1661"
     inkscape:window-y="124"
     showgrid="false"
     units="mm" />
  <metadata
     id="metadata1882">
    <rdf:RDF>
      <cc:Work
         rdf:about="">
        <dc:format>image/svg+xml</dc:format>
        <dc:type
           rdf:resource="http://purl.org/dc/dcmitype/StillImage" />
      </cc:Work>
    </rdf:RDF>
  </metadata>
  <g
     inkscape:label="Layer 1"
     inkscape:groupmode="layer"
     id="layer1"
     transform="translate(-50.86663,-133.5679)">
    <g
       style="fill-rule:evenodd"
       id="Ebene_x0020_1"
       transform="matrix(3.543307,0,0,3.543307,3.6473399,-131.80156)">
      <metadata
         id="CorelCorpID_0Corel-Layer" />
      <path
         class="fil0"
         d="M 99.2291,75.1199 L 97.6969,84.0002 L 87.4082,84.0002 L 86.3789,90.1346 L 96.6676,90.1346 L 95.1354,99.0148 L 84.8465,99.0148 L 83.5004,106.6701 L 93.7892,106.6701 L 92.2466,115.5504 L 67.8721,115.5504 L 74.8543,75.1199 L 99.2291,75.1199 z M 71.9866,75.1199 L 70.4544,84.0002 L 54.1008,84.0002 C 52.8458,84.0002 52.0267,84.0965 51.6396,84.2859 C 51.2556,84.4736 51.006,84.8269 50.9176,85.3475 L 50.7089,86.4191 C 50.6643,86.6233 50.6417,86.7969 50.6367,86.9601 C 50.6317,87.1234 50.6485,87.2562 50.6829,87.3786 C 50.8784,88.0727 52.434,88.8485 55.3437,89.6855 C 56.4899,90.0222 57.3914,90.2877 58.0511,90.4918 C 61.2854,91.5024 63.5487,92.4719 64.8455,93.3804 C 66.1293,94.2786 66.9659,95.4015 67.3422,96.7385 C 67.4828,97.2387 67.5709,97.8409 67.5929,98.5351 C 67.6146,99.2292 67.5752,99.9233 67.4381,100.5968 L 66.1147,109.0587 C 65.7178,111.5287 64.738,113.2333 63.203,114.1623 C 61.6578,115.091 58.3882,115.5504 53.407,115.5504 L 34.5341,115.5504 L 36.097,106.6701 L 48.9682,106.6701 C 51.2546,106.6701 52.7033,106.4865 53.3173,106.1292 C 53.9209,105.7719 54.2825,105.0983 54.399,104.098 L 54.7217,101.9442 C 54.7813,101.6482 54.8,101.3522 54.7938,101.0767 C 54.7877,100.801 54.7493,100.556 54.6948,100.3621 C 54.4018,99.321 52.6111,98.29 49.3069,97.2489 C 48.5163,97.0142 47.9105,96.8203 47.4619,96.6774 C 43.7574,95.4831 41.3978,94.5338 40.3857,93.8397 C 39.3738,93.1457 38.7155,92.2577 38.411,91.1756 C 38.2702,90.6755 38.194,90.1142 38.166,89.4711 C 38.1513,88.8383 38.1947,88.1953 38.2922,87.5623 L 39.6133,79.6007 C 39.8829,77.9472 40.6286,76.7914 41.849,76.1202 C 43.0588,75.4548 45.2115,75.1199 48.2736,75.1199 L 71.9866,75.1199 L 71.9866,75.1199 z M 36.5897,75.1199 L 29.057,118.7782 L 91.4776,118.7782 L 89.9351,127.6584 L 13.4389,127.6584 L 22.5038,75.1199 L 36.5897,75.1199 L 36.5897,75.1199 z"
         id="path10"
         style="fill:#00a4ce" />
    </g>
  </g>
</svg>
