<?xml version="1.0" encoding="UTF-8" standalone="no"?>
<!-- Created with Inkscape (http://www.inkscape.org/) -->
<svg
   xmlns:dc="http://purl.org/dc/elements/1.1/"
   xmlns:cc="http://creativecommons.org/ns#"
   xmlns:rdf="http://www.w3.org/1999/02/22-rdf-syntax-ns#"
   xmlns:svg="http://www.w3.org/2000/svg"
   xmlns="http://www.w3.org/2000/svg"
   xmlns:sodipodi="http://sodipodi.sourceforge.net/DTD/sodipodi-0.dtd"
   xmlns:inkscape="http://www.inkscape.org/namespaces/inkscape"
   width="513.77954"
   height="290.55118"
   id="svg2"
   sodipodi:version="0.32"
   inkscape:version="0.46"
   sodipodi:docbase="/home/lse24/lse/strieben/dev/CFS_TRUNK/source/cplreader/Documentation/latex/pics"
   sodipodi:docname="acousticfluidregions.svg"
   version="1.0"
   inkscape:output_extension="org.inkscape.output.svg.inkscape">
  <defs
     id="defs4">
    <inkscape:perspective
       sodipodi:type="inkscape:persp3d"
       inkscape:vp_x="0 : 141.04813 : 1"
       inkscape:vp_y="0 : 1000 : 0"
       inkscape:vp_z="496.06296 : 141.04813 : 1"
       inkscape:persp3d-origin="248.03148 : 94.032084 : 1"
       id="perspective2749" />
    <marker
       inkscape:stockid="Dot_m"
       orient="auto"
       refY="0"
       refX="0"
       id="Dot_m"
       style="overflow:visible">
      <path
         id="path3024"
         d="M -2.5,-1 C -2.5,1.76 -4.74,4 -7.5,4 C -10.26,4 -12.5,1.76 -12.5,-1 C -12.5,-3.76 -10.26,-6 -7.5,-6 C -4.74,-6 -2.5,-3.76 -2.5,-1 z"
         style="fill-rule:evenodd;stroke:#000000;stroke-width:1pt;marker-start:none;marker-end:none"
         transform="matrix(0.4,0,0,0.4,2.96,0.4)" />
    </marker>
    <marker
       inkscape:stockid="Arrow2Mend"
       orient="auto"
       refY="0"
       refX="0"
       id="Arrow2Mend"
       style="overflow:visible">
      <path
         id="path3062"
         style="font-size:12px;fill-rule:evenodd;stroke-width:0.625;stroke-linejoin:round"
         d="M 8.7185878,4.0337352 L -2.2072895,0.016013256 L 8.7185884,-4.0017078 C 6.97309,-1.6296469 6.9831476,1.6157441 8.7185878,4.0337352 z"
         transform="scale(-0.6,-0.6)" />
    </marker>
    <marker
       inkscape:stockid="Arrow1Mend"
       orient="auto"
       refY="0"
       refX="0"
       id="Arrow1Mend"
       style="overflow:visible">
      <path
         id="path3080"
         d="M 0,0 L 5,-5 L -12.5,0 L 5,5 L 0,0 z"
         style="fill-rule:evenodd;stroke:#000000;stroke-width:1pt;marker-start:none"
         transform="matrix(-0.4,0,0,-0.4,-4,0)" />
    </marker>
    <marker
       inkscape:stockid="Arrow1Lend"
       orient="auto"
       refY="0"
       refX="0"
       id="Arrow1Lend"
       style="overflow:visible">
      <path
         id="path3086"
         d="M 0,0 L 5,-5 L -12.5,0 L 5,5 L 0,0 z"
         style="fill-rule:evenodd;stroke:#000000;stroke-width:1pt;marker-start:none"
         transform="matrix(-0.8,0,0,-0.8,-10,0)" />
    </marker>
  </defs>
  <sodipodi:namedview
     id="base"
     pagecolor="#ffffff"
     bordercolor="#666666"
     borderopacity="1.0"
     gridtolerance="10000"
     guidetolerance="10"
     objecttolerance="10"
     inkscape:pageopacity="0.0"
     inkscape:pageshadow="2"
     inkscape:zoom="1.6227779"
     inkscape:cx="248.03148"
     inkscape:cy="53.339682"
     inkscape:document-units="px"
     inkscape:current-layer="layer1"
     inkscape:window-width="1280"
     inkscape:window-height="1004"
     inkscape:window-x="1480"
     inkscape:window-y="62"
     width="139.99999mm"
     height="76.135604mm"
     units="mm"
     showgrid="false" />
  <metadata
     id="metadata7">
    <rdf:RDF>
      <cc:Work
         rdf:about="">
        <dc:format>image/svg+xml</dc:format>
        <dc:type
           rdf:resource="http://purl.org/dc/dcmitype/StillImage" />
      </cc:Work>
    </rdf:RDF>
  </metadata>
  <g
     inkscape:label="Layer 1"
     inkscape:groupmode="layer"
     id="layer1"
     transform="translate(11.57536,-58.10692)">
    <rect
       style="fill:#87aade;fill-opacity:1;stroke:#000000;stroke-width:1.77165353;stroke-miterlimit:4;stroke-dasharray:5.3149606, 1.77165353;stroke-dashoffset:0;stroke-opacity:1"
       id="rect1958"
       width="317.12598"
       height="137.45615"
       x="86.520302"
       y="135.97311" />
    <rect
       style="fill:#2c5aa0;fill-opacity:1;stroke:#000000;stroke-width:1.77165329;stroke-miterlimit:4;stroke-dasharray:none;stroke-dashoffset:0;stroke-opacity:1"
       id="rect2846"
       width="23.031483"
       height="23.031507"
       x="148.98743"
       y="193.18544" />
    <path
       style="fill:none;fill-opacity:0.75;fill-rule:evenodd;stroke:#000000;stroke-width:1.77165341;stroke-linecap:butt;stroke-linejoin:miter;stroke-miterlimit:4;stroke-dasharray:none;stroke-opacity:1"
       d="M 201.32081,193.01074 C 199.62577,192.89942 200.47533,195.66253 202.49841,194.93113 C 203.94769,194.40545 204.42042,192.65379 203.31162,191.54942 C 201.73227,190.0892 200.31473,190.31762 198.99364,191.44491 C 198.13598,192.79306 197.93348,194.68117 199.13459,196.05307 C 200.0842,197.28387 201.75,198.06313 203.28363,197.54822 C 205.27881,197.08451 207.1316,195.40563 207.09565,193.26208 C 207.18536,191.51156 206.26846,190.00554 204.83752,188.65353 C 203.7592,187.80839 202.41409,186.94524 200.64149,186.94252 C 199.06212,187.05214 198.27118,187.22129 196.56032,188.21459 C 195.3579,189.1194 194.39763,191.04515 193.76313,192.52468 C 193.23095,194.80564 193.95935,196.54351 195.11856,198.50997 C 195.79852,199.62629 197.08192,200.3048 198.17052,200.96889 C 199.31665,201.51086 200.82942,202.32487 201.98312,202.50998 C 203.48879,202.62296 203.52815,202.64643 205.35566,202.30829 C 207.57059,201.72045 208.18631,201.25031 209.67237,199.68517 C 210.88885,198.08676 211.73701,196.63073 212.30422,194.4385 C 212.71069,192.67676 212.1995,191.28632 211.96159,189.4484 C 211.00194,186.97663 209.54534,185.61877 207.66051,184.32424 C 206.232,183.31845 204.44118,182.76076 202.71416,182.47766 C 200.56377,182.33523 199.34214,182.50724 197.06442,182.93156 C 195.74485,183.30387 194.56503,183.52293 193.07207,184.08059 C 190.78479,184.92219 190.31553,185.11428 188.39104,186.2163 C 187.00617,187.02049 185.36717,187.99231 184.23297,188.74978"
       id="path1933"
       sodipodi:nodetypes="cccccccccccccccccccccccc" />
    <path
       style="fill:none;fill-opacity:0.75;fill-rule:evenodd;stroke:#000000;stroke-width:1.77165341;stroke-linecap:butt;stroke-linejoin:miter;stroke-miterlimit:4;stroke-dasharray:none;stroke-opacity:1"
       d="M 247.6034,188.41211 C 245.90836,188.30079 246.75792,191.0639 248.781,190.3325 C 250.23028,189.80682 250.70301,188.05516 249.59421,186.95079 C 248.01486,185.49057 246.59732,185.71899 245.27623,186.84628 C 244.41857,188.19443 244.21607,190.08254 245.41718,191.45444 C 246.36679,192.68524 248.03259,193.4645 249.56622,192.94959 C 251.5614,192.48588 253.41419,190.807 253.37824,188.66345 C 253.46795,186.91293 252.55105,185.40691 251.12011,184.0549 C 250.04179,183.20976 248.69668,182.34661 246.92408,182.34389 C 245.34471,182.45351 244.55377,182.62266 242.84291,183.61596 C 241.64049,184.52077 240.68022,186.44652 240.04572,187.92605 C 239.51354,190.20701 240.24194,191.94488 241.40115,193.91134 C 242.08111,195.02766 243.36451,195.70617 244.45311,196.37026 C 245.59924,196.91223 247.11201,197.72624 248.26571,197.91135 C 249.77138,198.02433 249.81074,198.0478 251.63825,197.70966 C 253.85318,197.12182 254.4689,196.65168 255.95496,195.08654 C 257.17144,193.48813 258.0196,192.0321 258.58681,189.83987 C 258.99328,188.07813 258.48209,186.68769 258.24418,184.84977 C 257.28453,182.378 255.82793,181.02014 253.9431,179.72561 C 252.51459,178.71982 250.72377,178.16213 248.99675,177.87903 C 246.84636,177.7366 245.62473,177.90861 243.34701,178.33293 C 242.02744,178.70524 240.84762,178.9243 239.35466,179.48196 C 237.06738,180.32356 236.59812,180.51565 234.67363,181.61767 C 233.28876,182.42186 231.64976,183.39368 230.51556,184.15115"
       id="path2848"
       sodipodi:nodetypes="cccccccccccccccccccccccc" />
    <path
       style="fill:none;fill-opacity:0.75;fill-rule:evenodd;stroke:#000000;stroke-width:1.77165341;stroke-linecap:butt;stroke-linejoin:miter;stroke-miterlimit:4;stroke-dasharray:none;stroke-opacity:1"
       d="M 296.6034,192.41211 C 294.90836,192.30079 295.75792,195.0639 297.781,194.3325 C 299.23028,193.80682 299.70301,192.05516 298.59421,190.95079 C 297.01486,189.49057 295.59732,189.71899 294.27623,190.84628 C 293.41857,192.19443 293.21607,194.08254 294.41718,195.45444 C 295.36679,196.68524 297.03259,197.4645 298.56622,196.94959 C 300.5614,196.48588 302.41419,194.807 302.37824,192.66345 C 302.46795,190.91293 301.55105,189.40691 300.12011,188.0549 C 299.04179,187.20976 297.69668,186.34661 295.92408,186.34389 C 294.34471,186.45351 293.55377,186.62266 291.84291,187.61596 C 290.64049,188.52077 289.68022,190.44652 289.04572,191.92605 C 288.51354,194.20701 289.24194,195.94488 290.40115,197.91134 C 291.08111,199.02766 292.36451,199.70617 293.45311,200.37026 C 294.59924,200.91223 296.11201,201.72624 297.26571,201.91135 C 298.77138,202.02433 298.81074,202.0478 300.63825,201.70966 C 302.85318,201.12182 303.4689,200.65168 304.95496,199.08654 C 306.17144,197.48813 307.0196,196.0321 307.58681,193.83987 C 307.99328,192.07813 307.48209,190.68769 307.24418,188.84977 C 306.28453,186.378 304.82793,185.02014 302.9431,183.72561 C 301.51459,182.71982 299.72377,182.16213 297.99675,181.87903 C 295.84636,181.7366 294.62473,181.90861 292.34701,182.33293 C 291.02744,182.70524 289.84762,182.9243 288.35466,183.48196 C 286.06738,184.32356 285.59812,184.51565 283.67363,185.61767 C 282.28876,186.42186 280.64976,187.39368 279.51556,188.15115"
       id="path2850"
       sodipodi:nodetypes="cccccccccccccccccccccccc" />
    <path
       style="fill:none;fill-opacity:0.75;fill-rule:evenodd;stroke:#000000;stroke-width:1.77165341;stroke-linecap:butt;stroke-linejoin:miter;stroke-miterlimit:4;stroke-dasharray:none;stroke-opacity:1"
       d="M 347.6034,194.41211 C 345.90836,194.30079 346.75792,197.0639 348.781,196.3325 C 350.23028,195.80682 350.70301,194.05516 349.59421,192.95079 C 348.01486,191.49057 346.59732,191.71899 345.27623,192.84628 C 344.41857,194.19443 344.21607,196.08254 345.41718,197.45444 C 346.36679,198.68524 348.03259,199.4645 349.56622,198.94959 C 351.5614,198.48588 353.41419,196.807 353.37824,194.66345 C 353.46795,192.91293 352.55105,191.40691 351.12011,190.0549 C 350.04179,189.20976 348.69668,188.34661 346.92408,188.34389 C 345.34471,188.45351 344.55377,188.62266 342.84291,189.61596 C 341.64049,190.52077 340.68022,192.44652 340.04572,193.92605 C 339.51354,196.20701 340.24194,197.94488 341.40115,199.91134 C 342.08111,201.02766 343.36451,201.70617 344.45311,202.37026 C 345.59924,202.91223 347.11201,203.72624 348.26571,203.91135 C 349.77138,204.02433 349.81074,204.0478 351.63825,203.70966 C 353.85318,203.12182 354.4689,202.65168 355.95496,201.08654 C 357.17144,199.48813 358.0196,198.0321 358.58681,195.83987 C 358.99328,194.07813 358.48209,192.68769 358.24418,190.84977 C 357.28453,188.378 355.82793,187.02014 353.9431,185.72561 C 352.51459,184.71982 350.72377,184.16213 348.99675,183.87903 C 346.84636,183.7366 345.62473,183.90861 343.34701,184.33293 C 342.02744,184.70524 340.84762,184.9243 339.35466,185.48196 C 337.06738,186.32356 336.59812,186.51565 334.67363,187.61767 C 333.28876,188.42186 331.64976,189.39368 330.51556,190.15115"
       id="path2852"
       sodipodi:nodetypes="cccccccccccccccccccccccc" />
    <path
       style="fill:none;fill-opacity:0.75;fill-rule:evenodd;stroke:#000000;stroke-width:1.77165341;stroke-linecap:butt;stroke-linejoin:miter;stroke-miterlimit:4;stroke-dasharray:none;stroke-opacity:1"
       d="M 221.6034,216.40435 C 219.90836,216.51567 220.75792,213.75256 222.781,214.48396 C 224.23028,215.00964 224.70301,216.7613 223.59421,217.86567 C 222.01486,219.32589 220.59732,219.09747 219.27623,217.97018 C 218.41857,216.62203 218.21607,214.73392 219.41718,213.36202 C 220.36679,212.13122 222.03259,211.35196 223.56622,211.86687 C 225.5614,212.33058 227.41419,214.00946 227.37824,216.15301 C 227.46795,217.90353 226.55105,219.40955 225.12011,220.76156 C 224.04179,221.6067 222.69668,222.46985 220.92408,222.47257 C 219.34471,222.36295 218.55377,222.1938 216.84291,221.2005 C 215.64049,220.29569 214.68022,218.36994 214.04572,216.89041 C 213.51354,214.60945 214.24194,212.87158 215.40115,210.90512 C 216.08111,209.7888 217.36451,209.11029 218.45311,208.4462 C 219.59924,207.90423 221.11201,207.09022 222.26571,206.90511 C 223.77138,206.79213 223.81074,206.76866 225.63825,207.1068 C 227.85318,207.69464 228.4689,208.16478 229.95496,209.72992 C 231.17144,211.32833 232.0196,212.78436 232.58681,214.97659 C 232.99328,216.73833 232.48209,218.12877 232.24418,219.96669 C 231.28453,222.43846 229.82793,223.79632 227.9431,225.09085 C 226.51459,226.09664 224.72377,226.65433 222.99675,226.93743 C 220.84636,227.07986 219.62473,226.90785 217.34701,226.48353 C 216.02744,226.11122 214.84762,225.89216 213.35466,225.3345 C 211.06738,224.4929 210.59812,224.30081 208.67363,223.19879 C 207.28876,222.3946 205.64976,221.42278 204.51556,220.66531"
       id="path2854"
       sodipodi:nodetypes="cccccccccccccccccccccccc" />
    <path
       style="fill:none;fill-opacity:0.75;fill-rule:evenodd;stroke:#000000;stroke-width:1.77165341;stroke-linecap:butt;stroke-linejoin:miter;stroke-miterlimit:4;stroke-dasharray:none;stroke-opacity:1"
       d="M 266.6034,215.40435 C 264.90836,215.51567 265.75792,212.75256 267.781,213.48396 C 269.23028,214.00964 269.70301,215.7613 268.59421,216.86567 C 267.01486,218.32589 265.59732,218.09747 264.27623,216.97018 C 263.41857,215.62203 263.21607,213.73392 264.41718,212.36202 C 265.36679,211.13122 267.03259,210.35196 268.56622,210.86687 C 270.5614,211.33058 272.41419,213.00946 272.37824,215.15301 C 272.46795,216.90353 271.55105,218.40955 270.12011,219.76156 C 269.04179,220.6067 267.69668,221.46985 265.92408,221.47257 C 264.34471,221.36295 263.55377,221.1938 261.84291,220.2005 C 260.64049,219.29569 259.68022,217.36994 259.04572,215.89041 C 258.51354,213.60945 259.24194,211.87158 260.40115,209.90512 C 261.08111,208.7888 262.36451,208.11029 263.45311,207.4462 C 264.59924,206.90423 266.11201,206.09022 267.26571,205.90511 C 268.77138,205.79213 268.81074,205.76866 270.63825,206.1068 C 272.85318,206.69464 273.4689,207.16478 274.95496,208.72992 C 276.17144,210.32833 277.0196,211.78436 277.58681,213.97659 C 277.99328,215.73833 277.48209,217.12877 277.24418,218.96669 C 276.28453,221.43846 274.82793,222.79632 272.9431,224.09085 C 271.51459,225.09664 269.72377,225.65433 267.99675,225.93743 C 265.84636,226.07986 264.62473,225.90785 262.34701,225.48353 C 261.02744,225.11122 259.84762,224.89216 258.35466,224.3345 C 256.06738,223.4929 255.59812,223.30081 253.67363,222.19879 C 252.28876,221.3946 250.64976,220.42278 249.51556,219.66531"
       id="path2858"
       sodipodi:nodetypes="cccccccccccccccccccccccc" />
    <path
       style="fill:none;fill-opacity:0.75;fill-rule:evenodd;stroke:#000000;stroke-width:1.77165341;stroke-linecap:butt;stroke-linejoin:miter;stroke-miterlimit:4;stroke-dasharray:none;stroke-opacity:1"
       d="M 319.6034,217.40435 C 317.90836,217.51567 318.75792,214.75256 320.781,215.48396 C 322.23028,216.00964 322.70301,217.7613 321.59421,218.86567 C 320.01486,220.32589 318.59732,220.09747 317.27623,218.97018 C 316.41857,217.62203 316.21607,215.73392 317.41718,214.36202 C 318.36679,213.13122 320.03259,212.35196 321.56622,212.86687 C 323.5614,213.33058 325.41419,215.00946 325.37824,217.15301 C 325.46795,218.90353 324.55105,220.40955 323.12011,221.76156 C 322.04179,222.6067 320.69668,223.46985 318.92408,223.47257 C 317.34471,223.36295 316.55377,223.1938 314.84291,222.2005 C 313.64049,221.29569 312.68022,219.36994 312.04572,217.89041 C 311.51354,215.60945 312.24194,213.87158 313.40115,211.90512 C 314.08111,210.7888 315.36451,210.11029 316.45311,209.4462 C 317.59924,208.90423 319.11201,208.09022 320.26571,207.90511 C 321.77138,207.79213 321.81074,207.76866 323.63825,208.1068 C 325.85318,208.69464 326.4689,209.16478 327.95496,210.72992 C 329.17144,212.32833 330.0196,213.78436 330.58681,215.97659 C 330.99328,217.73833 330.48209,219.12877 330.24418,220.96669 C 329.28453,223.43846 327.82793,224.79632 325.9431,226.09085 C 324.51459,227.09664 322.72377,227.65433 320.99675,227.93743 C 318.84636,228.07986 317.62473,227.90785 315.34701,227.48353 C 314.02744,227.11122 312.84762,226.89216 311.35466,226.3345 C 309.06738,225.4929 308.59812,225.30081 306.67363,224.19879 C 305.28876,223.3946 303.64976,222.42278 302.51556,221.66531"
       id="path2860"
       sodipodi:nodetypes="cccccccccccccccccccccccc" />
    <path
       style="fill:none;fill-opacity:0.75;fill-rule:evenodd;stroke:#000000;stroke-width:1.77165341;stroke-linecap:butt;stroke-linejoin:miter;stroke-miterlimit:4;stroke-dasharray:none;stroke-opacity:1"
       d="M 376.6034,212.40435 C 374.90836,212.51567 375.75792,209.75256 377.781,210.48396 C 379.23028,211.00964 379.70301,212.7613 378.59421,213.86567 C 377.01486,215.32589 375.59732,215.09747 374.27623,213.97018 C 373.41857,212.62203 373.21607,210.73392 374.41718,209.36202 C 375.36679,208.13122 377.03259,207.35196 378.56622,207.86687 C 380.5614,208.33058 382.41419,210.00946 382.37824,212.15301 C 382.46795,213.90353 381.55105,215.40955 380.12011,216.76156 C 379.04179,217.6067 377.69668,218.46985 375.92408,218.47257 C 374.34471,218.36295 373.55377,218.1938 371.84291,217.2005 C 370.64049,216.29569 369.68022,214.36994 369.04572,212.89041 C 368.51354,210.60945 369.24194,208.87158 370.40115,206.90512 C 371.08111,205.7888 372.36451,205.11029 373.45311,204.4462 C 374.59924,203.90423 376.11201,203.09022 377.26571,202.90511 C 378.77138,202.79213 378.81074,202.76866 380.63825,203.1068 C 382.85318,203.69464 383.4689,204.16478 384.95496,205.72992 C 386.17144,207.32833 387.0196,208.78436 387.58681,210.97659 C 387.99328,212.73833 387.48209,214.12877 387.24418,215.96669 C 386.28453,218.43846 384.82793,219.79632 382.9431,221.09085 C 381.51459,222.09664 379.72377,222.65433 377.99675,222.93743 C 375.84636,223.07986 374.62473,222.90785 372.34701,222.48353 C 371.02744,222.11122 369.84762,221.89216 368.35466,221.3345 C 366.06738,220.4929 365.59812,220.30081 363.67363,219.19879 C 362.28876,218.3946 360.64976,217.42278 359.51556,216.66531"
       id="path2862"
       sodipodi:nodetypes="cccccccccccccccccccccccc" />
    <path
       style="fill:none;fill-opacity:0.75;fill-rule:evenodd;stroke:#000000;stroke-width:1.77165353;stroke-linecap:butt;stroke-linejoin:miter;marker-end:url(#Arrow2Mend);stroke-miterlimit:4;stroke-dasharray:none;stroke-opacity:1"
       d="M 96.896932,205.92526 L 130.89693,205.92526"
       id="path2914" />
    <path
       style="fill:none;fill-opacity:0.75;fill-rule:evenodd;stroke:#000000;stroke-width:1.77165353;stroke-linecap:butt;stroke-linejoin:miter;marker-end:url(#Arrow2Mend);stroke-miterlimit:4;stroke-dasharray:none;stroke-opacity:1"
       d="M 96.896932,223.92526 L 130.89693,223.92526"
       id="path3100" />
    <path
       style="fill:none;fill-opacity:0.75;fill-rule:evenodd;stroke:#000000;stroke-width:1.77165353;stroke-linecap:butt;stroke-linejoin:miter;marker-end:url(#Arrow2Mend);stroke-miterlimit:4;stroke-dasharray:none;stroke-opacity:1"
       d="M 96.896932,187.92526 L 130.89693,187.92526"
       id="path3102" />
    <path
       style="fill:none;fill-opacity:0.75;fill-rule:evenodd;stroke:#000000;stroke-width:1.77165353;stroke-linecap:butt;stroke-linejoin:miter;marker-end:url(#Arrow2Mend);stroke-miterlimit:4;stroke-dasharray:none;stroke-opacity:1"
       d="M 96.896932,169.92526 L 130.89693,169.92526"
       id="path3104" />
    <path
       style="fill:none;fill-opacity:0.75;fill-rule:evenodd;stroke:#000000;stroke-width:1.77165353;stroke-linecap:butt;stroke-linejoin:miter;marker-end:url(#Arrow2Mend);stroke-miterlimit:4;stroke-dasharray:none;stroke-opacity:1"
       d="M 96.896932,241.92526 L 130.89693,241.92526"
       id="path3106" />
    <path
       style="fill:none;fill-opacity:0.75;fill-rule:evenodd;stroke:#000000;stroke-width:1.77165353;stroke-linecap:butt;stroke-linejoin:miter;marker-end:url(#Arrow2Mend);stroke-miterlimit:4;stroke-dasharray:none;stroke-opacity:1"
       d="M 96.896932,259.92526 L 130.89693,259.92526"
       id="path3108" />
    <path
       style="fill:none;fill-opacity:0.75;fill-rule:evenodd;stroke:#000000;stroke-width:1.77165353;stroke-linecap:butt;stroke-linejoin:miter;marker-end:url(#Arrow2Mend);stroke-miterlimit:4;stroke-dasharray:none;stroke-opacity:1"
       d="M 96.896932,151.92526 L 130.89693,151.92526"
       id="path3110" />
    <path
       sodipodi:type="arc"
       style="fill:none;fill-opacity:1;stroke:#000000;stroke-width:1.60148954;stroke-miterlimit:4;stroke-dasharray:none;stroke-dashoffset:0;stroke-opacity:1"
       id="path3112"
       sodipodi:cx="253.5"
       sodipodi:cy="195.86218"
       sodipodi:rx="258.5"
       sodipodi:ry="109.5"
       d="M 512,195.86218 A 258.5,109.5 0 1 1 -5,195.86218 A 258.5,109.5 0 1 1 512,195.86218 z"
       transform="matrix(0.956076,0,0,1.280021,2.7180238,-46.006615)" />
    <text
       xml:space="preserve"
       style="font-size:12px;font-style:normal;font-weight:normal;fill:#000000;fill-opacity:1;stroke:none;stroke-width:1px;stroke-linecap:butt;stroke-linejoin:miter;stroke-opacity:1;font-family:Arial"
       x="195.18466"
       y="258.7775"
       id="text3114"><tspan
         sodipodi:role="line"
         id="tspan3116"
         x="195.18466"
         y="258.7775"
         style="font-size:28px">Γ</tspan></text>
    <text
       xml:space="preserve"
       style="font-size:12px;font-style:normal;font-weight:normal;fill:#000000;fill-opacity:1;stroke:none;stroke-width:1px;stroke-linecap:butt;stroke-linejoin:miter;stroke-opacity:1;font-family:Arial"
       x="33.615757"
       y="162.66426"
       id="text3118"><tspan
         sodipodi:role="line"
         id="tspan3120"
         x="33.615757"
         y="162.66426"
         style="font-size:28px">Ω</tspan></text>
    <text
       xml:space="preserve"
       style="font-size:12px;font-style:normal;font-weight:normal;fill:#000000;fill-opacity:1;stroke:none;stroke-width:1px;stroke-linecap:butt;stroke-linejoin:miter;stroke-opacity:1;font-family:Arial"
       x="363.83334"
       y="259.29568"
       id="text3122"><tspan
         sodipodi:role="line"
         id="tspan3124"
         x="363.83334"
         y="259.29568"
         style="font-size:28px">Ω</tspan></text>
    <text
       xml:space="preserve"
       style="font-size:12px;font-style:normal;font-weight:normal;fill:#000000;fill-opacity:1;stroke:none;stroke-width:1px;stroke-linecap:butt;stroke-linejoin:miter;stroke-opacity:1;font-family:Arial"
       x="419.6384"
       y="230.17285"
       id="text3126"><tspan
         sodipodi:role="line"
         id="tspan3128"
         x="419.6384"
         y="230.17285"
         style="font-size:28px">Γ</tspan></text>
    <path
       style="fill:none;fill-opacity:0.75;fill-rule:evenodd;stroke:#000000;stroke-width:1.77165353;stroke-linecap:butt;stroke-linejoin:miter;marker-end:url(#Dot_m);stroke-miterlimit:4;stroke-dasharray:none;stroke-opacity:1"
       d="M 443.39888,225.01315 L 481.86796,242.50888"
       id="path3130"
       sodipodi:nodetypes="cc" />
    <text
       xml:space="preserve"
       style="font-size:12px;font-style:normal;font-weight:normal;fill:#000000;fill-opacity:1;stroke:none;stroke-width:1px;stroke-linecap:butt;stroke-linejoin:miter;stroke-opacity:1;font-family:Arial"
       x="433.3775"
       y="234.80823"
       id="text3134"><tspan
         sodipodi:role="line"
         id="tspan3136"
         x="433.3775"
         y="234.80823"
         style="font-size:14px">I</tspan></text>
    <text
       xml:space="preserve"
       style="font-size:12px;font-style:normal;font-weight:normal;fill:#000000;fill-opacity:1;stroke:none;stroke-width:1px;stroke-linecap:butt;stroke-linejoin:miter;stroke-opacity:1;font-family:Arial"
       x="209.45847"
       y="262.89673"
       id="text3138"><tspan
         sodipodi:role="line"
         id="tspan3140"
         x="209.45847"
         y="262.89673"
         style="font-size:14px">S</tspan></text>
    <path
       style="fill:none;fill-opacity:0.75;fill-rule:evenodd;stroke:#000000;stroke-width:1.77165353;stroke-linecap:butt;stroke-linejoin:miter;marker-end:url(#Dot_m);stroke-miterlimit:4;stroke-dasharray:none;stroke-opacity:1"
       d="M 189.31597,244.77338 L 163.43406,216.8285"
       id="path3142"
       sodipodi:nodetypes="cc" />
    <text
       xml:space="preserve"
       style="font-size:12px;font-style:normal;font-weight:normal;fill:#000000;fill-opacity:1;stroke:none;stroke-width:1px;stroke-linecap:butt;stroke-linejoin:miter;stroke-opacity:1;font-family:Arial"
       x="386.345"
       y="263.26053"
       id="text3144"><tspan
         sodipodi:role="line"
         id="tspan3146"
         x="386.345"
         y="263.26053"
         style="font-size:14px">1</tspan></text>
    <text
       xml:space="preserve"
       style="font-size:12px;font-style:normal;font-weight:normal;fill:#000000;fill-opacity:1;stroke:none;stroke-width:1px;stroke-linecap:butt;stroke-linejoin:miter;stroke-opacity:1;font-family:Arial"
       x="56.385914"
       y="166.24168"
       id="text3148"><tspan
         sodipodi:role="line"
         id="tspan3150"
         x="56.385914"
         y="166.24168"
         style="font-size:14px">2</tspan></text>
    <g
       id="g3371"
       transform="translate(8.6271818,5.5460455)">
      <path
         sodipodi:open="true"
         sodipodi:end="1.5707963"
         sodipodi:start="0"
         transform="matrix(-0.922246,-0.707107,0.922246,-0.707107,133.3792,286.247)"
         d="M 86.27182,147.45059 A 77.336525,77.336525 0 0 1 8.9352972,224.78712"
         sodipodi:ry="77.336525"
         sodipodi:rx="77.336525"
         sodipodi:cy="147.45059"
         sodipodi:cx="8.9352951"
         id="path3361"
         style="opacity:1;fill:none;fill-opacity:1;stroke:#000000;stroke-width:0.62052298;stroke-miterlimit:4;stroke-dasharray:none;stroke-dashoffset:0;stroke-opacity:1"
         sodipodi:type="arc" />
      <path
         sodipodi:open="true"
         sodipodi:end="1.5707963"
         sodipodi:start="0"
         transform="matrix(-0.922246,-0.707107,0.922246,-0.707107,133.3792,273.035)"
         d="M 86.27182,147.45059 A 77.336525,77.336525 0 0 1 8.9352972,224.78712"
         sodipodi:ry="77.336525"
         sodipodi:rx="77.336525"
         sodipodi:cy="147.45059"
         sodipodi:cx="8.9352951"
         id="path3363"
         style="opacity:1;fill:none;fill-opacity:1;stroke:#000000;stroke-width:0.62052298;stroke-miterlimit:4;stroke-dasharray:none;stroke-dashoffset:0;stroke-opacity:1"
         sodipodi:type="arc" />
      <path
         sodipodi:open="true"
         sodipodi:end="1.5707963"
         sodipodi:start="0"
         transform="matrix(-0.922246,-0.707107,0.922246,-0.707107,133.3792,259.823)"
         d="M 86.27182,147.45059 A 77.336525,77.336525 0 0 1 8.9352972,224.78712"
         sodipodi:ry="77.336525"
         sodipodi:rx="77.336525"
         sodipodi:cy="147.45059"
         sodipodi:cx="8.9352951"
         id="path3365"
         style="opacity:1;fill:none;fill-opacity:1;stroke:#000000;stroke-width:0.62052298;stroke-miterlimit:4;stroke-dasharray:none;stroke-dashoffset:0;stroke-opacity:1"
         sodipodi:type="arc" />
    </g>
    <g
       id="g3376"
       transform="matrix(1,0,0,-1,8.6271818,404.08805)">
      <path
         sodipodi:open="true"
         sodipodi:end="1.5707963"
         sodipodi:start="0"
         transform="matrix(-0.922246,-0.707107,0.922246,-0.707107,133.3792,286.247)"
         d="M 86.27182,147.45059 A 77.336525,77.336525 0 0 1 8.9352972,224.78712"
         sodipodi:ry="77.336525"
         sodipodi:rx="77.336525"
         sodipodi:cy="147.45059"
         sodipodi:cx="8.9352951"
         id="path3378"
         style="opacity:1;fill:none;fill-opacity:1;stroke:#000000;stroke-width:0.62052298;stroke-miterlimit:4;stroke-dasharray:none;stroke-dashoffset:0;stroke-opacity:1"
         sodipodi:type="arc" />
      <path
         sodipodi:open="true"
         sodipodi:end="1.5707963"
         sodipodi:start="0"
         transform="matrix(-0.922246,-0.707107,0.922246,-0.707107,133.3792,273.035)"
         d="M 86.27182,147.45059 A 77.336525,77.336525 0 0 1 8.9352972,224.78712"
         sodipodi:ry="77.336525"
         sodipodi:rx="77.336525"
         sodipodi:cy="147.45059"
         sodipodi:cx="8.9352951"
         id="path3380"
         style="opacity:1;fill:none;fill-opacity:1;stroke:#000000;stroke-width:0.62052298;stroke-miterlimit:4;stroke-dasharray:none;stroke-dashoffset:0;stroke-opacity:1"
         sodipodi:type="arc" />
      <path
         sodipodi:open="true"
         sodipodi:end="1.5707963"
         sodipodi:start="0"
         transform="matrix(-0.922246,-0.707107,0.922246,-0.707107,133.3792,259.823)"
         d="M 86.27182,147.45059 A 77.336525,77.336525 0 0 1 8.9352972,224.78712"
         sodipodi:ry="77.336525"
         sodipodi:rx="77.336525"
         sodipodi:cy="147.45059"
         sodipodi:cx="8.9352951"
         id="path3382"
         style="opacity:1;fill:none;fill-opacity:1;stroke:#000000;stroke-width:0.62052298;stroke-miterlimit:4;stroke-dasharray:none;stroke-dashoffset:0;stroke-opacity:1"
         sodipodi:type="arc" />
    </g>
  </g>
</svg>
