<?xml version="1.0" encoding="UTF-8" standalone="no"?>
<svg
   xmlns:dc="http://purl.org/dc/elements/1.1/"
   xmlns:cc="http://creativecommons.org/ns#"
   xmlns:rdf="http://www.w3.org/1999/02/22-rdf-syntax-ns#"
   xmlns:svg="http://www.w3.org/2000/svg"
   xmlns="http://www.w3.org/2000/svg"
   xmlns:xlink="http://www.w3.org/1999/xlink"
   xmlns:sodipodi="http://sodipodi.sourceforge.net/DTD/sodipodi-0.dtd"
   xmlns:inkscape="http://www.inkscape.org/namespaces/inkscape"
   inkscape:version="1.0beta1 (32d4812, 2019-09-19)"
   sodipodi:docname="openCFS_min_blackblack.svg"
   version="1.1"
   id="Layer_1"
   x="0px"
   y="0px"
   width="182.108px"
   height="117.066px"
   viewBox="0 0 182.108 117.066"
   enable-background="new 0 0 182.108 117.066"
   xml:space="preserve"><sodipodi:namedview
   inkscape:current-layer="g6"
   inkscape:window-maximized="0"
   inkscape:window-y="23"
   inkscape:window-x="0"
   inkscape:cy="55.575872"
   inkscape:cx="111.85968"
   inkscape:zoom="3.7746852"
   showgrid="false"
   id="namedview948"
   inkscape:window-height="785"
   inkscape:window-width="1440"
   inkscape:pageshadow="2"
   inkscape:pageopacity="0"
   guidetolerance="10"
   gridtolerance="10"
   objecttolerance="10"
   borderopacity="1"
   inkscape:document-rotation="0"
   bordercolor="#666666"
   pagecolor="#ffffff" />
<metadata
   id="metadata129">
  <rdf:RDF>
    <cc:Work
       rdf:about="">
      <dc:format>image/svg+xml</dc:format>
      <dc:type
         rdf:resource="http://purl.org/dc/dcmitype/StillImage" />
      <dc:title />
    </cc:Work>
  </rdf:RDF>
</metadata>
<defs
   id="defs127"><linearGradient
   id="orange">
  <stop
     style="stop-color:#ffbe4a;stop-opacity:1;"
     offset="0"
     id="stop1598" />
  <stop
     style="stop-color:#ffbe4a;stop-opacity:0;"
     offset="1"
     id="stop1600" />
</linearGradient>
<linearGradient
   id="red">
  <stop
     id="stop1564"
     offset="0"
     style="stop-color:#fe6848;stop-opacity:1;" />
  <stop
     id="stop1566"
     offset="1"
     style="stop-color:#fe6848;stop-opacity:0;" />
</linearGradient>

		<linearGradient
   xlink:href="#red"
   id="linearGradient1562"
   x1="99.833817"
   y1="-22.124479"
   x2="216.50819"
   y2="-22.124479"
   gradientUnits="userSpaceOnUse"
   gradientTransform="matrix(-1,0,0,1,303.68833,-7.6294247)" />
<linearGradient
   xlink:href="#orange"
   id="linearGradient1604"
   x1="145.51732"
   y1="3.9272155"
   x2="262.19169"
   y2="3.9272155"
   gradientUnits="userSpaceOnUse"
   gradientTransform="translate(-58.337182,-33.681119)" />
</defs>

<g
   id="g66">
	<g
   id="g1608"
   transform="translate(-56.4756,64.384004)">
  <path
     inkscape:connector-curvature="0"
     id="rect1211-7-1"
     d="M 203.85451,-60.64377 H 87.180138 V 1.1359627 H 203.85451 Z"
     style="opacity:1;fill:url(#linearGradient1604);fill-opacity:1;fill-rule:nonzero;stroke:none;stroke-width:2.64567;stroke-miterlimit:4;stroke-dasharray:none;stroke-dashoffset:0;stroke-opacity:1" />
  <path
     inkscape:connector-curvature="0"
     id="rect1211-7"
     d="M 203.85451,-60.64377 H 87.180136 V 1.1359624 H 203.85451 Z"
     style="opacity:1;fill:url(#linearGradient1562);fill-opacity:1;fill-rule:nonzero;stroke:none;stroke-width:2.64567;stroke-miterlimit:4;stroke-dasharray:none;stroke-dashoffset:0;stroke-opacity:1" />
</g>
<g
   id="g6">
		<text
   y="95.436623"
   x="21.895365"
   font-size="34.2683"
   id="text2"
   font-family="'Montserrat-Regular'"
   fill="#2A7CC2"
   style="font-size:26.6667px;fill:#000000;fill-opacity:1"><tspan
     id="tspan950"
     style="font-style:normal;font-variant:normal;font-weight:bold;font-stretch:normal;font-family:Montserrat-Regular;-inkscape-font-specification:'Montserrat-Regular Bold'">open</tspan></text>




		<text
   y="96.032143"
   x="94.572105"
   style="font-size:33.3333px"
   font-size="46.943"
   id="text4"
   font-family="'Montserrat-Regular'"><tspan
     id="tspan952"
     style="font-style:normal;font-variant:normal;font-weight:bold;font-stretch:normal;font-family:Montserrat-Regular;-inkscape-font-specification:'Montserrat-Regular Bold'">CFS</tspan></text>




	</g>

	
<path
   inkscape:connector-curvature="0"
   style="opacity:1;fill:#ffffff;fill-opacity:1;fill-rule:nonzero;stroke:none;stroke-width:2.77773;stroke-miterlimit:4;stroke-dasharray:none;stroke-dashoffset:0;stroke-opacity:1"
   d="M 30.703125,3.7402344 V 69.97876 H 150.66322 V 3.7402344 Z M 92.470382,7.628858 c 0.483744,-7.055e-4 1.347064,0.3230839 1.897658,0.8062036 0.603164,0.5292521 1.086395,1.3503614 1.214903,2.0647194 0.190917,1.061204 0.748344,1.579571 5.305407,4.933546 4.55267,3.350742 5.24406,3.857137 5.63273,4.066617 0.50663,-0.375514 1.41878,-0.697539 1.9077,-0.569577 0.48893,0.12796 1.1796,0.277398 1.69082,1.268985 0.4409,1.226848 0.37548,1.787446 0.3715,1.987239 -0.003,0.135733 1.20181,1.013179 6.48819,4.598502 3.18756,2.16187 5.92304,3.980187 6.07853,4.041488 0.1555,0.06131 2.16789,-1.622527 4.47205,-3.74204 3.90875,-3.595525 4.6919,-4.099258 4.66883,-4.167131 -0.62888,-1.850517 -0.15482,-2.652437 0.16667,-3.164088 0.32149,-0.51165 1.10425,-1.157835 1.73903,-1.434413 0.89588,-0.390347 1.3946,-0.419086 2.22899,-0.131924 0.59122,0.203466 1.39755,0.729263 1.79324,1.168472 0.39569,0.43921 0.80322,1.337323 0.90565,1.995615 0.12008,0.77156 -0.003,1.57804 -0.3474,2.272028 -0.29362,0.592106 -0.9887,1.322222 -1.54624,1.622877 -0.57433,0.309705 -2.14347,0.419992 -3.1708,-0.03141 -0.75565,0.74987 -0.60789,0.574169 -4.49414,4.085464 -2.43068,2.196162 -3.51451,3.204074 -4.12665,3.880247 0.12074,0.212363 2.48067,3.501016 4.9801,7.017113 2.49942,3.516098 4.91485,6.64491 5.36766,6.954291 0.56569,0.386514 0.82332,0.875105 0.82332,1.560057 0,0.548266 -0.23373,1.238405 -0.51808,1.534928 -0.28436,0.296525 -0.93204,0.540261 -1.43981,0.540261 -0.50779,0 -1.07009,-0.193406 -1.25106,-0.429278 -0.18096,-0.235872 -0.43683,-0.793265 -0.56828,-1.239669 -0.13146,-0.446401 -2.16905,-3.534601 -4.52828,-6.862154 -2.35922,-3.327551 -4.7354,-6.752377 -4.97006,-7.017112 -0.52837,0.326545 -1.01241,0.808189 -5.48212,5.088505 -4.39248,4.206357 -5.08811,4.91327 -5.38172,5.249748 0.53535,1.154199 0.56149,1.754718 0.6667,2.355789 0.10521,0.601075 0.0228,1.602899 -0.18475,2.223866 l -0.37753,1.128685 3.21699,3.164087 c 1.9915,1.959399 3.49117,3.170363 3.9399,3.18084 0.39863,0.0093 1.08721,0.188361 1.52816,0.397867 0.44095,0.209506 0.9658,0.758917 1.16671,1.218728 0.20091,0.459812 0.36547,1.147705 0.36547,1.53074 0,0.383024 -0.43293,1.148781 -0.96188,1.700357 -0.57983,0.604573 -1.30903,1.003042 -1.8354,1.003043 -0.52637,0 -1.25564,-0.39847 -1.83541,-1.003043 -0.52894,-0.551576 -0.96189,-1.366218 -0.96189,-1.81134 0,-0.58386 -0.91331,-1.695792 -3.28123,-3.989139 -2.83423,-2.744961 -3.02989,-2.906374 -3.2692,-3.063573 -0.35427,0.197714 -1.96882,0.603083 -2.78323,0.603082 -0.81441,0 -1.87814,-0.157259 -2.36354,-0.349703 -0.4854,-0.192448 -1.27067,-0.784119 -1.74705,-1.315055 l -0.8675,-0.96535 -3.783265,1.082616 c -2.080973,0.595784 -5.300091,1.515902 -7.154872,2.043779 -2.382715,0.678128 -3.373614,1.112191 -3.373614,1.478388 0,0.285065 -0.297919,1.022087 -0.662675,1.637536 -0.364767,0.615448 -1.199145,1.382851 -1.853479,1.706639 -0.769087,0.38058 -1.592539,0.520807 -2.331408,0.395773 -0.628631,-0.106357 -1.497057,-0.434431 -1.92778,-0.728725 -0.430722,-0.294304 -1.040465,-0.945639 -1.355469,-1.446978 -0.315015,-0.501338 -0.5836,-1.583729 -0.598416,-2.406047 -0.02663,-1.475536 -0.0656,-1.523564 -2.919783,-3.691784 l -2.891669,-2.196643 -1.365509,0.74757 c -1.02087,0.559678 -1.93911,0.749665 -3.636676,0.749665 H 66.66826 l -2.417757,3.771358 c -1.946256,3.036188 -2.417756,4.025442 -2.417756,5.075942 0,0.927931 -0.232966,1.547506 -0.807259,2.146386 -0.497263,0.518532 -1.185555,0.841803 -1.791228,0.841802 -0.560536,0 -1.37295,-0.34904 -1.889626,-0.812486 -0.690453,-0.619314 -0.907662,-1.120251 -0.907662,-2.102412 0,-0.982159 0.217209,-1.485187 0.907662,-2.104504 0.498673,-0.447292 1.157334,-0.816752 1.463908,-0.820862 0.343516,-0.0046 1.527227,-1.541103 3.086456,-4.00589 l 2.53021,-3.999608 -0.60444,-0.885777 c -0.33239,-0.486781 -0.774639,-1.54719 -0.98397,-2.357884 -0.209342,-0.810693 -0.336048,-1.801958 -0.281134,-2.200831 0.0877,-0.637202 -0.553568,-1.009112 -5.289346,-3.071949 -4.105419,-1.788258 -5.496201,-2.256513 -5.831531,-1.9663 -0.242151,0.209562 -0.962503,0.395762 -1.600459,0.414619 -0.696551,0.02059 -1.520245,-0.246892 -2.064331,-0.667997 -0.498303,-0.385681 -1.032121,-1.22552 -1.184781,-1.867879 -0.170487,-0.717333 -0.143688,-1.525572 0.06828,-2.094035 0.189827,-0.509051 0.740445,-1.194796 1.222935,-1.524458 0.482479,-0.329663 1.408714,-0.584651 2.060314,-0.56539 0.885452,0.02617 1.41552,0.304402 2.098468,1.101463 0.50259,0.586556 0.913688,1.277096 0.913688,1.534927 0,0.279501 2.078244,1.387365 5.144761,2.741093 2.828777,1.248773 5.322958,2.269934 5.542365,2.269934 0.219397,0 0.679426,-0.33096 1.024133,-0.735007 0.344718,-0.404046 1.220028,-1.018709 1.943845,-1.36531 0.723817,-0.346602 1.908807,-0.626067 2.632624,-0.621929 0.723816,0.0042 1.906798,0.227837 2.630614,0.498381 l 1.317316,0.492098 3.694911,-3.850931 c 3.660848,-3.815531 3.096715,-3.290925 3.861584,-4.001702 l -0.576326,-2.468867 -6.548426,-3.417466 c -6.172949,-3.221615 -6.589376,-3.387663 -7.265323,-2.893954 -0.394346,0.288031 -1.289162,0.523509 -1.990031,0.523509 -0.700868,0 -1.696354,-0.258889 -2.210922,-0.57586 -0.514568,-0.31697 -1.188366,-1.06719 -1.498045,-1.666851 -0.403219,-0.780768 -0.508271,-1.517469 -0.369491,-2.596605 0.140599,-1.093336 0.469829,-1.764434 1.198838,-2.443738 0.552641,-0.514959 1.404199,-1.040899 1.891634,-1.168472 0.506384,-0.132534 1.445888,-0.02417 2.192849,0.251284 0.719005,0.265136 1.594646,0.887146 1.945852,1.382063 0.351216,0.494916 0.736571,1.402283 0.857461,2.01865 0.206915,1.054996 0.596529,1.323652 6.642806,4.577561 l 6.925949,3.905376 1.008068,-0.82505 c 0.653522,-0.323388 0.821321,-0.451935 1.694839,-0.412525 0.147744,0.0066 0.969449,-1.944656 2.568364,-5.446586 1.270793,-2.783292 2.482065,-5.592817 2.473984,-5.875862 -0.402826,-0.794288 -0.371678,-0.726093 -0.463871,-1.461638 -0.116108,-0.610852 -0.05736,-1.366926 0.05823,-1.8469386 0.115533,-0.4800127 0.687881,-1.1766551 1.27113,-1.5474922 0.583248,-0.3708371 1.438011,-0.6044707 1.921755,-0.6051762 z m 1.967941,6.183687 c -1.036922,0.663814 -1.716406,0.479429 -2.020151,0.552825 -0.0652,0.01576 -0.551662,1.262336 -2.465952,5.563852 -1.897263,4.263271 -2.286407,5.413558 -1.998062,5.896803 0.197024,0.330221 0.433929,0.597566 0.526123,0.592612 0.09222,-0.0049 3.618412,-0.916598 7.837627,-2.024932 4.219222,-1.108333 7.764872,-2.110313 7.877782,-2.228054 -0.0306,-0.205026 -0.0324,-0.209032 0.0181,-0.513038 -0.26066,-0.266599 -7.244093,-5.92146 -9.775446,-7.840068 z m 11.381927,11.487877 c -0.23614,-0.0945 -4.16651,0.795895 -8.733238,1.978863 -4.56673,1.182968 -8.388666,2.239386 -8.494278,2.349509 -0.105602,0.110122 0.291866,0.631328 0.883566,1.158001 0.59169,0.526675 4.193734,3.673411 8.004301,6.991984 6.626439,5.77088 6.967359,6.017148 7.847669,5.670648 l 0.92172,-0.362268 v -8.807513 c 0,-6.928326 -0.0919,-8.84408 -0.42974,-8.979224 z m 3.63668,0.104706 c -0.13572,-0.0034 -0.24699,3.994576 -0.24699,8.884991 0,6.805933 0.0969,8.924944 0.41166,9.037856 0.22619,0.08113 0.87091,-0.253402 1.43378,-0.743382 0.56286,-0.489979 3.03954,-2.815765 5.5022,-5.170172 l 4.47607,-4.280209 -5.66486,-3.861401 c -3.11602,-2.123704 -5.77615,-3.864222 -5.91186,-3.867683 z m -23.167491,7.094591 c -0.351616,0.140703 -0.439774,2.003004 -0.439774,9.293329 v 9.115336 l 1.066303,0.925563 c 0.585469,0.50969 1.214053,0.871866 1.39764,0.80411 0.183586,-0.06776 3.28097,-0.967971 6.883779,-2.001897 3.602819,-1.033931 6.934473,-1.995426 6.956073,-2.200832 0.0655,-0.622887 0.274,-1.720881 0.68075,-2.091942 -0.68599,-0.529476 -0.79074,-0.618604 -8.237246,-7.134377 -4.476726,-3.917179 -8.057356,-6.809396 -8.307525,-6.70929 z m -3.433857,0.102604 c -0.118546,0 -1.927248,1.703806 -4.018215,3.786016 l -3.80134,3.786016 0.510058,1.273174 c 0.357703,0.892727 0.462038,1.921038 0.345394,3.436312 l -0.166672,2.163138 2.841466,2.196644 c 2.037555,1.574982 3.02841,2.142092 3.500124,1.999803 0.361909,-0.109166 0.679213,-0.219172 0.704845,-0.242908 0.0256,-0.02374 0.103163,-4.172374 0.172697,-9.220038 0.0695,-5.047663 0.03019,-9.178157 -0.08836,-9.178157 z"
   id="rect1211" />
</g>





</svg>
