<?xml version="1.0" encoding="UTF-8" standalone="no"?>
<!-- Generated by graphviz version 2.24.0 (20090616.2323)
 -->

<!-- Title: G Pages: 1 -->

<svg
   xmlns:dc="http://purl.org/dc/elements/1.1/"
   xmlns:cc="http://creativecommons.org/ns#"
   xmlns:rdf="http://www.w3.org/1999/02/22-rdf-syntax-ns#"
   xmlns:svg="http://www.w3.org/2000/svg"
   xmlns="http://www.w3.org/2000/svg"
   xmlns:sodipodi="http://sodipodi.sourceforge.net/DTD/sodipodi-0.dtd"
   xmlns:inkscape="http://www.inkscape.org/namespaces/inkscape"
   width="292pt"
   height="264pt"
   viewBox="0.00 0.00 292.00 264.00"
   id="svg5080"
   version="1.1"
   inkscape:version="0.48.0 r9654"
   sodipodi:docname="hdf5_io.svg">
  <metadata
     id="metadata5199">
    <rdf:RDF>
      <cc:Work
         rdf:about="">
        <dc:format>image/svg+xml</dc:format>
        <dc:type
           rdf:resource="http://purl.org/dc/dcmitype/StillImage" />
      </cc:Work>
    </rdf:RDF>
  </metadata>
  <defs
     id="defs5197">
    <marker
       inkscape:stockid="Arrow1Lstart"
       orient="auto"
       refY="0.0"
       refX="0.0"
       id="Arrow1Lstart"
       style="overflow:visible">
      <path
         id="path6189"
         d="M 0.0,0.0 L 5.0,-5.0 L -12.5,0.0 L 5.0,5.0 L 0.0,0.0 z "
         style="fill-rule:evenodd;stroke:#000000;stroke-width:1.0pt;marker-start:none"
         transform="scale(0.8) translate(12.5,0)" />
    </marker>
    <marker
       inkscape:stockid="Arrow2Mend"
       orient="auto"
       refY="0.0"
       refX="0.0"
       id="Arrow2Mend"
       style="overflow:visible;">
      <path
         id="path6216"
         style="font-size:12.0;fill-rule:evenodd;stroke-width:0.62500000;stroke-linejoin:round;"
         d="M 8.7185878,4.0337352 L -2.2072895,0.016013256 L 8.7185884,-4.0017078 C 6.9730900,-1.6296469 6.9831476,1.6157441 8.7185878,4.0337352 z "
         transform="scale(0.6) rotate(180) translate(0,0)" />
    </marker>
    <marker
       inkscape:stockid="Arrow2Mstart"
       orient="auto"
       refY="0.0"
       refX="0.0"
       id="Arrow2Mstart"
       style="overflow:visible">
      <path
         id="path6213"
         style="font-size:12.0;fill-rule:evenodd;stroke-width:0.62500000;stroke-linejoin:round"
         d="M 8.7185878,4.0337352 L -2.2072895,0.016013256 L 8.7185884,-4.0017078 C 6.9730900,-1.6296469 6.9831476,1.6157441 8.7185878,4.0337352 z "
         transform="scale(0.6) translate(0,0)" />
    </marker>
  </defs>
  <sodipodi:namedview
     pagecolor="#ffffff"
     bordercolor="#666666"
     borderopacity="1"
     objecttolerance="10"
     gridtolerance="10"
     guidetolerance="10"
     inkscape:pageopacity="0"
     inkscape:pageshadow="2"
     inkscape:window-width="1262"
     inkscape:window-height="980"
     id="namedview5195"
     showgrid="false"
     inkscape:zoom="1.2056945"
     inkscape:cx="235.49552"
     inkscape:cy="182.19123"
     inkscape:window-x="1447"
     inkscape:window-y="22"
     inkscape:window-maximized="0"
     inkscape:current-layer="svg5080" />
  <polygon
     style="fill:#ffffff;stroke:#ffffff"
     id="polygon5085"
     points="289,-260 289,5 -4,5 -4,5 -4,-260 "
     transform="translate(4,260)" />
  <g
     class="cluster"
     id="graph2"
     transform="translate(4,260)">
    <title
       id="title5088">clusterA</title>
    <polygon
       style="fill:#d3d3d3;stroke:#d3d3d3"
       id="polygon5090"
       points="166.424,-205.165 166.424,-78.1651 88.4244,-78.1651 88.4244,-78.1651 88.4244,-205.165 " />
    <text
       style="font-size:14px;text-anchor:middle;font-family:'Times,serif'"
       id="text5092"
       font-size="14.00"
       y="-188.565"
       x="127.424">XDMF2</text>
  </g>
  <g
     class="node"
     id="node2"
     transform="translate(4,260)">
    <title
       id="title5095">.h5</title>
    <ellipse
       style="fill:#ffffff;stroke:#ffffff"
       sodipodi:ry="18"
       sodipodi:rx="27"
       sodipodi:cy="-104.679"
       sodipodi:cx="130.34599"
       id="ellipse5097"
       ry="18"
       rx="27"
       cy="-104.679"
       cx="130.34599"
       d="m 157.34599,-104.679 c 0,9.941125 -12.08831,17.999999 -27,17.999999 -14.91169,0 -27,-8.058874 -27,-17.999999 0,-9.94113 12.08831,-18 27,-18 14.91169,0 27,8.05887 27,18 z" />
    <text
       style="font-size:14px;text-anchor:middle;font-family:'Times,serif'"
       id="text5099"
       font-size="14.00"
       y="-99.079002"
       x="130.34599">.h5</text>
  </g>
  <g
     class="node"
     id="node4"
     transform="translate(4,260)">
    <title
       id="title5102">.xmf</title>
    <ellipse
       style="fill:#ffffff;stroke:#ffffff"
       sodipodi:ry="18"
       sodipodi:rx="27"
       sodipodi:cy="-156.593"
       sodipodi:cx="124.075"
       id="ellipse5104"
       ry="18"
       rx="27"
       cy="-156.593"
       cx="124.075"
       d="m 151.075,-156.593 c 0,9.94112 -12.08831,18 -27,18 -14.91169,0 -27.000003,-8.05888 -27.000003,-18 0,-9.94113 12.088313,-18 27.000003,-18 14.91169,0 27,8.05887 27,18 z" />
    <text
       style="font-size:14px;text-anchor:middle;font-family:'Times,serif'"
       id="text5106"
       font-size="14.00"
       y="-150.993"
       x="124.075">.xmf</text>
  </g>
  <g
     class="edge"
     id="edge3"
     transform="translate(4,260)">
    <title
       id="title5109">.h5--.xmf</title>
    <path
       style="fill:none;stroke:#000000"
       inkscape:connector-curvature="0"
       id="path5111"
       d="m 128.153,-122.836 c -0.608,-5.029 -1.267,-10.489 -1.875,-15.523" />
  </g>
  <g
     class="node"
     id="node5"
     transform="translate(4,260)">
    <title
       id="title5114">ANSYS Classic</title>
    <polygon
       style="fill:none;stroke:#000000"
       id="polygon5116"
       points="176.494,-56.0644 282.494,-56.0644 282.494,-92.0644 282.494,-92.0644 176.494,-92.0644 " />
    <text
       style="font-size:14px;text-anchor:middle;font-family:'Times,serif'"
       id="text5118"
       font-size="14.00"
       y="-68.464401"
       x="229.494">ANSYS Classic</text>
  </g>
  <path
     d="m 180.437,169.5528 c -7.367,-2.2747 -14.63,-4.5175 -21.136,-6.5262"
     id="path5123"
     inkscape:connector-curvature="0"
     style="fill:none;stroke:#000000;marker-start:none;marker-end:url(#Arrow2Mend)" />
  <g
     class="node"
     id="node7"
     transform="translate(4,260)">
    <title
       id="title5126">GiD</title>
    <polygon
       style="fill:none;stroke:#000000"
       id="polygon5128"
       points="91.0934,-0.519415 145.093,-0.519415 145.093,-36.5194 145.093,-36.5194 91.0934,-36.5194 " />
    <text
       style="font-size:14px;text-anchor:middle;font-family:'Times,serif'"
       id="text5130"
       font-size="14.00"
       y="-12.9194"
       x="118.093">GiD</text>
  </g>
  <path
     d="m 124.692,223.2083 c 2.093,-14.7203 5.02,-35.3028 7.101,-49.9369"
     id="path5135"
     inkscape:connector-curvature="0"
     style="fill:none;stroke:#000000;marker-end:url(#Arrow2Mend)" />
  <g
     class="node"
     id="node9"
     transform="translate(4,260)">
    <title
       id="title5138">cplreader</title>
    <polygon
       style="fill:#a9a9a9;stroke:#a9a9a9"
       id="polygon5140"
       points="5.44597,-177.585 75.446,-177.585 75.446,-213.585 75.446,-213.585 5.44597,-213.585 " />
    <text
       style="font-size:14px;text-anchor:middle;font-family:'Times,serif'"
       id="text5142"
       font-size="14.00"
       y="-189.985"
       x="40.445999">cplreader</text>
  </g>
  <path
     d="m 62.6386,82.811 c 16.726,16.913 41.2234,41.685 56.8154,57.451"
     id="path5147"
     inkscape:connector-curvature="0"
     style="fill:none;stroke:#000000;marker-start:url(#Arrow2Mstart);marker-end:url(#Arrow2Mend)" />
  <g
     class="node"
     id="node11"
     transform="translate(4,260)">
    <title
       id="title5150">CFS++</title>
    <polygon
       style="fill:#a9a9a9;stroke:#a9a9a9"
       id="polygon5152"
       points="182.777,-146.271 240.777,-146.271 240.777,-182.271 240.777,-182.271 182.777,-182.271 " />
    <text
       style="font-size:14px;text-anchor:middle;font-family:'Times,serif'"
       id="text5154"
       font-size="14.00"
       y="-158.67101"
       x="211.77699">CFS++</text>
  </g>
  <path
     d="m 190.902,113.932 c -12.347,9.036 -26.998,19.758 -38.294,28.025"
     id="path5159"
     inkscape:connector-curvature="0"
     style="fill:none;stroke:#000000;marker-start:url(#Arrow2Mstart);marker-end:url(#Arrow2Mend)" />
  <path
     d="m 186.573,98.285 c -10.165,0.89 -21.516,1.884 -31.495,2.758"
     id="path5164"
     inkscape:connector-curvature="0"
     style="fill:none;stroke:#000000;marker-end:url(#Arrow2Mend)" />
  <g
     class="node"
     id="node14"
     transform="translate(4,260)">
    <title
       id="title5167">VisIt</title>
    <polygon
       style="fill:none;stroke:#000000"
       id="polygon5169"
       points="117.631,-219.013 171.631,-219.013 171.631,-255.013 171.631,-255.013 117.631,-255.013 " />
    <text
       style="font-size:14px;text-anchor:middle;font-family:'Times,serif'"
       id="text5171"
       font-size="14.00"
       y="-231.41299"
       x="144.631">VisIt</text>
  </g>
  <path
     d="m 145.313,41.371 c -0.723,4.004 -1.526,8.459 -2.373,13.15"
     id="path5176"
     inkscape:connector-curvature="0"
     style="fill:none;stroke:#000000;marker-start:url(#Arrow2Mstart);marker-end:none" />
  <g
     class="node"
     id="node17"
     transform="translate(4,260)">
    <title
       id="title5179">ParaView</title>
    <polygon
       style="fill:none;stroke:#000000"
       id="polygon5181"
       points="1.07639,-74.9037 73.0764,-74.9037 73.0764,-110.904 73.0764,-110.904 1.07639,-110.904 " />
    <text
       style="font-size:14px;text-anchor:middle;font-family:'Times,serif'"
       id="text5183"
       font-size="14.00"
       y="-87.303703"
       x="37.076401">ParaView</text>
  </g>
  <path
     d="M 77.1369,162.5436 C 87.2867,161.2622 98.142,159.892 107.639,158.693"
     id="path5188"
     inkscape:connector-curvature="0"
     style="fill:none;stroke:#000000;marker-start:url(#Arrow2Mstart)" />
  <path
     d="m 74.462,149.078 c 5.831,-3.147 11.9437,-6.446 17.9112,-9.667"
     id="path5193"
     inkscape:connector-curvature="0"
     style="fill:none;stroke:#000000;marker-start:url(#Arrow2Mstart);marker-end:url(#Arrow2Mend)" />
</svg>
