<?xml version="1.0" encoding="UTF-8" standalone="no"?>
<!DOCTYPE svg PUBLIC "-//W3C//DTD SVG 1.1//EN"
 "http://www.w3.org/Graphics/SVG/1.1/DTD/svg11.dtd">
<!-- Generated by graphviz version 2.28.0 (20110507.0412)
 -->
<!-- Title: G Pages: 1 -->
<svg width="266pt" height="188pt"
 viewBox="0.00 0.00 266.00 188.00" xmlns="http://www.w3.org/2000/svg" xmlns:xlink="http://www.w3.org/1999/xlink">
<g id="graph1" class="graph" transform="scale(1 1) rotate(0) translate(4 184)">
<title>G</title>
<polygon fill="white" stroke="white" points="-4,5 -4,-184 263,-184 263,5 -4,5"/>
<!-- ANSYS Classic (mkhdf5) -->
<g id="node1" class="node"><title>ANSYS Classic (mkhdf5)</title>
<polygon fill="none" stroke="black" points="158.25,-180 -0.25,-180 -0.25,-144 158.25,-144 158.25,-180"/>
<text text-anchor="middle" x="79" y="-158.3" font-family="Times,serif" font-size="14.00">ANSYS Classic (mkhdf5)</text>
</g>
<!-- .h5 -->
<g id="node3" class="node"><title>.h5</title>
<ellipse fill="none" stroke="black" cx="141" cy="-90" rx="27" ry="18"/>
<text text-anchor="middle" x="141" y="-86.3" font-family="Times,serif" font-size="14.00">.h5</text>
</g>
<!-- ANSYS Classic (mkhdf5)&#45;&gt;.h5 -->
<g id="edge2" class="edge"><title>ANSYS Classic (mkhdf5)&#45;&gt;.h5</title>
<path fill="none" stroke="black" d="M94.3258,-143.697C102.282,-134.714 112.108,-123.62 120.688,-113.932"/>
<polygon fill="black" stroke="black" points="123.525,-116.009 127.535,-106.202 118.285,-111.368 123.525,-116.009"/>
</g>
<!-- cplreader -->
<g id="node6" class="node"><title>cplreader</title>
<polygon fill="darkgrey" stroke="darkgrey" points="94.25,-36 27.75,-36 27.75,-0 94.25,-0 94.25,-36"/>
<text text-anchor="middle" x="61" y="-14.3" font-family="Times,serif" font-size="14.00">cplreader</text>
</g>
<!-- .h5&#45;&gt;cplreader -->
<g id="edge12" class="edge"><title>.h5&#45;&gt;cplreader</title>
<path fill="none" stroke="black" d="M121.798,-76.8069C109.793,-67.5528 94.5143,-54.531 82.1891,-43.1888"/>
<polygon fill="black" stroke="black" points="84.2631,-40.3347 74.5802,-36.0344 79.468,-45.4344 84.2631,-40.3347"/>
</g>
<!-- CFS++ -->
<g id="node8" class="node"><title>CFS++</title>
<polygon fill="darkgrey" stroke="darkgrey" points="169.25,-36 112.75,-36 112.75,-0 169.25,-0 169.25,-36"/>
<text text-anchor="middle" x="141" y="-14.3" font-family="Times,serif" font-size="14.00">CFS++</text>
</g>
<!-- .h5&#45;&gt;CFS++ -->
<g id="edge10" class="edge"><title>.h5&#45;&gt;CFS++</title>
<path fill="none" stroke="black" d="M135.16,-72.411C134.319,-64.7079 134.061,-55.3415 134.385,-46.6164"/>
<polygon fill="black" stroke="black" points="137.89,-46.6592 135.07,-36.4468 130.906,-46.1892 137.89,-46.6592"/>
</g>
<!-- ParaView -->
<g id="node13" class="node"><title>ParaView</title>
<polygon fill="none" stroke="black" points="258,-36 188,-36 188,-0 258,-0 258,-36"/>
<text text-anchor="middle" x="223" y="-14.3" font-family="Times,serif" font-size="14.00">ParaView</text>
</g>
<!-- .h5&#45;&gt;ParaView -->
<g id="edge14" class="edge"><title>.h5&#45;&gt;ParaView</title>
<path fill="none" stroke="black" d="M157.201,-75.1703C168.1,-65.8654 182.746,-53.363 195.453,-42.5157"/>
<polygon fill="black" stroke="black" points="197.73,-45.1737 203.063,-36.019 193.185,-39.8497 197.73,-45.1737"/>
</g>
<!-- GiD -->
<g id="node4" class="node"><title>GiD</title>
<polygon fill="none" stroke="black" points="230,-180 176,-180 176,-144 230,-144 230,-180"/>
<text text-anchor="middle" x="203" y="-158.3" font-family="Times,serif" font-size="14.00">GiD</text>
</g>
<!-- GiD&#45;&gt;.h5 -->
<g id="edge4" class="edge"><title>GiD&#45;&gt;.h5</title>
<path fill="none" stroke="black" d="M187.674,-143.697C179.718,-134.714 169.892,-123.62 161.312,-113.932"/>
<polygon fill="black" stroke="black" points="163.715,-111.368 154.465,-106.202 158.475,-116.009 163.715,-111.368"/>
</g>
<!-- cplreader&#45;&gt;.h5 -->
<g id="edge6" class="edge"><title>cplreader&#45;&gt;.h5</title>
<path fill="none" stroke="black" d="M86.5756,-36.2108C97.8971,-45.2915 110.914,-56.5483 121.456,-66.3313"/>
<polygon fill="black" stroke="black" points="119.305,-69.1152 128.965,-73.4647 124.126,-64.0399 119.305,-69.1152"/>
</g>
<!-- CFS++&#45;&gt;.h5 -->
<g id="edge8" class="edge"><title>CFS++&#45;&gt;.h5</title>
<path fill="none" stroke="black" d="M146.93,-36.4468C147.728,-44.2693 147.944,-53.6702 147.577,-62.3449"/>
<polygon fill="black" stroke="black" points="144.079,-62.1822 146.84,-72.411 151.06,-62.6931 144.079,-62.1822"/>
</g>
</g>
</svg>
