<?xml version="1.0" encoding="UTF-8" standalone="no"?>
<!-- Generated by graphviz version 2.24.0 (20090616.2323)
 -->

<!-- Title: G Pages: 1 -->

<svg
   xmlns:dc="http://purl.org/dc/elements/1.1/"
   xmlns:cc="http://creativecommons.org/ns#"
   xmlns:rdf="http://www.w3.org/1999/02/22-rdf-syntax-ns#"
   xmlns:svg="http://www.w3.org/2000/svg"
   xmlns="http://www.w3.org/2000/svg"
   xmlns:sodipodi="http://sodipodi.sourceforge.net/DTD/sodipodi-0.dtd"
   xmlns:inkscape="http://www.inkscape.org/namespaces/inkscape"
   width="816pt"
   height="404pt"
   viewBox="0.00 0.00 816.00 404.00"
   id="svg4029"
   version="1.1"
   inkscape:version="0.48.0 r9654"
   sodipodi:docname="cgns_io.svg">
  <metadata
     id="metadata4278">
    <rdf:RDF>
      <cc:Work
         rdf:about="">
        <dc:format>image/svg+xml</dc:format>
        <dc:type
           rdf:resource="http://purl.org/dc/dcmitype/StillImage" />
        <dc:title></dc:title>
      </cc:Work>
    </rdf:RDF>
  </metadata>
  <defs
     id="defs4276" />
  <sodipodi:namedview
     pagecolor="#ffffff"
     bordercolor="#666666"
     borderopacity="1"
     objecttolerance="10"
     gridtolerance="10"
     guidetolerance="10"
     inkscape:pageopacity="0"
     inkscape:pageshadow="2"
     inkscape:window-width="1225"
     inkscape:window-height="971"
     id="namedview4274"
     showgrid="false"
     inkscape:zoom="0.72522922"
     inkscape:cx="565.71187"
     inkscape:cy="223.00444"
     inkscape:window-x="1471"
     inkscape:window-y="22"
     inkscape:window-maximized="0"
     inkscape:current-layer="svg4029" />
  <polygon
     style="fill:#ffffff;stroke:#ffffff"
     id="polygon4034"
     points="-4,-400 813,-400 813,5 -4,5 -4,5 "
     transform="translate(3.5,399.5)" />
  <g
     class="node"
     id="node1"
     transform="translate(28.945925,544.39726)">
    <title
       id="title4037">CFX-Pre</title>
    <polygon
       style="fill:none;stroke:#000000"
       id="polygon4039"
       points="469,-396 401,-396 401,-360 469,-360 469,-396 " />
    <text
       style="font-size:14px;text-anchor:middle;font-family:'Times,serif'"
       id="text4041"
       font-size="14.00"
       y="-372.39999"
       x="435">CFX-Pre</text>
  </g>
  <g
     class="node"
     id="node3"
     transform="translate(-42.616438,469.35616)">
    <title
       id="title4044">CFX</title>
    <polygon
       style="fill:none;stroke:#000000"
       id="polygon4046"
       points="432,-324 432,-324 378,-324 378,-288 432,-288 " />
    <text
       style="font-size:14px;text-anchor:middle;font-family:'Times,serif'"
       id="text4048"
       font-size="14.00"
       y="-300.39999"
       x="405">CFX</text>
  </g>
  <g
     class="edge"
     id="edge2"
     transform="matrix(0.2426204,0.9701213,-0.9701213,0.2426204,-23.956073,-160.15127)">
    <title
       id="title4051">CFX-Pre-&gt;CFX</title>
    <path
       style="fill:none;stroke:#000000;stroke-width:1"
       inkscape:connector-curvature="0"
       id="path4053"
       d="m 427.43,-359.831 c -3.279,7.869 -7.192,17.26 -10.824,25.978" />
    <polygon
       style="fill:#000000;stroke:#000000;stroke-width:1"
       id="polygon4055"
       points="419.749,-332.298 419.749,-332.298 412.672,-324.413 413.288,-334.99 " />
  </g>
  <g
     class="node"
     id="node5"
     transform="translate(-114.24658,426.15069)">
    <title
       id="title4058">.res</title>
    <ellipse
       style="fill:none;stroke:#000000"
       sodipodi:ry="18"
       sodipodi:rx="27"
       sodipodi:cy="-234"
       sodipodi:cx="402"
       d="m 429,-234 c 0,9.94113 -12.08831,18 -27,18 -14.91169,0 -27,-8.05887 -27,-18 0,-9.94113 12.08831,-18 27,-18 14.91169,0 27,8.05887 27,18 z"
       id="ellipse4060"
       ry="18"
       rx="27"
       cy="-234"
       cx="402" />
    <text
       style="font-size:14px;text-anchor:middle;font-family:'Times,serif'"
       id="text4062"
       font-size="14.00"
       y="-228.39999"
       x="402">.res</text>
  </g>
  <g
     class="edge"
     id="edge4"
     transform="matrix(0.5126764,0.85858191,-0.85858191,0.5126764,-118.50838,-38.589667)"
     inkscape:transform-center-x="13.035647"
     inkscape:transform-center-y="-1.2899217">
    <title
       id="title4065">CFX-&gt;.res</title>
    <path
       style="fill:none;stroke:#000000;stroke-width:1"
       inkscape:connector-curvature="0"
       id="path4067"
       d="m 404.243,-287.831 c -0.321,7.7 -0.702,16.857 -1.059,25.414" />
    <polygon
       style="fill:#000000;stroke:#000000;stroke-width:1"
       id="polygon4069"
       points="406.681,-262.259 406.681,-262.259 402.767,-252.413 399.687,-262.55 " />
  </g>
  <g
     class="node"
     id="node7"
     transform="translate(-72.483061,424.63158)">
    <title
       id="title4072">cfx5export</title>
    <polygon
       style="fill:none;stroke:#000000"
       id="polygon4074"
       points="438,-180 360,-180 360,-144 438,-144 438,-180 " />
    <text
       style="font-size:14px;text-anchor:middle;font-family:'Times,serif'"
       id="text4076"
       font-size="14.00"
       y="-156.39999"
       x="399">cfx5export</text>
  </g>
  <g
     class="edge"
     id="edge6"
     transform="matrix(0.90729429,-0.42049621,0.42049621,0.90729429,17.408236,574.17701)"
     inkscape:transform-center-x="20.683116"
     inkscape:transform-center-y="-4.8260604">
    <title
       id="title4079">.res-&gt;cfx5export</title>
    <path
       style="fill:none;stroke:#000000"
       inkscape:connector-curvature="0"
       id="path4081"
       d="m 401.243,-215.831 c -0.321,7.7 -0.702,16.857 -1.059,25.414" />
    <polygon
       style="fill:#000000;stroke:#000000"
       id="polygon4083"
       points="396.687,-190.55 403.681,-190.259 403.681,-190.259 399.767,-180.413 " />
  </g>
  <ellipse
     cx="497"
     cy="-90"
     rx="27.926701"
     ry="18"
     id="ellipse4088"
     d="m 524.9267,-90 c 0,9.941125 -12.50321,18 -27.9267,18 -15.42349,0 -27.9267,-8.058875 -27.9267,-18 0,-9.941125 12.50321,-18 27.9267,-18 15.42349,0 27.9267,8.058875 27.9267,18 z"
     sodipodi:cx="497"
     sodipodi:cy="-90"
     sodipodi:rx="27.926701"
     sodipodi:ry="18"
     style="fill:#00ffff;stroke:#000000"
     transform="translate(4,400)" />
  <text
     x="501"
     y="315.60001"
     font-size="14.00"
     id="text4090"
     style="font-size:14px;text-anchor:middle;font-family:'Times,serif'">.cgns</text>
  <path
     d="m 366.16365,263.87967 c 30.07816,10.86432 67.87697,24.51622 98.615,35.61852"
     id="path4095"
     inkscape:connector-curvature="0"
     style="fill:none;stroke:#000000;stroke-width:1" />
  <path
     d="m 496.96299,292.008 c -1.32562,-4.32047 -3.02152,-9.87694 -4.50148,-14.82055 -9.14711,-30.55851 -16.34391,-63.86142 -21.59668,-81.95987"
     id="path4102"
     inkscape:connector-curvature="0"
     style="fill:none;stroke:#000000;stroke-width:1"
     sodipodi:nodetypes="ccc" />
  <polygon
     points="437.481,-349.277 437.481,-349.277 438.839,-359.784 444.33,-350.723 "
     id="polygon4104"
     style="fill:#000000;stroke:#000000"
     transform="translate(30.474388,546.16069)" />
  <g
     class="node"
     id="node13"
     transform="translate(4,400)">
    <title
       id="title4107">ANSYS CFD-Post</title>
    <polygon
       style="fill:none;stroke:#000000"
       id="polygon4109"
       points="0,-1.77636e-14 122,-3.55271e-15 122,-36 122,-36 6.39488e-14,-36 " />
    <text
       style="font-size:14px;text-anchor:middle;font-family:'Times,serif'"
       id="text4111"
       font-size="14.00"
       y="-12.4"
       x="61">ANSYS CFD-Post</text>
  </g>
  <g
     class="edge"
     id="edge12"
     transform="translate(4,400)">
    <title
       id="title4114">.cgns-&gt;ANSYS CFD-Post</title>
    <path
       style="fill:none;stroke:#000000"
       inkscape:connector-curvature="0"
       id="path4116"
       d="m 469.28,-86.9205 c -59.828,6.8616 -205.636,24.7399 -337.066,50.7786" />
    <polygon
       style="fill:#000000;stroke:#000000"
       id="polygon4118"
       points="131.494,-39.5672 132.868,-32.7034 132.868,-32.7034 122.376,-34.1717 " />
  </g>
  <g
     class="node"
     id="node15"
     transform="translate(4,400)">
    <title
       id="title4121">Tecplot</title>
    <polygon
       style="fill:none;stroke:#000000"
       id="polygon4123"
       points="140,-1.77636e-14 200,-3.55271e-15 200,-36 200,-36 140,-36 " />
    <text
       style="font-size:14px;text-anchor:middle;font-family:'Times,serif'"
       id="text4125"
       font-size="14.00"
       y="-12.4"
       x="170">Tecplot</text>
  </g>
  <g
     class="edge"
     id="edge14"
     transform="translate(4,400)">
    <title
       id="title4128">.cgns-&gt;Tecplot</title>
    <path
       style="fill:none;stroke:#000000"
       inkscape:connector-curvature="0"
       id="path4130"
       d="m 469.04,-87.0833 c -50.487,5.7578 -160.099,20.5081 -259.121,51.1825" />
    <polygon
       style="fill:#000000;stroke:#000000"
       id="polygon4132"
       points="208.852,-39.2341 210.962,-32.5597 210.962,-32.5597 200.372,-32.8824 " />
  </g>
  <g
     class="node"
     id="node17"
     transform="translate(4,400)">
    <title
       id="title4135">EnSight</title>
    <polygon
       style="fill:none;stroke:#000000"
       id="polygon4137"
       points="218,-1.77636e-14 280,-3.55271e-15 280,-36 280,-36 218,-36 " />
    <text
       style="font-size:14px;text-anchor:middle;font-family:'Times,serif'"
       id="text4139"
       font-size="14.00"
       y="-12.4"
       x="249">EnSight</text>
  </g>
  <g
     class="edge"
     id="edge16"
     transform="translate(4,400)">
    <title
       id="title4142">.cgns-&gt;EnSight</title>
    <path
       style="fill:none;stroke:#000000"
       inkscape:connector-curvature="0"
       id="path4144"
       d="m 469.971,-84.5138 c -38.298,8.0999 -110.575,24.5865 -179.964,48.4401" />
    <polygon
       style="fill:#000000;stroke:#000000"
       id="polygon4146"
       points="288.524,-39.263 290.834,-32.6551 290.834,-32.6551 280.239,-32.6591 " />
  </g>
  <g
     class="node"
     id="node19"
     transform="translate(4,400)">
    <title
       id="title4149">VisIt</title>
    <polygon
       style="fill:none;stroke:#000000"
       id="polygon4151"
       points="298,-1.77636e-14 352,-3.55271e-15 352,-36 352,-36 298,-36 " />
    <text
       style="font-size:14px;text-anchor:middle;font-family:'Times,serif'"
       id="text4153"
       font-size="14.00"
       y="-12.4"
       x="325">VisIt</text>
  </g>
  <g
     class="edge"
     id="edge18"
     transform="translate(4,400)">
    <title
       id="title4156">.cgns-&gt;VisIt</title>
    <path
       style="fill:none;stroke:#000000"
       inkscape:connector-curvature="0"
       id="path4158"
       d="m 472.664,-81.0577 c -25.648,9.5797 -67.35,25.5938 -111.501,45.1514" />
    <polygon
       style="fill:#000000;stroke:#000000"
       id="polygon4160"
       points="359.71,-39.0902 362.566,-32.6994 362.566,-32.6994 352.008,-31.8146 " />
  </g>
  <polygon
     points="440,-36 440,-36 370,-36 370,-1.77636e-14 440,-3.55271e-15 "
     id="polygon4165"
     style="fill:#999999;stroke:#000000"
     transform="translate(4,400)" />
  <text
     x="409"
     y="387.60001"
     font-size="14.00"
     id="text4167"
     style="font-size:14px;text-anchor:middle;font-family:'Times,serif'">cplreader</text>
  <g
     class="edge"
     id="edge20"
     transform="translate(4,400)">
    <title
       id="title4170">.cgns-&gt;cplreader</title>
    <path
       style="fill:none;stroke:#000000"
       inkscape:connector-curvature="0"
       id="path4172"
       d="m 478.824,-75.7751 c -12.17,9.5239 -28.501,22.3047 -42.709,33.4239" />
    <polygon
       style="fill:#000000;stroke:#000000"
       id="polygon4174"
       points="433.761,-44.953 438.075,-39.4405 438.075,-39.4405 428.043,-36.0336 " />
  </g>
  <g
     class="node"
     id="node24"
     transform="translate(4,400)">
    <title
       id="title4177">FieldView</title>
    <polygon
       style="fill:none;stroke:#000000"
       id="polygon4179"
       points="458,-1.77636e-14 536,-3.55271e-15 536,-36 536,-36 458,-36 " />
    <text
       style="font-size:14px;text-anchor:middle;font-family:'Times,serif'"
       id="text4181"
       font-size="14.00"
       y="-12.4"
       x="497">FieldView</text>
  </g>
  <g
     class="edge"
     id="edge24"
     transform="translate(4,400)">
    <title
       id="title4184">.cgns-&gt;FieldView</title>
    <path
       style="fill:none;stroke:#000000"
       inkscape:connector-curvature="0"
       id="path4186"
       d="m 497,-71.8314 c 0,7.7004 0,16.8571 0,25.4148" />
    <polygon
       style="fill:#000000;stroke:#000000"
       id="polygon4188"
       points="493.5,-46.4133 500.5,-46.4132 500.5,-46.4132 497,-36.4133 " />
  </g>
  <g
     class="node"
     id="node26"
     transform="translate(4,400)">
    <title
       id="title4191">StarCD</title>
    <polygon
       style="fill:none;stroke:#000000"
       id="polygon4193"
       points="554,-1.77636e-14 610,-3.55271e-15 610,-36 610,-36 554,-36 " />
    <text
       style="font-size:14px;text-anchor:middle;font-family:'Times,serif'"
       id="text4195"
       font-size="14.00"
       y="-12.4"
       x="582">StarCD</text>
  </g>
  <g
     class="edge"
     id="edge26"
     transform="translate(4,400)">
    <title
       id="title4198">.cgns-&gt;StarCD</title>
    <path
       style="fill:none;stroke:#000000"
       inkscape:connector-curvature="0"
       id="path4200"
       d="m 514.201,-75.4297 c 11.088,9.3918 25.787,21.8432 38.664,32.7508" />
    <polygon
       style="fill:#000000;stroke:#000000"
       id="polygon4202"
       points="550.706,-39.9208 555.231,-45.2621 555.231,-45.2621 560.599,-36.128 " />
  </g>
  <g
     class="node"
     id="node28"
     transform="translate(4,400)">
    <title
       id="title4205">Pointwise</title>
    <polygon
       style="fill:none;stroke:#000000"
       id="polygon4207"
       points="628,-1.77636e-14 702,-3.55271e-15 702,-36 702,-36 628,-36 " />
    <text
       style="font-size:14px;text-anchor:middle;font-family:'Times,serif'"
       id="text4209"
       font-size="14.00"
       y="-12.4"
       x="665">Pointwise</text>
  </g>
  <g
     class="edge"
     id="edge28"
     transform="translate(4,400)">
    <title
       id="title4212">.cgns-&gt;Pointwise</title>
    <path
       style="fill:none;stroke:#000000"
       inkscape:connector-curvature="0"
       id="path4214"
       d="m 518.877,-78.432 c 25.213,11.6138 67.045,29.6508 99.567,42.9989" />
    <polygon
       style="fill:#000000;stroke:#000000"
       id="polygon4216"
       points="617.197,-32.162 619.839,-38.6441 619.839,-38.6441 627.778,-31.628 " />
  </g>
  <g
     class="node"
     id="node33"
     transform="translate(4,400)">
    <title
       id="title4219">OpenFOAM</title>
    <polygon
       style="fill:none;stroke:#000000"
       id="polygon4221"
       points="720,-1.77636e-14 808,-3.55271e-15 808,-36 808,-36 720,-36 " />
    <text
       style="font-size:14px;text-anchor:middle;font-family:'Times,serif'"
       id="text4223"
       font-size="14.00"
       y="-12.4"
       x="764">OpenFOAM</text>
  </g>
  <g
     class="edge"
     id="edge34"
     transform="translate(4,400)">
    <title
       id="title4226">.cgns-&gt;OpenFOAM</title>
    <path
       style="fill:none;stroke:#000000"
       inkscape:connector-curvature="0"
       id="path4228"
       d="M 522.949,-82.743 C 562.176,-73.0492 638.06,-54.8917 702,-36 c 2.708,0.8002 5.485,1.6508 8.292,2.5298" />
    <polygon
       style="fill:#000000;stroke:#000000"
       id="polygon4230"
       points="709.312,-30.1092 711.44,-36.7778 711.44,-36.7778 719.903,-30.4029 " />
  </g>
  <g
     class="node"
     id="node10"
     transform="translate(4,400)">
    <title
       id="title4233">FLUENT</title>
    <polygon
       style="fill:none;stroke:#000000"
       id="polygon4235"
       points="494,-144 564,-144 564,-180 564,-180 494,-180 " />
    <text
       style="font-size:14px;text-anchor:middle;font-family:'Times,serif'"
       id="text4237"
       font-size="14.00"
       y="-156.39999"
       x="529">FLUENT</text>
  </g>
  <g
     class="edge"
     id="edge10"
     transform="translate(4,400)">
    <title
       id="title4240">FLUENT-&gt;.cgns</title>
    <path
       style="fill:none;stroke:#000000"
       inkscape:connector-curvature="0"
       id="path4242"
       d="m 520.925,-143.831 c -3.644,8.199 -8.022,18.049 -12.031,27.069" />
    <polygon
       style="fill:#000000;stroke:#000000"
       id="polygon4244"
       points="505.604,-117.977 512.001,-115.134 512.001,-115.134 504.741,-107.418 " />
  </g>
  <g
     class="edge"
     id="edge30"
     transform="translate(4,400)">
    <title
       id="title4247">Pointwise-&gt;.cgns</title>
    <path
       style="fill:none;stroke:#000000"
       inkscape:connector-curvature="0"
       id="path4249"
       d="m 628.723,-36.0953 c -28.902,-12.9295 -68.946,-29.9929 -97.35,-41.4264" />
    <polygon
       style="fill:#000000;stroke:#000000"
       id="polygon4251"
       points="532.435,-80.8664 529.844,-74.3632 529.844,-74.3632 521.849,-81.3151 " />
  </g>
  <g
     class="node"
     id="node30"
     transform="translate(4,400)">
    <title
       id="title4254">ICEM CFD</title>
    <polygon
       style="fill:none;stroke:#000000"
       id="polygon4256"
       points="582,-144 666,-144 666,-180 666,-180 582,-180 " />
    <text
       style="font-size:14px;text-anchor:middle;font-family:'Times,serif'"
       id="text4258"
       font-size="14.00"
       y="-156.39999"
       x="624">ICEM CFD</text>
  </g>
  <g
     class="edge"
     id="edge32"
     transform="translate(4,400)">
    <title
       id="title4261">ICEM CFD-&gt;.cgns</title>
    <path
       style="fill:none;stroke:#000000"
       inkscape:connector-curvature="0"
       id="path4263"
       d="m 591.953,-143.831 c -19.919,11.292 -45.362,25.716 -64.896,36.791" />
    <polygon
       style="fill:#000000;stroke:#000000"
       id="polygon4265"
       points="525.239,-110.033 528.691,-103.943 528.691,-103.943 518.266,-102.056 " />
  </g>
  <g
     class="edge"
     id="edge36"
     transform="translate(4,400)">
    <title
       id="title4268">OpenFOAM-&gt;.cgns</title>
    <path
       style="fill:none;stroke:#000000"
       inkscape:connector-curvature="0"
       id="path4270"
       d="M 720.28,-35.9172 C 720.186,-35.9449 720.093,-35.9725 720,-36 655.397,-55.0878 578.6,-73.426 533.91,-83.042" />
    <polygon
       style="fill:#000000;stroke:#000000"
       id="polygon4272"
       points="534.58,-86.4776 533.129,-79.6297 533.129,-79.6297 524.072,-85.1266 " />
  </g>
  <polygon
     transform="matrix(-0.56556975,0.82470046,-0.82470046,-0.56556975,424.77616,-262.18656)"
     style="fill:#000000;stroke:#000000"
     id="polygon4454"
     points="444.33,-350.723 437.481,-349.277 437.481,-349.277 438.839,-359.784 " />
</svg>
