<?xml version="1.0" encoding="UTF-8" standalone="no"?>
<!-- Generated by graphviz version 2.28.0 (20110507.0412)
 -->

<!-- Title: G Pages: 1 -->

<svg
   xmlns:dc="http://purl.org/dc/elements/1.1/"
   xmlns:cc="http://creativecommons.org/ns#"
   xmlns:rdf="http://www.w3.org/1999/02/22-rdf-syntax-ns#"
   xmlns:svg="http://www.w3.org/2000/svg"
   xmlns="http://www.w3.org/2000/svg"
   xmlns:sodipodi="http://sodipodi.sourceforge.net/DTD/sodipodi-0.dtd"
   xmlns:inkscape="http://www.inkscape.org/namespaces/inkscape"
   width="780.3125"
   height="226.25"
   viewBox="0 0 624.25 181"
   id="svg2"
   version="1.1"
   inkscape:version="0.48.2 r9819"
   sodipodi:docname="cgns_io.svg">
  <metadata
     id="metadata251">
    <rdf:RDF>
      <cc:Work
         rdf:about="">
        <dc:format>image/svg+xml</dc:format>
        <dc:type
           rdf:resource="http://purl.org/dc/dcmitype/StillImage" />
      </cc:Work>
    </rdf:RDF>
  </metadata>
  <defs
     id="defs249" />
  <sodipodi:namedview
     pagecolor="#ffffff"
     bordercolor="#666666"
     borderopacity="1"
     objecttolerance="10"
     gridtolerance="10"
     guidetolerance="10"
     inkscape:pageopacity="0"
     inkscape:pageshadow="2"
     inkscape:window-width="1476"
     inkscape:window-height="1069"
     id="namedview247"
     showgrid="false"
     fit-margin-top="0"
     fit-margin-left="0"
     fit-margin-right="0"
     fit-margin-bottom="0"
     inkscape:zoom="0.91961487"
     inkscape:cx="425.07303"
     inkscape:cy="199.98938"
     inkscape:window-x="566"
     inkscape:window-y="238"
     inkscape:window-maximized="0"
     inkscape:current-layer="graph1" />
  <g
     id="graph1"
     class="graph"
     transform="translate(-82.25,396.5)">
    <title
       id="title5">G</title>
    <polygon
       points="752,5 -4,5 -4,5 -4,-400 752,-400 "
       id="polygon7"
       style="fill:#ffffff;stroke:#ffffff" />
    <!-- CFS++ -->
    <g
       id="node1"
       class="node">
      <title
         id="title10">CFS++</title>
      <polygon
         points="468.25,-360 468.25,-396 468.25,-396 411.75,-396 411.75,-360 "
         id="polygon12"
         style="fill:#a9a9a9;stroke:#a9a9a9" />
      <text
         x="440"
         y="-374.29999"
         font-size="14.00"
         id="text14"
         style="font-size:14px;text-anchor:middle;font-family:'Times,serif'">CFS++</text>
    </g>
    <!-- .cgns -->
    <g
       id="node3"
       class="node">
      <title
         id="title17">.cgns</title>
      <ellipse
         cx="480"
         cy="-306"
         rx="29.3722"
         ry="18"
         id="ellipse19"
         d="m 509.3722,-306 c 0,9.94113 -13.15038,18 -29.3722,18 -16.22182,0 -29.3722,-8.05887 -29.3722,-18 0,-9.94113 13.15038,-18 29.3722,-18 16.22182,0 29.3722,8.05887 29.3722,18 z"
         sodipodi:cx="480"
         sodipodi:cy="-306"
         sodipodi:rx="29.3722"
         sodipodi:ry="18"
         style="fill:none;stroke:#000000" />
      <text
         x="480"
         y="-302.29999"
         font-size="14.00"
         id="text21"
         style="font-size:14px;text-anchor:middle;font-family:'Times,serif'">.cgns</text>
    </g>
    <!-- CFS++&#45;&gt;.cgns -->
    <g
       id="edge2"
       class="edge">
      <title
         id="title24">CFS++-&gt;.cgns</title>
      <path
         d="m 443.972,-359.697 c 4.08,8.714 10.021,19.413 15.99,28.889"
         id="path26"
         inkscape:connector-curvature="0"
         style="fill:none;stroke:#000000" />
      <polygon
         points="463.053,-332.478 463.053,-332.478 465.633,-322.202 457.208,-328.627 "
         id="polygon28"
         style="fill:#000000;stroke:#000000" />
    </g>
    <!-- .cgns&#45;&gt;CFS++ -->
    <g
       id="edge14"
       class="edge">
      <title
         id="title31">.cgns-&gt;CFS++</title>
      <path
         d="m 476.121,-324.104 c -3.784,-8.11 -9.203,-17.972 -14.765,-26.974"
         id="path33"
         inkscape:connector-curvature="0"
         style="fill:none;stroke:#000000" />
      <polygon
         points="458.278,-349.395 458.278,-349.395 455.803,-359.697 464.162,-353.186 "
         id="polygon35"
         style="fill:#000000;stroke:#000000" />
    </g>
    <!-- CFX&#45;Pre -->
    <g
       id="node4"
       class="node"
       transform="translate(325.91306,-125.68455)">
      <title
         id="title38">CFX-Pre</title>
      <polygon
         points="64.25,-252 -0.25,-252 -0.25,-216 64.25,-216 64.25,-252 "
         id="polygon40"
         style="fill:none;stroke:#000000" />
      <text
         x="32"
         y="-230.3"
         font-size="14.00"
         id="text42"
         style="font-size:14px;text-anchor:middle;font-family:'Times,serif'">CFX-Pre</text>
    </g>
    <!-- .cgns&#45;&gt;CFX&#45;Pre -->
    <!-- ANSYS CFD&#45;Post -->
    <g
       id="node16"
       class="node">
      <title
         id="title52">ANSYS CFD-Post</title>
      <polygon
         points="201.25,-216 201.25,-252 201.25,-252 82.75,-252 82.75,-216 "
         id="polygon54"
         style="fill:none;stroke:#000000" />
      <text
         x="142"
         y="-230.3"
         font-size="14.00"
         id="text56"
         style="font-size:14px;text-anchor:middle;font-family:'Times,serif'">ANSYS CFD-Post</text>
    </g>
    <!-- .cgns&#45;&gt;ANSYS CFD&#45;Post -->
    <g
       id="edge16"
       class="edge">
      <title
         id="title59">.cgns-&gt;ANSYS CFD-Post</title>
      <path
         d="m 452.416,-300.008 c -47.152,8.628 -146.487,27.218 -240.979,47.968"
         id="path61"
         inkscape:connector-curvature="0"
         style="fill:none;stroke:#000000" />
      <polygon
         points="211.945,-248.568 211.945,-248.568 201.426,-249.829 210.436,-255.403 "
         id="polygon63"
         style="fill:#000000;stroke:#000000" />
    </g>
    <!-- Tecplot -->
    <g
       id="node18"
       class="node">
      <title
         id="title66">Tecplot</title>
      <polygon
         points="277.5,-216 277.5,-252 277.5,-252 220.5,-252 220.5,-216 "
         id="polygon68"
         style="fill:none;stroke:#000000" />
      <text
         x="249"
         y="-230.3"
         font-size="14.00"
         id="text70"
         style="font-size:14px;text-anchor:middle;font-family:'Times,serif'">Tecplot</text>
    </g>
    <!-- .cgns&#45;&gt;Tecplot -->
    <g
       id="edge18"
       class="edge">
      <title
         id="title73">.cgns-&gt;Tecplot</title>
      <path
         d="m 453.064,-298.979 c -35.909,8.322 -101.486,24.544 -165.738,47.141"
         id="path75"
         inkscape:connector-curvature="0"
         style="fill:none;stroke:#000000" />
      <polygon
         points="288.454,-248.524 288.454,-248.524 277.86,-248.457 286.1,-255.116 "
         id="polygon77"
         style="fill:#000000;stroke:#000000" />
    </g>
    <!-- EnSight -->
    <g
       id="node20"
       class="node">
      <title
         id="title80">EnSight</title>
      <polygon
         points="355.5,-216 355.5,-252 355.5,-252 296.5,-252 296.5,-216 "
         id="polygon82"
         style="fill:none;stroke:#000000" />
      <text
         x="326"
         y="-230.3"
         font-size="14.00"
         id="text84"
         style="font-size:14px;text-anchor:middle;font-family:'Times,serif'">EnSight</text>
    </g>
    <!-- .cgns&#45;&gt;EnSight -->
    <g
       id="edge20"
       class="edge">
      <title
         id="title87">.cgns-&gt;EnSight</title>
      <path
         d="m 457.277,-294.671 c -24.205,11.002 -62.968,28.622 -92.111,41.868"
         id="path89"
         inkscape:connector-curvature="0"
         style="fill:none;stroke:#000000" />
      <polygon
         points="366.239,-249.446 366.239,-249.446 355.687,-248.494 363.342,-255.818 "
         id="polygon91"
         style="fill:#000000;stroke:#000000" />
    </g>
    <!-- VisIt -->
    <g
       id="node22"
       class="node">
      <title
         id="title94">VisIt</title>
      <polygon
         points="428,-216 428,-252 428,-252 374,-252 374,-216 "
         id="polygon96"
         style="fill:none;stroke:#000000" />
      <text
         x="401"
         y="-230.3"
         font-size="14.00"
         id="text98"
         style="font-size:14px;text-anchor:middle;font-family:'Times,serif'">VisIt</text>
    </g>
    <!-- .cgns&#45;&gt;VisIt -->
    <g
       id="edge22"
       class="edge">
      <title
         id="title101">.cgns-&gt;VisIt</title>
      <path
         d="m 464.013,-290.834 c -10.356,9.175 -24.101,21.355 -36.111,31.997"
         id="path103"
         inkscape:connector-curvature="0"
         style="fill:none;stroke:#000000" />
      <polygon
         points="430.119,-256.125 430.119,-256.125 420.313,-252.113 425.476,-261.364 "
         id="polygon105"
         style="fill:#000000;stroke:#000000" />
    </g>
    <!-- cplreader -->
    <g
       id="node24"
       class="node">
      <title
         id="title108">cplreader</title>
      <polygon
         points="513.25,-216 513.25,-252 513.25,-252 446.75,-252 446.75,-216 "
         id="polygon110"
         style="fill:#a9a9a9;stroke:#a9a9a9" />
      <text
         x="480"
         y="-230.3"
         font-size="14.00"
         id="text112"
         style="font-size:14px;text-anchor:middle;font-family:'Times,serif'">cplreader</text>
    </g>
    <!-- .cgns&#45;&gt;cplreader -->
    <g
       id="edge24"
       class="edge">
      <title
         id="title115">.cgns-&gt;cplreader</title>
      <path
         d="m 480,-287.697 c 0,7.714 0,16.985 0,25.585"
         id="path117"
         inkscape:connector-curvature="0"
         style="fill:none;stroke:#000000" />
      <polygon
         points="483.5,-262.104 483.5,-262.104 480,-252.104 476.5,-262.104 "
         id="polygon119"
         style="fill:#000000;stroke:#000000" />
    </g>
    <!-- Pointwise -->
    <g
       id="node27"
       class="node">
      <title
         id="title122">Pointwise</title>
      <polygon
         points="602,-216 602,-252 602,-252 532,-252 532,-216 "
         id="polygon124"
         style="fill:none;stroke:#000000" />
      <text
         x="567"
         y="-230.3"
         font-size="14.00"
         id="text126"
         style="font-size:14px;text-anchor:middle;font-family:'Times,serif'">Pointwise</text>
    </g>
    <!-- .cgns&#45;&gt;Pointwise -->
    <g
       id="edge28"
       class="edge">
      <title
         id="title129">.cgns-&gt;Pointwise</title>
      <path
         d="m 493.199,-289.811 c 10.303,9.19 24.861,21.098 38.381,31.466"
         id="path131"
         inkscape:connector-curvature="0"
         style="fill:none;stroke:#000000" />
      <polygon
         points="533.944,-260.945 533.944,-260.945 539.817,-252.127 529.727,-255.359 "
         id="polygon133"
         style="fill:#000000;stroke:#000000" />
    </g>
    <!-- OpenFOAM -->
    <g
       id="node32"
       class="node">
      <title
         id="title136">OpenFOAM</title>
      <polygon
         points="706,-216 706,-252 706,-252 620,-252 620,-216 "
         id="polygon138"
         style="fill:none;stroke:#000000" />
      <text
         x="663"
         y="-230.3"
         font-size="14.00"
         id="text140"
         style="font-size:14px;text-anchor:middle;font-family:'Times,serif'">OpenFOAM</text>
    </g>
    <!-- .cgns&#45;&gt;OpenFOAM -->
    <g
       id="edge34"
       class="edge">
      <title
         id="title143">.cgns-&gt;OpenFOAM</title>
      <path
         d="m 502.784,-294.369 c 26.767,10.978 71.739,28.304 107.29,41.412"
         id="path145"
         inkscape:connector-curvature="0"
         style="fill:none;stroke:#000000" />
      <polygon
         points="611.644,-256.109 611.644,-256.109 619.828,-249.381 609.234,-249.537 "
         id="polygon147"
         style="fill:#000000;stroke:#000000" />
    </g>
    <!-- CFX -->
    <g
       id="node6"
       class="node"
       transform="translate(81.994461,-216)">
      <title
         id="title150">CFX</title>
      <polygon
         points="167,-144 221,-144 221,-180 221,-180 167,-180 "
         id="polygon152"
         style="fill:none;stroke:#000000" />
      <text
         x="194"
         y="-158.3"
         font-size="14.00"
         id="text154"
         style="font-size:14px;text-anchor:middle;font-family:'Times,serif'">CFX</text>
    </g>
    <!-- CFX&#45;Pre&#45;&gt;CFX -->
    <g
       id="edge4"
       class="edge"
       transform="matrix(-0.98619691,-0.16557672,0.16557672,-0.98619691,584.63593,-499.14124)">
      <title
         id="title157">CFX-Pre-&gt;CFX</title>
      <path
         d="m 98.62335,-203.99493 c 16.9583,7.26532 41.0566,17.58897 58.71865,25.15493"
         id="path159"
         inkscape:connector-curvature="0"
         style="fill:none;stroke:#000000;stroke-width:1" />
      <polygon
         points="166.771,-174.765 156.203,-175.519 158.98,-181.945 158.98,-181.945 "
         id="polygon161"
         style="fill:#000000;stroke:#000000;stroke-width:1" />
    </g>
    <!-- .res -->
    <g
       id="node8"
       class="node"
       transform="translate(-155.2387,-269.68455)">
      <title
         id="title164">.res</title>
      <ellipse
         cx="356"
         cy="-90"
         rx="27"
         ry="18"
         id="ellipse166"
         d="m 383,-90 c 0,9.941125 -12.08831,18 -27,18 -14.91169,0 -27,-8.058875 -27,-18 0,-9.941125 12.08831,-18 27,-18 14.91169,0 27,8.058875 27,18 z"
         sodipodi:cx="356"
         sodipodi:cy="-90"
         sodipodi:rx="27"
         sodipodi:ry="18"
         style="fill:none;stroke:#000000" />
      <text
         x="356"
         y="-86.300003"
         font-size="14.00"
         id="text168"
         style="font-size:14px;text-anchor:middle;font-family:'Times,serif'">.res</text>
    </g>
    <!-- CFX&#45;&gt;.res -->
    <g
       id="edge6"
       class="edge"
       transform="matrix(-0.9719582,-0.23515367,0.23515367,-0.9719582,652.17906,-396.2388)">
      <title
         id="title171">CFX-&gt;.res</title>
      <path
         d="m 309.31063,-110.86309 c 4.27636,1.76203 11.00598,4.5347 15.49936,6.38609"
         id="path173"
         inkscape:connector-curvature="0"
         style="fill:none;stroke:#000000;stroke-width:1" />
      <polygon
         points="326.213,-107.684 334.004,-100.504 323.436,-101.258 326.213,-107.684 "
         id="polygon175"
         style="fill:#000000;stroke:#000000;stroke-width:1" />
    </g>
    <!-- cfx5export -->
    <g
       id="node10"
       class="node"
       transform="translate(-271.22063,-288)">
      <title
         id="title178">cfx5export</title>
      <polygon
         points="582.25,-36 507.75,-36 507.75,0 582.25,0 582.25,-36 "
         id="polygon180"
         style="fill:none;stroke:#000000" />
      <text
         x="545"
         y="-14.3"
         font-size="14.00"
         id="text182"
         style="font-size:14px;text-anchor:middle;font-family:'Times,serif'">cfx5export</text>
    </g>
    <!-- .res&#45;&gt;cfx5export -->
    <g
       id="edge8"
       class="edge"
       transform="matrix(0.94002075,-0.34111725,0.34111725,0.94002075,-16.585073,-101.88622)">
      <title
         id="title185">.res-&gt;cfx5export</title>
      <path
         d="m 377.59289,-81.16036 c 29.80011,11.076021 81.92495,30.450061 120.24009,44.691059"
         id="path187"
         inkscape:connector-curvature="0"
         style="fill:none;stroke:#000000;stroke-width:1" />
      <polygon
         points="499.455,-39.6008 499.455,-39.6008 507.617,-32.8454 497.024,-33.0365 "
         id="polygon189"
         style="fill:#000000;stroke:#000000;stroke-width:1" />
    </g>
    <!-- cfx5export&#45;&gt;.cgns -->
    <!-- FLUENT -->
    <g
       id="node12"
       class="node">
      <title
         id="title199">FLUENT</title>
      <polygon
         points="555,-360 555,-396 555,-396 487,-396 487,-360 "
         id="polygon201"
         style="fill:none;stroke:#000000" />
      <text
         x="521"
         y="-374.29999"
         font-size="14.00"
         id="text203"
         style="font-size:14px;text-anchor:middle;font-family:'Times,serif'">FLUENT</text>
    </g>
    <!-- FLUENT&#45;&gt;.cgns -->
    <g
       id="edge12"
       class="edge">
      <title
         id="title206">FLUENT-&gt;.cgns</title>
      <path
         d="m 510.865,-359.697 c -4.909,8.381 -10.893,18.599 -16.281,27.798"
         id="path208"
         inkscape:connector-curvature="0"
         style="fill:none;stroke:#000000" />
      <polygon
         points="497.53,-330.004 497.53,-330.004 489.456,-323.145 491.49,-333.542 "
         id="polygon210"
         style="fill:#000000;stroke:#000000" />
    </g>
    <!-- Pointwise&#45;&gt;.cgns -->
    <g
       id="edge30"
       class="edge">
      <title
         id="title213">Pointwise-&gt;.cgns</title>
      <path
         d="m 551.716,-252.034 c -11.991,-10.542 -28.764,-24.068 -43.152,-34.812"
         id="path215"
         inkscape:connector-curvature="0"
         style="fill:none;stroke:#000000" />
      <polygon
         points="506.422,-284.076 506.422,-284.076 500.421,-292.807 510.557,-289.724 "
         id="polygon217"
         style="fill:#000000;stroke:#000000" />
    </g>
    <!-- ICEM CFD -->
    <g
       id="node29"
       class="node">
      <title
         id="title220">ICEM CFD</title>
      <polygon
         points="654.25,-360 654.25,-396 654.25,-396 573.75,-396 573.75,-360 "
         id="polygon222"
         style="fill:none;stroke:#000000" />
      <text
         x="614"
         y="-374.29999"
         font-size="14.00"
         id="text224"
         style="font-size:14px;text-anchor:middle;font-family:'Times,serif'">ICEM CFD</text>
    </g>
    <!-- ICEM CFD&#45;&gt;.cgns -->
    <g
       id="edge32"
       class="edge">
      <title
         id="title227">ICEM CFD-&gt;.cgns</title>
      <path
         d="m 581.22,-359.876 c -21.598,11.282 -49.681,25.953 -70.786,36.978"
         id="path229"
         inkscape:connector-curvature="0"
         style="fill:none;stroke:#000000" />
      <polygon
         points="512.051,-319.794 512.051,-319.794 501.567,-318.266 508.81,-325.999 "
         id="polygon231"
         style="fill:#000000;stroke:#000000" />
    </g>
    <!-- OpenFOAM&#45;&gt;.cgns -->
    <g
       id="edge36"
       class="edge">
      <title
         id="title234">OpenFOAM-&gt;.cgns</title>
      <path
         d="m 624.169,-252.109 c -32.325,-12.88 -77.807,-30.183 -109.068,-41.434"
         id="path236"
         inkscape:connector-curvature="0"
         style="fill:none;stroke:#000000" />
      <polygon
         points="513.731,-290.316 513.731,-290.316 505.486,-296.97 516.081,-296.909 "
         id="polygon238"
         style="fill:#000000;stroke:#000000" />
    </g>
    <!-- FieldView -->
    <g
       transform="matrix(-0.72402764,0.68977096,-0.68977096,-0.72402764,397.44317,-672.96973)"
       class="edge"
       id="g3228">
      <title
         id="title3230">CFX-&gt;.res</title>
      <path
         style="fill:none;stroke:#000000;stroke-width:1"
         inkscape:connector-curvature="0"
         id="path3232"
         d="m 310.78441,-110.48115 c 3.86974,1.65664 9.95945,4.26349 14.02558,6.00415" />
      <polygon
         style="fill:#000000;stroke:#000000;stroke-width:1"
         id="polygon3234"
         points="326.213,-107.684 326.213,-107.684 334.004,-100.504 323.436,-101.258 " />
    </g>
    <g
       id="g3236"
       class="edge"
       transform="matrix(0.98731409,0.1587794,-0.1587794,0.98731409,-85.443412,-279.10278)">
      <title
         id="title3238">CFX-&gt;.res</title>
      <path
         d="m 293.19346,-117.79742 c 8.72319,3.67532 22.45066,9.4587 31.61655,13.32042"
         id="path3240"
         inkscape:connector-curvature="0"
         style="fill:none;stroke:#000000;stroke-width:1" />
      <polygon
         points="326.213,-107.684 334.004,-100.504 323.436,-101.258 326.213,-107.684 "
         id="polygon3242"
         style="fill:#000000;stroke:#000000;stroke-width:1" />
    </g>
  </g>
</svg>
