<?xml version="1.0" encoding="UTF-8" standalone="no"?>
<!DOCTYPE svg PUBLIC "-//W3C//DTD SVG 1.1//EN"
 "http://www.w3.org/Graphics/SVG/1.1/DTD/svg11.dtd">
<!-- Generated by graphviz version 2.28.0 (20110507.0412)
 -->
<!-- Title: G Pages: 1 -->
<svg width="370pt" height="188pt"
 viewBox="0.00 0.00 370.00 188.00" xmlns="http://www.w3.org/2000/svg" xmlns:xlink="http://www.w3.org/1999/xlink">
<g id="graph1" class="graph" transform="scale(1 1) rotate(0) translate(4 184)">
<title>G</title>
<polygon fill="white" stroke="white" points="-4,5 -4,-184 367,-184 367,5 -4,5"/>
<!-- CFS++ -->
<g id="node1" class="node"><title>CFS++</title>
<polygon fill="darkgrey" stroke="darkgrey" points="56.25,-180 -0.25,-180 -0.25,-144 56.25,-144 56.25,-180"/>
<text text-anchor="middle" x="28" y="-158.3" font-family="Times,serif" font-size="14.00">CFS++</text>
</g>
<!-- .cdb/.inp -->
<g id="node3" class="node"><title>.cdb/.inp</title>
<ellipse fill="none" stroke="black" cx="89" cy="-90" rx="42.3701" ry="18"/>
<text text-anchor="middle" x="89" y="-86.3" font-family="Times,serif" font-size="14.00">.cdb/.inp</text>
</g>
<!-- CFS++&#45;&gt;.cdb/.inp -->
<g id="edge2" class="edge"><title>CFS++&#45;&gt;.cdb/.inp</title>
<path fill="none" stroke="black" d="M37.1629,-143.697C44.1333,-134.624 53.7672,-123.398 62.9077,-113.642"/>
<polygon fill="black" stroke="black" points="65.6567,-115.833 70.0721,-106.202 60.6145,-110.978 65.6567,-115.833"/>
</g>
<!-- .cdb/.inp&#45;&gt;CFS++ -->
<g id="edge4" class="edge"><title>.cdb/.inp&#45;&gt;CFS++</title>
<path fill="none" stroke="black" d="M80.3584,-107.622C73.8129,-116.206 64.7513,-126.848 55.9471,-136.365"/>
<polygon fill="black" stroke="black" points="53.3361,-134.032 48.9944,-143.697 58.4152,-138.849 53.3361,-134.032"/>
</g>
<!-- ANSYS Classic -->
<g id="node6" class="node"><title>ANSYS Classic</title>
<polygon fill="none" stroke="black" points="141,-36 37,-36 37,-0 141,-0 141,-36"/>
<text text-anchor="middle" x="89" y="-14.3" font-family="Times,serif" font-size="14.00">ANSYS Classic</text>
</g>
<!-- .cdb/.inp&#45;&gt;ANSYS Classic -->
<g id="edge6" class="edge"><title>.cdb/.inp&#45;&gt;ANSYS Classic</title>
<path fill="none" stroke="black" d="M83.1218,-72.055C82.3037,-64.3456 82.0614,-55.0269 82.3949,-46.3642"/>
<polygon fill="black" stroke="black" points="85.8943,-46.4915 83.0872,-36.2753 78.9107,-46.0122 85.8943,-46.4915"/>
</g>
<!-- ANSYS Classic&#45;&gt;.cdb/.inp -->
<g id="edge8" class="edge"><title>ANSYS Classic&#45;&gt;.cdb/.inp</title>
<path fill="none" stroke="black" d="M94.9128,-36.2753C95.7145,-44.03 95.9404,-53.3618 95.5906,-62.0054"/>
<polygon fill="black" stroke="black" points="92.0941,-61.8325 94.8782,-72.055 99.0766,-62.3275 92.0941,-61.8325"/>
</g>
<!-- ANSYS WB FeModeler -->
<g id="node8" class="node"><title>ANSYS WB FeModeler</title>
<polygon fill="none" stroke="black" points="225.25,-180 74.75,-180 74.75,-144 225.25,-144 225.25,-180"/>
<text text-anchor="middle" x="150" y="-158.3" font-family="Times,serif" font-size="14.00">ANSYS WB FeModeler</text>
</g>
<!-- ANSYS WB FeModeler&#45;&gt;.cdb/.inp -->
<g id="edge10" class="edge"><title>ANSYS WB FeModeler&#45;&gt;.cdb/.inp</title>
<path fill="none" stroke="black" d="M134.921,-143.697C127.314,-134.967 117.969,-124.244 109.7,-114.754"/>
<polygon fill="black" stroke="black" points="112.277,-112.384 103.069,-107.145 107,-116.983 112.277,-112.384"/>
</g>
<!-- Siemens NX PLM -->
<g id="node10" class="node"><title>Siemens NX PLM</title>
<polygon fill="none" stroke="black" points="362.25,-180 243.75,-180 243.75,-144 362.25,-144 362.25,-180"/>
<text text-anchor="middle" x="303" y="-158.3" font-family="Times,serif" font-size="14.00">Siemens NX PLM</text>
</g>
<!-- Siemens NX PLM&#45;&gt;.cdb/.inp -->
<g id="edge12" class="edge"><title>Siemens NX PLM&#45;&gt;.cdb/.inp</title>
<path fill="none" stroke="black" d="M250.923,-143.966C214.102,-131.921 165.374,-115.982 131.025,-104.746"/>
<polygon fill="black" stroke="black" points="131.891,-101.347 121.298,-101.565 129.715,-108 131.891,-101.347"/>
</g>
</g>
</svg>
