<?xml version="1.0" encoding="UTF-8" standalone="no"?>
<!DOCTYPE svg PUBLIC "-//W3C//DTD SVG 1.1//EN"
 "http://www.w3.org/Graphics/SVG/1.1/DTD/svg11.dtd">
<!-- Generated by graphviz version 2.28.0 (20110507.0412)
 -->
<!-- Title: G Pages: 1 -->
<svg width="189pt" height="188pt"
 viewBox="0.00 0.00 189.00 188.00" xmlns="http://www.w3.org/2000/svg" xmlns:xlink="http://www.w3.org/1999/xlink">
<g id="graph1" class="graph" transform="scale(1 1) rotate(0) translate(4 184)">
<title>G</title>
<polygon fill="white" stroke="white" points="-4,5 -4,-184 186,-184 186,5 -4,5"/>
<!-- CFS++ -->
<g id="node1" class="node"><title>CFS++</title>
<polygon fill="darkgrey" stroke="darkgrey" points="145.25,-180 88.75,-180 88.75,-144 145.25,-144 145.25,-180"/>
<text text-anchor="middle" x="117" y="-158.3" font-family="Times,serif" font-size="14.00">CFS++</text>
</g>
<!-- .msh -->
<g id="node3" class="node"><title>.msh</title>
<ellipse fill="none" stroke="black" cx="80" cy="-90" rx="28.3955" ry="18"/>
<text text-anchor="middle" x="80" y="-86.3" font-family="Times,serif" font-size="14.00">.msh</text>
</g>
<!-- CFS++&#45;&gt;.msh -->
<g id="edge2" class="edge"><title>CFS++&#45;&gt;.msh</title>
<path fill="none" stroke="black" d="M101.938,-143.697C96.9045,-135.728 91.6004,-126.1 87.3229,-117.264"/>
<polygon fill="black" stroke="black" points="90.4796,-115.751 83.1458,-108.104 84.1106,-118.655 90.4796,-115.751"/>
</g>
<!-- .pos -->
<g id="node5" class="node"><title>.pos</title>
<ellipse fill="none" stroke="black" cx="154" cy="-90" rx="27" ry="18"/>
<text text-anchor="middle" x="154" y="-86.3" font-family="Times,serif" font-size="14.00">.pos</text>
</g>
<!-- CFS++&#45;&gt;.pos -->
<g id="edge4" class="edge"><title>CFS++&#45;&gt;.pos</title>
<path fill="none" stroke="black" d="M126.146,-143.697C130.53,-135.403 135.864,-125.311 140.687,-116.187"/>
<polygon fill="black" stroke="black" points="143.888,-117.621 145.466,-107.145 137.699,-114.35 143.888,-117.621"/>
</g>
<!-- .msh&#45;&gt;CFS++ -->
<g id="edge6" class="edge"><title>.msh&#45;&gt;CFS++</title>
<path fill="none" stroke="black" d="M93.7156,-106.202C99.0996,-114.482 104.937,-124.965 109.582,-134.54"/>
<polygon fill="black" stroke="black" points="106.428,-136.058 113.77,-143.697 112.794,-133.147 106.428,-136.058"/>
</g>
<!-- Gmsh -->
<g id="node8" class="node"><title>Gmsh</title>
<polygon fill="none" stroke="black" points="107,-36 53,-36 53,-0 107,-0 107,-36"/>
<text text-anchor="middle" x="80" y="-14.3" font-family="Times,serif" font-size="14.00">Gmsh</text>
</g>
<!-- .msh&#45;&gt;Gmsh -->
<g id="edge8" class="edge"><title>.msh&#45;&gt;Gmsh</title>
<path fill="none" stroke="black" d="M74.1218,-72.055C73.3037,-64.3456 73.0614,-55.0269 73.3949,-46.3642"/>
<polygon fill="black" stroke="black" points="76.8943,-46.4915 74.0872,-36.2753 69.9107,-46.0122 76.8943,-46.4915"/>
</g>
<!-- .pos&#45;&gt;Gmsh -->
<g id="edge10" class="edge"><title>.pos&#45;&gt;Gmsh</title>
<path fill="none" stroke="black" d="M139.025,-74.8345C129.417,-65.7459 116.694,-53.7105 105.521,-43.1413"/>
<polygon fill="black" stroke="black" points="107.761,-40.4421 98.0906,-36.1127 102.95,-45.5274 107.761,-40.4421"/>
</g>
<!-- Gmsh&#45;&gt;.msh -->
<g id="edge12" class="edge"><title>Gmsh&#45;&gt;.msh</title>
<path fill="none" stroke="black" d="M85.9128,-36.2753C86.7145,-44.03 86.9404,-53.3618 86.5906,-62.0054"/>
<polygon fill="black" stroke="black" points="83.0941,-61.8325 85.8782,-72.055 90.0766,-62.3275 83.0941,-61.8325"/>
</g>
<!-- NETGEN -->
<g id="node11" class="node"><title>NETGEN</title>
<polygon fill="none" stroke="black" points="70.25,-180 -0.25,-180 -0.25,-144 70.25,-144 70.25,-180"/>
<text text-anchor="middle" x="35" y="-158.3" font-family="Times,serif" font-size="14.00">NETGEN</text>
</g>
<!-- NETGEN&#45;&gt;.msh -->
<g id="edge14" class="edge"><title>NETGEN&#45;&gt;.msh</title>
<path fill="none" stroke="black" d="M46.1236,-143.697C51.5673,-135.229 58.2167,-124.885 64.1782,-115.612"/>
<polygon fill="black" stroke="black" points="67.1579,-117.449 69.6214,-107.145 61.2696,-113.664 67.1579,-117.449"/>
</g>
</g>
</svg>
