solid ascii
 facet normal 0 0 1
  outer loop
   vertex 0 0.125 0.125
   vertex 0.5 0.125 0.125
   vertex 0 0.375 0.125
  endloop
 endfacet
 facet normal -0 0 1
  outer loop
   vertex 0.5 0.375 0.125
   vertex 0 0.375 0.125
   vertex 0.5 0.125 0.125
  endloop
 endfacet
 facet normal -1 0 0
  outer loop
   vertex 0.5 0.125 0.125
   vertex 0.5 0.125 0.375
   vertex 0.5 0.375 0.125
  endloop
 endfacet
 facet normal -1 0 0
  outer loop
   vertex 0.5 0.375 0.375
   vertex 0.5 0.375 0.125
   vertex 0.5 0.125 0.375
  endloop
 endfacet
 facet normal 0 0 1
  outer loop
   vertex 0.5 0.125 0.375
   vertex 0.5 0.375 0.375
   vertex 0 0.125 0.375
  endloop
 endfacet
 facet normal 0 0 1
  outer loop
   vertex 0 0.375 0.375
   vertex 0 0.125 0.375
   vertex 0.5 0.375 0.375
  endloop
 endfacet
 facet normal 0 -1 -0
  outer loop
   vertex 0.5 0.375 0.125
   vertex 0.5 0.375 0.375
   vertex 0 0.375 0.125
  endloop
 endfacet
 facet normal 0 -1 0
  outer loop
   vertex 0 0.375 0.375
   vertex 0 0.375 0.125
   vertex 0.5 0.375 0.375
  endloop
 endfacet
 facet normal -1 0 0
  outer loop
   vertex 0 0.125 0.125
   vertex 0 0.125 0.375
   vertex 0 0.375 0.125
  endloop
 endfacet
 facet normal -1 0 0
  outer loop
   vertex 0 0.375 0.375
   vertex 0 0.375 0.125
   vertex 0 0.125 0.375
  endloop
 endfacet
 facet normal 0 -1 0
  outer loop
   vertex 0 0.125 0.125
   vertex 0.5 0.125 0.125
   vertex 0 0.125 0.375
  endloop
 endfacet
 facet normal 0 -1 0
  outer loop
   vertex 0.5 0.125 0.375
   vertex 0 0.125 0.375
   vertex 0.5 0.125 0.125
  endloop
 endfacet
 facet normal 0 0 1
  outer loop
   vertex 0.2 0.375 0.2
   vertex 0.3 0.375 0.2
   vertex 0.2 0.5 0.2
  endloop
 endfacet
 facet normal -0 0 1
  outer loop
   vertex 0.3 0.5 0.2
   vertex 0.2 0.5 0.2
   vertex 0.3 0.375 0.2
  endloop
 endfacet
 facet normal -1 0 0
  outer loop
   vertex 0.3 0.375 0.2
   vertex 0.3 0.375 0.3
   vertex 0.3 0.5 0.2
  endloop
 endfacet
 facet normal -1 0 0
  outer loop
   vertex 0.3 0.5 0.3
   vertex 0.3 0.5 0.2
   vertex 0.3 0.375 0.3
  endloop
 endfacet
 facet normal 0 0 1
  outer loop
   vertex 0.3 0.375 0.3
   vertex 0.3 0.5 0.3
   vertex 0.2 0.375 0.3
  endloop
 endfacet
 facet normal 0 0 1
  outer loop
   vertex 0.2 0.5 0.3
   vertex 0.2 0.375 0.3
   vertex 0.3 0.5 0.3
  endloop
 endfacet
 facet normal 0 -1 -0
  outer loop
   vertex 0.3 0.5 0.2
   vertex 0.3 0.5 0.3
   vertex 0.2 0.5 0.2
  endloop
 endfacet
 facet normal 0 -1 0
  outer loop
   vertex 0.2 0.5 0.3
   vertex 0.2 0.5 0.2
   vertex 0.3 0.5 0.3
  endloop
 endfacet
 facet normal -1 0 0
  outer loop
   vertex 0.2 0.375 0.2
   vertex 0.2 0.375 0.3
   vertex 0.2 0.5 0.2
  endloop
 endfacet
 facet normal -1 0 0
  outer loop
   vertex 0.2 0.5 0.3
   vertex 0.2 0.5 0.2
   vertex 0.2 0.375 0.3
  endloop
 endfacet
 facet normal 0 -1 0
  outer loop
   vertex 0.2 0.375 0.2
   vertex 0.3 0.375 0.2
   vertex 0.2 0.375 0.3
  endloop
 endfacet
 facet normal 0 -1 0
  outer loop
   vertex 0.3 0.375 0.3
   vertex 0.2 0.375 0.3
   vertex 0.3 0.375 0.2
  endloop
 endfacet
 facet normal 0 0 1
  outer loop
   vertex 0.2 0 0.2
   vertex 0.3 0 0.2
   vertex 0.2 0.125 0.2
  endloop
 endfacet
 facet normal -0 0 1
  outer loop
   vertex 0.3 0.125 0.2
   vertex 0.2 0.125 0.2
   vertex 0.3 0 0.2
  endloop
 endfacet
 facet normal -1 0 0
  outer loop
   vertex 0.3 0 0.2
   vertex 0.3 0 0.3
   vertex 0.3 0.125 0.2
  endloop
 endfacet
 facet normal -1 0 0
  outer loop
   vertex 0.3 0.125 0.3
   vertex 0.3 0.125 0.2
   vertex 0.3 0 0.3
  endloop
 endfacet
 facet normal 0 0 1
  outer loop
   vertex 0.3 0 0.3
   vertex 0.3 0.125 0.3
   vertex 0.2 0 0.3
  endloop
 endfacet
 facet normal 0 0 1
  outer loop
   vertex 0.2 0.125 0.3
   vertex 0.2 0 0.3
   vertex 0.3 0.125 0.3
  endloop
 endfacet
 facet normal 0 -1 -0
  outer loop
   vertex 0.3 0.125 0.2
   vertex 0.3 0.125 0.3
   vertex 0.2 0.125 0.2
  endloop
 endfacet
 facet normal 0 -1 0
  outer loop
   vertex 0.2 0.125 0.3
   vertex 0.2 0.125 0.2
   vertex 0.3 0.125 0.3
  endloop
 endfacet
 facet normal -1 0 0
  outer loop
   vertex 0.2 0 0.2
   vertex 0.2 0 0.3
   vertex 0.2 0.125 0.2
  endloop
 endfacet
 facet normal -1 0 0
  outer loop
   vertex 0.2 0.125 0.3
   vertex 0.2 0.125 0.2
   vertex 0.2 0 0.3
  endloop
 endfacet
 facet normal 0 -1 0
  outer loop
   vertex 0.2 0 0.2
   vertex 0.3 0 0.2
   vertex 0.2 0 0.3
  endloop
 endfacet
 facet normal 0 -1 0
  outer loop
   vertex 0.3 0 0.3
   vertex 0.2 0 0.3
   vertex 0.3 0 0.2
  endloop
 endfacet
 facet normal 0 0 1
  outer loop
   vertex 0.2025 0.2025 0.375
   vertex 0.2975 0.2025 0.375
   vertex 0.2025 0.2975 0.375
  endloop
 endfacet
 facet normal -0 0 1
  outer loop
   vertex 0.2975 0.2975 0.375
   vertex 0.2025 0.2975 0.375
   vertex 0.2975 0.2025 0.375
  endloop
 endfacet
 facet normal -1 0 0
  outer loop
   vertex 0.2975 0.2025 0.375
   vertex 0.2975 0.2025 0.5
   vertex 0.2975 0.2975 0.375
  endloop
 endfacet
 facet normal -1 0 0
  outer loop
   vertex 0.2975 0.2975 0.5
   vertex 0.2975 0.2975 0.375
   vertex 0.2975 0.2025 0.5
  endloop
 endfacet
 facet normal 0 0 1
  outer loop
   vertex 0.2975 0.2025 0.5
   vertex 0.2975 0.2975 0.5
   vertex 0.2025 0.2025 0.5
  endloop
 endfacet
 facet normal 0 0 1
  outer loop
   vertex 0.2025 0.2975 0.5
   vertex 0.2025 0.2025 0.5
   vertex 0.2975 0.2975 0.5
  endloop
 endfacet
 facet normal 0 -1 -0
  outer loop
   vertex 0.2975 0.2975 0.375
   vertex 0.2975 0.2975 0.5
   vertex 0.2025 0.2975 0.375
  endloop
 endfacet
 facet normal 0 -1 0
  outer loop
   vertex 0.2025 0.2975 0.5
   vertex 0.2025 0.2975 0.375
   vertex 0.2975 0.2975 0.5
  endloop
 endfacet
 facet normal -1 0 0
  outer loop
   vertex 0.2025 0.2025 0.375
   vertex 0.2025 0.2025 0.5
   vertex 0.2025 0.2975 0.375
  endloop
 endfacet
 facet normal -1 0 0
  outer loop
   vertex 0.2025 0.2975 0.5
   vertex 0.2025 0.2975 0.375
   vertex 0.2025 0.2025 0.5
  endloop
 endfacet
 facet normal 0 -1 0
  outer loop
   vertex 0.2025 0.2025 0.375
   vertex 0.2975 0.2025 0.375
   vertex 0.2025 0.2025 0.5
  endloop
 endfacet
 facet normal 0 -1 0
  outer loop
   vertex 0.2975 0.2025 0.5
   vertex 0.2025 0.2025 0.5
   vertex 0.2975 0.2025 0.375
  endloop
 endfacet
 facet normal 0 0 1
  outer loop
   vertex 0.2025 0.2025 0
   vertex 0.2975 0.2025 0
   vertex 0.2025 0.2975 0
  endloop
 endfacet
 facet normal -0 0 1
  outer loop
   vertex 0.2975 0.2975 0
   vertex 0.2025 0.2975 0
   vertex 0.2975 0.2025 0
  endloop
 endfacet
 facet normal -1 0 0
  outer loop
   vertex 0.2975 0.2025 0
   vertex 0.2975 0.2025 0.125
   vertex 0.2975 0.2975 0
  endloop
 endfacet
 facet normal -1 0 0
  outer loop
   vertex 0.2975 0.2975 0.125
   vertex 0.2975 0.2975 0
   vertex 0.2975 0.2025 0.125
  endloop
 endfacet
 facet normal 0 0 1
  outer loop
   vertex 0.2975 0.2025 0.125
   vertex 0.2975 0.2975 0.125
   vertex 0.2025 0.2025 0.125
  endloop
 endfacet
 facet normal 0 0 1
  outer loop
   vertex 0.2025 0.2975 0.125
   vertex 0.2025 0.2025 0.125
   vertex 0.2975 0.2975 0.125
  endloop
 endfacet
 facet normal 0 -1 -0
  outer loop
   vertex 0.2975 0.2975 0
   vertex 0.2975 0.2975 0.125
   vertex 0.2025 0.2975 0
  endloop
 endfacet
 facet normal 0 -1 0
  outer loop
   vertex 0.2025 0.2975 0.125
   vertex 0.2025 0.2975 0
   vertex 0.2975 0.2975 0.125
  endloop
 endfacet
 facet normal -1 0 0
  outer loop
   vertex 0.2025 0.2025 0
   vertex 0.2025 0.2025 0.125
   vertex 0.2025 0.2975 0
  endloop
 endfacet
 facet normal -1 0 0
  outer loop
   vertex 0.2025 0.2975 0.125
   vertex 0.2025 0.2975 0
   vertex 0.2025 0.2025 0.125
  endloop
 endfacet
 facet normal 0 -1 0
  outer loop
   vertex 0.2025 0.2025 0
   vertex 0.2975 0.2025 0
   vertex 0.2025 0.2025 0.125
  endloop
 endfacet
 facet normal 0 -1 0
  outer loop
   vertex 0.2975 0.2025 0.125
   vertex 0.2025 0.2025 0.125
   vertex 0.2975 0.2025 0
  endloop
 endfacet
 facet normal 0 0 1
  outer loop
   vertex 0.60475 0.10475 0
   vertex 0.89525 0.10475 0
   vertex 0.60475 0.39525 0
  endloop
 endfacet
 facet normal -0 0 1
  outer loop
   vertex 0.89525 0.39525 0
   vertex 0.60475 0.39525 0
   vertex 0.89525 0.10475 0
  endloop
 endfacet
 facet normal -1 0 0
  outer loop
   vertex 0.89525 0.10475 0
   vertex 0.89525 0.10475 0.5
   vertex 0.89525 0.39525 0
  endloop
 endfacet
 facet normal -1 0 0
  outer loop
   vertex 0.89525 0.39525 0.5
   vertex 0.89525 0.39525 0
   vertex 0.89525 0.10475 0.5
  endloop
 endfacet
 facet normal 0 0 1
  outer loop
   vertex 0.89525 0.10475 0.5
   vertex 0.89525 0.39525 0.5
   vertex 0.60475 0.10475 0.5
  endloop
 endfacet
 facet normal 0 0 1
  outer loop
   vertex 0.60475 0.39525 0.5
   vertex 0.60475 0.10475 0.5
   vertex 0.89525 0.39525 0.5
  endloop
 endfacet
 facet normal 0 -1 -0
  outer loop
   vertex 0.89525 0.39525 0
   vertex 0.89525 0.39525 0.5
   vertex 0.60475 0.39525 0
  endloop
 endfacet
 facet normal 0 -1 0
  outer loop
   vertex 0.60475 0.39525 0.5
   vertex 0.60475 0.39525 0
   vertex 0.89525 0.39525 0.5
  endloop
 endfacet
 facet normal -1 0 0
  outer loop
   vertex 0.60475 0.10475 0
   vertex 0.60475 0.10475 0.5
   vertex 0.60475 0.39525 0
  endloop
 endfacet
 facet normal -1 0 0
  outer loop
   vertex 0.60475 0.39525 0.5
   vertex 0.60475 0.39525 0
   vertex 0.60475 0.10475 0.5
  endloop
 endfacet
 facet normal 0 -1 0
  outer loop
   vertex 0.60475 0.10475 0
   vertex 0.89525 0.10475 0
   vertex 0.60475 0.10475 0.5
  endloop
 endfacet
 facet normal 0 -1 0
  outer loop
   vertex 0.89525 0.10475 0.5
   vertex 0.60475 0.10475 0.5
   vertex 0.89525 0.10475 0
  endloop
 endfacet
 facet normal 0 0 1
  outer loop
   vertex 0.89525 0.2 0.2
   vertex 1 0.2 0.2
   vertex 0.89525 0.3 0.2
  endloop
 endfacet
 facet normal -0 0 1
  outer loop
   vertex 1 0.3 0.2
   vertex 0.89525 0.3 0.2
   vertex 1 0.2 0.2
  endloop
 endfacet
 facet normal -1 0 0
  outer loop
   vertex 1 0.2 0.2
   vertex 1 0.2 0.3
   vertex 1 0.3 0.2
  endloop
 endfacet
 facet normal -1 0 0
  outer loop
   vertex 1 0.3 0.3
   vertex 1 0.3 0.2
   vertex 1 0.2 0.3
  endloop
 endfacet
 facet normal 0 0 1
  outer loop
   vertex 1 0.2 0.3
   vertex 1 0.3 0.3
   vertex 0.89525 0.2 0.3
  endloop
 endfacet
 facet normal 0 0 1
  outer loop
   vertex 0.89525 0.3 0.3
   vertex 0.89525 0.2 0.3
   vertex 1 0.3 0.3
  endloop
 endfacet
 facet normal 0 -1 -0
  outer loop
   vertex 1 0.3 0.2
   vertex 1 0.3 0.3
   vertex 0.89525 0.3 0.2
  endloop
 endfacet
 facet normal 0 -1 0
  outer loop
   vertex 0.89525 0.3 0.3
   vertex 0.89525 0.3 0.2
   vertex 1 0.3 0.3
  endloop
 endfacet
 facet normal -1 0 0
  outer loop
   vertex 0.89525 0.2 0.2
   vertex 0.89525 0.2 0.3
   vertex 0.89525 0.3 0.2
  endloop
 endfacet
 facet normal -1 0 0
  outer loop
   vertex 0.89525 0.3 0.3
   vertex 0.89525 0.3 0.2
   vertex 0.89525 0.2 0.3
  endloop
 endfacet
 facet normal 0 -1 0
  outer loop
   vertex 0.89525 0.2 0.2
   vertex 1 0.2 0.2
   vertex 0.89525 0.2 0.3
  endloop
 endfacet
 facet normal 0 -1 0
  outer loop
   vertex 1 0.2 0.3
   vertex 0.89525 0.2 0.3
   vertex 1 0.2 0.2
  endloop
 endfacet
 facet normal 0 0 1
  outer loop
   vertex 0.5 0.2 0.2
   vertex 0.60475 0.2 0.2
   vertex 0.5 0.3 0.2
  endloop
 endfacet
 facet normal -0 0 1
  outer loop
   vertex 0.60475 0.3 0.2
   vertex 0.5 0.3 0.2
   vertex 0.60475 0.2 0.2
  endloop
 endfacet
 facet normal -1 0 0
  outer loop
   vertex 0.60475 0.2 0.2
   vertex 0.60475 0.2 0.3
   vertex 0.60475 0.3 0.2
  endloop
 endfacet
 facet normal -1 0 0
  outer loop
   vertex 0.60475 0.3 0.3
   vertex 0.60475 0.3 0.2
   vertex 0.60475 0.2 0.3
  endloop
 endfacet
 facet normal 0 0 1
  outer loop
   vertex 0.60475 0.2 0.3
   vertex 0.60475 0.3 0.3
   vertex 0.5 0.2 0.3
  endloop
 endfacet
 facet normal 0 0 1
  outer loop
   vertex 0.5 0.3 0.3
   vertex 0.5 0.2 0.3
   vertex 0.60475 0.3 0.3
  endloop
 endfacet
 facet normal 0 -1 -0
  outer loop
   vertex 0.60475 0.3 0.2
   vertex 0.60475 0.3 0.3
   vertex 0.5 0.3 0.2
  endloop
 endfacet
 facet normal 0 -1 0
  outer loop
   vertex 0.5 0.3 0.3
   vertex 0.5 0.3 0.2
   vertex 0.60475 0.3 0.3
  endloop
 endfacet
 facet normal -1 0 0
  outer loop
   vertex 0.5 0.2 0.2
   vertex 0.5 0.2 0.3
   vertex 0.5 0.3 0.2
  endloop
 endfacet
 facet normal -1 0 0
  outer loop
   vertex 0.5 0.3 0.3
   vertex 0.5 0.3 0.2
   vertex 0.5 0.2 0.3
  endloop
 endfacet
 facet normal 0 -1 0
  outer loop
   vertex 0.5 0.2 0.2
   vertex 0.60475 0.2 0.2
   vertex 0.5 0.2 0.3
  endloop
 endfacet
 facet normal 0 -1 0
  outer loop
   vertex 0.60475 0.2 0.3
   vertex 0.5 0.2 0.3
   vertex 0.60475 0.2 0.2
  endloop
 endfacet
 facet normal 0 0 1
  outer loop
   vertex 0.665 0.39525 0.165
   vertex 0.835 0.39525 0.165
   vertex 0.665 0.5 0.165
  endloop
 endfacet
 facet normal -0 0 1
  outer loop
   vertex 0.835 0.5 0.165
   vertex 0.665 0.5 0.165
   vertex 0.835 0.39525 0.165
  endloop
 endfacet
 facet normal -1 0 0
  outer loop
   vertex 0.835 0.39525 0.165
   vertex 0.835 0.39525 0.335
   vertex 0.835 0.5 0.165
  endloop
 endfacet
 facet normal -1 0 0
  outer loop
   vertex 0.835 0.5 0.335
   vertex 0.835 0.5 0.165
   vertex 0.835 0.39525 0.335
  endloop
 endfacet
 facet normal 0 0 1
  outer loop
   vertex 0.835 0.39525 0.335
   vertex 0.835 0.5 0.335
   vertex 0.665 0.39525 0.335
  endloop
 endfacet
 facet normal 0 0 1
  outer loop
   vertex 0.665 0.5 0.335
   vertex 0.665 0.39525 0.335
   vertex 0.835 0.5 0.335
  endloop
 endfacet
 facet normal 0 -1 -0
  outer loop
   vertex 0.835 0.5 0.165
   vertex 0.835 0.5 0.335
   vertex 0.665 0.5 0.165
  endloop
 endfacet
 facet normal 0 -1 0
  outer loop
   vertex 0.665 0.5 0.335
   vertex 0.665 0.5 0.165
   vertex 0.835 0.5 0.335
  endloop
 endfacet
 facet normal -1 0 0
  outer loop
   vertex 0.665 0.39525 0.165
   vertex 0.665 0.39525 0.335
   vertex 0.665 0.5 0.165
  endloop
 endfacet
 facet normal -1 0 0
  outer loop
   vertex 0.665 0.5 0.335
   vertex 0.665 0.5 0.165
   vertex 0.665 0.39525 0.335
  endloop
 endfacet
 facet normal 0 -1 0
  outer loop
   vertex 0.665 0.39525 0.165
   vertex 0.835 0.39525 0.165
   vertex 0.665 0.39525 0.335
  endloop
 endfacet
 facet normal 0 -1 0
  outer loop
   vertex 0.835 0.39525 0.335
   vertex 0.665 0.39525 0.335
   vertex 0.835 0.39525 0.165
  endloop
 endfacet
 facet normal 0 0 1
  outer loop
   vertex 0.665 0 0.165
   vertex 0.835 0 0.165
   vertex 0.665 0.10475 0.165
  endloop
 endfacet
 facet normal -0 0 1
  outer loop
   vertex 0.835 0.10475 0.165
   vertex 0.665 0.10475 0.165
   vertex 0.835 0 0.165
  endloop
 endfacet
 facet normal -1 0 0
  outer loop
   vertex 0.835 0 0.165
   vertex 0.835 0 0.335
   vertex 0.835 0.10475 0.165
  endloop
 endfacet
 facet normal -1 0 0
  outer loop
   vertex 0.835 0.10475 0.335
   vertex 0.835 0.10475 0.165
   vertex 0.835 0 0.335
  endloop
 endfacet
 facet normal 0 0 1
  outer loop
   vertex 0.835 0 0.335
   vertex 0.835 0.10475 0.335
   vertex 0.665 0 0.335
  endloop
 endfacet
 facet normal 0 0 1
  outer loop
   vertex 0.665 0.10475 0.335
   vertex 0.665 0 0.335
   vertex 0.835 0.10475 0.335
  endloop
 endfacet
 facet normal 0 -1 -0
  outer loop
   vertex 0.835 0.10475 0.165
   vertex 0.835 0.10475 0.335
   vertex 0.665 0.10475 0.165
  endloop
 endfacet
 facet normal 0 -1 0
  outer loop
   vertex 0.665 0.10475 0.335
   vertex 0.665 0.10475 0.165
   vertex 0.835 0.10475 0.335
  endloop
 endfacet
 facet normal -1 0 0
  outer loop
   vertex 0.665 0 0.165
   vertex 0.665 0 0.335
   vertex 0.665 0.10475 0.165
  endloop
 endfacet
 facet normal -1 0 0
  outer loop
   vertex 0.665 0.10475 0.335
   vertex 0.665 0.10475 0.165
   vertex 0.665 0 0.335
  endloop
 endfacet
 facet normal 0 -1 0
  outer loop
   vertex 0.665 0 0.165
   vertex 0.835 0 0.165
   vertex 0.665 0 0.335
  endloop
 endfacet
 facet normal 0 -1 0
  outer loop
   vertex 0.835 0 0.335
   vertex 0.665 0 0.335
   vertex 0.835 0 0.165
  endloop
 endfacet
 facet normal 0 0 1
  outer loop
   vertex 0.125 0.5 0.125
   vertex 0.375 0.5 0.125
   vertex 0.125 1 0.125
  endloop
 endfacet
 facet normal -0 0 1
  outer loop
   vertex 0.375 1 0.125
   vertex 0.125 1 0.125
   vertex 0.375 0.5 0.125
  endloop
 endfacet
 facet normal -1 0 0
  outer loop
   vertex 0.375 0.5 0.125
   vertex 0.375 0.5 0.375
   vertex 0.375 1 0.125
  endloop
 endfacet
 facet normal -1 0 0
  outer loop
   vertex 0.375 1 0.375
   vertex 0.375 1 0.125
   vertex 0.375 0.5 0.375
  endloop
 endfacet
 facet normal 0 0 1
  outer loop
   vertex 0.375 0.5 0.375
   vertex 0.375 1 0.375
   vertex 0.125 0.5 0.375
  endloop
 endfacet
 facet normal 0 0 1
  outer loop
   vertex 0.125 1 0.375
   vertex 0.125 0.5 0.375
   vertex 0.375 1 0.375
  endloop
 endfacet
 facet normal 0 -1 -0
  outer loop
   vertex 0.375 1 0.125
   vertex 0.375 1 0.375
   vertex 0.125 1 0.125
  endloop
 endfacet
 facet normal 0 -1 0
  outer loop
   vertex 0.125 1 0.375
   vertex 0.125 1 0.125
   vertex 0.375 1 0.375
  endloop
 endfacet
 facet normal -1 0 0
  outer loop
   vertex 0.125 0.5 0.125
   vertex 0.125 0.5 0.375
   vertex 0.125 1 0.125
  endloop
 endfacet
 facet normal -1 0 0
  outer loop
   vertex 0.125 1 0.375
   vertex 0.125 1 0.125
   vertex 0.125 0.5 0.375
  endloop
 endfacet
 facet normal 0 -1 0
  outer loop
   vertex 0.125 0.5 0.125
   vertex 0.375 0.5 0.125
   vertex 0.125 0.5 0.375
  endloop
 endfacet
 facet normal 0 -1 0
  outer loop
   vertex 0.375 0.5 0.375
   vertex 0.125 0.5 0.375
   vertex 0.375 0.5 0.125
  endloop
 endfacet
 facet normal 0 0 1
  outer loop
   vertex 0.375 0.65 0.15
   vertex 0.5 0.65 0.15
   vertex 0.375 0.85 0.15
  endloop
 endfacet
 facet normal -0 0 1
  outer loop
   vertex 0.5 0.85 0.15
   vertex 0.375 0.85 0.15
   vertex 0.5 0.65 0.15
  endloop
 endfacet
 facet normal -1 0 0
  outer loop
   vertex 0.5 0.65 0.15
   vertex 0.5 0.65 0.35
   vertex 0.5 0.85 0.15
  endloop
 endfacet
 facet normal -1 0 0
  outer loop
   vertex 0.5 0.85 0.35
   vertex 0.5 0.85 0.15
   vertex 0.5 0.65 0.35
  endloop
 endfacet
 facet normal 0 0 1
  outer loop
   vertex 0.5 0.65 0.35
   vertex 0.5 0.85 0.35
   vertex 0.375 0.65 0.35
  endloop
 endfacet
 facet normal 0 0 1
  outer loop
   vertex 0.375 0.85 0.35
   vertex 0.375 0.65 0.35
   vertex 0.5 0.85 0.35
  endloop
 endfacet
 facet normal 0 -1 -0
  outer loop
   vertex 0.5 0.85 0.15
   vertex 0.5 0.85 0.35
   vertex 0.375 0.85 0.15
  endloop
 endfacet
 facet normal 0 -1 0
  outer loop
   vertex 0.375 0.85 0.35
   vertex 0.375 0.85 0.15
   vertex 0.5 0.85 0.35
  endloop
 endfacet
 facet normal -1 0 0
  outer loop
   vertex 0.375 0.65 0.15
   vertex 0.375 0.65 0.35
   vertex 0.375 0.85 0.15
  endloop
 endfacet
 facet normal -1 0 0
  outer loop
   vertex 0.375 0.85 0.35
   vertex 0.375 0.85 0.15
   vertex 0.375 0.65 0.35
  endloop
 endfacet
 facet normal 0 -1 0
  outer loop
   vertex 0.375 0.65 0.15
   vertex 0.5 0.65 0.15
   vertex 0.375 0.65 0.35
  endloop
 endfacet
 facet normal 0 -1 0
  outer loop
   vertex 0.5 0.65 0.35
   vertex 0.375 0.65 0.35
   vertex 0.5 0.65 0.15
  endloop
 endfacet
 facet normal 0 0 1
  outer loop
   vertex 0 0.65 0.15
   vertex 0.125 0.65 0.15
   vertex 0 0.85 0.15
  endloop
 endfacet
 facet normal -0 0 1
  outer loop
   vertex 0.125 0.85 0.15
   vertex 0 0.85 0.15
   vertex 0.125 0.65 0.15
  endloop
 endfacet
 facet normal -1 0 0
  outer loop
   vertex 0.125 0.65 0.15
   vertex 0.125 0.65 0.35
   vertex 0.125 0.85 0.15
  endloop
 endfacet
 facet normal -1 0 0
  outer loop
   vertex 0.125 0.85 0.35
   vertex 0.125 0.85 0.15
   vertex 0.125 0.65 0.35
  endloop
 endfacet
 facet normal 0 0 1
  outer loop
   vertex 0.125 0.65 0.35
   vertex 0.125 0.85 0.35
   vertex 0 0.65 0.35
  endloop
 endfacet
 facet normal 0 0 1
  outer loop
   vertex 0 0.85 0.35
   vertex 0 0.65 0.35
   vertex 0.125 0.85 0.35
  endloop
 endfacet
 facet normal 0 -1 -0
  outer loop
   vertex 0.125 0.85 0.15
   vertex 0.125 0.85 0.35
   vertex 0 0.85 0.15
  endloop
 endfacet
 facet normal 0 -1 0
  outer loop
   vertex 0 0.85 0.35
   vertex 0 0.85 0.15
   vertex 0.125 0.85 0.35
  endloop
 endfacet
 facet normal -1 0 0
  outer loop
   vertex 0 0.65 0.15
   vertex 0 0.65 0.35
   vertex 0 0.85 0.15
  endloop
 endfacet
 facet normal -1 0 0
  outer loop
   vertex 0 0.85 0.35
   vertex 0 0.85 0.15
   vertex 0 0.65 0.35
  endloop
 endfacet
 facet normal 0 -1 0
  outer loop
   vertex 0 0.65 0.15
   vertex 0.125 0.65 0.15
   vertex 0 0.65 0.35
  endloop
 endfacet
 facet normal 0 -1 0
  outer loop
   vertex 0.125 0.65 0.35
   vertex 0 0.65 0.35
   vertex 0.125 0.65 0.15
  endloop
 endfacet
 facet normal 0 0 1
  outer loop
   vertex 0.155 0.655 0.375
   vertex 0.345 0.655 0.375
   vertex 0.155 0.845 0.375
  endloop
 endfacet
 facet normal -0 0 1
  outer loop
   vertex 0.345 0.845 0.375
   vertex 0.155 0.845 0.375
   vertex 0.345 0.655 0.375
  endloop
 endfacet
 facet normal -1 0 0
  outer loop
   vertex 0.345 0.655 0.375
   vertex 0.345 0.655 0.5
   vertex 0.345 0.845 0.375
  endloop
 endfacet
 facet normal -1 0 0
  outer loop
   vertex 0.345 0.845 0.5
   vertex 0.345 0.845 0.375
   vertex 0.345 0.655 0.5
  endloop
 endfacet
 facet normal 0 0 1
  outer loop
   vertex 0.345 0.655 0.5
   vertex 0.345 0.845 0.5
   vertex 0.155 0.655 0.5
  endloop
 endfacet
 facet normal 0 0 1
  outer loop
   vertex 0.155 0.845 0.5
   vertex 0.155 0.655 0.5
   vertex 0.345 0.845 0.5
  endloop
 endfacet
 facet normal 0 -1 -0
  outer loop
   vertex 0.345 0.845 0.375
   vertex 0.345 0.845 0.5
   vertex 0.155 0.845 0.375
  endloop
 endfacet
 facet normal 0 -1 0
  outer loop
   vertex 0.155 0.845 0.5
   vertex 0.155 0.845 0.375
   vertex 0.345 0.845 0.5
  endloop
 endfacet
 facet normal -1 0 0
  outer loop
   vertex 0.155 0.655 0.375
   vertex 0.155 0.655 0.5
   vertex 0.155 0.845 0.375
  endloop
 endfacet
 facet normal -1 0 0
  outer loop
   vertex 0.155 0.845 0.5
   vertex 0.155 0.845 0.375
   vertex 0.155 0.655 0.5
  endloop
 endfacet
 facet normal 0 -1 0
  outer loop
   vertex 0.155 0.655 0.375
   vertex 0.345 0.655 0.375
   vertex 0.155 0.655 0.5
  endloop
 endfacet
 facet normal 0 -1 0
  outer loop
   vertex 0.345 0.655 0.5
   vertex 0.155 0.655 0.5
   vertex 0.345 0.655 0.375
  endloop
 endfacet
 facet normal 0 0 1
  outer loop
   vertex 0.155 0.655 0
   vertex 0.345 0.655 0
   vertex 0.155 0.845 0
  endloop
 endfacet
 facet normal -0 0 1
  outer loop
   vertex 0.345 0.845 0
   vertex 0.155 0.845 0
   vertex 0.345 0.655 0
  endloop
 endfacet
 facet normal -1 0 0
  outer loop
   vertex 0.345 0.655 0
   vertex 0.345 0.655 0.125
   vertex 0.345 0.845 0
  endloop
 endfacet
 facet normal -1 0 0
  outer loop
   vertex 0.345 0.845 0.125
   vertex 0.345 0.845 0
   vertex 0.345 0.655 0.125
  endloop
 endfacet
 facet normal 0 0 1
  outer loop
   vertex 0.345 0.655 0.125
   vertex 0.345 0.845 0.125
   vertex 0.155 0.655 0.125
  endloop
 endfacet
 facet normal 0 0 1
  outer loop
   vertex 0.155 0.845 0.125
   vertex 0.155 0.655 0.125
   vertex 0.345 0.845 0.125
  endloop
 endfacet
 facet normal 0 -1 -0
  outer loop
   vertex 0.345 0.845 0
   vertex 0.345 0.845 0.125
   vertex 0.155 0.845 0
  endloop
 endfacet
 facet normal 0 -1 0
  outer loop
   vertex 0.155 0.845 0.125
   vertex 0.155 0.845 0
   vertex 0.345 0.845 0.125
  endloop
 endfacet
 facet normal -1 0 0
  outer loop
   vertex 0.155 0.655 0
   vertex 0.155 0.655 0.125
   vertex 0.155 0.845 0
  endloop
 endfacet
 facet normal -1 0 0
  outer loop
   vertex 0.155 0.845 0.125
   vertex 0.155 0.845 0
   vertex 0.155 0.655 0.125
  endloop
 endfacet
 facet normal 0 -1 0
  outer loop
   vertex 0.155 0.655 0
   vertex 0.345 0.655 0
   vertex 0.155 0.655 0.125
  endloop
 endfacet
 facet normal 0 -1 0
  outer loop
   vertex 0.345 0.655 0.125
   vertex 0.155 0.655 0.125
   vertex 0.345 0.655 0
  endloop
 endfacet
 facet normal 0 0 1
  outer loop
   vertex 0.65 0.5 0.15
   vertex 0.85 0.5 0.15
   vertex 0.65 1 0.15
  endloop
 endfacet
 facet normal -0 0 1
  outer loop
   vertex 0.85 1 0.15
   vertex 0.65 1 0.15
   vertex 0.85 0.5 0.15
  endloop
 endfacet
 facet normal -1 0 0
  outer loop
   vertex 0.85 0.5 0.15
   vertex 0.85 0.5 0.35
   vertex 0.85 1 0.15
  endloop
 endfacet
 facet normal -1 0 0
  outer loop
   vertex 0.85 1 0.35
   vertex 0.85 1 0.15
   vertex 0.85 0.5 0.35
  endloop
 endfacet
 facet normal 0 0 1
  outer loop
   vertex 0.85 0.5 0.35
   vertex 0.85 1 0.35
   vertex 0.65 0.5 0.35
  endloop
 endfacet
 facet normal 0 0 1
  outer loop
   vertex 0.65 1 0.35
   vertex 0.65 0.5 0.35
   vertex 0.85 1 0.35
  endloop
 endfacet
 facet normal 0 -1 -0
  outer loop
   vertex 0.85 1 0.15
   vertex 0.85 1 0.35
   vertex 0.65 1 0.15
  endloop
 endfacet
 facet normal 0 -1 0
  outer loop
   vertex 0.65 1 0.35
   vertex 0.65 1 0.15
   vertex 0.85 1 0.35
  endloop
 endfacet
 facet normal -1 0 0
  outer loop
   vertex 0.65 0.5 0.15
   vertex 0.65 0.5 0.35
   vertex 0.65 1 0.15
  endloop
 endfacet
 facet normal -1 0 0
  outer loop
   vertex 0.65 1 0.35
   vertex 0.65 1 0.15
   vertex 0.65 0.5 0.35
  endloop
 endfacet
 facet normal 0 -1 0
  outer loop
   vertex 0.65 0.5 0.15
   vertex 0.85 0.5 0.15
   vertex 0.65 0.5 0.35
  endloop
 endfacet
 facet normal 0 -1 0
  outer loop
   vertex 0.85 0.5 0.35
   vertex 0.65 0.5 0.35
   vertex 0.85 0.5 0.15
  endloop
 endfacet
 facet normal 0 0 1
  outer loop
   vertex 0.85 0.725 0.225
   vertex 1 0.725 0.225
   vertex 0.85 0.775 0.225
  endloop
 endfacet
 facet normal -0 0 1
  outer loop
   vertex 1 0.775 0.225
   vertex 0.85 0.775 0.225
   vertex 1 0.725 0.225
  endloop
 endfacet
 facet normal -1 0 0
  outer loop
   vertex 1 0.725 0.225
   vertex 1 0.725 0.275
   vertex 1 0.775 0.225
  endloop
 endfacet
 facet normal -1 0 0
  outer loop
   vertex 1 0.775 0.275
   vertex 1 0.775 0.225
   vertex 1 0.725 0.275
  endloop
 endfacet
 facet normal 0 0 1
  outer loop
   vertex 1 0.725 0.275
   vertex 1 0.775 0.275
   vertex 0.85 0.725 0.275
  endloop
 endfacet
 facet normal 0 0 1
  outer loop
   vertex 0.85 0.775 0.275
   vertex 0.85 0.725 0.275
   vertex 1 0.775 0.275
  endloop
 endfacet
 facet normal 0 -1 -0
  outer loop
   vertex 1 0.775 0.225
   vertex 1 0.775 0.275
   vertex 0.85 0.775 0.225
  endloop
 endfacet
 facet normal 0 -1 0
  outer loop
   vertex 0.85 0.775 0.275
   vertex 0.85 0.775 0.225
   vertex 1 0.775 0.275
  endloop
 endfacet
 facet normal -1 0 0
  outer loop
   vertex 0.85 0.725 0.225
   vertex 0.85 0.725 0.275
   vertex 0.85 0.775 0.225
  endloop
 endfacet
 facet normal -1 0 0
  outer loop
   vertex 0.85 0.775 0.275
   vertex 0.85 0.775 0.225
   vertex 0.85 0.725 0.275
  endloop
 endfacet
 facet normal 0 -1 0
  outer loop
   vertex 0.85 0.725 0.225
   vertex 1 0.725 0.225
   vertex 0.85 0.725 0.275
  endloop
 endfacet
 facet normal 0 -1 0
  outer loop
   vertex 1 0.725 0.275
   vertex 0.85 0.725 0.275
   vertex 1 0.725 0.225
  endloop
 endfacet
 facet normal 0 0 1
  outer loop
   vertex 0.5 0.725 0.225
   vertex 0.65 0.725 0.225
   vertex 0.5 0.775 0.225
  endloop
 endfacet
 facet normal -0 0 1
  outer loop
   vertex 0.65 0.775 0.225
   vertex 0.5 0.775 0.225
   vertex 0.65 0.725 0.225
  endloop
 endfacet
 facet normal -1 0 0
  outer loop
   vertex 0.65 0.725 0.225
   vertex 0.65 0.725 0.275
   vertex 0.65 0.775 0.225
  endloop
 endfacet
 facet normal -1 0 0
  outer loop
   vertex 0.65 0.775 0.275
   vertex 0.65 0.775 0.225
   vertex 0.65 0.725 0.275
  endloop
 endfacet
 facet normal 0 0 1
  outer loop
   vertex 0.65 0.725 0.275
   vertex 0.65 0.775 0.275
   vertex 0.5 0.725 0.275
  endloop
 endfacet
 facet normal 0 0 1
  outer loop
   vertex 0.5 0.775 0.275
   vertex 0.5 0.725 0.275
   vertex 0.65 0.775 0.275
  endloop
 endfacet
 facet normal 0 -1 -0
  outer loop
   vertex 0.65 0.775 0.225
   vertex 0.65 0.775 0.275
   vertex 0.5 0.775 0.225
  endloop
 endfacet
 facet normal 0 -1 0
  outer loop
   vertex 0.5 0.775 0.275
   vertex 0.5 0.775 0.225
   vertex 0.65 0.775 0.275
  endloop
 endfacet
 facet normal -1 0 0
  outer loop
   vertex 0.5 0.725 0.225
   vertex 0.5 0.725 0.275
   vertex 0.5 0.775 0.225
  endloop
 endfacet
 facet normal -1 0 0
  outer loop
   vertex 0.5 0.775 0.275
   vertex 0.5 0.775 0.225
   vertex 0.5 0.725 0.275
  endloop
 endfacet
 facet normal 0 -1 0
  outer loop
   vertex 0.5 0.725 0.225
   vertex 0.65 0.725 0.225
   vertex 0.5 0.725 0.275
  endloop
 endfacet
 facet normal 0 -1 0
  outer loop
   vertex 0.65 0.725 0.275
   vertex 0.5 0.725 0.275
   vertex 0.65 0.725 0.225
  endloop
 endfacet
 facet normal 0 0 1
  outer loop
   vertex 0.725 0.725 0.35
   vertex 0.775 0.725 0.35
   vertex 0.725 0.775 0.35
  endloop
 endfacet
 facet normal -0 0 1
  outer loop
   vertex 0.775 0.775 0.35
   vertex 0.725 0.775 0.35
   vertex 0.775 0.725 0.35
  endloop
 endfacet
 facet normal -1 0 0
  outer loop
   vertex 0.775 0.725 0.35
   vertex 0.775 0.725 0.5
   vertex 0.775 0.775 0.35
  endloop
 endfacet
 facet normal -1 0 0
  outer loop
   vertex 0.775 0.775 0.5
   vertex 0.775 0.775 0.35
   vertex 0.775 0.725 0.5
  endloop
 endfacet
 facet normal 0 0 1
  outer loop
   vertex 0.775 0.725 0.5
   vertex 0.775 0.775 0.5
   vertex 0.725 0.725 0.5
  endloop
 endfacet
 facet normal 0 0 1
  outer loop
   vertex 0.725 0.775 0.5
   vertex 0.725 0.725 0.5
   vertex 0.775 0.775 0.5
  endloop
 endfacet
 facet normal 0 -1 -0
  outer loop
   vertex 0.775 0.775 0.35
   vertex 0.775 0.775 0.5
   vertex 0.725 0.775 0.35
  endloop
 endfacet
 facet normal 0 -1 0
  outer loop
   vertex 0.725 0.775 0.5
   vertex 0.725 0.775 0.35
   vertex 0.775 0.775 0.5
  endloop
 endfacet
 facet normal -1 0 0
  outer loop
   vertex 0.725 0.725 0.35
   vertex 0.725 0.725 0.5
   vertex 0.725 0.775 0.35
  endloop
 endfacet
 facet normal -1 0 0
  outer loop
   vertex 0.725 0.775 0.5
   vertex 0.725 0.775 0.35
   vertex 0.725 0.725 0.5
  endloop
 endfacet
 facet normal 0 -1 0
  outer loop
   vertex 0.725 0.725 0.35
   vertex 0.775 0.725 0.35
   vertex 0.725 0.725 0.5
  endloop
 endfacet
 facet normal 0 -1 0
  outer loop
   vertex 0.775 0.725 0.5
   vertex 0.725 0.725 0.5
   vertex 0.775 0.725 0.35
  endloop
 endfacet
 facet normal 0 0 1
  outer loop
   vertex 0.725 0.725 1.38778e-17
   vertex 0.775 0.725 1.38778e-17
   vertex 0.725 0.775 1.38778e-17
  endloop
 endfacet
 facet normal -0 0 1
  outer loop
   vertex 0.775 0.775 1.38778e-17
   vertex 0.725 0.775 1.38778e-17
   vertex 0.775 0.725 1.38778e-17
  endloop
 endfacet
 facet normal -1 0 0
  outer loop
   vertex 0.775 0.725 1.38778e-17
   vertex 0.775 0.725 0.15
   vertex 0.775 0.775 1.38778e-17
  endloop
 endfacet
 facet normal -1 0 0
  outer loop
   vertex 0.775 0.775 0.15
   vertex 0.775 0.775 1.38778e-17
   vertex 0.775 0.725 0.15
  endloop
 endfacet
 facet normal 0 0 1
  outer loop
   vertex 0.775 0.725 0.15
   vertex 0.775 0.775 0.15
   vertex 0.725 0.725 0.15
  endloop
 endfacet
 facet normal 0 0 1
  outer loop
   vertex 0.725 0.775 0.15
   vertex 0.725 0.725 0.15
   vertex 0.775 0.775 0.15
  endloop
 endfacet
 facet normal 0 -1 -0
  outer loop
   vertex 0.775 0.775 1.38778e-17
   vertex 0.775 0.775 0.15
   vertex 0.725 0.775 1.38778e-17
  endloop
 endfacet
 facet normal 0 -1 0
  outer loop
   vertex 0.725 0.775 0.15
   vertex 0.725 0.775 1.38778e-17
   vertex 0.775 0.775 0.15
  endloop
 endfacet
 facet normal -1 0 0
  outer loop
   vertex 0.725 0.725 1.38778e-17
   vertex 0.725 0.725 0.15
   vertex 0.725 0.775 1.38778e-17
  endloop
 endfacet
 facet normal -1 0 0
  outer loop
   vertex 0.725 0.775 0.15
   vertex 0.725 0.775 1.38778e-17
   vertex 0.725 0.725 0.15
  endloop
 endfacet
 facet normal 0 -1 0
  outer loop
   vertex 0.725 0.725 1.38778e-17
   vertex 0.775 0.725 1.38778e-17
   vertex 0.725 0.725 0.15
  endloop
 endfacet
 facet normal 0 -1 0
  outer loop
   vertex 0.775 0.725 0.15
   vertex 0.725 0.725 0.15
   vertex 0.775 0.725 1.38778e-17
  endloop
 endfacet
 facet normal 0 0 1
  outer loop
   vertex 0.09655 0.09655 0.5
   vertex 0.40345 0.09655 0.5
   vertex 0.09655 0.40345 0.5
  endloop
 endfacet
 facet normal -0 0 1
  outer loop
   vertex 0.40345 0.40345 0.5
   vertex 0.09655 0.40345 0.5
   vertex 0.40345 0.09655 0.5
  endloop
 endfacet
 facet normal -1 0 0
  outer loop
   vertex 0.40345 0.09655 0.5
   vertex 0.40345 0.09655 1
   vertex 0.40345 0.40345 0.5
  endloop
 endfacet
 facet normal -1 0 0
  outer loop
   vertex 0.40345 0.40345 1
   vertex 0.40345 0.40345 0.5
   vertex 0.40345 0.09655 1
  endloop
 endfacet
 facet normal 0 0 1
  outer loop
   vertex 0.40345 0.09655 1
   vertex 0.40345 0.40345 1
   vertex 0.09655 0.09655 1
  endloop
 endfacet
 facet normal 0 0 1
  outer loop
   vertex 0.09655 0.40345 1
   vertex 0.09655 0.09655 1
   vertex 0.40345 0.40345 1
  endloop
 endfacet
 facet normal 0 -1 -0
  outer loop
   vertex 0.40345 0.40345 0.5
   vertex 0.40345 0.40345 1
   vertex 0.09655 0.40345 0.5
  endloop
 endfacet
 facet normal 0 -1 0
  outer loop
   vertex 0.09655 0.40345 1
   vertex 0.09655 0.40345 0.5
   vertex 0.40345 0.40345 1
  endloop
 endfacet
 facet normal -1 0 0
  outer loop
   vertex 0.09655 0.09655 0.5
   vertex 0.09655 0.09655 1
   vertex 0.09655 0.40345 0.5
  endloop
 endfacet
 facet normal -1 0 0
  outer loop
   vertex 0.09655 0.40345 1
   vertex 0.09655 0.40345 0.5
   vertex 0.09655 0.09655 1
  endloop
 endfacet
 facet normal 0 -1 0
  outer loop
   vertex 0.09655 0.09655 0.5
   vertex 0.40345 0.09655 0.5
   vertex 0.09655 0.09655 1
  endloop
 endfacet
 facet normal 0 -1 0
  outer loop
   vertex 0.40345 0.09655 1
   vertex 0.09655 0.09655 1
   vertex 0.40345 0.09655 0.5
  endloop
 endfacet
 facet normal 0 0 1
  outer loop
   vertex 0.40345 0.2 0.7
   vertex 0.5 0.2 0.7
   vertex 0.40345 0.3 0.7
  endloop
 endfacet
 facet normal -0 0 1
  outer loop
   vertex 0.5 0.3 0.7
   vertex 0.40345 0.3 0.7
   vertex 0.5 0.2 0.7
  endloop
 endfacet
 facet normal -1 0 0
  outer loop
   vertex 0.5 0.2 0.7
   vertex 0.5 0.2 0.8
   vertex 0.5 0.3 0.7
  endloop
 endfacet
 facet normal -1 0 0
  outer loop
   vertex 0.5 0.3 0.8
   vertex 0.5 0.3 0.7
   vertex 0.5 0.2 0.8
  endloop
 endfacet
 facet normal 0 0 1
  outer loop
   vertex 0.5 0.2 0.8
   vertex 0.5 0.3 0.8
   vertex 0.40345 0.2 0.8
  endloop
 endfacet
 facet normal 0 0 1
  outer loop
   vertex 0.40345 0.3 0.8
   vertex 0.40345 0.2 0.8
   vertex 0.5 0.3 0.8
  endloop
 endfacet
 facet normal 0 -1 -0
  outer loop
   vertex 0.5 0.3 0.7
   vertex 0.5 0.3 0.8
   vertex 0.40345 0.3 0.7
  endloop
 endfacet
 facet normal 0 -1 0
  outer loop
   vertex 0.40345 0.3 0.8
   vertex 0.40345 0.3 0.7
   vertex 0.5 0.3 0.8
  endloop
 endfacet
 facet normal -1 0 0
  outer loop
   vertex 0.40345 0.2 0.7
   vertex 0.40345 0.2 0.8
   vertex 0.40345 0.3 0.7
  endloop
 endfacet
 facet normal -1 0 0
  outer loop
   vertex 0.40345 0.3 0.8
   vertex 0.40345 0.3 0.7
   vertex 0.40345 0.2 0.8
  endloop
 endfacet
 facet normal 0 -1 0
  outer loop
   vertex 0.40345 0.2 0.7
   vertex 0.5 0.2 0.7
   vertex 0.40345 0.2 0.8
  endloop
 endfacet
 facet normal 0 -1 0
  outer loop
   vertex 0.5 0.2 0.8
   vertex 0.40345 0.2 0.8
   vertex 0.5 0.2 0.7
  endloop
 endfacet
 facet normal 0 0 1
  outer loop
   vertex 1.38778e-17 0.2 0.7
   vertex 0.09655 0.2 0.7
   vertex 1.38778e-17 0.3 0.7
  endloop
 endfacet
 facet normal -0 0 1
  outer loop
   vertex 0.09655 0.3 0.7
   vertex 1.38778e-17 0.3 0.7
   vertex 0.09655 0.2 0.7
  endloop
 endfacet
 facet normal -1 0 0
  outer loop
   vertex 0.09655 0.2 0.7
   vertex 0.09655 0.2 0.8
   vertex 0.09655 0.3 0.7
  endloop
 endfacet
 facet normal -1 0 0
  outer loop
   vertex 0.09655 0.3 0.8
   vertex 0.09655 0.3 0.7
   vertex 0.09655 0.2 0.8
  endloop
 endfacet
 facet normal 0 0 1
  outer loop
   vertex 0.09655 0.2 0.8
   vertex 0.09655 0.3 0.8
   vertex 1.38778e-17 0.2 0.8
  endloop
 endfacet
 facet normal 0 0 1
  outer loop
   vertex 1.38778e-17 0.3 0.8
   vertex 1.38778e-17 0.2 0.8
   vertex 0.09655 0.3 0.8
  endloop
 endfacet
 facet normal 0 -1 -0
  outer loop
   vertex 0.09655 0.3 0.7
   vertex 0.09655 0.3 0.8
   vertex 1.38778e-17 0.3 0.7
  endloop
 endfacet
 facet normal 0 -1 0
  outer loop
   vertex 1.38778e-17 0.3 0.8
   vertex 1.38778e-17 0.3 0.7
   vertex 0.09655 0.3 0.8
  endloop
 endfacet
 facet normal -1 0 0
  outer loop
   vertex 1.38778e-17 0.2 0.7
   vertex 1.38778e-17 0.2 0.8
   vertex 1.38778e-17 0.3 0.7
  endloop
 endfacet
 facet normal -1 0 0
  outer loop
   vertex 1.38778e-17 0.3 0.8
   vertex 1.38778e-17 0.3 0.7
   vertex 1.38778e-17 0.2 0.8
  endloop
 endfacet
 facet normal 0 -1 0
  outer loop
   vertex 1.38778e-17 0.2 0.7
   vertex 0.09655 0.2 0.7
   vertex 1.38778e-17 0.2 0.8
  endloop
 endfacet
 facet normal 0 -1 0
  outer loop
   vertex 0.09655 0.2 0.8
   vertex 1.38778e-17 0.2 0.8
   vertex 0.09655 0.2 0.7
  endloop
 endfacet
 facet normal 0 0 1
  outer loop
   vertex 0.175 0.40345 0.675
   vertex 0.325 0.40345 0.675
   vertex 0.175 0.5 0.675
  endloop
 endfacet
 facet normal -0 0 1
  outer loop
   vertex 0.325 0.5 0.675
   vertex 0.175 0.5 0.675
   vertex 0.325 0.40345 0.675
  endloop
 endfacet
 facet normal -1 0 0
  outer loop
   vertex 0.325 0.40345 0.675
   vertex 0.325 0.40345 0.825
   vertex 0.325 0.5 0.675
  endloop
 endfacet
 facet normal -1 0 0
  outer loop
   vertex 0.325 0.5 0.825
   vertex 0.325 0.5 0.675
   vertex 0.325 0.40345 0.825
  endloop
 endfacet
 facet normal 0 0 1
  outer loop
   vertex 0.325 0.40345 0.825
   vertex 0.325 0.5 0.825
   vertex 0.175 0.40345 0.825
  endloop
 endfacet
 facet normal 0 0 1
  outer loop
   vertex 0.175 0.5 0.825
   vertex 0.175 0.40345 0.825
   vertex 0.325 0.5 0.825
  endloop
 endfacet
 facet normal 0 -1 -0
  outer loop
   vertex 0.325 0.5 0.675
   vertex 0.325 0.5 0.825
   vertex 0.175 0.5 0.675
  endloop
 endfacet
 facet normal 0 -1 0
  outer loop
   vertex 0.175 0.5 0.825
   vertex 0.175 0.5 0.675
   vertex 0.325 0.5 0.825
  endloop
 endfacet
 facet normal -1 0 0
  outer loop
   vertex 0.175 0.40345 0.675
   vertex 0.175 0.40345 0.825
   vertex 0.175 0.5 0.675
  endloop
 endfacet
 facet normal -1 0 0
  outer loop
   vertex 0.175 0.5 0.825
   vertex 0.175 0.5 0.675
   vertex 0.175 0.40345 0.825
  endloop
 endfacet
 facet normal 0 -1 0
  outer loop
   vertex 0.175 0.40345 0.675
   vertex 0.325 0.40345 0.675
   vertex 0.175 0.40345 0.825
  endloop
 endfacet
 facet normal 0 -1 0
  outer loop
   vertex 0.325 0.40345 0.825
   vertex 0.175 0.40345 0.825
   vertex 0.325 0.40345 0.675
  endloop
 endfacet
 facet normal 0 0 1
  outer loop
   vertex 0.175 1.38778e-17 0.675
   vertex 0.325 1.38778e-17 0.675
   vertex 0.175 0.09655 0.675
  endloop
 endfacet
 facet normal -0 0 1
  outer loop
   vertex 0.325 0.09655 0.675
   vertex 0.175 0.09655 0.675
   vertex 0.325 1.38778e-17 0.675
  endloop
 endfacet
 facet normal -1 0 0
  outer loop
   vertex 0.325 1.38778e-17 0.675
   vertex 0.325 1.38778e-17 0.825
   vertex 0.325 0.09655 0.675
  endloop
 endfacet
 facet normal -1 0 0
  outer loop
   vertex 0.325 0.09655 0.825
   vertex 0.325 0.09655 0.675
   vertex 0.325 1.38778e-17 0.825
  endloop
 endfacet
 facet normal 0 0 1
  outer loop
   vertex 0.325 1.38778e-17 0.825
   vertex 0.325 0.09655 0.825
   vertex 0.175 1.38778e-17 0.825
  endloop
 endfacet
 facet normal 0 0 1
  outer loop
   vertex 0.175 0.09655 0.825
   vertex 0.175 1.38778e-17 0.825
   vertex 0.325 0.09655 0.825
  endloop
 endfacet
 facet normal 0 -1 -0
  outer loop
   vertex 0.325 0.09655 0.675
   vertex 0.325 0.09655 0.825
   vertex 0.175 0.09655 0.675
  endloop
 endfacet
 facet normal 0 -1 0
  outer loop
   vertex 0.175 0.09655 0.825
   vertex 0.175 0.09655 0.675
   vertex 0.325 0.09655 0.825
  endloop
 endfacet
 facet normal -1 0 0
  outer loop
   vertex 0.175 1.38778e-17 0.675
   vertex 0.175 1.38778e-17 0.825
   vertex 0.175 0.09655 0.675
  endloop
 endfacet
 facet normal -1 0 0
  outer loop
   vertex 0.175 0.09655 0.825
   vertex 0.175 0.09655 0.675
   vertex 0.175 1.38778e-17 0.825
  endloop
 endfacet
 facet normal 0 -1 0
  outer loop
   vertex 0.175 1.38778e-17 0.675
   vertex 0.325 1.38778e-17 0.675
   vertex 0.175 1.38778e-17 0.825
  endloop
 endfacet
 facet normal 0 -1 0
  outer loop
   vertex 0.325 1.38778e-17 0.825
   vertex 0.175 1.38778e-17 0.825
   vertex 0.325 1.38778e-17 0.675
  endloop
 endfacet
 facet normal 0 0 1
  outer loop
   vertex 0.65 0 0.65
   vertex 0.85 0 0.65
   vertex 0.65 0.5 0.65
  endloop
 endfacet
 facet normal -0 0 1
  outer loop
   vertex 0.85 0.5 0.65
   vertex 0.65 0.5 0.65
   vertex 0.85 0 0.65
  endloop
 endfacet
 facet normal -1 0 0
  outer loop
   vertex 0.85 0 0.65
   vertex 0.85 0 0.85
   vertex 0.85 0.5 0.65
  endloop
 endfacet
 facet normal -1 0 0
  outer loop
   vertex 0.85 0.5 0.85
   vertex 0.85 0.5 0.65
   vertex 0.85 0 0.85
  endloop
 endfacet
 facet normal 0 0 1
  outer loop
   vertex 0.85 0 0.85
   vertex 0.85 0.5 0.85
   vertex 0.65 0 0.85
  endloop
 endfacet
 facet normal 0 0 1
  outer loop
   vertex 0.65 0.5 0.85
   vertex 0.65 0 0.85
   vertex 0.85 0.5 0.85
  endloop
 endfacet
 facet normal 0 -1 -0
  outer loop
   vertex 0.85 0.5 0.65
   vertex 0.85 0.5 0.85
   vertex 0.65 0.5 0.65
  endloop
 endfacet
 facet normal 0 -1 0
  outer loop
   vertex 0.65 0.5 0.85
   vertex 0.65 0.5 0.65
   vertex 0.85 0.5 0.85
  endloop
 endfacet
 facet normal -1 0 0
  outer loop
   vertex 0.65 0 0.65
   vertex 0.65 0 0.85
   vertex 0.65 0.5 0.65
  endloop
 endfacet
 facet normal -1 0 0
  outer loop
   vertex 0.65 0.5 0.85
   vertex 0.65 0.5 0.65
   vertex 0.65 0 0.85
  endloop
 endfacet
 facet normal 0 -1 0
  outer loop
   vertex 0.65 0 0.65
   vertex 0.85 0 0.65
   vertex 0.65 0 0.85
  endloop
 endfacet
 facet normal 0 -1 0
  outer loop
   vertex 0.85 0 0.85
   vertex 0.65 0 0.85
   vertex 0.85 0 0.65
  endloop
 endfacet
 facet normal 0 0 1
  outer loop
   vertex 0.85 0.2075 0.7075
   vertex 1 0.2075 0.7075
   vertex 0.85 0.2925 0.7075
  endloop
 endfacet
 facet normal -0 0 1
  outer loop
   vertex 1 0.2925 0.7075
   vertex 0.85 0.2925 0.7075
   vertex 1 0.2075 0.7075
  endloop
 endfacet
 facet normal -1 0 0
  outer loop
   vertex 1 0.2075 0.7075
   vertex 1 0.2075 0.7925
   vertex 1 0.2925 0.7075
  endloop
 endfacet
 facet normal -1 0 0
  outer loop
   vertex 1 0.2925 0.7925
   vertex 1 0.2925 0.7075
   vertex 1 0.2075 0.7925
  endloop
 endfacet
 facet normal 0 0 1
  outer loop
   vertex 1 0.2075 0.7925
   vertex 1 0.2925 0.7925
   vertex 0.85 0.2075 0.7925
  endloop
 endfacet
 facet normal 0 0 1
  outer loop
   vertex 0.85 0.2925 0.7925
   vertex 0.85 0.2075 0.7925
   vertex 1 0.2925 0.7925
  endloop
 endfacet
 facet normal 0 -1 -0
  outer loop
   vertex 1 0.2925 0.7075
   vertex 1 0.2925 0.7925
   vertex 0.85 0.2925 0.7075
  endloop
 endfacet
 facet normal 0 -1 0
  outer loop
   vertex 0.85 0.2925 0.7925
   vertex 0.85 0.2925 0.7075
   vertex 1 0.2925 0.7925
  endloop
 endfacet
 facet normal -1 0 0
  outer loop
   vertex 0.85 0.2075 0.7075
   vertex 0.85 0.2075 0.7925
   vertex 0.85 0.2925 0.7075
  endloop
 endfacet
 facet normal -1 0 0
  outer loop
   vertex 0.85 0.2925 0.7925
   vertex 0.85 0.2925 0.7075
   vertex 0.85 0.2075 0.7925
  endloop
 endfacet
 facet normal 0 -1 0
  outer loop
   vertex 0.85 0.2075 0.7075
   vertex 1 0.2075 0.7075
   vertex 0.85 0.2075 0.7925
  endloop
 endfacet
 facet normal 0 -1 0
  outer loop
   vertex 1 0.2075 0.7925
   vertex 0.85 0.2075 0.7925
   vertex 1 0.2075 0.7075
  endloop
 endfacet
 facet normal 0 0 1
  outer loop
   vertex 0.5 0.2075 0.7075
   vertex 0.65 0.2075 0.7075
   vertex 0.5 0.2925 0.7075
  endloop
 endfacet
 facet normal -0 0 1
  outer loop
   vertex 0.65 0.2925 0.7075
   vertex 0.5 0.2925 0.7075
   vertex 0.65 0.2075 0.7075
  endloop
 endfacet
 facet normal -1 0 0
  outer loop
   vertex 0.65 0.2075 0.7075
   vertex 0.65 0.2075 0.7925
   vertex 0.65 0.2925 0.7075
  endloop
 endfacet
 facet normal -1 0 0
  outer loop
   vertex 0.65 0.2925 0.7925
   vertex 0.65 0.2925 0.7075
   vertex 0.65 0.2075 0.7925
  endloop
 endfacet
 facet normal 0 0 1
  outer loop
   vertex 0.65 0.2075 0.7925
   vertex 0.65 0.2925 0.7925
   vertex 0.5 0.2075 0.7925
  endloop
 endfacet
 facet normal 0 0 1
  outer loop
   vertex 0.5 0.2925 0.7925
   vertex 0.5 0.2075 0.7925
   vertex 0.65 0.2925 0.7925
  endloop
 endfacet
 facet normal 0 -1 -0
  outer loop
   vertex 0.65 0.2925 0.7075
   vertex 0.65 0.2925 0.7925
   vertex 0.5 0.2925 0.7075
  endloop
 endfacet
 facet normal 0 -1 0
  outer loop
   vertex 0.5 0.2925 0.7925
   vertex 0.5 0.2925 0.7075
   vertex 0.65 0.2925 0.7925
  endloop
 endfacet
 facet normal -1 0 0
  outer loop
   vertex 0.5 0.2075 0.7075
   vertex 0.5 0.2075 0.7925
   vertex 0.5 0.2925 0.7075
  endloop
 endfacet
 facet normal -1 0 0
  outer loop
   vertex 0.5 0.2925 0.7925
   vertex 0.5 0.2925 0.7075
   vertex 0.5 0.2075 0.7925
  endloop
 endfacet
 facet normal 0 -1 0
  outer loop
   vertex 0.5 0.2075 0.7075
   vertex 0.65 0.2075 0.7075
   vertex 0.5 0.2075 0.7925
  endloop
 endfacet
 facet normal 0 -1 0
  outer loop
   vertex 0.65 0.2075 0.7925
   vertex 0.5 0.2075 0.7925
   vertex 0.65 0.2075 0.7075
  endloop
 endfacet
 facet normal 0 0 1
  outer loop
   vertex 0.654777 0.154777 0.85
   vertex 0.845223 0.154777 0.85
   vertex 0.654777 0.345223 0.85
  endloop
 endfacet
 facet normal -0 0 1
  outer loop
   vertex 0.845223 0.345223 0.85
   vertex 0.654777 0.345223 0.85
   vertex 0.845223 0.154777 0.85
  endloop
 endfacet
 facet normal -1 0 0
  outer loop
   vertex 0.845223 0.154777 0.85
   vertex 0.845223 0.154777 1
   vertex 0.845223 0.345223 0.85
  endloop
 endfacet
 facet normal -1 0 0
  outer loop
   vertex 0.845223 0.345223 1
   vertex 0.845223 0.345223 0.85
   vertex 0.845223 0.154777 1
  endloop
 endfacet
 facet normal 0 0 1
  outer loop
   vertex 0.845223 0.154777 1
   vertex 0.845223 0.345223 1
   vertex 0.654777 0.154777 1
  endloop
 endfacet
 facet normal 0 0 1
  outer loop
   vertex 0.654777 0.345223 1
   vertex 0.654777 0.154777 1
   vertex 0.845223 0.345223 1
  endloop
 endfacet
 facet normal 0 -1 -0
  outer loop
   vertex 0.845223 0.345223 0.85
   vertex 0.845223 0.345223 1
   vertex 0.654777 0.345223 0.85
  endloop
 endfacet
 facet normal 0 -1 0
  outer loop
   vertex 0.654777 0.345223 1
   vertex 0.654777 0.345223 0.85
   vertex 0.845223 0.345223 1
  endloop
 endfacet
 facet normal -1 0 0
  outer loop
   vertex 0.654777 0.154777 0.85
   vertex 0.654777 0.154777 1
   vertex 0.654777 0.345223 0.85
  endloop
 endfacet
 facet normal -1 0 0
  outer loop
   vertex 0.654777 0.345223 1
   vertex 0.654777 0.345223 0.85
   vertex 0.654777 0.154777 1
  endloop
 endfacet
 facet normal 0 -1 0
  outer loop
   vertex 0.654777 0.154777 0.85
   vertex 0.845223 0.154777 0.85
   vertex 0.654777 0.154777 1
  endloop
 endfacet
 facet normal 0 -1 0
  outer loop
   vertex 0.845223 0.154777 1
   vertex 0.654777 0.154777 1
   vertex 0.845223 0.154777 0.85
  endloop
 endfacet
 facet normal 0 0 1
  outer loop
   vertex 0.654777 0.154777 0.5
   vertex 0.845223 0.154777 0.5
   vertex 0.654777 0.345223 0.5
  endloop
 endfacet
 facet normal -0 0 1
  outer loop
   vertex 0.845223 0.345223 0.5
   vertex 0.654777 0.345223 0.5
   vertex 0.845223 0.154777 0.5
  endloop
 endfacet
 facet normal -1 0 0
  outer loop
   vertex 0.845223 0.154777 0.5
   vertex 0.845223 0.154777 0.65
   vertex 0.845223 0.345223 0.5
  endloop
 endfacet
 facet normal -1 0 0
  outer loop
   vertex 0.845223 0.345223 0.65
   vertex 0.845223 0.345223 0.5
   vertex 0.845223 0.154777 0.65
  endloop
 endfacet
 facet normal 0 0 1
  outer loop
   vertex 0.845223 0.154777 0.65
   vertex 0.845223 0.345223 0.65
   vertex 0.654777 0.154777 0.65
  endloop
 endfacet
 facet normal 0 0 1
  outer loop
   vertex 0.654777 0.345223 0.65
   vertex 0.654777 0.154777 0.65
   vertex 0.845223 0.345223 0.65
  endloop
 endfacet
 facet normal 0 -1 -0
  outer loop
   vertex 0.845223 0.345223 0.5
   vertex 0.845223 0.345223 0.65
   vertex 0.654777 0.345223 0.5
  endloop
 endfacet
 facet normal 0 -1 0
  outer loop
   vertex 0.654777 0.345223 0.65
   vertex 0.654777 0.345223 0.5
   vertex 0.845223 0.345223 0.65
  endloop
 endfacet
 facet normal -1 0 0
  outer loop
   vertex 0.654777 0.154777 0.5
   vertex 0.654777 0.154777 0.65
   vertex 0.654777 0.345223 0.5
  endloop
 endfacet
 facet normal -1 0 0
  outer loop
   vertex 0.654777 0.345223 0.65
   vertex 0.654777 0.345223 0.5
   vertex 0.654777 0.154777 0.65
  endloop
 endfacet
 facet normal 0 -1 0
  outer loop
   vertex 0.654777 0.154777 0.5
   vertex 0.845223 0.154777 0.5
   vertex 0.654777 0.154777 0.65
  endloop
 endfacet
 facet normal 0 -1 0
  outer loop
   vertex 0.845223 0.154777 0.65
   vertex 0.654777 0.154777 0.65
   vertex 0.845223 0.154777 0.5
  endloop
 endfacet
 facet normal 0 0 1
  outer loop
   vertex 0 0.5965 0.5965
   vertex 0.5 0.5965 0.5965
   vertex 0 0.9035 0.5965
  endloop
 endfacet
 facet normal -0 0 1
  outer loop
   vertex 0.5 0.9035 0.5965
   vertex 0 0.9035 0.5965
   vertex 0.5 0.5965 0.5965
  endloop
 endfacet
 facet normal -1 0 0
  outer loop
   vertex 0.5 0.5965 0.5965
   vertex 0.5 0.5965 0.9035
   vertex 0.5 0.9035 0.5965
  endloop
 endfacet
 facet normal -1 0 0
  outer loop
   vertex 0.5 0.9035 0.9035
   vertex 0.5 0.9035 0.5965
   vertex 0.5 0.5965 0.9035
  endloop
 endfacet
 facet normal 0 0 1
  outer loop
   vertex 0.5 0.5965 0.9035
   vertex 0.5 0.9035 0.9035
   vertex 0 0.5965 0.9035
  endloop
 endfacet
 facet normal 0 0 1
  outer loop
   vertex 0 0.9035 0.9035
   vertex 0 0.5965 0.9035
   vertex 0.5 0.9035 0.9035
  endloop
 endfacet
 facet normal 0 -1 -0
  outer loop
   vertex 0.5 0.9035 0.5965
   vertex 0.5 0.9035 0.9035
   vertex 0 0.9035 0.5965
  endloop
 endfacet
 facet normal 0 -1 0
  outer loop
   vertex 0 0.9035 0.9035
   vertex 0 0.9035 0.5965
   vertex 0.5 0.9035 0.9035
  endloop
 endfacet
 facet normal -1 0 0
  outer loop
   vertex 0 0.5965 0.5965
   vertex 0 0.5965 0.9035
   vertex 0 0.9035 0.5965
  endloop
 endfacet
 facet normal -1 0 0
  outer loop
   vertex 0 0.9035 0.9035
   vertex 0 0.9035 0.5965
   vertex 0 0.5965 0.9035
  endloop
 endfacet
 facet normal 0 -1 0
  outer loop
   vertex 0 0.5965 0.5965
   vertex 0.5 0.5965 0.5965
   vertex 0 0.5965 0.9035
  endloop
 endfacet
 facet normal 0 -1 0
  outer loop
   vertex 0.5 0.5965 0.9035
   vertex 0 0.5965 0.9035
   vertex 0.5 0.5965 0.5965
  endloop
 endfacet
 facet normal 0 0 1
  outer loop
   vertex 0.225 0.9035 0.725
   vertex 0.275 0.9035 0.725
   vertex 0.225 1 0.725
  endloop
 endfacet
 facet normal -0 0 1
  outer loop
   vertex 0.275 1 0.725
   vertex 0.225 1 0.725
   vertex 0.275 0.9035 0.725
  endloop
 endfacet
 facet normal -1 0 0
  outer loop
   vertex 0.275 0.9035 0.725
   vertex 0.275 0.9035 0.775
   vertex 0.275 1 0.725
  endloop
 endfacet
 facet normal -1 0 0
  outer loop
   vertex 0.275 1 0.775
   vertex 0.275 1 0.725
   vertex 0.275 0.9035 0.775
  endloop
 endfacet
 facet normal 0 0 1
  outer loop
   vertex 0.275 0.9035 0.775
   vertex 0.275 1 0.775
   vertex 0.225 0.9035 0.775
  endloop
 endfacet
 facet normal 0 0 1
  outer loop
   vertex 0.225 1 0.775
   vertex 0.225 0.9035 0.775
   vertex 0.275 1 0.775
  endloop
 endfacet
 facet normal 0 -1 -0
  outer loop
   vertex 0.275 1 0.725
   vertex 0.275 1 0.775
   vertex 0.225 1 0.725
  endloop
 endfacet
 facet normal 0 -1 0
  outer loop
   vertex 0.225 1 0.775
   vertex 0.225 1 0.725
   vertex 0.275 1 0.775
  endloop
 endfacet
 facet normal -1 0 0
  outer loop
   vertex 0.225 0.9035 0.725
   vertex 0.225 0.9035 0.775
   vertex 0.225 1 0.725
  endloop
 endfacet
 facet normal -1 0 0
  outer loop
   vertex 0.225 1 0.775
   vertex 0.225 1 0.725
   vertex 0.225 0.9035 0.775
  endloop
 endfacet
 facet normal 0 -1 0
  outer loop
   vertex 0.225 0.9035 0.725
   vertex 0.275 0.9035 0.725
   vertex 0.225 0.9035 0.775
  endloop
 endfacet
 facet normal 0 -1 0
  outer loop
   vertex 0.275 0.9035 0.775
   vertex 0.225 0.9035 0.775
   vertex 0.275 0.9035 0.725
  endloop
 endfacet
 facet normal 0 0 1
  outer loop
   vertex 0.225 0.5 0.725
   vertex 0.275 0.5 0.725
   vertex 0.225 0.5965 0.725
  endloop
 endfacet
 facet normal -0 0 1
  outer loop
   vertex 0.275 0.5965 0.725
   vertex 0.225 0.5965 0.725
   vertex 0.275 0.5 0.725
  endloop
 endfacet
 facet normal -1 0 0
  outer loop
   vertex 0.275 0.5 0.725
   vertex 0.275 0.5 0.775
   vertex 0.275 0.5965 0.725
  endloop
 endfacet
 facet normal -1 0 0
  outer loop
   vertex 0.275 0.5965 0.775
   vertex 0.275 0.5965 0.725
   vertex 0.275 0.5 0.775
  endloop
 endfacet
 facet normal 0 0 1
  outer loop
   vertex 0.275 0.5 0.775
   vertex 0.275 0.5965 0.775
   vertex 0.225 0.5 0.775
  endloop
 endfacet
 facet normal 0 0 1
  outer loop
   vertex 0.225 0.5965 0.775
   vertex 0.225 0.5 0.775
   vertex 0.275 0.5965 0.775
  endloop
 endfacet
 facet normal 0 -1 -0
  outer loop
   vertex 0.275 0.5965 0.725
   vertex 0.275 0.5965 0.775
   vertex 0.225 0.5965 0.725
  endloop
 endfacet
 facet normal 0 -1 0
  outer loop
   vertex 0.225 0.5965 0.775
   vertex 0.225 0.5965 0.725
   vertex 0.275 0.5965 0.775
  endloop
 endfacet
 facet normal -1 0 0
  outer loop
   vertex 0.225 0.5 0.725
   vertex 0.225 0.5 0.775
   vertex 0.225 0.5965 0.725
  endloop
 endfacet
 facet normal -1 0 0
  outer loop
   vertex 0.225 0.5965 0.775
   vertex 0.225 0.5965 0.725
   vertex 0.225 0.5 0.775
  endloop
 endfacet
 facet normal 0 -1 0
  outer loop
   vertex 0.225 0.5 0.725
   vertex 0.275 0.5 0.725
   vertex 0.225 0.5 0.775
  endloop
 endfacet
 facet normal 0 -1 0
  outer loop
   vertex 0.275 0.5 0.775
   vertex 0.225 0.5 0.775
   vertex 0.275 0.5 0.725
  endloop
 endfacet
 facet normal 0 0 1
  outer loop
   vertex 0.09655 0.59655 0.9035
   vertex 0.40345 0.59655 0.9035
   vertex 0.09655 0.90345 0.9035
  endloop
 endfacet
 facet normal -0 0 1
  outer loop
   vertex 0.40345 0.90345 0.9035
   vertex 0.09655 0.90345 0.9035
   vertex 0.40345 0.59655 0.9035
  endloop
 endfacet
 facet normal -1 0 0
  outer loop
   vertex 0.40345 0.59655 0.9035
   vertex 0.40345 0.59655 1
   vertex 0.40345 0.90345 0.9035
  endloop
 endfacet
 facet normal -1 0 0
  outer loop
   vertex 0.40345 0.90345 1
   vertex 0.40345 0.90345 0.9035
   vertex 0.40345 0.59655 1
  endloop
 endfacet
 facet normal 0 0 1
  outer loop
   vertex 0.40345 0.59655 1
   vertex 0.40345 0.90345 1
   vertex 0.09655 0.59655 1
  endloop
 endfacet
 facet normal 0 0 1
  outer loop
   vertex 0.09655 0.90345 1
   vertex 0.09655 0.59655 1
   vertex 0.40345 0.90345 1
  endloop
 endfacet
 facet normal 0 -1 -0
  outer loop
   vertex 0.40345 0.90345 0.9035
   vertex 0.40345 0.90345 1
   vertex 0.09655 0.90345 0.9035
  endloop
 endfacet
 facet normal 0 -1 0
  outer loop
   vertex 0.09655 0.90345 1
   vertex 0.09655 0.90345 0.9035
   vertex 0.40345 0.90345 1
  endloop
 endfacet
 facet normal -1 0 0
  outer loop
   vertex 0.09655 0.59655 0.9035
   vertex 0.09655 0.59655 1
   vertex 0.09655 0.90345 0.9035
  endloop
 endfacet
 facet normal -1 0 0
  outer loop
   vertex 0.09655 0.90345 1
   vertex 0.09655 0.90345 0.9035
   vertex 0.09655 0.59655 1
  endloop
 endfacet
 facet normal 0 -1 0
  outer loop
   vertex 0.09655 0.59655 0.9035
   vertex 0.40345 0.59655 0.9035
   vertex 0.09655 0.59655 1
  endloop
 endfacet
 facet normal 0 -1 0
  outer loop
   vertex 0.40345 0.59655 1
   vertex 0.09655 0.59655 1
   vertex 0.40345 0.59655 0.9035
  endloop
 endfacet
 facet normal 0 0 1
  outer loop
   vertex 0.09655 0.59655 0.5
   vertex 0.40345 0.59655 0.5
   vertex 0.09655 0.90345 0.5
  endloop
 endfacet
 facet normal -0 0 1
  outer loop
   vertex 0.40345 0.90345 0.5
   vertex 0.09655 0.90345 0.5
   vertex 0.40345 0.59655 0.5
  endloop
 endfacet
 facet normal -1 0 0
  outer loop
   vertex 0.40345 0.59655 0.5
   vertex 0.40345 0.59655 0.5965
   vertex 0.40345 0.90345 0.5
  endloop
 endfacet
 facet normal -1 0 0
  outer loop
   vertex 0.40345 0.90345 0.5965
   vertex 0.40345 0.90345 0.5
   vertex 0.40345 0.59655 0.5965
  endloop
 endfacet
 facet normal 0 0 1
  outer loop
   vertex 0.40345 0.59655 0.5965
   vertex 0.40345 0.90345 0.5965
   vertex 0.09655 0.59655 0.5965
  endloop
 endfacet
 facet normal 0 0 1
  outer loop
   vertex 0.09655 0.90345 0.5965
   vertex 0.09655 0.59655 0.5965
   vertex 0.40345 0.90345 0.5965
  endloop
 endfacet
 facet normal 0 -1 -0
  outer loop
   vertex 0.40345 0.90345 0.5
   vertex 0.40345 0.90345 0.5965
   vertex 0.09655 0.90345 0.5
  endloop
 endfacet
 facet normal 0 -1 0
  outer loop
   vertex 0.09655 0.90345 0.5965
   vertex 0.09655 0.90345 0.5
   vertex 0.40345 0.90345 0.5965
  endloop
 endfacet
 facet normal -1 0 0
  outer loop
   vertex 0.09655 0.59655 0.5
   vertex 0.09655 0.59655 0.5965
   vertex 0.09655 0.90345 0.5
  endloop
 endfacet
 facet normal -1 0 0
  outer loop
   vertex 0.09655 0.90345 0.5965
   vertex 0.09655 0.90345 0.5
   vertex 0.09655 0.59655 0.5965
  endloop
 endfacet
 facet normal 0 -1 0
  outer loop
   vertex 0.09655 0.59655 0.5
   vertex 0.40345 0.59655 0.5
   vertex 0.09655 0.59655 0.5965
  endloop
 endfacet
 facet normal 0 -1 0
  outer loop
   vertex 0.40345 0.59655 0.5965
   vertex 0.09655 0.59655 0.5965
   vertex 0.40345 0.59655 0.5
  endloop
 endfacet
 facet normal 0 0 1
  outer loop
   vertex 0.65 0.5 0.65
   vertex 0.85 0.5 0.65
   vertex 0.65 1 0.65
  endloop
 endfacet
 facet normal -0 0 1
  outer loop
   vertex 0.85 1 0.65
   vertex 0.65 1 0.65
   vertex 0.85 0.5 0.65
  endloop
 endfacet
 facet normal -1 0 0
  outer loop
   vertex 0.85 0.5 0.65
   vertex 0.85 0.5 0.85
   vertex 0.85 1 0.65
  endloop
 endfacet
 facet normal -1 0 0
  outer loop
   vertex 0.85 1 0.85
   vertex 0.85 1 0.65
   vertex 0.85 0.5 0.85
  endloop
 endfacet
 facet normal 0 0 1
  outer loop
   vertex 0.85 0.5 0.85
   vertex 0.85 1 0.85
   vertex 0.65 0.5 0.85
  endloop
 endfacet
 facet normal 0 0 1
  outer loop
   vertex 0.65 1 0.85
   vertex 0.65 0.5 0.85
   vertex 0.85 1 0.85
  endloop
 endfacet
 facet normal 0 -1 -0
  outer loop
   vertex 0.85 1 0.65
   vertex 0.85 1 0.85
   vertex 0.65 1 0.65
  endloop
 endfacet
 facet normal 0 -1 0
  outer loop
   vertex 0.65 1 0.85
   vertex 0.65 1 0.65
   vertex 0.85 1 0.85
  endloop
 endfacet
 facet normal -1 0 0
  outer loop
   vertex 0.65 0.5 0.65
   vertex 0.65 0.5 0.85
   vertex 0.65 1 0.65
  endloop
 endfacet
 facet normal -1 0 0
  outer loop
   vertex 0.65 1 0.85
   vertex 0.65 1 0.65
   vertex 0.65 0.5 0.85
  endloop
 endfacet
 facet normal 0 -1 0
  outer loop
   vertex 0.65 0.5 0.65
   vertex 0.85 0.5 0.65
   vertex 0.65 0.5 0.85
  endloop
 endfacet
 facet normal 0 -1 0
  outer loop
   vertex 0.85 0.5 0.85
   vertex 0.65 0.5 0.85
   vertex 0.85 0.5 0.65
  endloop
 endfacet
 facet normal 0 0 1
  outer loop
   vertex 0.85 0.7125 0.7125
   vertex 1 0.7125 0.7125
   vertex 0.85 0.7875 0.7125
  endloop
 endfacet
 facet normal -0 0 1
  outer loop
   vertex 1 0.7875 0.7125
   vertex 0.85 0.7875 0.7125
   vertex 1 0.7125 0.7125
  endloop
 endfacet
 facet normal -1 0 0
  outer loop
   vertex 1 0.7125 0.7125
   vertex 1 0.7125 0.7875
   vertex 1 0.7875 0.7125
  endloop
 endfacet
 facet normal -1 0 0
  outer loop
   vertex 1 0.7875 0.7875
   vertex 1 0.7875 0.7125
   vertex 1 0.7125 0.7875
  endloop
 endfacet
 facet normal 0 0 1
  outer loop
   vertex 1 0.7125 0.7875
   vertex 1 0.7875 0.7875
   vertex 0.85 0.7125 0.7875
  endloop
 endfacet
 facet normal 0 0 1
  outer loop
   vertex 0.85 0.7875 0.7875
   vertex 0.85 0.7125 0.7875
   vertex 1 0.7875 0.7875
  endloop
 endfacet
 facet normal 0 -1 -0
  outer loop
   vertex 1 0.7875 0.7125
   vertex 1 0.7875 0.7875
   vertex 0.85 0.7875 0.7125
  endloop
 endfacet
 facet normal 0 -1 0
  outer loop
   vertex 0.85 0.7875 0.7875
   vertex 0.85 0.7875 0.7125
   vertex 1 0.7875 0.7875
  endloop
 endfacet
 facet normal -1 0 0
  outer loop
   vertex 0.85 0.7125 0.7125
   vertex 0.85 0.7125 0.7875
   vertex 0.85 0.7875 0.7125
  endloop
 endfacet
 facet normal -1 0 0
  outer loop
   vertex 0.85 0.7875 0.7875
   vertex 0.85 0.7875 0.7125
   vertex 0.85 0.7125 0.7875
  endloop
 endfacet
 facet normal 0 -1 0
  outer loop
   vertex 0.85 0.7125 0.7125
   vertex 1 0.7125 0.7125
   vertex 0.85 0.7125 0.7875
  endloop
 endfacet
 facet normal 0 -1 0
  outer loop
   vertex 1 0.7125 0.7875
   vertex 0.85 0.7125 0.7875
   vertex 1 0.7125 0.7125
  endloop
 endfacet
 facet normal 0 0 1
  outer loop
   vertex 0.5 0.7125 0.7125
   vertex 0.65 0.7125 0.7125
   vertex 0.5 0.7875 0.7125
  endloop
 endfacet
 facet normal -0 0 1
  outer loop
   vertex 0.65 0.7875 0.7125
   vertex 0.5 0.7875 0.7125
   vertex 0.65 0.7125 0.7125
  endloop
 endfacet
 facet normal -1 0 0
  outer loop
   vertex 0.65 0.7125 0.7125
   vertex 0.65 0.7125 0.7875
   vertex 0.65 0.7875 0.7125
  endloop
 endfacet
 facet normal -1 0 0
  outer loop
   vertex 0.65 0.7875 0.7875
   vertex 0.65 0.7875 0.7125
   vertex 0.65 0.7125 0.7875
  endloop
 endfacet
 facet normal 0 0 1
  outer loop
   vertex 0.65 0.7125 0.7875
   vertex 0.65 0.7875 0.7875
   vertex 0.5 0.7125 0.7875
  endloop
 endfacet
 facet normal 0 0 1
  outer loop
   vertex 0.5 0.7875 0.7875
   vertex 0.5 0.7125 0.7875
   vertex 0.65 0.7875 0.7875
  endloop
 endfacet
 facet normal 0 -1 -0
  outer loop
   vertex 0.65 0.7875 0.7125
   vertex 0.65 0.7875 0.7875
   vertex 0.5 0.7875 0.7125
  endloop
 endfacet
 facet normal 0 -1 0
  outer loop
   vertex 0.5 0.7875 0.7875
   vertex 0.5 0.7875 0.7125
   vertex 0.65 0.7875 0.7875
  endloop
 endfacet
 facet normal -1 0 0
  outer loop
   vertex 0.5 0.7125 0.7125
   vertex 0.5 0.7125 0.7875
   vertex 0.5 0.7875 0.7125
  endloop
 endfacet
 facet normal -1 0 0
  outer loop
   vertex 0.5 0.7875 0.7875
   vertex 0.5 0.7875 0.7125
   vertex 0.5 0.7125 0.7875
  endloop
 endfacet
 facet normal 0 -1 0
  outer loop
   vertex 0.5 0.7125 0.7125
   vertex 0.65 0.7125 0.7125
   vertex 0.5 0.7125 0.7875
  endloop
 endfacet
 facet normal 0 -1 0
  outer loop
   vertex 0.65 0.7125 0.7875
   vertex 0.5 0.7125 0.7875
   vertex 0.65 0.7125 0.7125
  endloop
 endfacet
 facet normal 0 0 1
  outer loop
   vertex 0.654777 0.654777 0.85
   vertex 0.845223 0.654777 0.85
   vertex 0.654777 0.845223 0.85
  endloop
 endfacet
 facet normal -0 0 1
  outer loop
   vertex 0.845223 0.845223 0.85
   vertex 0.654777 0.845223 0.85
   vertex 0.845223 0.654777 0.85
  endloop
 endfacet
 facet normal -1 0 0
  outer loop
   vertex 0.845223 0.654777 0.85
   vertex 0.845223 0.654777 1
   vertex 0.845223 0.845223 0.85
  endloop
 endfacet
 facet normal -1 0 0
  outer loop
   vertex 0.845223 0.845223 1
   vertex 0.845223 0.845223 0.85
   vertex 0.845223 0.654777 1
  endloop
 endfacet
 facet normal 0 0 1
  outer loop
   vertex 0.845223 0.654777 1
   vertex 0.845223 0.845223 1
   vertex 0.654777 0.654777 1
  endloop
 endfacet
 facet normal 0 0 1
  outer loop
   vertex 0.654777 0.845223 1
   vertex 0.654777 0.654777 1
   vertex 0.845223 0.845223 1
  endloop
 endfacet
 facet normal 0 -1 -0
  outer loop
   vertex 0.845223 0.845223 0.85
   vertex 0.845223 0.845223 1
   vertex 0.654777 0.845223 0.85
  endloop
 endfacet
 facet normal 0 -1 0
  outer loop
   vertex 0.654777 0.845223 1
   vertex 0.654777 0.845223 0.85
   vertex 0.845223 0.845223 1
  endloop
 endfacet
 facet normal -1 0 0
  outer loop
   vertex 0.654777 0.654777 0.85
   vertex 0.654777 0.654777 1
   vertex 0.654777 0.845223 0.85
  endloop
 endfacet
 facet normal -1 0 0
  outer loop
   vertex 0.654777 0.845223 1
   vertex 0.654777 0.845223 0.85
   vertex 0.654777 0.654777 1
  endloop
 endfacet
 facet normal 0 -1 0
  outer loop
   vertex 0.654777 0.654777 0.85
   vertex 0.845223 0.654777 0.85
   vertex 0.654777 0.654777 1
  endloop
 endfacet
 facet normal 0 -1 0
  outer loop
   vertex 0.845223 0.654777 1
   vertex 0.654777 0.654777 1
   vertex 0.845223 0.654777 0.85
  endloop
 endfacet
 facet normal 0 0 1
  outer loop
   vertex 0.654777 0.654777 0.5
   vertex 0.845223 0.654777 0.5
   vertex 0.654777 0.845223 0.5
  endloop
 endfacet
 facet normal -0 0 1
  outer loop
   vertex 0.845223 0.845223 0.5
   vertex 0.654777 0.845223 0.5
   vertex 0.845223 0.654777 0.5
  endloop
 endfacet
 facet normal -1 0 0
  outer loop
   vertex 0.845223 0.654777 0.5
   vertex 0.845223 0.654777 0.65
   vertex 0.845223 0.845223 0.5
  endloop
 endfacet
 facet normal -1 0 0
  outer loop
   vertex 0.845223 0.845223 0.65
   vertex 0.845223 0.845223 0.5
   vertex 0.845223 0.654777 0.65
  endloop
 endfacet
 facet normal 0 0 1
  outer loop
   vertex 0.845223 0.654777 0.65
   vertex 0.845223 0.845223 0.65
   vertex 0.654777 0.654777 0.65
  endloop
 endfacet
 facet normal 0 0 1
  outer loop
   vertex 0.654777 0.845223 0.65
   vertex 0.654777 0.654777 0.65
   vertex 0.845223 0.845223 0.65
  endloop
 endfacet
 facet normal 0 -1 -0
  outer loop
   vertex 0.845223 0.845223 0.5
   vertex 0.845223 0.845223 0.65
   vertex 0.654777 0.845223 0.5
  endloop
 endfacet
 facet normal 0 -1 0
  outer loop
   vertex 0.654777 0.845223 0.65
   vertex 0.654777 0.845223 0.5
   vertex 0.845223 0.845223 0.65
  endloop
 endfacet
 facet normal -1 0 0
  outer loop
   vertex 0.654777 0.654777 0.5
   vertex 0.654777 0.654777 0.65
   vertex 0.654777 0.845223 0.5
  endloop
 endfacet
 facet normal -1 0 0
  outer loop
   vertex 0.654777 0.845223 0.65
   vertex 0.654777 0.845223 0.5
   vertex 0.654777 0.654777 0.65
  endloop
 endfacet
 facet normal 0 -1 0
  outer loop
   vertex 0.654777 0.654777 0.5
   vertex 0.845223 0.654777 0.5
   vertex 0.654777 0.654777 0.65
  endloop
 endfacet
 facet normal 0 -1 0
  outer loop
   vertex 0.845223 0.654777 0.65
   vertex 0.654777 0.654777 0.65
   vertex 0.845223 0.654777 0.5
  endloop
 endfacet
endsolid
