<?xml version="1.0" encoding="UTF-8" standalone="no"?>
<!DOCTYPE svg PUBLIC "-//W3C//DTD SVG 1.1//EN"
 "http://www.w3.org/Graphics/SVG/1.1/DTD/svg11.dtd">
<!-- Generated by graphviz version 2.28.0 (20110507.0412)
 -->
<!-- Title: G Pages: 1 -->
<svg width="855pt" height="188pt"
 viewBox="0.00 0.00 855.00 188.00" xmlns="http://www.w3.org/2000/svg" xmlns:xlink="http://www.w3.org/1999/xlink">
<g id="graph1" class="graph" transform="scale(1 1) rotate(0) translate(4 184)">
<title>G</title>
<polygon fill="white" stroke="white" points="-4,5 -4,-184 852,-184 852,5 -4,5"/>
<!-- CFS++ -->
<g id="node1" class="node"><title>CFS++</title>
<polygon fill="darkgrey" stroke="darkgrey" points="506.25,-180 449.75,-180 449.75,-144 506.25,-144 506.25,-180"/>
<text text-anchor="middle" x="478" y="-158.3" font-family="Times,serif" font-size="14.00">CFS++</text>
</g>
<!-- .unv -->
<g id="node3" class="node"><title>.unv</title>
<ellipse fill="none" stroke="black" cx="397" cy="-90" rx="27" ry="18"/>
<text text-anchor="middle" x="397" y="-86.3" font-family="Times,serif" font-size="14.00">.unv</text>
</g>
<!-- CFS++&#45;&gt;.unv -->
<g id="edge2" class="edge"><title>CFS++&#45;&gt;.unv</title>
<path fill="none" stroke="black" d="M452.062,-143.697C440.401,-134.444 426.968,-122.953 416.209,-113.064"/>
<polygon fill="black" stroke="black" points="418.594,-110.503 408.911,-106.202 413.799,-115.602 418.594,-110.503"/>
</g>
<!-- .unverg -->
<g id="node5" class="node"><title>.unverg</title>
<ellipse fill="none" stroke="black" cx="480" cy="-90" rx="37.5442" ry="18"/>
<text text-anchor="middle" x="480" y="-86.3" font-family="Times,serif" font-size="14.00">.unverg</text>
</g>
<!-- CFS++&#45;&gt;.unverg -->
<g id="edge4" class="edge"><title>CFS++&#45;&gt;.unverg</title>
<path fill="none" stroke="black" d="M472.579,-143.697C472.003,-135.983 472.042,-126.712 472.63,-118.112"/>
<polygon fill="black" stroke="black" points="476.119,-118.399 473.616,-108.104 469.152,-117.713 476.119,-118.399"/>
</g>
<!-- .unv&#45;&gt;CFS++ -->
<g id="edge10" class="edge"><title>.unv&#45;&gt;CFS++</title>
<path fill="none" stroke="black" d="M415.917,-102.844C428.124,-112.119 443.826,-125.33 456.472,-136.818"/>
<polygon fill="black" stroke="black" points="454.18,-139.465 463.893,-143.697 458.939,-134.332 454.18,-139.465"/>
</g>
<!-- Gmsh -->
<g id="node11" class="node"><title>Gmsh</title>
<polygon fill="none" stroke="black" points="54,-36 0,-36 0,-0 54,-0 54,-36"/>
<text text-anchor="middle" x="27" y="-14.3" font-family="Times,serif" font-size="14.00">Gmsh</text>
</g>
<!-- .unv&#45;&gt;Gmsh -->
<g id="edge12" class="edge"><title>.unv&#45;&gt;Gmsh</title>
<path fill="none" stroke="black" d="M370.112,-87.6439C312.9,-83.9864 176.203,-71.8768 64.0729,-39.0282"/>
<polygon fill="black" stroke="black" points="64.9179,-35.6276 54.3337,-36.1029 62.9041,-42.3317 64.9179,-35.6276"/>
</g>
<!-- FLUENT -->
<g id="node14" class="node"><title>FLUENT</title>
<polygon fill="none" stroke="black" points="140,-36 72,-36 72,-0 140,-0 140,-36"/>
<text text-anchor="middle" x="106" y="-14.3" font-family="Times,serif" font-size="14.00">FLUENT</text>
</g>
<!-- .unv&#45;&gt;FLUENT -->
<g id="edge16" class="edge"><title>.unv&#45;&gt;FLUENT</title>
<path fill="none" stroke="black" d="M370.937,-84.897C327.001,-77.6687 235.379,-61.2549 149.695,-35.9507"/>
<polygon fill="black" stroke="black" points="150.671,-32.5894 140.087,-33.0675 148.659,-39.294 150.671,-32.5894"/>
</g>
<!-- Amira -->
<g id="node16" class="node"><title>Amira</title>
<polygon fill="none" stroke="black" points="212,-36 158,-36 158,-0 212,-0 212,-36"/>
<text text-anchor="middle" x="185" y="-14.3" font-family="Times,serif" font-size="14.00">Amira</text>
</g>
<!-- .unv&#45;&gt;Amira -->
<g id="edge18" class="edge"><title>.unv&#45;&gt;Amira</title>
<path fill="none" stroke="black" d="M372.126,-82.7611C339.426,-74.2925 280.143,-58.0216 221.703,-36.0045"/>
<polygon fill="black" stroke="black" points="222.925,-32.7249 212.335,-32.4219 220.425,-39.2631 222.925,-32.7249"/>
</g>
<!-- Siemens NX PLM -->
<g id="node18" class="node"><title>Siemens NX PLM</title>
<polygon fill="none" stroke="black" points="349.25,-36 230.75,-36 230.75,-0 349.25,-0 349.25,-36"/>
<text text-anchor="middle" x="290" y="-14.3" font-family="Times,serif" font-size="14.00">Siemens NX PLM</text>
</g>
<!-- .unv&#45;&gt;Siemens NX PLM -->
<g id="edge20" class="edge"><title>.unv&#45;&gt;Siemens NX PLM</title>
<path fill="none" stroke="black" d="M378.362,-76.8069C363.543,-67.1121 342.403,-53.2823 324.516,-41.5805"/>
<polygon fill="black" stroke="black" points="326.323,-38.5801 316.038,-36.0344 322.491,-44.438 326.323,-38.5801"/>
</g>
<!-- Tecplot -->
<g id="node20" class="node"><title>Tecplot</title>
<polygon fill="none" stroke="black" points="425.5,-36 368.5,-36 368.5,-0 425.5,-0 425.5,-36"/>
<text text-anchor="middle" x="397" y="-14.3" font-family="Times,serif" font-size="14.00">Tecplot</text>
</g>
<!-- .unv&#45;&gt;Tecplot -->
<g id="edge22" class="edge"><title>.unv&#45;&gt;Tecplot</title>
<path fill="none" stroke="black" d="M397,-71.6966C397,-63.9827 397,-54.7125 397,-46.1124"/>
<polygon fill="black" stroke="black" points="400.5,-46.1043 397,-36.1043 393.5,-46.1044 400.5,-46.1043"/>
</g>
<!-- EnSight -->
<g id="node22" class="node"><title>EnSight</title>
<polygon fill="none" stroke="black" points="503.5,-36 444.5,-36 444.5,-0 503.5,-0 503.5,-36"/>
<text text-anchor="middle" x="474" y="-14.3" font-family="Times,serif" font-size="14.00">EnSight</text>
</g>
<!-- .unv&#45;&gt;EnSight -->
<g id="edge24" class="edge"><title>.unv&#45;&gt;EnSight</title>
<path fill="none" stroke="black" d="M412.582,-74.8345C422.579,-65.7459 435.818,-53.7105 447.445,-43.1413"/>
<polygon fill="black" stroke="black" points="450.131,-45.4293 455.176,-36.1127 445.422,-40.2497 450.131,-45.4293"/>
</g>
<!-- Code ASTER -->
<g id="node24" class="node"><title>Code ASTER</title>
<polygon fill="none" stroke="black" points="614,-36 522,-36 522,-0 614,-0 614,-36"/>
<text text-anchor="middle" x="568" y="-14.3" font-family="Times,serif" font-size="14.00">Code ASTER</text>
</g>
<!-- .unv&#45;&gt;Code ASTER -->
<g id="edge26" class="edge"><title>.unv&#45;&gt;Code ASTER</title>
<path fill="none" stroke="black" d="M418.213,-78.694C423.045,-76.4268 428.177,-74.0825 433,-72 459.019,-60.7643 488.256,-49.1629 512.851,-39.6894"/>
<polygon fill="black" stroke="black" points="514.298,-42.8833 522.382,-36.0352 511.792,-36.3472 514.298,-42.8833"/>
</g>
<!-- OOFEM -->
<g id="node26" class="node"><title>OOFEM</title>
<polygon fill="none" stroke="black" points="697.25,-36 632.75,-36 632.75,-0 697.25,-0 697.25,-36"/>
<text text-anchor="middle" x="665" y="-14.3" font-family="Times,serif" font-size="14.00">OOFEM</text>
</g>
<!-- .unv&#45;&gt;OOFEM -->
<g id="edge28" class="edge"><title>.unv&#45;&gt;OOFEM</title>
<path fill="none" stroke="black" d="M417.574,-78.1896C422.528,-75.8953 427.873,-73.6663 433,-72 514.739,-45.4363 540.543,-60.2412 623,-36 623.099,-35.9709 623.198,-35.9416 623.297,-35.9122"/>
<polygon fill="black" stroke="black" points="624.264,-39.2789 632.665,-32.8239 622.072,-32.6308 624.264,-39.2789"/>
</g>
<!-- Matlab -->
<g id="node28" class="node"><title>Matlab</title>
<polygon fill="none" stroke="black" points="771.5,-36 716.5,-36 716.5,-0 771.5,-0 771.5,-36"/>
<text text-anchor="middle" x="744" y="-14.3" font-family="Times,serif" font-size="14.00">Matlab</text>
</g>
<!-- .unv&#45;&gt;Matlab -->
<g id="edge30" class="edge"><title>.unv&#45;&gt;Matlab</title>
<path fill="none" stroke="black" d="M417.509,-77.9799C422.466,-75.6943 427.828,-73.5217 433,-72 550.407,-37.4564 588.244,-69.3374 706,-36 706.209,-35.9409 706.418,-35.8809 706.627,-35.82"/>
<polygon fill="black" stroke="black" points="707.797,-39.1188 716.117,-32.5596 705.523,-32.4985 707.797,-39.1188"/>
</g>
<!-- .unverg&#45;&gt;CFS++ -->
<g id="edge6" class="edge"><title>.unverg&#45;&gt;CFS++</title>
<path fill="none" stroke="black" d="M485.406,-108.104C485.992,-115.791 485.964,-125.054 485.385,-133.665"/>
<polygon fill="black" stroke="black" points="481.894,-133.405 484.41,-143.697 488.861,-134.082 481.894,-133.405"/>
</g>
<!-- unv2rst -->
<g id="node8" class="node"><title>unv2rst</title>
<polygon fill="none" stroke="black" points="847.25,-36 790.75,-36 790.75,-0 847.25,-0 847.25,-36"/>
<text text-anchor="middle" x="819" y="-14.3" font-family="Times,serif" font-size="14.00">unv2rst</text>
</g>
<!-- .unverg&#45;&gt;unv2rst -->
<g id="edge8" class="edge"><title>.unverg&#45;&gt;unv2rst</title>
<path fill="none" stroke="black" d="M516.198,-85.3991C573.231,-79.1065 687.082,-64.028 780,-36 780.212,-35.936 780.425,-35.8712 780.638,-35.8055"/>
<polygon fill="black" stroke="black" points="782.047,-39.0202 790.321,-32.4034 779.727,-32.4159 782.047,-39.0202"/>
</g>
<!-- Gmsh&#45;&gt;.unv -->
<g id="edge14" class="edge"><title>Gmsh&#45;&gt;.unv</title>
<path fill="none" stroke="black" d="M54.2882,-29.0378C60.1178,-31.6376 66.188,-34.2067 72,-36 173.615,-67.3524 298.636,-80.8709 359.888,-86.0966"/>
<polygon fill="black" stroke="black" points="359.958,-89.6143 370.212,-86.9503 360.535,-82.6381 359.958,-89.6143"/>
</g>
<!-- SALOME -->
<g id="node29" class="node"><title>SALOME</title>
<polygon fill="none" stroke="black" points="354.25,-180 281.75,-180 281.75,-144 354.25,-144 354.25,-180"/>
<text text-anchor="middle" x="318" y="-158.3" font-family="Times,serif" font-size="14.00">SALOME</text>
</g>
<!-- SALOME&#45;&gt;.unv -->
<g id="edge32" class="edge"><title>SALOME&#45;&gt;.unv</title>
<path fill="none" stroke="black" d="M337.528,-143.697C348.517,-133.96 362.304,-121.743 373.837,-111.525"/>
<polygon fill="black" stroke="black" points="376.235,-114.076 381.398,-104.825 371.592,-108.837 376.235,-114.076"/>
</g>
<!-- GiD -->
<g id="node31" class="node"><title>GiD</title>
<polygon fill="none" stroke="black" points="427,-180 373,-180 373,-144 427,-144 427,-180"/>
<text text-anchor="middle" x="400" y="-158.3" font-family="Times,serif" font-size="14.00">GiD</text>
</g>
<!-- GiD&#45;&gt;.unv -->
<g id="edge34" class="edge"><title>GiD&#45;&gt;.unv</title>
<path fill="none" stroke="black" d="M399.258,-143.697C398.928,-135.983 398.531,-126.712 398.162,-118.112"/>
<polygon fill="black" stroke="black" points="401.658,-117.945 397.733,-108.104 394.665,-118.245 401.658,-117.945"/>
</g>
</g>
</svg>
