<?xml version="1.0" encoding="UTF-8" standalone="no"?>
<!DOCTYPE svg PUBLIC "-//W3C//DTD SVG 1.0//EN"
 "http://www.w3.org/TR/2001/REC-SVG-20010904/DTD/svg10.dtd" [
 <!ATTLIST svg xmlns:xlink CDATA #FIXED "http://www.w3.org/1999/xlink">
]>
<!-- Generated by Graphviz version 2.20.2 (Wed Jun &#160;2 16:09:53 UTC 2010)
     For user: (strieben) Simon Triebenbacher -->
<!-- Title: G Pages: 1 -->
<svg width="948pt" height="188pt"
 viewBox="0.00 0.00 948.00 188.00" xmlns="http://www.w3.org/2000/svg" xmlns:xlink="http://www.w3.org/1999/xlink">
<g id="graph0" class="graph" transform="scale(1 1) rotate(0) translate(4 184)">
<title>G</title>
<polygon style="fill:white;stroke:white;" points="-4,4 -4,-184 944,-184 944,4 -4,4"/>
<!-- CFS++ -->
<g id="node1" class="node"><title>CFS++</title>
<polygon style="fill:none;stroke:black;" points="773,-180 707,-180 707,-144 773,-144 773,-180"/>
<text text-anchor="middle" x="740" y="-157.9" style="font-family:Times New Roman;font-size:14.00;">CFS++</text>
</g>
<!-- .unv -->
<g id="node3" class="node"><title>.unv</title>
<ellipse style="fill:none;stroke:black;" cx="446" cy="-90" rx="32.157" ry="18"/>
<text text-anchor="middle" x="446" y="-85.9" style="font-family:Times New Roman;font-size:14.00;">.unv</text>
</g>
<!-- CFS++&#45;&gt;.unv -->
<g id="edge2" class="edge"><title>CFS++&#45;&gt;.unv</title>
<path style="fill:none;stroke:black;" d="M707,-154C652,-141 544,-114 486,-100"/>
<polygon style="fill:black;stroke:black;" points="486.584,-96.5212 476,-97 484.573,-103.226 486.584,-96.5212"/>
</g>
<!-- .unverg -->
<g id="node5" class="node"><title>.unverg</title>
<ellipse style="fill:none;stroke:black;" cx="740" cy="-90" rx="47.9469" ry="18"/>
<text text-anchor="middle" x="740" y="-85.9" style="font-family:Times New Roman;font-size:14.00;">.unverg</text>
</g>
<!-- CFS++&#45;&gt;.unverg -->
<g id="edge4" class="edge"><title>CFS++&#45;&gt;.unverg</title>
<path style="fill:none;stroke:black;" d="M734,-144C733,-136 733,-127 733,-118"/>
<polygon style="fill:black;stroke:black;" points="736.488,-118.299 734,-108 729.522,-117.602 736.488,-118.299"/>
</g>
<!-- Gmsh -->
<g id="node10" class="node"><title>Gmsh</title>
<polygon style="fill:none;stroke:black;" points="56,-36 2.84217e-14,-36 3.55271e-15,-1.77636e-14 56,-3.55271e-15 56,-36"/>
<text text-anchor="middle" x="28" y="-13.9" style="font-family:Times New Roman;font-size:14.00;">Gmsh</text>
</g>
<!-- .unv&#45;&gt;Gmsh -->
<g id="edge10" class="edge"><title>.unv&#45;&gt;Gmsh</title>
<path style="fill:none;stroke:black;" d="M414,-89C348,-86 193,-76 66,-39"/>
<polygon style="fill:black;stroke:black;" points="66.584,-35.5212 56,-36 64.5725,-42.2259 66.584,-35.5212"/>
</g>
<!-- FLUENT -->
<g id="node13" class="node"><title>FLUENT</title>
<ellipse style="fill:none;stroke:black;" cx="123" cy="-18" rx="48.8383" ry="18"/>
<text text-anchor="middle" x="123" y="-13.9" style="font-family:Times New Roman;font-size:14.00;">FLUENT</text>
</g>
<!-- .unv&#45;&gt;FLUENT -->
<g id="edge14" class="edge"><title>.unv&#45;&gt;FLUENT</title>
<path style="fill:none;stroke:black;" d="M415,-85C366,-76 265,-57 181,-36 177,-35 174,-34 170,-33"/>
<polygon style="fill:black;stroke:black;" points="170.584,-29.5212 160,-30 168.573,-36.2259 170.584,-29.5212"/>
</g>
<!-- Amira -->
<g id="node15" class="node"><title>Amira</title>
<polygon style="fill:none;stroke:black;" points="246,-36 190,-36 190,-1.77636e-14 246,-3.55271e-15 246,-36"/>
<text text-anchor="middle" x="218" y="-13.9" style="font-family:Times New Roman;font-size:14.00;">Amira</text>
</g>
<!-- .unv&#45;&gt;Amira -->
<g id="edge16" class="edge"><title>.unv&#45;&gt;Amira</title>
<path style="fill:none;stroke:black;" d="M416,-83C380,-74 317,-59 256,-36"/>
<polygon style="fill:black;stroke:black;" points="256.585,-32.4643 246,-32 253.985,-38.9636 256.585,-32.4643"/>
</g>
<!-- Siemens NX PLM -->
<g id="node17" class="node"><title>Siemens NX PLM</title>
<polygon style="fill:none;stroke:black;" points="396,-36 264,-36 264,-1.77636e-14 396,-3.55271e-15 396,-36"/>
<text text-anchor="middle" x="330" y="-13.9" style="font-family:Times New Roman;font-size:14.00;">Siemens NX PLM</text>
</g>
<!-- .unv&#45;&gt;Siemens NX PLM -->
<g id="edge18" class="edge"><title>.unv&#45;&gt;Siemens NX PLM</title>
<path style="fill:none;stroke:black;" d="M424,-77C408,-67 386,-53 368,-41"/>
<polygon style="fill:black;stroke:black;" points="369.441,-37.7969 359,-36 366.042,-43.916 369.441,-37.7969"/>
</g>
<!-- Tecplot -->
<g id="node19" class="node"><title>Tecplot</title>
<polygon style="fill:none;stroke:black;" points="478,-36 414,-36 414,-1.77636e-14 478,-3.55271e-15 478,-36"/>
<text text-anchor="middle" x="446" y="-13.9" style="font-family:Times New Roman;font-size:14.00;">Tecplot</text>
</g>
<!-- .unv&#45;&gt;Tecplot -->
<g id="edge20" class="edge"><title>.unv&#45;&gt;Tecplot</title>
<path style="fill:none;stroke:black;" d="M446,-72C446,-64 446,-55 446,-46"/>
<polygon style="fill:black;stroke:black;" points="449.5,-46 446,-36 442.5,-46 449.5,-46"/>
</g>
<!-- EnSight -->
<g id="node21" class="node"><title>EnSight</title>
<polygon style="fill:none;stroke:black;" points="566,-36 496,-36 496,-1.77636e-14 566,-3.55271e-15 566,-36"/>
<text text-anchor="middle" x="531" y="-13.9" style="font-family:Times New Roman;font-size:14.00;">EnSight</text>
</g>
<!-- .unv&#45;&gt;EnSight -->
<g id="edge22" class="edge"><title>.unv&#45;&gt;EnSight</title>
<path style="fill:none;stroke:black;" d="M464,-75C475,-66 490,-53 502,-42"/>
<polygon style="fill:black;stroke:black;" points="504.1,-44.8 510,-36 499.9,-39.2 504.1,-44.8"/>
</g>
<!-- Code ASTER -->
<g id="node23" class="node"><title>Code ASTER</title>
<polygon style="fill:none;stroke:black;" points="686,-36 584,-36 584,-1.77636e-14 686,-3.55271e-15 686,-36"/>
<text text-anchor="middle" x="635" y="-13.9" style="font-family:Times New Roman;font-size:14.00;">Code ASTER</text>
</g>
<!-- .unv&#45;&gt;Code ASTER -->
<g id="edge24" class="edge"><title>.unv&#45;&gt;Code ASTER</title>
<path style="fill:none;stroke:black;" d="M473,-80C500,-70 544,-53 578,-40"/>
<polygon style="fill:black;stroke:black;" points="580.015,-42.9636 588,-36 577.415,-36.4643 580.015,-42.9636"/>
</g>
<!-- OOFEM -->
<g id="node25" class="node"><title>OOFEM</title>
<polygon style="fill:none;stroke:black;" points="772,-36 704,-36 704,-1.77636e-14 772,-3.55271e-15 772,-36"/>
<text text-anchor="middle" x="738" y="-13.9" style="font-family:Times New Roman;font-size:14.00;">OOFEM</text>
</g>
<!-- .unv&#45;&gt;OOFEM -->
<g id="edge26" class="edge"><title>.unv&#45;&gt;OOFEM</title>
<path style="fill:none;stroke:black;" d="M477,-85C523,-77 611,-61 694,-36"/>
<polygon style="fill:black;stroke:black;" points="695.427,-39.2259 704,-33 693.416,-32.5212 695.427,-39.2259"/>
</g>
<!-- Matlab -->
<g id="node27" class="node"><title>Matlab</title>
<polygon style="fill:none;stroke:black;" points="852,-36 790,-36 790,-1.77636e-14 852,-3.55271e-15 852,-36"/>
<text text-anchor="middle" x="821" y="-13.9" style="font-family:Times New Roman;font-size:14.00;">Matlab</text>
</g>
<!-- .unv&#45;&gt;Matlab -->
<g id="edge28" class="edge"><title>.unv&#45;&gt;Matlab</title>
<path style="fill:none;stroke:black;" d="M478,-88C537,-83 666,-69 780,-36"/>
<polygon style="fill:black;stroke:black;" points="781.427,-39.2259 790,-33 779.416,-32.5212 781.427,-39.2259"/>
</g>
<!-- .unverg&#45;&gt;CFS++ -->
<g id="edge6" class="edge"><title>.unverg&#45;&gt;CFS++</title>
<path style="fill:none;stroke:black;" d="M746,-108C747,-116 747,-125 747,-134"/>
<polygon style="fill:black;stroke:black;" points="743.512,-133.701 746,-144 750.478,-134.398 743.512,-133.701"/>
</g>
<!-- unv2rst -->
<g id="node8" class="node"><title>unv2rst</title>
<polygon style="fill:none;stroke:black;" points="940,-36 870,-36 870,-1.77636e-14 940,-3.55271e-15 940,-36"/>
<text text-anchor="middle" x="905" y="-13.9" style="font-family:Times New Roman;font-size:14.00;">unv2rst</text>
</g>
<!-- .unverg&#45;&gt;unv2rst -->
<g id="edge8" class="edge"><title>.unverg&#45;&gt;unv2rst</title>
<path style="fill:none;stroke:black;" d="M771,-76C796,-65 833,-50 861,-37"/>
<polygon style="fill:black;stroke:black;" points="862.283,-40.2598 870,-33 859.44,-33.8631 862.283,-40.2598"/>
</g>
<!-- Gmsh&#45;&gt;.unv -->
<g id="edge12" class="edge"><title>Gmsh&#45;&gt;.unv</title>
<path style="fill:none;stroke:black;" d="M56,-29C62,-31 68,-34 74,-36 191,-71 334,-84 404,-88"/>
<polygon style="fill:black;stroke:black;" points="403.701,-91.4875 414,-89 404.398,-84.5222 403.701,-91.4875"/>
</g>
<!-- SALOME -->
<g id="node28" class="node"><title>SALOME</title>
<polygon style="fill:none;stroke:black;" points="452,-180 378,-180 378,-144 452,-144 452,-180"/>
<text text-anchor="middle" x="415" y="-157.9" style="font-family:Times New Roman;font-size:14.00;">SALOME</text>
</g>
<!-- SALOME&#45;&gt;.unv -->
<g id="edge30" class="edge"><title>SALOME&#45;&gt;.unv</title>
<path style="fill:none;stroke:black;" d="M423,-144C427,-136 431,-126 435,-117"/>
<polygon style="fill:black;stroke:black;" points="438.137,-118.56 439,-108 431.74,-115.717 438.137,-118.56"/>
</g>
<!-- GiD -->
<g id="node30" class="node"><title>GiD</title>
<polygon style="fill:none;stroke:black;" points="524,-180 470,-180 470,-144 524,-144 524,-180"/>
<text text-anchor="middle" x="497" y="-157.9" style="font-family:Times New Roman;font-size:14.00;">GiD</text>
</g>
<!-- GiD&#45;&gt;.unv -->
<g id="edge32" class="edge"><title>GiD&#45;&gt;.unv</title>
<path style="fill:none;stroke:black;" d="M484,-144C478,-136 471,-125 464,-115"/>
<polygon style="fill:black;stroke:black;" points="466.8,-112.9 458,-107 461.2,-117.1 466.8,-112.9"/>
</g>
</g>
</svg>
