<?xml version="1.0" encoding="UTF-8" standalone="no"?>
<!DOCTYPE svg PUBLIC "-//W3C//DTD SVG 1.0//EN"
 "http://www.w3.org/TR/2001/REC-SVG-20010904/DTD/svg10.dtd" [
 <!ATTLIST svg xmlns:xlink CDATA #FIXED "http://www.w3.org/1999/xlink">
]>
<!-- Generated by Graphviz version 2.20.2 (Wed Jun &#160;2 16:09:53 UTC 2010)
     For user: (strieben) Simon Triebenbacher -->
<!-- Title: G Pages: 1 -->
<svg width="684pt" height="188pt"
 viewBox="0.00 0.00 684.00 188.00" xmlns="http://www.w3.org/2000/svg" xmlns:xlink="http://www.w3.org/1999/xlink">
<g id="graph0" class="graph" transform="scale(1 1) rotate(0) translate(4 184)">
<title>G</title>
<polygon style="fill:white;stroke:white;" points="-4,4 -4,-184 680,-184 680,4 -4,4"/>
<!-- CFS++ -->
<g id="node1" class="node"><title>CFS++</title>
<polygon style="fill:none;stroke:black;" points="273,-180 207,-180 207,-144 273,-144 273,-180"/>
<text text-anchor="middle" x="240" y="-157.9" style="font-family:Times New Roman;font-size:14.00;">CFS++</text>
</g>
<!-- .rst -->
<g id="node3" class="node"><title>.rst</title>
<ellipse style="fill:none;stroke:black;" cx="283" cy="-90" rx="27.1004" ry="18"/>
<text text-anchor="middle" x="283" y="-85.9" style="font-family:Times New Roman;font-size:14.00;">.rst</text>
</g>
<!-- CFS++&#45;&gt;.rst -->
<g id="edge2" class="edge"><title>CFS++&#45;&gt;.rst</title>
<path style="fill:none;stroke:black;" d="M251,-144C256,-136 263,-125 268,-116"/>
<polygon style="fill:black;stroke:black;" points="271.203,-117.441 273,-107 265.084,-114.042 271.203,-117.441"/>
</g>
<!-- ANSYS Classic -->
<g id="node4" class="node"><title>ANSYS Classic</title>
<polygon style="fill:none;stroke:black;" points="114,-36 4.9738e-14,-36 0,-1.77636e-14 114,-3.55271e-15 114,-36"/>
<text text-anchor="middle" x="57" y="-13.9" style="font-family:Times New Roman;font-size:14.00;">ANSYS Classic</text>
</g>
<!-- .rst&#45;&gt;ANSYS Classic -->
<g id="edge10" class="edge"><title>.rst&#45;&gt;ANSYS Classic</title>
<path style="fill:none;stroke:black;" d="M258,-83C224,-73 164,-54 118,-39"/>
<polygon style="fill:black;stroke:black;" points="118.584,-35.5212 108,-36 116.573,-42.2259 118.584,-35.5212"/>
</g>
<!-- ANSYS Workbench -->
<g id="node6" class="node"><title>ANSYS Workbench</title>
<polygon style="fill:none;stroke:black;" points="278,-36 132,-36 132,-1.77636e-14 278,-3.55271e-15 278,-36"/>
<text text-anchor="middle" x="205" y="-13.9" style="font-family:Times New Roman;font-size:14.00;">ANSYS Workbench</text>
</g>
<!-- .rst&#45;&gt;ANSYS Workbench -->
<g id="edge12" class="edge"><title>.rst&#45;&gt;ANSYS Workbench</title>
<path style="fill:none;stroke:black;" d="M264,-77C253,-67 238,-55 226,-43"/>
<polygon style="fill:black;stroke:black;" points="227.831,-39.9511 218,-36 223.221,-45.2191 227.831,-39.9511"/>
</g>
<!-- ANSYS CFD&#45;Post -->
<g id="node13" class="node"><title>ANSYS CFD&#45;Post</title>
<polygon style="fill:none;stroke:black;" points="428,-36 296,-36 296,-1.77636e-14 428,-3.55271e-15 428,-36"/>
<text text-anchor="middle" x="362" y="-13.9" style="font-family:Times New Roman;font-size:14.00;">ANSYS CFD&#45;Post</text>
</g>
<!-- .rst&#45;&gt;ANSYS CFD&#45;Post -->
<g id="edge14" class="edge"><title>.rst&#45;&gt;ANSYS CFD&#45;Post</title>
<path style="fill:none;stroke:black;" d="M299,-75C309,-66 322,-54 334,-43"/>
<polygon style="fill:black;stroke:black;" points="336.779,-45.2191 342,-36 332.169,-39.9511 336.779,-45.2191"/>
</g>
<!-- Tecplot -->
<g id="node15" class="node"><title>Tecplot</title>
<polygon style="fill:none;stroke:black;" points="510,-36 446,-36 446,-1.77636e-14 510,-3.55271e-15 510,-36"/>
<text text-anchor="middle" x="478" y="-13.9" style="font-family:Times New Roman;font-size:14.00;">Tecplot</text>
</g>
<!-- .rst&#45;&gt;Tecplot -->
<g id="edge16" class="edge"><title>.rst&#45;&gt;Tecplot</title>
<path style="fill:none;stroke:black;" d="M307,-82C336,-73 385,-55 436,-36"/>
<polygon style="fill:black;stroke:black;" points="438.015,-38.9636 446,-32 435.415,-32.4643 438.015,-38.9636"/>
</g>
<!-- EnSight -->
<g id="node17" class="node"><title>EnSight</title>
<polygon style="fill:none;stroke:black;" points="598,-36 528,-36 528,-1.77636e-14 598,-3.55271e-15 598,-36"/>
<text text-anchor="middle" x="563" y="-13.9" style="font-family:Times New Roman;font-size:14.00;">EnSight</text>
</g>
<!-- .rst&#45;&gt;EnSight -->
<g id="edge18" class="edge"><title>.rst&#45;&gt;EnSight</title>
<path style="fill:none;stroke:black;" d="M309,-85C351,-77 437,-60 518,-36"/>
<polygon style="fill:black;stroke:black;" points="519.427,-39.2259 528,-33 517.416,-32.5212 519.427,-39.2259"/>
</g>
<!-- rstinfo -->
<g id="node19" class="node"><title>rstinfo</title>
<polygon style="fill:none;stroke:black;" points="676,-36 616,-36 616,-1.77636e-14 676,-3.55271e-15 676,-36"/>
<text text-anchor="middle" x="646" y="-13.9" style="font-family:Times New Roman;font-size:14.00;">rstinfo</text>
</g>
<!-- .rst&#45;&gt;rstinfo -->
<g id="edge20" class="edge"><title>.rst&#45;&gt;rstinfo</title>
<path style="fill:none;stroke:black;" d="M310,-88C364,-83 492,-69 606,-36"/>
<polygon style="fill:black;stroke:black;" points="607.427,-39.2259 616,-33 605.416,-32.5212 607.427,-39.2259"/>
</g>
<!-- ANSYS Classic&#45;&gt;.rst -->
<g id="edge4" class="edge"><title>ANSYS Classic&#45;&gt;.rst</title>
<path style="fill:none;stroke:black;" d="M114,-34C157,-48 214,-66 249,-78"/>
<polygon style="fill:black;stroke:black;" points="248.416,-81.4788 259,-81 250.427,-74.7741 248.416,-81.4788"/>
</g>
<!-- ANSYS Workbench&#45;&gt;.rst -->
<g id="edge6" class="edge"><title>ANSYS Workbench&#45;&gt;.rst</title>
<path style="fill:none;stroke:black;" d="M231,-36C241,-46 254,-57 264,-67"/>
<polygon style="fill:black;stroke:black;" points="261.454,-69.4038 271,-74 266.404,-64.454 261.454,-69.4038"/>
</g>
<!-- unv2rst -->
<g id="node8" class="node"><title>unv2rst</title>
<polygon style="fill:none;stroke:black;" points="361,-180 291,-180 291,-144 361,-144 361,-180"/>
<text text-anchor="middle" x="326" y="-157.9" style="font-family:Times New Roman;font-size:14.00;">unv2rst</text>
</g>
<!-- unv2rst&#45;&gt;.rst -->
<g id="edge8" class="edge"><title>unv2rst&#45;&gt;.rst</title>
<path style="fill:none;stroke:black;" d="M315,-144C310,-136 303,-125 298,-116"/>
<polygon style="fill:black;stroke:black;" points="300.916,-114.042 293,-107 294.797,-117.441 300.916,-114.042"/>
</g>
</g>
</svg>
