<?xml version="1.0" encoding="UTF-8" standalone="no"?>
<!DOCTYPE svg PUBLIC "-//W3C//DTD SVG 1.1//EN"
 "http://www.w3.org/Graphics/SVG/1.1/DTD/svg11.dtd">
<!-- Generated by graphviz version 2.28.0 (20110507.0412)
 -->
<!-- Title: G Pages: 1 -->
<svg width="622pt" height="188pt"
 viewBox="0.00 0.00 622.00 188.00" xmlns="http://www.w3.org/2000/svg" xmlns:xlink="http://www.w3.org/1999/xlink">
<g id="graph1" class="graph" transform="scale(1 1) rotate(0) translate(4 184)">
<title>G</title>
<polygon fill="white" stroke="white" points="-4,5 -4,-184 619,-184 619,5 -4,5"/>
<!-- CFS++ -->
<g id="node1" class="node"><title>CFS++</title>
<polygon fill="darkgrey" stroke="darkgrey" points="248.25,-180 191.75,-180 191.75,-144 248.25,-144 248.25,-180"/>
<text text-anchor="middle" x="220" y="-158.3" font-family="Times,serif" font-size="14.00">CFS++</text>
</g>
<!-- .rst -->
<g id="node3" class="node"><title>.rst</title>
<ellipse fill="none" stroke="black" cx="257" cy="-90" rx="27" ry="18"/>
<text text-anchor="middle" x="257" y="-86.3" font-family="Times,serif" font-size="14.00">.rst</text>
</g>
<!-- CFS++&#45;&gt;.rst -->
<g id="edge2" class="edge"><title>CFS++&#45;&gt;.rst</title>
<path fill="none" stroke="black" d="M229.146,-143.697C233.53,-135.403 238.864,-125.311 243.687,-116.187"/>
<polygon fill="black" stroke="black" points="246.888,-117.621 248.466,-107.145 240.699,-114.35 246.888,-117.621"/>
</g>
<!-- ANSYS Classic -->
<g id="node6" class="node"><title>ANSYS Classic</title>
<polygon fill="none" stroke="black" points="104,-36 0,-36 0,-0 104,-0 104,-36"/>
<text text-anchor="middle" x="52" y="-14.3" font-family="Times,serif" font-size="14.00">ANSYS Classic</text>
</g>
<!-- .rst&#45;&gt;ANSYS Classic -->
<g id="edge10" class="edge"><title>.rst&#45;&gt;ANSYS Classic</title>
<path fill="none" stroke="black" d="M232.351,-82.0322C201.117,-72.2037 146.754,-53.8639 105.803,-39.4908"/>
<polygon fill="black" stroke="black" points="106.827,-36.1405 96.2318,-36.1169 104.499,-42.7424 106.827,-36.1405"/>
</g>
<!-- ANSYS Workbench -->
<g id="node8" class="node"><title>ANSYS Workbench</title>
<polygon fill="none" stroke="black" points="250,-36 122,-36 122,-0 250,-0 250,-36"/>
<text text-anchor="middle" x="186" y="-14.3" font-family="Times,serif" font-size="14.00">ANSYS Workbench</text>
</g>
<!-- .rst&#45;&gt;ANSYS Workbench -->
<g id="edge12" class="edge"><title>.rst&#45;&gt;ANSYS Workbench</title>
<path fill="none" stroke="black" d="M238.991,-76.4854C228.347,-67.3472 215.095,-54.6627 204.409,-43.5332"/>
<polygon fill="black" stroke="black" points="206.876,-41.0462 197.485,-36.1393 201.766,-45.8309 206.876,-41.0462"/>
</g>
<!-- ANSYS CFD&#45;Post -->
<g id="node13" class="node"><title>ANSYS CFD&#45;Post</title>
<polygon fill="none" stroke="black" points="387.25,-36 268.75,-36 268.75,-0 387.25,-0 387.25,-36"/>
<text text-anchor="middle" x="328" y="-14.3" font-family="Times,serif" font-size="14.00">ANSYS CFD&#45;Post</text>
</g>
<!-- .rst&#45;&gt;ANSYS CFD&#45;Post -->
<g id="edge14" class="edge"><title>.rst&#45;&gt;ANSYS CFD&#45;Post</title>
<path fill="none" stroke="black" d="M271.711,-74.496C280.798,-65.5376 292.689,-53.8133 303.201,-43.4501"/>
<polygon fill="black" stroke="black" points="305.887,-45.7169 310.55,-36.2038 300.972,-40.7322 305.887,-45.7169"/>
</g>
<!-- Tecplot -->
<g id="node15" class="node"><title>Tecplot</title>
<polygon fill="none" stroke="black" points="463.5,-36 406.5,-36 406.5,-0 463.5,-0 463.5,-36"/>
<text text-anchor="middle" x="435" y="-14.3" font-family="Times,serif" font-size="14.00">Tecplot</text>
</g>
<!-- .rst&#45;&gt;Tecplot -->
<g id="edge16" class="edge"><title>.rst&#45;&gt;Tecplot</title>
<path fill="none" stroke="black" d="M280.249,-80.5139C307.958,-70.3126 355.592,-52.5001 396,-36 396.205,-35.9162 396.411,-35.8321 396.617,-35.7476"/>
<polygon fill="black" stroke="black" points="398.227,-38.8678 406.1,-31.7768 395.524,-32.411 398.227,-38.8678"/>
</g>
<!-- EnSight -->
<g id="node17" class="node"><title>EnSight</title>
<polygon fill="none" stroke="black" points="541.5,-36 482.5,-36 482.5,-0 541.5,-0 541.5,-36"/>
<text text-anchor="middle" x="512" y="-14.3" font-family="Times,serif" font-size="14.00">EnSight</text>
</g>
<!-- .rst&#45;&gt;EnSight -->
<g id="edge18" class="edge"><title>.rst&#45;&gt;EnSight</title>
<path fill="none" stroke="black" d="M282.53,-84.0898C323.184,-75.9635 404.894,-58.371 472,-36 472.322,-35.8926 472.645,-35.7838 472.969,-35.6735"/>
<polygon fill="black" stroke="black" points="474.323,-38.9047 482.496,-32.1626 471.903,-32.3365 474.323,-38.9047"/>
</g>
<!-- rstinfo -->
<g id="node19" class="node"><title>rstinfo</title>
<polygon fill="none" stroke="black" points="614,-36 560,-36 560,-0 614,-0 614,-36"/>
<text text-anchor="middle" x="587" y="-14.3" font-family="Times,serif" font-size="14.00">rstinfo</text>
</g>
<!-- .rst&#45;&gt;rstinfo -->
<g id="edge20" class="edge"><title>.rst&#45;&gt;rstinfo</title>
<path fill="none" stroke="black" d="M283.803,-86.4334C336.012,-80.9386 454.584,-66.0205 550,-36 550.101,-35.9682 550.202,-35.9361 550.304,-35.9039"/>
<polygon fill="black" stroke="black" points="551.64,-39.1418 559.825,-32.4143 549.231,-32.5694 551.64,-39.1418"/>
</g>
<!-- unv2rst -->
<g id="node4" class="node"><title>unv2rst</title>
<polygon fill="none" stroke="black" points="323.25,-180 266.75,-180 266.75,-144 323.25,-144 323.25,-180"/>
<text text-anchor="middle" x="295" y="-158.3" font-family="Times,serif" font-size="14.00">unv2rst</text>
</g>
<!-- unv2rst&#45;&gt;.rst -->
<g id="edge4" class="edge"><title>unv2rst&#45;&gt;.rst</title>
<path fill="none" stroke="black" d="M285.607,-143.697C281.105,-135.403 275.626,-125.311 270.673,-116.187"/>
<polygon fill="black" stroke="black" points="273.611,-114.263 265.764,-107.145 267.459,-117.603 273.611,-114.263"/>
</g>
<!-- ANSYS Classic&#45;&gt;.rst -->
<g id="edge6" class="edge"><title>ANSYS Classic&#45;&gt;.rst</title>
<path fill="none" stroke="black" d="M104.361,-34.9111C142.496,-47.4404 192.819,-64.6717 225.124,-76.2904"/>
<polygon fill="black" stroke="black" points="223.943,-79.5852 234.538,-79.7045 226.33,-73.0047 223.943,-79.5852"/>
</g>
<!-- ANSYS Workbench&#45;&gt;.rst -->
<g id="edge8" class="edge"><title>ANSYS Workbench&#45;&gt;.rst</title>
<path fill="none" stroke="black" d="M209.176,-36.0442C219.157,-44.959 230.533,-56.0052 239.769,-65.6986"/>
<polygon fill="black" stroke="black" points="237.283,-68.1652 246.65,-73.1159 242.415,-63.4044 237.283,-68.1652"/>
</g>
</g>
</svg>
