<?xml version="1.0" encoding="UTF-8"?>
<!DOCTYPE svg PUBLIC "-//W3C//DTD SVG 1.1//EN" "http://www.w3.org/Graphics/SVG/1.1/DTD/svg11.dtd">
<!-- Creator: CorelDRAW X6 -->
<svg xmlns="http://www.w3.org/2000/svg" xml:space="preserve" width="209.903mm" height="297.039mm" version="1.1" style="shape-rendering:geometricPrecision; text-rendering:geometricPrecision; image-rendering:optimizeQuality; fill-rule:evenodd; clip-rule:evenodd"
viewBox="0 0 20990 29704"
 xmlns:xlink="http://www.w3.org/1999/xlink">
 <defs>
  <style type="text/css">
   <![CDATA[
    .fil0 {fill:#CC0000}
    .fil1 {fill:white}
   ]]>
  </style>
 </defs>
 <g id="Ebene_x0020_1">
  <metadata id="CorelCorpID_0Corel-Layer"/>
  <path class="fil0" d="M315 23c-159,0 -288,129 -288,288l0 2675c0,159 129,288 288,288l2675 0c159,0 288,-129 288,-288l0 -2675c0,-159 -129,-288 -288,-288l-2675 0z"/>
  <path class="fil1" d="M2341 2441l0 -914c0,-74 -15,-137 -46,-189 -31,-52 -89,-78 -175,-78 -86,0 -150,26 -193,79 -42,53 -63,126 -63,219l0 883 -387 0 0 -914c0,-74 -15,-137 -46,-189 -31,-52 -89,-78 -175,-78 -80,0 -142,26 -188,79 -45,53 -68,126 -68,219l0 883 -387 0 0 -1521 387 0 -3 178c36,-61 89,-110 159,-146 70,-36 141,-54 213,-54 99,0 179,21 238,62 59,41 104,97 133,167 53,-74 123,-131 210,-170 87,-39 175,-59 265,-59 91,0 170,14 235,43 66,29 119,68 159,117 41,50 70,108 89,175 19,67 29,137 29,211l0 997 -387 0z"/>
 </g>
</svg>
