<?xml version="1.0" encoding="UTF-8"?>
<!DOCTYPE svg PUBLIC "-//W3C//DTD SVG 1.1//EN" "http://www.w3.org/Graphics/SVG/1.1/DTD/svg11.dtd">
<!-- Creator: CorelDRAW -->
<svg xmlns="http://www.w3.org/2000/svg" xml:space="preserve" width="841mm" height="1189mm" style="shape-rendering:geometricPrecision; text-rendering:geometricPrecision; image-rendering:optimizeQuality; fill-rule:evenodd; clip-rule:evenodd"
viewBox="0 0 841 1189">
 <defs>
  <style type="text/css">
   <![CDATA[
    .str0 {stroke:#1F1A17;stroke-width:0.0762}
    .str1 {stroke:#3F4446;stroke-width:0.4233}
    .fil6 {fill:none;fill-rule:nonzero}
    .fil0 {fill:#BB7729}
    .fil1 {fill:#E5A230}
    .fil2 {fill:#E8AD3D}
    .fil3 {fill:#EEBD54}
    .fil4 {fill:#F5CD76}
    .fil5 {fill:#DD8F29;fill-rule:nonzero}
   ]]>
  </style>
 </defs>
 <g id="Approaches">
  <metadata id="CorelCorpID_0Corel-Layer"/>
  <g id="_151107832">
   <rect id="_142492560" class="fil0 str0" x="441.25" y="1157.95" width="52" height="12.7544"/>
   <rect id="_142492040" class="fil1 str0" x="441.25" y="1131.49" width="52" height="6.61512"/>
   <rect id="_142491520" class="fil2 str0" x="441.25" y="1126.33" width="52" height="3.06554"/>
   <rect id="_142491000" class="fil3 str0" x="441.25" y="1122.13" width="52" height="1.61344"/>
   <rect id="_142490480" class="fil4 str0" x="441.25" y="1118.7" width="52" height="0.845578"/>
   <path id="_142486080" class="fil5" d="M460.485 1155.34l-3.2011 0 -1.2716 -3.3095 -5.8222 0 -1.2004 3.3095 -3.1196 0 5.673 -14.564 3.1095 0 5.8324 14.564zm-5.4153 -5.7612l-2.0075 -5.4051 -1.9667 5.4051 3.9742 0z"/>
   <polygon id="_142486080" class="fil5" points="462.004,1155.34 462.004,1140.78 466.405,1140.78 469.047,1150.71 471.658,1140.78 476.069,1140.78 476.069,1155.34 473.339,1155.34 473.339,1143.87 470.447,1155.34 467.616,1155.34 464.733,1143.87 464.733,1155.34 "/>
   <path id="_142486080" class="fil5" d="M487.802 1152.74l0 2.5941 -9.7862 0c0.1086,-0.98 0.4239,-1.9091 0.9563,-2.7873 0.529,-0.8783 1.5768,-2.0414 3.1366,-3.4927 1.2614,-1.1698 2.0311,-1.9667 2.316,-2.3838 0.3832,-0.5764 0.5764,-1.1461 0.5764,-1.709 0,-0.6206 -0.1661,-1.0987 -0.5018,-1.4344 -0.3357,-0.3357 -0.7969,-0.5018 -1.3869,-0.5018 -0.5832,0 -1.0444,0.1763 -1.3903,0.5256 -0.3425,0.3526 -0.5425,0.9359 -0.5968,1.7497l-2.7805 -0.2781c0.1661,-1.5361 0.6849,-2.6381 1.5598,-3.3095 0.8748,-0.668 1.9667,-1.0037 3.279,-1.0037 1.4378,0 2.5669,0.3899 3.3875,1.1631 0.8206,0.7765 1.2309,1.7395 1.2309,2.8924 0,0.6545 -0.1187,1.2784 -0.3526,1.8718 -0.234,0.5934 -0.607,1.2139 -1.1156,1.8616 -0.3391,0.4307 -0.9495,1.0512 -1.8277,1.8582 -0.8817,0.8071 -1.4412,1.3462 -1.6752,1.6107 -0.2339,0.2645 -0.4272,0.5222 -0.573,0.7731l5.5441 0z"/>
   <path id="_142486080" class="fil6 str1" d="M460.485 1155.34l-3.2011 0 -1.2716 -3.3095 -5.8222 0 -1.2004 3.3095 -3.1196 0 5.673 -14.564 3.1095 0 5.8324 14.564zm-5.4153 -5.7612l-2.0075 -5.4051 -1.9667 5.4051 3.9742 0z"/>
   <polygon id="_142486080" class="fil6 str1" points="462.004,1155.34 462.004,1140.78 466.405,1140.78 469.047,1150.71 471.658,1140.78 476.069,1140.78 476.069,1155.34 473.339,1155.34 473.339,1143.87 470.447,1155.34 467.616,1155.34 464.733,1143.87 464.733,1155.34 "/>
   <path id="_142486080" class="fil6 str1" d="M487.802 1152.74l0 2.5941 -9.7862 0c0.1086,-0.98 0.4239,-1.9091 0.9563,-2.7873 0.529,-0.8783 1.5768,-2.0414 3.1366,-3.4927 1.2614,-1.1698 2.0311,-1.9667 2.316,-2.3838 0.3832,-0.5764 0.5764,-1.1461 0.5764,-1.709 0,-0.6206 -0.1661,-1.0987 -0.5018,-1.4344 -0.3357,-0.3357 -0.7969,-0.5018 -1.3869,-0.5018 -0.5832,0 -1.0444,0.1763 -1.3903,0.5256 -0.3425,0.3526 -0.5425,0.9359 -0.5968,1.7497l-2.7805 -0.2781c0.1661,-1.5361 0.6849,-2.6381 1.5598,-3.3095 0.8748,-0.668 1.9667,-1.0037 3.279,-1.0037 1.4378,0 2.5669,0.3899 3.3875,1.1631 0.8206,0.7765 1.2309,1.7395 1.2309,2.8924 0,0.6545 -0.1187,1.2784 -0.3526,1.8718 -0.234,0.5934 -0.607,1.2139 -1.1156,1.8616 -0.3391,0.4307 -0.9495,1.0512 -1.8277,1.8582 -0.8817,0.8071 -1.4412,1.3462 -1.6752,1.6107 -0.2339,0.2645 -0.4272,0.5222 -0.573,0.7731l5.5441 0z"/>
  </g>
 </g>
</svg>
