<?xml version="1.0" encoding="UTF-8" standalone="no"?>
<!-- Created with Inkscape (http://www.inkscape.org/) -->

<svg
   xmlns:dc="http://purl.org/dc/elements/1.1/"
   xmlns:cc="http://creativecommons.org/ns#"
   xmlns:rdf="http://www.w3.org/1999/02/22-rdf-syntax-ns#"
   xmlns:svg="http://www.w3.org/2000/svg"
   xmlns="http://www.w3.org/2000/svg"
   xmlns:sodipodi="http://sodipodi.sourceforge.net/DTD/sodipodi-0.dtd"
   xmlns:inkscape="http://www.inkscape.org/namespaces/inkscape"
   width="291.40723"
   height="151.02058"
   id="svg7971"
   version="1.1"
   inkscape:version="0.47 r22583"
   sodipodi:docname="ls_am_klu.svg"
   inkscape:export-filename="/Users/simon/Downloads/ls_am_logo.png"
   inkscape:export-xdpi="300.09702"
   inkscape:export-ydpi="300.09702">
  <sodipodi:namedview
     id="base"
     pagecolor="#ffffff"
     bordercolor="#666666"
     borderopacity="1.0"
     inkscape:pageopacity="0.0"
     inkscape:pageshadow="2"
     inkscape:zoom="1.2357997"
     inkscape:cx="326.41913"
     inkscape:cy="136.41391"
     inkscape:document-units="px"
     inkscape:current-layer="layer1"
     showgrid="false"
     inkscape:window-width="1266"
     inkscape:window-height="878"
     inkscape:window-x="52"
     inkscape:window-y="21"
     inkscape:window-maximized="0" />
  <defs
     id="defs7973">
    <inkscape:perspective
       sodipodi:type="inkscape:persp3d"
       inkscape:vp_x="0 : 526.18109 : 1"
       inkscape:vp_y="0 : 1000 : 0"
       inkscape:vp_z="744.09448 : 526.18109 : 1"
       inkscape:persp3d-origin="372.04724 : 350.78739 : 1"
       id="perspective7979" />
    <inkscape:perspective
       id="perspective9017"
       inkscape:persp3d-origin="0.5 : 0.33333333 : 1"
       inkscape:vp_z="1 : 0.5 : 1"
       inkscape:vp_y="0 : 1000 : 0"
       inkscape:vp_x="0 : 0.5 : 1"
       sodipodi:type="inkscape:persp3d" />
    <inkscape:perspective
       id="perspective9888"
       inkscape:persp3d-origin="0.5 : 0.33333333 : 1"
       inkscape:vp_z="1 : 0.5 : 1"
       inkscape:vp_y="0 : 1000 : 0"
       inkscape:vp_x="0 : 0.5 : 1"
       sodipodi:type="inkscape:persp3d" />
    <inkscape:perspective
       id="perspective9944"
       inkscape:persp3d-origin="0.5 : 0.33333333 : 1"
       inkscape:vp_z="1 : 0.5 : 1"
       inkscape:vp_y="0 : 1000 : 0"
       inkscape:vp_x="0 : 0.5 : 1"
       sodipodi:type="inkscape:persp3d" />
    <inkscape:perspective
       id="perspective3891"
       inkscape:persp3d-origin="0.5 : 0.33333333 : 1"
       inkscape:vp_z="1 : 0.5 : 1"
       inkscape:vp_y="0 : 1000 : 0"
       inkscape:vp_x="0 : 0.5 : 1"
       sodipodi:type="inkscape:persp3d" />
    <inkscape:perspective
       sodipodi:type="inkscape:persp3d"
       inkscape:vp_x="0 : 0.5 : 1"
       inkscape:vp_y="0 : 1000 : 0"
       inkscape:vp_z="1 : 0.5 : 1"
       inkscape:persp3d-origin="0.5 : 0.33333333 : 1"
       id="perspective4196" />
    <inkscape:perspective
       sodipodi:type="inkscape:persp3d"
       inkscape:vp_x="0 : 0.5 : 1"
       inkscape:vp_y="0 : 1000 : 0"
       inkscape:vp_z="1 : 0.5 : 1"
       inkscape:persp3d-origin="0.5 : 0.33333333 : 1"
       id="perspective4273" />
    <inkscape:perspective
       id="perspective5798"
       inkscape:persp3d-origin="0.5 : 0.33333333 : 1"
       inkscape:vp_z="1 : 0.5 : 1"
       inkscape:vp_y="0 : 1000 : 0"
       inkscape:vp_x="0 : 0.5 : 1"
       sodipodi:type="inkscape:persp3d" />
    <inkscape:perspective
       id="perspective6369"
       inkscape:persp3d-origin="88.582672 : 17.716535 : 1"
       inkscape:vp_z="177.16534 : 26.574802 : 1"
       inkscape:vp_y="0 : 1000 : 0"
       inkscape:vp_x="0 : 26.574802 : 1"
       sodipodi:type="inkscape:persp3d" />
    <clipPath
       id="clipPath3016"
       clipPathUnits="userSpaceOnUse">
      <path
         id="path3018"
         d="M 0,549.961 0,0 l 1732.46,0 0,549.961 -1732.46,0 z" />
    </clipPath>
    <inkscape:perspective
       id="perspective3006"
       inkscape:persp3d-origin="0.5 : 0.33333333 : 1"
       inkscape:vp_z="1 : 0.5 : 1"
       inkscape:vp_y="0 : 1000 : 0"
       inkscape:vp_x="0 : 0.5 : 1"
       sodipodi:type="inkscape:persp3d" />
    <clipPath
       id="clipPath4302"
       clipPathUnits="userSpaceOnUse">
      <path
         id="path4304"
         d="m 0,350.079 350.079,0 L 350.079,0 0,0 0,350.079 z" />
    </clipPath>
    <inkscape:perspective
       id="perspective4294"
       inkscape:persp3d-origin="0.5 : 0.33333333 : 1"
       inkscape:vp_z="1 : 0.5 : 1"
       inkscape:vp_y="0 : 1000 : 0"
       inkscape:vp_x="0 : 0.5 : 1"
       sodipodi:type="inkscape:persp3d" />
  </defs>
  <metadata
     id="metadata7976">
    <rdf:RDF>
      <cc:Work
         rdf:about="">
        <dc:format>image/svg+xml</dc:format>
        <dc:type
           rdf:resource="http://purl.org/dc/dcmitype/StillImage" />
        <dc:title></dc:title>
      </cc:Work>
    </rdf:RDF>
  </metadata>
  <g
     inkscape:label="Layer 1"
     inkscape:groupmode="layer"
     id="layer1"
     transform="translate(-188.66964,-854.37617)">
    <g
       id="g10329"
       style="fill:#000000"
       transform="matrix(0.5329181,0,0,0.5329181,86.77724,469.60262)">
      <path
         d="m 375.9593,913.7034 0,3.94 5.05125,0 0,1.465 -5.05125,0 0,5.96375 -1.91875,0 0,-12.885 7.6775,0 0,1.51625 -5.75875,0"
         style="fill:#000000;fill-opacity:1;fill-rule:nonzero;stroke:none"
         id="path10014" />
      <path
         d="m 389.62555,916.3809 c -0.275,-0.8075 -0.65625,-1.87 -0.9325,-2.755 l -0.0513,0 c -0.3025,0.885 -0.68375,1.97125 -0.96125,2.755 l -1.365,3.915 4.62625,0 -1.31625,-3.915 z m 2.96,8.69125 -1.11375,-3.2575 -5.66125,0 -1.16,3.2575 -1.9725,0 4.8775,-12.885 2.375,0 4.6975,12.885 -2.0425,0"
         style="fill:#000000;fill-opacity:1;fill-rule:nonzero;stroke:none"
         id="path10016" />
      <path
         d="m 406.43055,925.2734 c -1.31375,0 -2.02,-0.555 -2.7275,-1.365 l -4.34625,-5.1525 0,6.315 -1.91875,0 0,-12.88375 1.91875,0 0,5.965 5.50875,-5.965 2.1475,0 -5.73875,6.16375 4.09375,4.825 c 0.4325,0.505 0.8375,0.63375 1.24,0.63375 0.17875,0 0.35625,-0.0263 0.555,-0.0538 l 0,1.41875 c -0.15,0.0475 -0.455,0.0987 -0.7325,0.0987"
         style="fill:#000000;fill-opacity:1;fill-rule:nonzero;stroke:none"
         id="path10018" />
      <path
         d="m 415.17305,925.24965 c -3.08125,0 -5.205,-1.72 -5.205,-4.60125 l 0,-8.46125 1.92125,0 0,8.13375 c 0,2.07375 0.9575,3.4375 3.28375,3.4375 2.3,0 3.28375,-1.36375 3.28375,-3.4375 l 0,-8.13375 1.79375,0 0,8.46125 c 0,2.88125 -2.09625,4.60125 -5.0775,4.60125"
         style="fill:#000000;fill-opacity:1;fill-rule:nonzero;stroke:none"
         id="path10020" />
      <path
         d="m 432.1043,925.07215 -7.48125,0 0,-12.885 1.92125,0 0,11.3675 5.56,0 0,1.5175"
         style="fill:#000000;fill-opacity:1;fill-rule:nonzero;stroke:none"
         id="path10022" />
      <path
         d="m 442.13305,913.7034 -3.91625,0 0,11.36875 -1.91875,0 0,-11.36875 -3.69125,0 0,-1.51625 9.52625,0 0,1.51625"
         style="fill:#000000;fill-opacity:1;fill-rule:nonzero;stroke:none"
         id="path10024" />
      <path
         d="m 449.1568,909.45715 c 0,-0.73125 0.58125,-1.31375 1.31375,-1.31375 0.70875,0 1.31625,0.5825 1.31625,1.31375 0,0.7075 -0.6075,1.315 -1.31625,1.315 -0.7325,0 -1.31375,-0.6075 -1.31375,-1.315 m 0.025,6.92375 c -0.27625,-0.8075 -0.6575,-1.87 -0.935,-2.755 l -0.0487,0 c -0.3,0.885 -0.68375,1.97125 -0.96,2.755 l -1.3675,3.915 4.6275,0 -1.31625,-3.915 z m -4.34375,-6.92375 c 0,-0.73125 0.58125,-1.31375 1.31625,-1.31375 0.705,0 1.31125,0.5825 1.31125,1.31375 0,0.7075 -0.60625,1.315 -1.31125,1.315 -0.735,0 -1.31625,-0.6075 -1.31625,-1.315 m 7.3025,15.615 -1.11125,-3.2575 -5.66375,0 -1.16,3.2575 -1.9725,0 4.87875,-12.885 2.375,0 4.7025,12.885 -2.04875,0"
         style="fill:#000000;fill-opacity:1;fill-rule:nonzero;stroke:none"
         id="path10026" />
      <path
         d="m 464.24305,913.7034 -3.91625,0 0,11.36875 -1.92125,0 0,-11.36875 -3.68875,0 0,-1.51625 9.52625,0 0,1.51625"
         style="fill:#000000;fill-opacity:1;fill-rule:nonzero;stroke:none"
         id="path10028" />
      <path
         d="m 475.0068,913.7034 0,3.94 5.05375,0 0,1.465 -5.05375,0 0,5.96375 -1.91625,0 0,-12.885 7.675,0 0,1.51625 -5.75875,0"
         style="fill:#000000;fill-opacity:1;fill-rule:nonzero;stroke:none"
         id="path10030" />
      <path
         d="m 489.86305,909.45715 c 0,-0.73125 0.58375,-1.31375 1.31375,-1.31375 0.7075,0 1.3175,0.5825 1.3175,1.31375 0,0.7075 -0.61,1.315 -1.3175,1.315 -0.73,0 -1.31375,-0.6075 -1.31375,-1.315 m -4.32125,0 c 0,-0.73125 0.58375,-1.31375 1.315,-1.31375 0.70625,0 1.31125,0.5825 1.31125,1.31375 0,0.7075 -0.605,1.315 -1.31125,1.315 -0.73125,0 -1.315,-0.6075 -1.315,-1.315 m 3.38375,15.7925 c -3.07875,0 -5.2,-1.72 -5.2,-4.60125 l 0,-8.46125 1.91875,0 0,8.13375 c 0,2.07375 0.96125,3.4375 3.28125,3.4375 2.3025,0 3.28875,-1.36375 3.28875,-3.4375 l 0,-8.13375 1.79375,0 0,8.46125 c 0,2.88125 -2.0975,4.60125 -5.0825,4.60125"
         style="fill:#000000;fill-opacity:1;fill-rule:nonzero;stroke:none"
         id="path10032" />
      <path
         d="m 502.87555,913.6534 -2.57875,0 0,4.4175 2.68375,0 c 1.54,0 2.24625,-0.9075 2.24625,-2.24625 0,-1.4425 -0.76,-2.17125 -2.35125,-2.17125 m -2.57875,11.41875 -1.91625,0 0,-12.885 4.57,0 c 2.78375,0 4.2975,1.38875 4.2975,3.6375 0,1.56625 -1.035,3.08375 -3.1075,3.51125 l 2.375,3.71625 c 0.35125,0.5525 0.91125,0.72875 1.3625,0.72875 0.15625,0 0.305,-0.0225 0.43,-0.0475 l 0,1.415 c -0.30125,0.0738 -0.5525,0.125 -0.98375,0.125 -1.0875,0 -1.7925,-0.43 -2.425,-1.43875 l -2.73125,-4.3975 -1.87125,0 0,5.635"
         style="fill:#000000;fill-opacity:1;fill-rule:nonzero;stroke:none"
         id="path10034" />
      <path
         d="m 525.3143,913.7034 -3.91625,0 0,11.36875 -1.92125,0 0,-11.36875 -3.68875,0 0,-1.51625 9.52625,0 0,1.51625"
         style="fill:#000000;fill-opacity:1;fill-rule:nonzero;stroke:none"
         id="path10036" />
      <path
         d="m 536.07805,925.07215 -7.9825,0 0,-12.885 7.9825,0 0,1.51375 -6.06375,0 0,3.64 5.205,0 0,1.51625 -5.205,0 0,4.6975 6.06375,0 0,1.5175"
         style="fill:#000000;fill-opacity:1;fill-rule:nonzero;stroke:none"
         id="path10038" />
      <path
         d="m 545.5293,925.2734 c -3.9425,0 -6.3675,-2.62625 -6.3675,-6.4675 0,-3.79 2.12375,-6.8475 6.11625,-6.8475 1.765,0 2.87875,0.33 3.51,0.58125 l 0,1.69375 c -0.78375,-0.40625 -1.7675,-0.735 -3.1825,-0.735 -3.1325,0 -4.44625,2.04875 -4.44625,5.3075 0,3.0825 1.59125,4.90375 4.6975,4.90375 1.26375,0 2.3,-0.28 3.2125,-0.73625 l 0,1.695 c -1.065,0.45375 -2.25125,0.605 -3.54,0.605"
         style="fill:#000000;fill-opacity:1;fill-rule:nonzero;stroke:none"
         id="path10040" />
      <path
         d="m 561.2693,925.07215 0,-5.99 -6.87,0 0,5.99 -1.92375,0 0,-12.885 1.92375,0 0,5.38125 6.87,0 0,-5.38125 1.91875,0 0,12.885 -1.91875,0"
         style="fill:#000000;fill-opacity:1;fill-rule:nonzero;stroke:none"
         id="path10042" />
      <path
         d="m 576.1493,925.07215 -5.6075,-8.565 c -0.3275,-0.5075 -0.7325,-1.13875 -1.08625,-1.745 l -0.025,0 c 0.0487,0.53125 0.0788,1.11375 0.0788,1.46625 l 0,8.84375 -1.7725,0 0,-12.885 1.9725,0 5.6075,8.56375 c 0.45625,0.685 0.8325,1.315 1.08375,1.81875 l 0.0275,0 c -0.0275,-0.58125 -0.0275,-1.11 -0.0275,-1.53875 l 0,-8.84375 1.775,0 0,12.885 -2.02625,0"
         style="fill:#000000;fill-opacity:1;fill-rule:nonzero;stroke:none"
         id="path10044" />
      <path
         d="m 583.3268,925.07215 1.92383,0 0,-12.88475 -1.92383,0 0,12.88475 z"
         style="fill:#000000;fill-opacity:1;fill-rule:nonzero;stroke:none"
         id="path10046" />
      <path
         d="m 591.9718,925.2734 c -1.51875,0 -2.7075,-0.35375 -3.48625,-0.70625 l 0,-1.66875 c 0.98375,0.48 2.3,0.8575 3.30875,0.8575 1.89375,0 2.92875,-0.62875 2.92875,-2.0425 0,-1.21625 -0.75625,-1.76875 -2.65125,-2.53 -2.1725,-0.855 -3.46125,-1.8425 -3.46125,-3.915 0,-2.0975 1.69125,-3.31 4.3725,-3.31 1.41375,0 2.5725,0.405 3.1325,0.6825 l 0,1.61625 c -0.81125,-0.43 -1.81875,-0.78125 -3.0575,-0.78125 -1.745,0 -2.605,0.58 -2.605,1.7925 0,1.2625 1.09,1.74375 2.4275,2.275 2.2725,0.9075 3.81625,1.79375 3.81625,4.1175 0,2.1725 -1.74375,3.6125 -4.725,3.6125"
         style="fill:#000000;fill-opacity:1;fill-rule:nonzero;stroke:none"
         id="path10048" />
      <path
         d="m 605.68805,925.2734 c -3.94,0 -6.365,-2.62625 -6.365,-6.4675 0,-3.79 2.12125,-6.8475 6.11375,-6.8475 1.77,0 2.88,0.33 3.5125,0.58125 l 0,1.69375 c -0.78625,-0.40625 -1.77,-0.735 -3.18625,-0.735 -3.13125,0 -4.4425,2.04875 -4.4425,5.3075 0,3.0825 1.59125,4.90375 4.6975,4.90375 1.26125,0 2.29875,-0.28 3.21,-0.73625 l 0,1.695 c -1.065,0.45375 -2.24875,0.605 -3.54,0.605"
         style="fill:#000000;fill-opacity:1;fill-rule:nonzero;stroke:none"
         id="path10050" />
      <path
         d="m 621.43055,925.07215 0,-5.99 -6.87,0 0,5.99 -1.9225,0 0,-12.885 1.9225,0 0,5.38125 6.87,0 0,-5.38125 1.92125,0 0,12.885 -1.92125,0"
         style="fill:#000000;fill-opacity:1;fill-rule:nonzero;stroke:none"
         id="path10052" />
      <path
         d="m 635.88305,925.07215 -7.98125,0 0,-12.885 7.98125,0 0,1.51375 -6.05875,0 0,3.64 5.2025,0 0,1.51625 -5.2025,0 0,4.6975 6.05875,0 0,1.5175"
         style="fill:#000000;fill-opacity:1;fill-rule:nonzero;stroke:none"
         id="path10054" />
      <path
         d="m 385.07805,950.3684 -1.8925,0 -2.25375,-7.12375 c -0.14875,-0.48125 -0.25125,-0.90875 -0.34875,-1.415 l -0.0275,0 c -0.075,0.47875 -0.22625,0.96 -0.35375,1.415 l -2.09625,7.12375 -1.94375,0 -3.89125,-12.88375 1.9675,0 2.4,8.56625 c 0.18,0.62875 0.38,1.41125 0.5075,2.17 l 0.0238,0 c 0.1525,-0.75875 0.30375,-1.48875 0.50875,-2.17 l 2.045,-6.59625 -0.6075,-1.97 1.94625,0 2.5775,8.61375 c 0.17625,0.5575 0.33,1.415 0.4525,2.1225 l 0.0288,0 c 0.17625,-0.7075 0.35125,-1.5125 0.5275,-2.1225 l 2.4025,-8.61375 1.77,0 -3.7425,12.88375"
         style="fill:#000000;fill-opacity:1;fill-rule:nonzero;stroke:none"
         id="path10056" />
      <path
         d="m 392.2818,950.3684 1.91895,0 0,-12.88425 -1.91895,0 0,12.88425 z"
         style="fill:#000000;fill-opacity:1;fill-rule:nonzero;stroke:none"
         id="path10058" />
      <path
         d="m 400.9218,950.5709 c -1.5175,0 -2.7025,-0.3525 -3.48625,-0.70625 l 0,-1.67 c 0.98375,0.48125 2.2975,0.86125 3.31125,0.86125 1.89375,0 2.9275,-0.6325 2.9275,-2.04625 0,-1.215 -0.755,-1.76875 -2.65125,-2.5275 -2.17125,-0.8575 -3.46,-1.84375 -3.46,-3.91625 0,-2.095 1.69125,-3.31125 4.3675,-3.31125 1.41875,0 2.57875,0.40625 3.135,0.68375 l 0,1.6175 c -0.80875,-0.42875 -1.81875,-0.7825 -3.05375,-0.7825 -1.74625,0 -2.6075,0.57875 -2.6075,1.7925 0,1.26375 1.08875,1.7425 2.42875,2.27625 2.2725,0.9075 3.81625,1.79125 3.81625,4.115 0,2.17375 -1.74375,3.61375 -4.7275,3.61375"
         style="fill:#000000;fill-opacity:1;fill-rule:nonzero;stroke:none"
         id="path10060" />
      <path
         d="m 411.71305,950.5709 c -1.51875,0 -2.7025,-0.3525 -3.48625,-0.70625 l 0,-1.67 c 0.98375,0.48125 2.2975,0.86125 3.30875,0.86125 1.89375,0 2.92625,-0.6325 2.92625,-2.04625 0,-1.215 -0.75375,-1.76875 -2.64875,-2.5275 -2.1725,-0.8575 -3.46375,-1.84375 -3.46375,-3.91625 0,-2.095 1.69625,-3.31125 4.3725,-3.31125 1.41625,0 2.5775,0.40625 3.1325,0.68375 l 0,1.6175 c -0.80875,-0.42875 -1.81625,-0.7825 -3.0575,-0.7825 -1.74,0 -2.6025,0.57875 -2.6025,1.7925 0,1.26375 1.09,1.7425 2.4275,2.27625 2.2725,0.9075 3.81375,1.79125 3.81375,4.115 0,2.17375 -1.74125,3.61375 -4.7225,3.61375"
         style="fill:#000000;fill-opacity:1;fill-rule:nonzero;stroke:none"
         id="path10062" />
      <path
         d="m 427.95555,950.3684 -7.98,0 0,-12.88375 7.98,0 0,1.51375 -6.06125,0 0,3.64 5.205,0 0,1.515 -5.205,0 0,4.69875 6.06125,0 0,1.51625"
         style="fill:#000000;fill-opacity:1;fill-rule:nonzero;stroke:none"
         id="path10064" />
      <path
         d="m 440.36555,950.3684 -5.61,-8.565 c -0.3325,-0.505 -0.735,-1.1375 -1.08875,-1.74375 l -0.0225,0 c 0.0513,0.5325 0.0788,1.11375 0.0788,1.46625 l 0,8.8425 -1.77,0 0,-12.88375 1.9675,0 5.61,8.56625 c 0.45125,0.68125 0.835,1.31125 1.08625,1.81875 l 0.025,0 c -0.025,-0.5825 -0.025,-1.11375 -0.025,-1.5425 l 0,-8.8425 1.7675,0 0,12.88375 -2.01875,0"
         style="fill:#000000;fill-opacity:1;fill-rule:nonzero;stroke:none"
         id="path10066" />
      <path
         d="m 449.46055,950.5709 c -1.51625,0 -2.70125,-0.3525 -3.485,-0.70625 l 0,-1.67 c 0.985,0.48125 2.2975,0.86125 3.30875,0.86125 1.895,0 2.93,-0.6325 2.93,-2.04625 0,-1.215 -0.7575,-1.76875 -2.65375,-2.5275 -2.16875,-0.8575 -3.4575,-1.84375 -3.4575,-3.91625 0,-2.095 1.69125,-3.31125 4.3675,-3.31125 1.41875,0 2.57875,0.40625 3.135,0.68375 l 0,1.6175 c -0.80875,-0.42875 -1.82125,-0.7825 -3.05625,-0.7825 -1.74625,0 -2.605,0.57875 -2.605,1.7925 0,1.26375 1.08625,1.7425 2.42625,2.27625 2.275,0.9075 3.81625,1.79125 3.81625,4.115 0,2.17375 -1.74375,3.61375 -4.72625,3.61375"
         style="fill:#000000;fill-opacity:1;fill-rule:nonzero;stroke:none"
         id="path10068" />
      <path
         d="m 463.18055,950.5709 c -3.94,0 -6.3675,-2.6275 -6.3675,-6.4675 0,-3.79125 2.125,-6.84875 6.11625,-6.84875 1.7675,0 2.87875,0.33 3.51,0.5825 l 0,1.69125 c -0.7825,-0.40125 -1.77,-0.73 -3.1825,-0.73 -3.135,0 -4.44875,2.04375 -4.44875,5.305 0,3.08125 1.59625,4.9025 4.7,4.9025 1.2625,0 2.3,-0.2775 3.2075,-0.735 l 0,1.695 c -1.05875,0.45375 -2.24375,0.605 -3.535,0.605"
         style="fill:#000000;fill-opacity:1;fill-rule:nonzero;stroke:none"
         id="path10070" />
      <path
         d="m 478.92305,950.3684 0,-5.98875 -6.875,0 0,5.98875 -1.91875,0 0,-12.88375 1.91875,0 0,5.38125 6.875,0 0,-5.38125 1.92125,0 0,12.88375 -1.92125,0"
         style="fill:#000000;fill-opacity:1;fill-rule:nonzero;stroke:none"
         id="path10072" />
      <path
         d="m 490.67305,941.6784 c -0.2775,-0.80875 -0.65375,-1.87125 -0.9375,-2.75625 l -0.0487,0 c -0.3025,0.885 -0.68125,1.97125 -0.95875,2.75625 l -1.365,3.91375 4.62125,0 -1.31125,-3.91375 z m 2.95375,8.69 -1.11,-3.2575 -5.66,0 -1.16375,3.2575 -1.9675,0 4.875,-12.88375 2.3725,0 4.7025,12.88375 -2.04875,0"
         style="fill:#000000;fill-opacity:1;fill-rule:nonzero;stroke:none"
         id="path10074" />
      <path
         d="m 500.4018,938.99965 0,3.94 5.05125,0 0,1.46625 -5.05125,0 0,5.9625 -1.91875,0 0,-12.885 7.67875,0 0,1.51625 -5.76,0"
         style="fill:#000000;fill-opacity:1;fill-rule:nonzero;stroke:none"
         id="path10076" />
      <path
         d="m 517.05055,938.99965 -3.91875,0 0,11.36875 -1.91625,0 0,-11.36875 -3.69125,0 0,-1.51625 9.52625,0 0,1.51625"
         style="fill:#000000;fill-opacity:1;fill-rule:nonzero;stroke:none"
         id="path10078" />
      <path
         d="m 527.8143,950.3684 -7.98375,0 0,-12.88375 7.98375,0 0,1.51375 -6.06375,0 0,3.64 5.205,0 0,1.515 -5.205,0 0,4.69875 6.06375,0 0,1.51625"
         style="fill:#000000;fill-opacity:1;fill-rule:nonzero;stroke:none"
         id="path10080" />
      <path
         d="m 540.2193,950.3684 -5.6075,-8.565 c -0.3275,-0.505 -0.7325,-1.1375 -1.0875,-1.74375 l -0.0263,0 c 0.0537,0.5325 0.0762,1.11375 0.0762,1.46625 l 0,8.8425 -1.76625,0 0,-12.88375 1.96875,0 5.61,8.56625 c 0.45625,0.68125 0.8325,1.31125 1.08375,1.81875 l 0.0275,0 c -0.0275,-0.5825 -0.0275,-1.11375 -0.0275,-1.5425 l 0,-8.8425 1.7725,0 0,12.88375 -2.02375,0"
         style="fill:#000000;fill-opacity:1;fill-rule:nonzero;stroke:none"
         id="path10082" />
    </g>
    <text
       xml:space="preserve"
       style="font-size:11.19128036px;font-style:normal;font-weight:normal;fill:#000000;fill-opacity:1;stroke:none;font-family:Milo OT;-inkscape-font-specification:Milo OT"
       x="284.84341"
       y="989.43689"
       id="text10154"><tspan
         sodipodi:role="line"
         id="tspan10156"
         x="284.84341"
         y="989.43689">Institut für Intelligente Systemtechnologien</tspan></text>
    <text
       id="text5892"
       y="1003.2928"
       x="284.84341"
       style="font-size:11.19128036px;font-style:normal;font-weight:normal;fill:#000000;fill-opacity:1;stroke:none;font-family:Milo OT;-inkscape-font-specification:Milo OT"
       xml:space="preserve"><tspan
         y="1003.2928"
         x="284.84341"
         id="tspan5894"
         sodipodi:role="line">Lehrstuhl für Angewandte Mechatronik</tspan></text>
    <g
       transform="matrix(1.6820391,0,0,-1.6820391,44.254813,1197.8282)"
       inkscape:label="UNI_KLU_Logo_cmyk"
       id="g4296">
      <g
         id="g4298">
        <g
           clip-path="url(#clipPath4302)"
           id="g4300">
          <g
             transform="translate(121.3799,202.6074)"
             id="g4306">
            <path
               id="path4308"
               style="fill:#569ac2;fill-opacity:1;fill-rule:nonzero;stroke:none"
               d="m 0,0 0,-37.125 c 0,-4.336 3.516,-7.852 7.853,-7.852 4.336,0 7.852,3.516 7.852,7.852 L 15.705,0 0,0 z" />
          </g>
          <g
             transform="translate(119.251,158.5449)"
             id="g4310">
            <path
               id="path4312"
               style="fill:#3e6377;fill-opacity:1;fill-rule:nonzero;stroke:none"
               d="m 0,0 0,37.672 c 0,4.401 -3.567,7.971 -7.969,7.971 -4.4,0 -7.967,-3.57 -7.967,-7.971 L -15.936,0 0,0 z" />
          </g>
          <g
             transform="translate(101.793,158.5449)"
             id="g4314">
            <path
               id="path4316"
               style="fill:#3e6377;fill-opacity:1;fill-rule:nonzero;stroke:none"
               d="m 0,0 0,37.672 c 0,4.401 -3.567,7.971 -7.968,7.971 -4.401,0 -7.968,-3.57 -7.968,-7.971 L -15.936,0 0,0 z" />
          </g>
          <g
             transform="translate(146.6787,149.2363)"
             id="g4318">
            <path
               id="path4320"
               style="fill:#3e6377;fill-opacity:1;fill-rule:nonzero;stroke:none"
               d="M 0,0 -1.368,2.423 -2.056,1.6 l 0,-1.6 -1.039,0 0,5.323 1.039,0 0,-2.317 1.877,2.317 1.263,0 L -0.68,3.208 1.211,0 0,0 z" />
          </g>
          <g
             transform="translate(149.7202,149.2363)"
             id="g4322">
            <path
               id="path4324"
               style="fill:#3e6377;fill-opacity:1;fill-rule:nonzero;stroke:none"
               d="m 0,0 0,5.323 1.039,0 0,-4.396 2.415,0 L 3.454,0 0,0 z" />
          </g>
          <g
             transform="translate(156.9702,152.9893)"
             id="g4326">
            <path
               id="path4328"
               style="fill:#3e6377;fill-opacity:1;fill-rule:nonzero;stroke:none"
               d="m 0,0 -0.673,-1.937 1.323,0 L 0,0 z m 1.241,-3.753 -0.314,0.942 -1.892,0 -0.321,-0.942 -1.084,0 1.936,5.323 0.815,0 1.944,-5.323 -1.084,0 z" />
          </g>
          <g
             transform="translate(164.3994,149.7969)"
             id="g4330">
            <path
               id="path4332"
               style="fill:#3e6377;fill-opacity:1;fill-rule:nonzero;stroke:none"
               d="m 0,0 c -0.426,-0.441 -0.935,-0.605 -1.503,-0.605 -0.583,0 -1.061,0.209 -1.435,0.583 -0.539,0.538 -0.524,1.204 -0.524,2.124 0,0.919 -0.015,1.585 0.524,2.123 0.374,0.374 0.837,0.583 1.435,0.583 1.234,0 1.862,-0.808 2.004,-1.704 l -1.047,0 c -0.12,0.5 -0.426,0.777 -0.957,0.777 -0.284,0 -0.516,-0.112 -0.665,-0.284 -0.202,-0.225 -0.254,-0.471 -0.254,-1.495 0,-1.025 0.052,-1.28 0.254,-1.503 0.149,-0.172 0.381,-0.278 0.665,-0.278 0.314,0 0.568,0.113 0.74,0.3 0.172,0.194 0.24,0.434 0.24,0.71 l 0,0.202 -0.98,0 0,0.867 2.011,0 0,-0.777 C 0.508,0.853 0.374,0.389 0,0" />
          </g>
          <g
             transform="translate(167.1265,149.2363)"
             id="g4334">
            <path
               id="path4336"
               style="fill:#3e6377;fill-opacity:1;fill-rule:nonzero;stroke:none"
               d="m 0,0 0,5.323 3.506,0 0,-0.927 -2.467,0 0,-1.249 2.101,0 0,-0.926 -2.101,0 0,-1.294 2.467,0 L 3.506,0 0,0 z" />
          </g>
          <g
             transform="translate(175.9619,149.2363)"
             id="g4338">
            <path
               id="path4340"
               style="fill:#3e6377;fill-opacity:1;fill-rule:nonzero;stroke:none"
               d="m 0,0 -2.109,3.268 0,-3.268 -1.039,0 0,5.323 0.927,0 2.109,-3.26 0,3.26 1.039,0 L 0.927,0 0,0 z" />
          </g>
          <g
             transform="translate(180.334,153.6328)"
             id="g4342">
            <path
               id="path4344"
               style="fill:#3e6377;fill-opacity:1;fill-rule:nonzero;stroke:none"
               d="m 0,0 0,-1.309 2.101,0 0,-0.926 -2.101,0 0,-2.161 -1.04,0 0,5.323 3.507,0 L 2.467,0 0,0 z" />
          </g>
          <g
             transform="translate(186.7471,149.1914)"
             id="g4346">
            <path
               id="path4348"
               style="fill:#3e6377;fill-opacity:1;fill-rule:nonzero;stroke:none"
               d="m 0,0 c -1.092,0 -1.959,0.74 -1.959,1.869 l 0,3.499 1.039,0 0,-3.462 c 0,-0.612 0.359,-0.979 0.92,-0.979 0.561,0 0.928,0.367 0.928,0.979 l 0,3.462 1.031,0 0,-3.499 C 1.959,0.74 1.092,0 0,0" />
          </g>
          <g
             transform="translate(193.0479,153.6328)"
             id="g4350">
            <path
               id="path4352"
               style="fill:#3e6377;fill-opacity:1;fill-rule:nonzero;stroke:none"
               d="m 0,0 -0.979,0 0,-1.406 0.979,0 c 0.456,0 0.755,0.292 0.755,0.703 C 0.755,-0.292 0.456,0 0,0 m 0.808,-4.396 -1.04,2.123 -0.747,0 0,-2.123 -1.041,0 0,5.323 2.087,0 c 1.084,0 1.727,-0.74 1.727,-1.63 0,-0.747 -0.456,-1.211 -0.972,-1.399 l 1.189,-2.294 -1.203,0 z" />
          </g>
          <g
             transform="translate(199.1172,153.6328)"
             id="g4354">
            <path
               id="path4356"
               style="fill:#3e6377;fill-opacity:1;fill-rule:nonzero;stroke:none"
               d="m 0,0 0,-4.396 -1.039,0 0,4.396 -1.391,0 0,0.927 3.821,0 L 1.391,0 0,0 z" />
          </g>
          <path
             id="path4358"
             style="fill:#569ac2;fill-opacity:1;fill-rule:nonzero;stroke:none"
             d="m 205.412,154.56 1.04,0 0,-5.323 -1.04,0 0,5.323 z" />
          <g
             transform="translate(216.2295,149.2363)"
             id="g4360">
            <path
               id="path4362"
               style="fill:#3e6377;fill-opacity:1;fill-rule:nonzero;stroke:none"
               d="M 0,0 -0.702,0 -1.787,3.73 -2.863,0 l -0.703,0 -1.391,5.323 0.853,0 0.926,-3.805 1.07,3.805 0.65,0 1.069,-3.805 0.928,3.805 0.852,0 L 0,0 z" />
          </g>
          <path
             id="path4364"
             style="fill:#3e6377;fill-opacity:1;fill-rule:nonzero;stroke:none"
             d="m 219.563,154.56 0.808,0 0,-5.323 -0.808,0 0,5.323 z" />
          <g
             transform="translate(222.9238,149.2363)"
             id="g4366">
            <path
               id="path4368"
               style="fill:#3e6377;fill-opacity:1;fill-rule:nonzero;stroke:none"
               d="m 0,0 0,5.323 3.402,0 0,-0.724 -2.594,0 0,-1.556 2.213,0 0,-0.718 -2.213,0 0,-1.599 2.594,0 L 3.402,0 0,0 z" />
          </g>
          <g
             transform="translate(231.8633,149.2363)"
             id="g4370">
            <path
               id="path4372"
               style="fill:#3e6377;fill-opacity:1;fill-rule:nonzero;stroke:none"
               d="m 0,0 -2.46,3.746 0,-3.746 -0.808,0 0,5.323 0.741,0 2.46,-3.738 0,3.738 0.807,0 L 0.74,0 0,0 z" />
          </g>
          <g
             transform="translate(241.7793,151.2998)"
             id="g4374">
            <path
               id="path4376"
               style="fill:#3e6377;fill-opacity:1;fill-rule:nonzero;stroke:none"
               d="m 0,0 c 0,-0.688 -0.128,-1.121 -0.479,-1.503 -0.412,-0.426 -0.897,-0.605 -1.465,-0.605 -0.561,0 -1.033,0.202 -1.399,0.568 -0.523,0.523 -0.515,1.121 -0.515,2.139 0,1.016 -0.008,1.614 0.515,2.137 0.366,0.367 0.83,0.569 1.399,0.569 1.121,0 1.794,-0.741 1.936,-1.653 l -0.815,0 C -0.965,2.243 -1.347,2.58 -1.944,2.58 -2.266,2.58 -2.543,2.452 -2.729,2.251 -2.991,1.967 -3.051,1.66 -3.051,0.599 c 0,-1.07 0.06,-1.376 0.322,-1.661 0.186,-0.202 0.463,-0.321 0.785,-0.321 0.351,0 0.658,0.135 0.867,0.374 0.202,0.232 0.269,0.486 0.269,0.837 l 0,0.299 -1.136,0 0,0.688 L 0,0.815 0,0 z" />
          </g>
          <g
             transform="translate(247.04,152.9971)"
             id="g4378">
            <path
               id="path4380"
               style="fill:#3e6377;fill-opacity:1;fill-rule:nonzero;stroke:none"
               d="m 0,0 c 0,0.531 -0.366,0.838 -0.904,0.838 l -1.197,0 0,-1.668 1.197,0 C -0.366,-0.83 0,-0.53 0,0 m 0.03,-3.761 -1.121,2.243 -1.01,0 0,-2.243 -0.807,0 0,5.324 2.063,0 c 1.01,0 1.653,-0.651 1.653,-1.555 0,-0.771 -0.463,-1.241 -1.062,-1.413 l 1.227,-2.356 -0.943,0 z" />
          </g>
          <g
             transform="translate(251.8535,153.3564)"
             id="g4382">
            <path
               id="path4384"
               style="fill:#3e6377;fill-opacity:1;fill-rule:nonzero;stroke:none"
               d="m 0,0 -0.83,-2.363 1.638,0 L 0,0 z m 1.397,-4.12 -0.366,1.069 -2.1,0 -0.367,-1.069 -0.86,0 1.952,5.323 0.651,0 1.951,-5.323 -0.861,0 z" />
          </g>
          <g
             transform="translate(255.6934,149.2363)"
             id="g4386">
            <path
               id="path4388"
               style="fill:#3e6377;fill-opacity:1;fill-rule:nonzero;stroke:none"
               d="m 0,0 0,0.695 2.46,3.904 -2.355,0 0,0.724 3.305,0 0,-0.657 -2.474,-3.94 2.474,0 L 3.41,0 0,0 z" />
          </g>
          <g
             transform="translate(155.7612,173.5029)"
             id="g4390">
            <path
               id="path4392"
               style="fill:#3e6377;fill-opacity:1;fill-rule:nonzero;stroke:none"
               d="m 0,0 0,11.808 1.79,0 0,-10.199 5.688,0 L 7.478,0 0,0 z" />
          </g>
          <g
             transform="translate(170.6514,183.7021)"
             id="g4394">
            <path
               id="path4396"
               style="fill:#3e6377;fill-opacity:1;fill-rule:nonzero;stroke:none"
               d="m 0,0 -2.588,0 0,-3.93 2.588,0 c 1.242,0 2.089,0.714 2.089,1.958 C 2.089,-0.729 1.242,0 0,0 m 0.099,-5.556 -2.687,0 0,-4.643 -1.789,0 0,11.807 4.476,0 c 2.305,0 3.781,-1.524 3.781,-3.58 0,-2.057 -1.476,-3.584 -3.781,-3.584" />
          </g>
          <g
             transform="translate(177.6982,173.5029)"
             id="g4398">
            <path
               id="path4400"
               style="fill:#3e6377;fill-opacity:1;fill-rule:nonzero;stroke:none"
               d="m 0,0 0,11.808 7.544,0 0,-1.609 -5.755,0 0,-3.448 4.909,0 0,-1.593 -4.909,0 0,-3.549 5.755,0 L 7.544,0 0,0 z" />
          </g>
          <g
             transform="translate(195.9355,173.5029)"
             id="g4402">
            <path
               id="path4404"
               style="fill:#3e6377;fill-opacity:1;fill-rule:nonzero;stroke:none"
               d="m 0,0 -5.454,8.309 0,-8.309 -1.791,0 0,11.808 1.641,0 5.458,-8.291 0,8.291 1.791,0 L 1.645,0 0,0 z" />
          </g>
          <path
             id="path4406"
             style="fill:#3e6377;fill-opacity:1;fill-rule:nonzero;stroke:none"
             d="m 200.944,178.894 4.842,0 0,-1.574 -4.842,0 0,1.574 z" />
          <g
             transform="translate(227.0967,182.9082)"
             id="g4408">
            <path
               id="path4410"
               style="fill:#3e6377;fill-opacity:1;fill-rule:nonzero;stroke:none"
               d="m 0,0 c -0.497,0.547 -1.161,0.794 -2.007,0.794 l -2.172,0 0,-8.588 2.172,0 c 0.846,0 1.51,0.247 2.007,0.795 0.614,0.681 0.628,1.956 0.628,3.582 C 0.628,-1.791 0.614,-0.681 0,0 M 1.226,-8.294 C 0.479,-9.038 -0.598,-9.405 -1.825,-9.405 l -4.147,0 0,11.808 4.147,0 c 1.227,0 2.304,-0.364 3.051,-1.11 1.277,-1.277 1.193,-3.002 1.193,-4.71 0,-1.708 0.084,-3.599 -1.193,-4.877" />
          </g>
          <g
             transform="translate(237.6084,183.7021)"
             id="g4412">
            <path
               id="path4414"
               style="fill:#3e6377;fill-opacity:1;fill-rule:nonzero;stroke:none"
               d="m 0,0 -2.654,0 0,-3.696 2.654,0 c 1.192,0 2.005,0.68 2.005,1.839 C 2.005,-0.695 1.192,0 0,0 m 2.071,-10.199 -2.487,4.975 -2.238,0 0,-4.975 -1.791,0 0,11.808 4.577,0 c 2.238,0 3.666,-1.443 3.666,-3.449 0,-1.691 -1.029,-2.768 -2.356,-3.134 l 2.719,-5.225 -2.09,0 z" />
          </g>
          <path
             id="path4416"
             style="fill:#3e6377;fill-opacity:1;fill-rule:nonzero;stroke:none"
             d="m 245.02,185.312 1.791,0 0,-11.809 -1.791,0 0,11.809 z" />
          <g
             transform="translate(144.4551,177.8721)"
             id="g4418">
            <path
               id="path4420"
               style="fill:#3e6377;fill-opacity:1;fill-rule:nonzero;stroke:none"
               d="m 0,0 5.848,0 0.802,-1.527 -7.504,0 L 0,0 z" />
          </g>
          <g
             transform="translate(147.3462,185.6279)"
             id="g4422">
            <path
               id="path4424"
               style="fill:#3e6377;fill-opacity:1;fill-rule:nonzero;stroke:none"
               d="m 0,0 c 2.441,0 4.293,-1.665 4.293,-4.141 l 0,-7.945 -1.817,0 0,7.863 c 0,1.598 -0.977,2.59 -2.476,2.59 -1.497,0 -2.492,-0.992 -2.492,-2.59 l 0,-7.863 -1.818,0 0,7.945 C -4.31,-1.665 -2.44,0 0,0" />
          </g>
          <g
             transform="translate(210.6992,177.833)"
             id="g4426">
            <path
               id="path4428"
               style="fill:#3e6377;fill-opacity:1;fill-rule:nonzero;stroke:none"
               d="m 0,0 5.847,0 0.803,-1.527 -7.505,0 L 0,0 z" />
          </g>
          <g
             transform="translate(213.5889,185.5889)"
             id="g4430">
            <path
               id="path4432"
               style="fill:#3e6377;fill-opacity:1;fill-rule:nonzero;stroke:none"
               d="m 0,0 c 2.44,0 4.294,-1.664 4.294,-4.14 l 0,-7.946 -1.818,0 0,7.863 c 0,1.598 -0.978,2.591 -2.476,2.591 -1.497,0 -2.491,-0.993 -2.491,-2.591 l 0,-7.863 -1.819,0 0,7.946 C -4.31,-1.664 -2.439,0 0,0" />
          </g>
          <g
             transform="translate(251.6738,177.833)"
             id="g4434">
            <path
               id="path4436"
               style="fill:#3e6377;fill-opacity:1;fill-rule:nonzero;stroke:none"
               d="m 0,0 5.848,0 0.802,-1.527 -7.505,0 L 0,0 z" />
          </g>
          <g
             transform="translate(254.5645,185.5889)"
             id="g4438">
            <path
               id="path4440"
               style="fill:#3e6377;fill-opacity:1;fill-rule:nonzero;stroke:none"
               d="m 0,0 c 2.44,0 4.293,-1.664 4.293,-4.14 l 0,-7.946 -1.817,0 0,7.863 c 0,1.598 -0.978,2.591 -2.476,2.591 -1.496,0 -2.492,-0.993 -2.492,-2.591 l 0,-7.863 -1.818,0 0,7.946 C -4.31,-1.664 -2.439,0 0,0" />
          </g>
          <g
             transform="translate(147.1299,158.4502)"
             id="g4442">
            <path
               id="path4444"
               style="fill:#569ac2;fill-opacity:1;fill-rule:nonzero;stroke:none"
               d="m 0,0 c -2.327,0 -4.093,1.587 -4.093,3.947 l 0,7.576 1.733,0 0,-7.496 c 0,-1.525 0.932,-2.47 2.36,-2.47 1.427,0 2.375,0.945 2.375,2.47 l 0,7.496 1.734,0 0,-7.576 C 4.109,1.587 2.327,0 0,0" />
          </g>
          <g
             transform="translate(162.2686,158.5449)"
             id="g4446">
            <path
               id="path4448"
               style="fill:#569ac2;fill-opacity:1;fill-rule:nonzero;stroke:none"
               d="m 0,0 -5.281,8.042 0,-8.042 -1.734,0 0,11.429 1.59,0 5.279,-8.024 0,8.024 1.735,0 L 1.589,0 0,0 z" />
          </g>
          <path
             id="path4450"
             style="fill:#569ac2;fill-opacity:1;fill-rule:nonzero;stroke:none"
             d="m 168.085,169.974 1.733,0 0,-11.429 -1.733,0 0,11.429 z" />
          <g
             transform="translate(178.9238,158.5449)"
             id="g4452">
            <path
               id="path4454"
               style="fill:#569ac2;fill-opacity:1;fill-rule:nonzero;stroke:none"
               d="m 0,0 -1.348,0 -3.755,11.429 1.798,0 2.631,-8.315 2.631,8.315 1.83,0 L 0,0 z" />
          </g>
          <g
             transform="translate(186.0566,158.5449)"
             id="g4456">
            <path
               id="path4458"
               style="fill:#569ac2;fill-opacity:1;fill-rule:nonzero;stroke:none"
               d="m 0,0 0,11.429 7.303,0 0,-1.559 -5.571,0 0,-3.338 4.752,0 0,-1.54 -4.752,0 0,-3.434 5.571,0 L 7.303,0 0,0 z" />
          </g>
          <g
             transform="translate(202.1104,168.415)"
             id="g4460">
            <path
               id="path4462"
               style="fill:#569ac2;fill-opacity:1;fill-rule:nonzero;stroke:none"
               d="m 0,0 -2.568,0 0,-3.577 2.568,0 c 1.156,0 1.941,0.659 1.941,1.782 C 1.941,-0.672 1.156,0 0,0 m 2.006,-9.87 -2.408,4.815 -2.166,0 0,-4.815 -1.733,0 0,11.429 4.43,0 c 2.166,0 3.545,-1.397 3.545,-3.339 0,-1.637 -0.994,-2.681 -2.279,-3.034 l 2.632,-5.056 -2.021,0 z" />
          </g>
          <g
             transform="translate(213.0322,158.4502)"
             id="g4464">
            <path
               id="path4466"
               style="fill:#569ac2;fill-opacity:1;fill-rule:nonzero;stroke:none"
               d="m 0,0 c -1.717,0 -2.951,0.4 -4.045,1.509 l 1.158,1.138 c 0.832,-0.833 1.748,-1.09 2.92,-1.09 1.492,0 2.36,0.642 2.36,1.75 0,0.496 -0.145,0.912 -0.45,1.187 -0.291,0.271 -0.578,0.385 -1.254,0.48 l -1.347,0.195 c -0.93,0.126 -1.668,0.448 -2.166,0.912 -0.563,0.531 -0.834,1.252 -0.834,2.184 0,1.99 1.443,3.353 3.82,3.353 1.508,0 2.568,-0.386 3.547,-1.298 L 2.602,9.228 C 1.895,9.902 1.074,10.11 0.113,10.11 c -1.349,0 -2.086,-0.769 -2.086,-1.782 0,-0.417 0.129,-0.786 0.432,-1.058 0.291,-0.258 0.756,-0.45 1.285,-0.529 L 1.043,6.548 C 2.104,6.388 2.697,6.132 3.178,5.697 3.805,5.15 4.107,4.332 4.107,3.354 4.107,1.253 2.393,0 0,0" />
          </g>
          <path
             id="path4468"
             style="fill:#569ac2;fill-opacity:1;fill-rule:nonzero;stroke:none"
             d="m 221.109,169.974 1.734,0 0,-11.429 -1.734,0 0,11.429 z" />
          <g
             transform="translate(231.2686,168.415)"
             id="g4470">
            <path
               id="path4472"
               style="fill:#569ac2;fill-opacity:1;fill-rule:nonzero;stroke:none"
               d="m 0,0 0,-9.87 -1.736,0 0,9.87 -3.147,0 0,1.559 8.028,0 L 3.145,0 0,0 z" />
          </g>
          <g
             transform="translate(255.7109,168.415)"
             id="g4474">
            <path
               id="path4476"
               style="fill:#569ac2;fill-opacity:1;fill-rule:nonzero;stroke:none"
               d="m 0,0 0,-9.87 -1.732,0 0,9.87 -3.145,0 0,1.559 8.023,0 L 3.146,0 0,0 z" />
          </g>
          <g
             transform="translate(239.9648,162.7295)"
             id="g4478">
            <path
               id="path4480"
               style="fill:#569ac2;fill-opacity:1;fill-rule:nonzero;stroke:none"
               d="m 0,0 5.652,0 0.776,-1.477 -7.252,0 L 0,0 z" />
          </g>
          <g
             transform="translate(242.7578,170.2236)"
             id="g4482">
            <path
               id="path4484"
               style="fill:#569ac2;fill-opacity:1;fill-rule:nonzero;stroke:none"
               d="m 0,0 c 2.359,0 4.15,-1.608 4.15,-4 l 0,-7.679 -1.757,0 0,7.599 c 0,1.544 -0.944,2.503 -2.393,2.503 -1.445,0 -2.406,-0.959 -2.406,-2.503 l 0,-7.599 -1.758,0 0,7.679 c 0,2.392 1.809,4 4.164,4" />
          </g>
          <g
             transform="translate(245.5723,169.9893)"
             id="g4486">
            <path
               id="path4488"
               style="fill:#569ac2;fill-opacity:1;fill-rule:nonzero;stroke:none"
               d="m 0,0 c 0.596,-0.397 1.068,-0.943 1.357,-1.614 l 0.991,0 L 2.348,0 0,0 z m -1.166,-1.614 0.004,0 c -0.002,0 -0.002,0.002 -0.004,0.002 l 0,-0.002 z" />
          </g>
          <g
             transform="translate(239.8848,169.9893)"
             id="g4490">
            <path
               id="path4492"
               style="fill:#569ac2;fill-opacity:1;fill-rule:nonzero;stroke:none"
               d="m 0,0 c -0.596,-0.397 -1.068,-0.943 -1.359,-1.614 l -0.989,0 0,1.614 L 0,0 z m 1.164,-1.614 -0.002,0 c 0.002,0 0.002,0.002 0.002,0.002 l 0,-0.002 z" />
          </g>
        </g>
      </g>
    </g>
  </g>
</svg>
