<?xml version="1.0" encoding="UTF-8" standalone="no"?>
<!-- Created with Inkscape (http://www.inkscape.org/) -->

<svg
   xmlns:dc="http://purl.org/dc/elements/1.1/"
   xmlns:cc="http://creativecommons.org/ns#"
   xmlns:rdf="http://www.w3.org/1999/02/22-rdf-syntax-ns#"
   xmlns:svg="http://www.w3.org/2000/svg"
   xmlns="http://www.w3.org/2000/svg"
   xmlns:sodipodi="http://sodipodi.sourceforge.net/DTD/sodipodi-0.dtd"
   xmlns:inkscape="http://www.inkscape.org/namespaces/inkscape"
   width="265.74805"
   height="138.72702"
   id="svg7971"
   version="1.1"
   inkscape:version="0.47 r22583"
   sodipodi:docname="ls_am_logo.svg"
   inkscape:export-filename="/Users/simon/Downloads/ls_am_logo.png"
   inkscape:export-xdpi="300.09702"
   inkscape:export-ydpi="300.09702">
  <sodipodi:namedview
     id="base"
     pagecolor="#ffffff"
     bordercolor="#666666"
     borderopacity="1.0"
     inkscape:pageopacity="0.0"
     inkscape:pageshadow="2"
     inkscape:zoom="1.2357997"
     inkscape:cx="397.98374"
     inkscape:cy="136.4139"
     inkscape:document-units="px"
     inkscape:current-layer="layer1"
     showgrid="false"
     inkscape:window-width="1274"
     inkscape:window-height="878"
     inkscape:window-x="101"
     inkscape:window-y="60"
     inkscape:window-maximized="0" />
  <defs
     id="defs7973">
    <inkscape:perspective
       sodipodi:type="inkscape:persp3d"
       inkscape:vp_x="0 : 526.18109 : 1"
       inkscape:vp_y="0 : 1000 : 0"
       inkscape:vp_z="744.09448 : 526.18109 : 1"
       inkscape:persp3d-origin="372.04724 : 350.78739 : 1"
       id="perspective7979" />
    <inkscape:perspective
       id="perspective9017"
       inkscape:persp3d-origin="0.5 : 0.33333333 : 1"
       inkscape:vp_z="1 : 0.5 : 1"
       inkscape:vp_y="0 : 1000 : 0"
       inkscape:vp_x="0 : 0.5 : 1"
       sodipodi:type="inkscape:persp3d" />
    <inkscape:perspective
       id="perspective9888"
       inkscape:persp3d-origin="0.5 : 0.33333333 : 1"
       inkscape:vp_z="1 : 0.5 : 1"
       inkscape:vp_y="0 : 1000 : 0"
       inkscape:vp_x="0 : 0.5 : 1"
       sodipodi:type="inkscape:persp3d" />
    <inkscape:perspective
       id="perspective9944"
       inkscape:persp3d-origin="0.5 : 0.33333333 : 1"
       inkscape:vp_z="1 : 0.5 : 1"
       inkscape:vp_y="0 : 1000 : 0"
       inkscape:vp_x="0 : 0.5 : 1"
       sodipodi:type="inkscape:persp3d" />
    <inkscape:perspective
       id="perspective3891"
       inkscape:persp3d-origin="0.5 : 0.33333333 : 1"
       inkscape:vp_z="1 : 0.5 : 1"
       inkscape:vp_y="0 : 1000 : 0"
       inkscape:vp_x="0 : 0.5 : 1"
       sodipodi:type="inkscape:persp3d" />
    <inkscape:perspective
       sodipodi:type="inkscape:persp3d"
       inkscape:vp_x="0 : 0.5 : 1"
       inkscape:vp_y="0 : 1000 : 0"
       inkscape:vp_z="1 : 0.5 : 1"
       inkscape:persp3d-origin="0.5 : 0.33333333 : 1"
       id="perspective4196" />
    <inkscape:perspective
       sodipodi:type="inkscape:persp3d"
       inkscape:vp_x="0 : 0.5 : 1"
       inkscape:vp_y="0 : 1000 : 0"
       inkscape:vp_z="1 : 0.5 : 1"
       inkscape:persp3d-origin="0.5 : 0.33333333 : 1"
       id="perspective4273" />
    <inkscape:perspective
       id="perspective5798"
       inkscape:persp3d-origin="0.5 : 0.33333333 : 1"
       inkscape:vp_z="1 : 0.5 : 1"
       inkscape:vp_y="0 : 1000 : 0"
       inkscape:vp_x="0 : 0.5 : 1"
       sodipodi:type="inkscape:persp3d" />
    <inkscape:perspective
       id="perspective6369"
       inkscape:persp3d-origin="88.582672 : 17.716535 : 1"
       inkscape:vp_z="177.16534 : 26.574802 : 1"
       inkscape:vp_y="0 : 1000 : 0"
       inkscape:vp_x="0 : 26.574802 : 1"
       sodipodi:type="inkscape:persp3d" />
  </defs>
  <metadata
     id="metadata7976">
    <rdf:RDF>
      <cc:Work
         rdf:about="">
        <dc:format>image/svg+xml</dc:format>
        <dc:type
           rdf:resource="http://purl.org/dc/dcmitype/StillImage" />
        <dc:title></dc:title>
      </cc:Work>
    </rdf:RDF>
  </metadata>
  <g
     inkscape:label="Layer 1"
     inkscape:groupmode="layer"
     id="layer1"
     transform="translate(-224.32306,-866.66972)">
    <g
       id="g2991"
       transform="matrix(0.5329181,0,0,0.5329181,104.77724,469.60262)">
      <g
         id="g6449">
        <g
           id="g10293"
           style="fill:#000000">
          <path
             d="m 454.85305,763.6359 5.675,0 -2.77,-12.0925 -0.0937,0 -2.81125,12.0925 z m -8.16125,11.35125 7.4175,-29.90625 7.32875,0 7.205,29.90625 -5.465,0 -1.44875,-6.295 -7.915,0 -1.61375,6.295 -5.50875,0"
             style="fill:#000000;fill-opacity:1;fill-rule:nonzero;stroke:none"
             id="path9950" />
          <path
             d="m 476.3218,774.98715 0,-29.90625 5.71125,0 0,24.8525 9.19875,0 0,5.05375 -14.91,0"
             style="fill:#000000;fill-opacity:1;fill-rule:nonzero;stroke:none"
             id="path9952" />
          <path
             d="m 505.32305,758.2559 3.06375,0 c 2.8175,0 4.22625,-1.41 4.22625,-4.23 0,-2.81625 -1.40875,-4.2225 -4.22625,-4.2225 l -3.06375,0 0,8.4525 z m -5.7175,16.73125 0,-29.90625 8.2425,0 c 7.04125,0 10.47875,3.31625 10.47875,8.945 0,5.635 -3.4375,8.95 -10.47875,8.95 l -2.525,0 0,12.01125 -5.7175,0"
             style="fill:#000000;fill-opacity:1;fill-rule:nonzero;stroke:none"
             id="path9954" />
          <path
             d="m 526.86805,774.98715 0,-29.90625 15.65875,0 0,5.0575 -9.94375,0 0,6.8725 7.58125,0 0,5.05625 -7.58125,0 0,7.86625 10.3575,0 0,5.05375 -16.0725,0"
             style="fill:#000000;fill-opacity:1;fill-rule:nonzero;stroke:none"
             id="path9956" />
          <path
             d="m 552.47555,774.98715 0,-29.90625 6.2525,0 7.955,17.73375 0.0825,0 0,-17.73375 5.2225,0 0,29.90625 -5.47125,0 -8.745,-19.30125 -0.0775,0 0,19.30125 -5.21875,0"
             style="fill:#000000;fill-opacity:1;fill-rule:nonzero;stroke:none"
             id="path9958" />
          <path
             d="m 581.23055,765.9984 10.18799,0 0,-4.55664 -10.18799,0 0,4.55664 z"
             style="fill:#000000;fill-opacity:1;fill-rule:nonzero;stroke:none"
             id="path9960" />
          <path
             d="m 606.5043,763.6359 5.6725,0 -2.77125,-12.0925 -0.09,0 -2.81125,12.0925 z m -8.16125,11.35125 7.41625,-29.90625 7.32875,0 7.20875,29.90625 -5.46375,0 -1.45625,-6.295 -7.91125,0 -1.61625,6.295 -5.50625,0"
             style="fill:#000000;fill-opacity:1;fill-rule:nonzero;stroke:none"
             id="path9962" />
          <path
             d="m 633.68805,769.9334 1.985,0 c 3.15,0 4.9725,-1.49 4.9725,-5.9625 l 0,-7.87125 c 0,-4.2275 -1.41125,-5.96125 -4.9725,-5.96125 l -1.985,0 0,19.795 z m -5.72,-24.8525 7.95625,0 c 6.5375,0 10.1875,2.815 10.43625,10.35 l 0,9.2 c -0.24875,7.53875 -3.89875,10.35625 -10.43625,10.35625 l -7.95625,0 0,-29.90625"
             style="fill:#000000;fill-opacity:1;fill-rule:nonzero;stroke:none"
             id="path9964" />
          <path
             d="m 661.2793,758.0859 2.93875,0 c 2.53375,0 4.065,-1.24 4.065,-4.14125 0,-2.89875 -1.53125,-4.14125 -4.065,-4.14125 l -2.93875,0 0,8.2825 z m 7.71,16.90125 -4.97625,-12.1725 -2.73375,0 0,12.1725 -5.7125,0 0,-29.90625 8.28375,0 c 6.87125,0 10.145,3.31625 10.145,8.945 0,3.73125 -1.32125,6.42125 -4.515,7.62625 l 5.635,13.335 -6.12625,0"
             style="fill:#000000;fill-opacity:1;fill-rule:nonzero;stroke:none"
             id="path9966" />
          <path
             d="m 683.49055,774.98715 5.71534,0 0,-29.90625 -5.71534,0 0,29.90625 z"
             style="fill:#000000;fill-opacity:1;fill-rule:nonzero;stroke:none"
             id="path9968" />
          <path
             d="m 705.3643,763.6359 5.67625,0 -2.7775,-12.0925 -0.0838,0 -2.815,12.0925 z m -8.15875,11.35125 7.415,-29.90625 7.32875,0 7.21125,29.90625 -5.4725,0 -1.44625,-6.295 -7.9125,0 -1.6175,6.295 -5.50625,0"
             style="fill:#000000;fill-opacity:1;fill-rule:nonzero;stroke:none"
             id="path9970" />
          <path
             d="m 453.9418,794.8009 0,20.91875 c 0,2.85625 1.24125,4.34875 4.0175,4.34875 2.7775,0 4.05875,-1.4925 4.05875,-4.34875 l 0,-20.91875 5.72125,0 0,20.96 c 0,6.585 -3.895,9.36 -9.78,9.36 -5.88375,0 -9.73125,-2.775 -9.73125,-9.36 l 0,-20.96 5.71375,0"
             style="fill:#000000;fill-opacity:1;fill-rule:nonzero;stroke:none"
             id="path9972" />
          <path
             d="m 478.10055,824.70715 0,-29.90875 6.25125,0 7.96,17.73125 0.0813,0 0,-17.73125 5.2175,0 0,29.90875 -5.47,0 -8.7375,-19.3 -0.0813,0 0,19.3 -5.22125,0"
             style="fill:#000000;fill-opacity:1;fill-rule:nonzero;stroke:none"
             id="path9974" />
          <path
             d="m 507.97555,824.7109 5.7168,0 0,-29.90963 -5.7168,0 0,29.90963 z"
             style="fill:#000000;fill-opacity:1;fill-rule:nonzero;stroke:none"
             id="path9976" />
          <path
             d="m 521.7718,794.8009 5.635,0 5.26,21.3725 0.0838,0 5.2175,-21.3725 5.59,0 -7.62,29.90625 -6.50375,0 -7.6625,-29.90625"
             style="fill:#000000;fill-opacity:1;fill-rule:nonzero;stroke:none"
             id="path9978" />
          <path
             d="m 551.31555,824.70715 0,-29.90875 15.65875,0 0,5.05875 -9.94625,0 0,6.875 7.5775,0 0,5.05125 -7.5775,0 0,7.87375 10.35875,0 0,5.05 -16.07125,0"
             style="fill:#000000;fill-opacity:1;fill-rule:nonzero;stroke:none"
             id="path9980" />
          <path
             d="m 582.3043,807.80965 2.94,0 c 2.53,0 4.06,-1.245 4.06,-4.14375 0,-2.89875 -1.53,-4.145 -4.06,-4.145 l -2.94,0 0,8.28875 z m 7.705,16.8975 -4.9725,-12.1775 -2.7325,0 0,12.1775 -5.71625,0 0,-29.90875 8.2875,0 c 6.87375,0 10.15125,3.31625 10.15125,8.95125 0,3.73 -1.32875,6.42 -4.52625,7.6225 l 5.64125,13.335 -6.1325,0"
             style="fill:#000000;fill-opacity:1;fill-rule:nonzero;stroke:none"
             id="path9982" />
          <path
             d="m 616.8143,803.12715 c -0.94375,-2.8175 -2.18875,-4.01625 -4.1775,-4.01625 -2.0325,0 -3.15,1.24 -3.15,3.27125 0,4.515 12.755,4.845 12.755,14.205 0,5.14125 -3.515,8.53375 -9.52625,8.53375 -4.6375,0 -8.23875,-2.5275 -9.77375,-8.40875 l 5.63125,-1.2025 c 0.665,3.60375 2.7325,4.89125 4.43125,4.89125 1.99,0 3.5275,-1.325 3.5275,-3.56375 0,-5.6325 -12.76375,-5.71625 -12.76375,-14.0825 0,-5.13375 3.0725,-8.36625 8.9925,-8.36625 5.08875,0 8.2025,3.0225 9.19125,7.2475 l -5.1375,1.49125"
             style="fill:#000000;fill-opacity:1;fill-rule:nonzero;stroke:none"
             id="path9984" />
          <path
             d="m 632.1093,824.7109 5.71435,0 0,-29.90963 -5.71435,0 0,29.90963 z"
             style="fill:#000000;fill-opacity:1;fill-rule:nonzero;stroke:none"
             id="path9986" />
          <path
             d="m 665.17055,794.8009 0,5.05625 -6.67125,0 0,24.85 -5.715,0 0,-24.85 -6.66375,0 0,-5.05625 19.05,0"
             style="fill:#000000;fill-opacity:1;fill-rule:nonzero;stroke:none"
             id="path9988" />
          <path
             d="m 688.50055,792.77215 -4.97125,0 0,-4.72125 4.97125,0 0,4.72125 z m -9.24,20.58375 5.6775,0 -2.775,-12.09125 -0.0888,0 -2.81375,12.09125 z m 1.36875,-20.58375 -4.96875,0 0,-4.72125 4.96875,0 0,4.72125 z m -9.52875,31.935 7.42,-29.90875 7.3275,0 7.2075,29.90875 -5.46625,0 -1.4525,-6.29875 -7.915,0 -1.61125,6.29875 -5.51,0"
             style="fill:#000000;fill-opacity:1;fill-rule:nonzero;stroke:none"
             id="path9990" />
          <path
             d="m 718.0418,794.8009 0,5.05625 -6.66875,0 0,24.85 -5.71875,0 0,-24.85 -6.6675,0 0,-5.05625 19.055,0"
             style="fill:#000000;fill-opacity:1;fill-rule:nonzero;stroke:none"
             id="path9992" />
        </g>
        <g
           id="g10317"
           style="fill:#000000">
          <path
             d="m 451.70555,844.52465 0,15.24375 0.0813,0 8.36875,-15.24375 3.47875,0 -5.79625,10.43625 6.87375,19.47 -3.48125,0 -5.54625,-16.155 -0.0813,0 -3.8975,6.95375 0,9.20125 -3.23125,0 0,-29.90625 3.23125,0"
             style="fill:#000000;fill-opacity:1;fill-rule:nonzero;stroke:none"
             id="path9994" />
          <path
             d="m 480.1293,844.52465 0,27.17375 9.6925,0 0,2.7325 -12.92625,0 0,-29.90625 3.23375,0"
             style="fill:#000000;fill-opacity:1;fill-rule:nonzero;stroke:none"
             id="path9996" />
          <path
             d="m 505.7343,862.83465 6.71125,0 -3.315,-16.075 -0.0788,0 -3.3175,16.075 z m 5.59375,-18.31 6.5825,29.90625 -3.22625,0 -1.7825,-8.865 -7.62125,0 -1.7825,8.865 -3.23125,0 6.585,-29.90625 4.47625,0"
             style="fill:#000000;fill-opacity:1;fill-rule:nonzero;stroke:none"
             id="path9998" />
          <path
             d="m 543.0643,853.71965 c -0.2525,-3.89625 -1.41,-6.875 -4.68125,-6.875 -3.60125,0 -5.34125,3.2325 -5.34125,12.62875 0,9.4075 1.74,12.63875 5.34125,12.63875 3.025,0 4.68125,-1.66 4.68125,-4.72375 l 0,-4.22375 -4.0575,0 0,-2.73625 7.28625,0 0,14.0025 -2.07125,0 -0.41375,-2.235 c -1.24,1.655 -2.97875,2.65 -5.425,2.65 -5.2625,0 -8.575,-4.0625 -8.575,-15.3725 0,-11.305 3.3125,-15.36 8.575,-15.36 5.505,0 7.49625,4.80125 7.91,9.60625 l -3.22875,0"
             style="fill:#000000;fill-opacity:1;fill-rule:nonzero;stroke:none"
             id="path10000" />
          <path
             d="m 574.6318,844.52465 0,2.7325 -10.43125,0 0,10.19125 7.70125,0 0,2.73125 -7.70125,0 0,11.51875 10.9325,0 0,2.7325 -14.16625,0 0,-29.90625 13.665,0"
             style="fill:#000000;fill-opacity:1;fill-rule:nonzero;stroke:none"
             id="path10002" />
          <path
             d="m 593.6168,844.52465 7.705,22.03375 0.085,0 0,-22.03375 3.225,0 0,29.90625 -3.47625,0 -9.28,-26.01375 -0.08,0 0,26.01375 -3.23125,0 0,-29.90625 5.0525,0"
             style="fill:#000000;fill-opacity:1;fill-rule:nonzero;stroke:none"
             id="path10004" />
          <path
             d="m 619.30805,844.52465 12.83875,0 0,2.7325 -9.61,0 0,10.19125 7.2075,0 0,2.73125 -7.2075,0 0,14.25125 -3.22875,0 0,-29.90625"
             style="fill:#000000;fill-opacity:1;fill-rule:nonzero;stroke:none"
             id="path10006" />
          <path
             d="m 648.26805,844.52465 0,21.9525 c 0,3.0225 0.87125,5.635 4.39375,5.635 3.51875,0 4.38625,-2.6125 4.38625,-5.635 l 0,-21.9525 3.22875,0 0,22.03375 c 0,4.8075 -2.24125,8.2875 -7.615,8.2875 -5.3875,0 -7.6275,-3.48 -7.6275,-8.2875 l 0,-22.03375 3.23375,0"
             style="fill:#000000;fill-opacity:1;fill-rule:nonzero;stroke:none"
             id="path10008" />
          <path
             d="m 678.59805,857.6134 2.82125,0 c 4.6425,0 6.12125,-1.8225 6.12125,-5.17875 0,-3.3575 -1.47875,-5.1775 -6.12125,-5.1775 l -2.82125,0 0,10.35625 z m -3.23375,-13.08875 7.20875,0 c 4.80625,0 8.20375,2.815 8.20375,7.745 0,3.3575 -1.4925,6.17375 -4.80375,7.33125 l 5.0525,14.83 -3.39875,0 -4.80875,-14.16375 -4.22,0.16125 0,14.0025 -3.23375,0 0,-29.90625"
             style="fill:#000000;fill-opacity:1;fill-rule:nonzero;stroke:none"
             id="path10010" />
          <path
             d="m 718.0093,844.52465 0,2.7325 -6.1375,0 0,27.17375 -3.22625,0 0,-27.17375 -6.12625,0 0,-2.7325 15.49,0"
             style="fill:#000000;fill-opacity:1;fill-rule:nonzero;stroke:none"
             id="path10012" />
        </g>
      </g>
      <g
         style="fill:#000000"
         id="g10329">
        <path
           id="path10014"
           style="fill:#000000;fill-opacity:1;fill-rule:nonzero;stroke:none"
           d="m 375.9593,913.7034 0,3.94 5.05125,0 0,1.465 -5.05125,0 0,5.96375 -1.91875,0 0,-12.885 7.6775,0 0,1.51625 -5.75875,0" />
        <path
           id="path10016"
           style="fill:#000000;fill-opacity:1;fill-rule:nonzero;stroke:none"
           d="m 389.62555,916.3809 c -0.275,-0.8075 -0.65625,-1.87 -0.9325,-2.755 l -0.0513,0 c -0.3025,0.885 -0.68375,1.97125 -0.96125,2.755 l -1.365,3.915 4.62625,0 -1.31625,-3.915 z m 2.96,8.69125 -1.11375,-3.2575 -5.66125,0 -1.16,3.2575 -1.9725,0 4.8775,-12.885 2.375,0 4.6975,12.885 -2.0425,0" />
        <path
           id="path10018"
           style="fill:#000000;fill-opacity:1;fill-rule:nonzero;stroke:none"
           d="m 406.43055,925.2734 c -1.31375,0 -2.02,-0.555 -2.7275,-1.365 l -4.34625,-5.1525 0,6.315 -1.91875,0 0,-12.88375 1.91875,0 0,5.965 5.50875,-5.965 2.1475,0 -5.73875,6.16375 4.09375,4.825 c 0.4325,0.505 0.8375,0.63375 1.24,0.63375 0.17875,0 0.35625,-0.0263 0.555,-0.0538 l 0,1.41875 c -0.15,0.0475 -0.455,0.0987 -0.7325,0.0987" />
        <path
           id="path10020"
           style="fill:#000000;fill-opacity:1;fill-rule:nonzero;stroke:none"
           d="m 415.17305,925.24965 c -3.08125,0 -5.205,-1.72 -5.205,-4.60125 l 0,-8.46125 1.92125,0 0,8.13375 c 0,2.07375 0.9575,3.4375 3.28375,3.4375 2.3,0 3.28375,-1.36375 3.28375,-3.4375 l 0,-8.13375 1.79375,0 0,8.46125 c 0,2.88125 -2.09625,4.60125 -5.0775,4.60125" />
        <path
           id="path10022"
           style="fill:#000000;fill-opacity:1;fill-rule:nonzero;stroke:none"
           d="m 432.1043,925.07215 -7.48125,0 0,-12.885 1.92125,0 0,11.3675 5.56,0 0,1.5175" />
        <path
           id="path10024"
           style="fill:#000000;fill-opacity:1;fill-rule:nonzero;stroke:none"
           d="m 442.13305,913.7034 -3.91625,0 0,11.36875 -1.91875,0 0,-11.36875 -3.69125,0 0,-1.51625 9.52625,0 0,1.51625" />
        <path
           id="path10026"
           style="fill:#000000;fill-opacity:1;fill-rule:nonzero;stroke:none"
           d="m 449.1568,909.45715 c 0,-0.73125 0.58125,-1.31375 1.31375,-1.31375 0.70875,0 1.31625,0.5825 1.31625,1.31375 0,0.7075 -0.6075,1.315 -1.31625,1.315 -0.7325,0 -1.31375,-0.6075 -1.31375,-1.315 m 0.025,6.92375 c -0.27625,-0.8075 -0.6575,-1.87 -0.935,-2.755 l -0.0487,0 c -0.3,0.885 -0.68375,1.97125 -0.96,2.755 l -1.3675,3.915 4.6275,0 -1.31625,-3.915 z m -4.34375,-6.92375 c 0,-0.73125 0.58125,-1.31375 1.31625,-1.31375 0.705,0 1.31125,0.5825 1.31125,1.31375 0,0.7075 -0.60625,1.315 -1.31125,1.315 -0.735,0 -1.31625,-0.6075 -1.31625,-1.315 m 7.3025,15.615 -1.11125,-3.2575 -5.66375,0 -1.16,3.2575 -1.9725,0 4.87875,-12.885 2.375,0 4.7025,12.885 -2.04875,0" />
        <path
           id="path10028"
           style="fill:#000000;fill-opacity:1;fill-rule:nonzero;stroke:none"
           d="m 464.24305,913.7034 -3.91625,0 0,11.36875 -1.92125,0 0,-11.36875 -3.68875,0 0,-1.51625 9.52625,0 0,1.51625" />
        <path
           id="path10030"
           style="fill:#000000;fill-opacity:1;fill-rule:nonzero;stroke:none"
           d="m 475.0068,913.7034 0,3.94 5.05375,0 0,1.465 -5.05375,0 0,5.96375 -1.91625,0 0,-12.885 7.675,0 0,1.51625 -5.75875,0" />
        <path
           id="path10032"
           style="fill:#000000;fill-opacity:1;fill-rule:nonzero;stroke:none"
           d="m 489.86305,909.45715 c 0,-0.73125 0.58375,-1.31375 1.31375,-1.31375 0.7075,0 1.3175,0.5825 1.3175,1.31375 0,0.7075 -0.61,1.315 -1.3175,1.315 -0.73,0 -1.31375,-0.6075 -1.31375,-1.315 m -4.32125,0 c 0,-0.73125 0.58375,-1.31375 1.315,-1.31375 0.70625,0 1.31125,0.5825 1.31125,1.31375 0,0.7075 -0.605,1.315 -1.31125,1.315 -0.73125,0 -1.315,-0.6075 -1.315,-1.315 m 3.38375,15.7925 c -3.07875,0 -5.2,-1.72 -5.2,-4.60125 l 0,-8.46125 1.91875,0 0,8.13375 c 0,2.07375 0.96125,3.4375 3.28125,3.4375 2.3025,0 3.28875,-1.36375 3.28875,-3.4375 l 0,-8.13375 1.79375,0 0,8.46125 c 0,2.88125 -2.0975,4.60125 -5.0825,4.60125" />
        <path
           id="path10034"
           style="fill:#000000;fill-opacity:1;fill-rule:nonzero;stroke:none"
           d="m 502.87555,913.6534 -2.57875,0 0,4.4175 2.68375,0 c 1.54,0 2.24625,-0.9075 2.24625,-2.24625 0,-1.4425 -0.76,-2.17125 -2.35125,-2.17125 m -2.57875,11.41875 -1.91625,0 0,-12.885 4.57,0 c 2.78375,0 4.2975,1.38875 4.2975,3.6375 0,1.56625 -1.035,3.08375 -3.1075,3.51125 l 2.375,3.71625 c 0.35125,0.5525 0.91125,0.72875 1.3625,0.72875 0.15625,0 0.305,-0.0225 0.43,-0.0475 l 0,1.415 c -0.30125,0.0738 -0.5525,0.125 -0.98375,0.125 -1.0875,0 -1.7925,-0.43 -2.425,-1.43875 l -2.73125,-4.3975 -1.87125,0 0,5.635" />
        <path
           id="path10036"
           style="fill:#000000;fill-opacity:1;fill-rule:nonzero;stroke:none"
           d="m 525.3143,913.7034 -3.91625,0 0,11.36875 -1.92125,0 0,-11.36875 -3.68875,0 0,-1.51625 9.52625,0 0,1.51625" />
        <path
           id="path10038"
           style="fill:#000000;fill-opacity:1;fill-rule:nonzero;stroke:none"
           d="m 536.07805,925.07215 -7.9825,0 0,-12.885 7.9825,0 0,1.51375 -6.06375,0 0,3.64 5.205,0 0,1.51625 -5.205,0 0,4.6975 6.06375,0 0,1.5175" />
        <path
           id="path10040"
           style="fill:#000000;fill-opacity:1;fill-rule:nonzero;stroke:none"
           d="m 545.5293,925.2734 c -3.9425,0 -6.3675,-2.62625 -6.3675,-6.4675 0,-3.79 2.12375,-6.8475 6.11625,-6.8475 1.765,0 2.87875,0.33 3.51,0.58125 l 0,1.69375 c -0.78375,-0.40625 -1.7675,-0.735 -3.1825,-0.735 -3.1325,0 -4.44625,2.04875 -4.44625,5.3075 0,3.0825 1.59125,4.90375 4.6975,4.90375 1.26375,0 2.3,-0.28 3.2125,-0.73625 l 0,1.695 c -1.065,0.45375 -2.25125,0.605 -3.54,0.605" />
        <path
           id="path10042"
           style="fill:#000000;fill-opacity:1;fill-rule:nonzero;stroke:none"
           d="m 561.2693,925.07215 0,-5.99 -6.87,0 0,5.99 -1.92375,0 0,-12.885 1.92375,0 0,5.38125 6.87,0 0,-5.38125 1.91875,0 0,12.885 -1.91875,0" />
        <path
           id="path10044"
           style="fill:#000000;fill-opacity:1;fill-rule:nonzero;stroke:none"
           d="m 576.1493,925.07215 -5.6075,-8.565 c -0.3275,-0.5075 -0.7325,-1.13875 -1.08625,-1.745 l -0.025,0 c 0.0487,0.53125 0.0788,1.11375 0.0788,1.46625 l 0,8.84375 -1.7725,0 0,-12.885 1.9725,0 5.6075,8.56375 c 0.45625,0.685 0.8325,1.315 1.08375,1.81875 l 0.0275,0 c -0.0275,-0.58125 -0.0275,-1.11 -0.0275,-1.53875 l 0,-8.84375 1.775,0 0,12.885 -2.02625,0" />
        <path
           id="path10046"
           style="fill:#000000;fill-opacity:1;fill-rule:nonzero;stroke:none"
           d="m 583.3268,925.07215 1.92383,0 0,-12.88475 -1.92383,0 0,12.88475 z" />
        <path
           id="path10048"
           style="fill:#000000;fill-opacity:1;fill-rule:nonzero;stroke:none"
           d="m 591.9718,925.2734 c -1.51875,0 -2.7075,-0.35375 -3.48625,-0.70625 l 0,-1.66875 c 0.98375,0.48 2.3,0.8575 3.30875,0.8575 1.89375,0 2.92875,-0.62875 2.92875,-2.0425 0,-1.21625 -0.75625,-1.76875 -2.65125,-2.53 -2.1725,-0.855 -3.46125,-1.8425 -3.46125,-3.915 0,-2.0975 1.69125,-3.31 4.3725,-3.31 1.41375,0 2.5725,0.405 3.1325,0.6825 l 0,1.61625 c -0.81125,-0.43 -1.81875,-0.78125 -3.0575,-0.78125 -1.745,0 -2.605,0.58 -2.605,1.7925 0,1.2625 1.09,1.74375 2.4275,2.275 2.2725,0.9075 3.81625,1.79375 3.81625,4.1175 0,2.1725 -1.74375,3.6125 -4.725,3.6125" />
        <path
           id="path10050"
           style="fill:#000000;fill-opacity:1;fill-rule:nonzero;stroke:none"
           d="m 605.68805,925.2734 c -3.94,0 -6.365,-2.62625 -6.365,-6.4675 0,-3.79 2.12125,-6.8475 6.11375,-6.8475 1.77,0 2.88,0.33 3.5125,0.58125 l 0,1.69375 c -0.78625,-0.40625 -1.77,-0.735 -3.18625,-0.735 -3.13125,0 -4.4425,2.04875 -4.4425,5.3075 0,3.0825 1.59125,4.90375 4.6975,4.90375 1.26125,0 2.29875,-0.28 3.21,-0.73625 l 0,1.695 c -1.065,0.45375 -2.24875,0.605 -3.54,0.605" />
        <path
           id="path10052"
           style="fill:#000000;fill-opacity:1;fill-rule:nonzero;stroke:none"
           d="m 621.43055,925.07215 0,-5.99 -6.87,0 0,5.99 -1.9225,0 0,-12.885 1.9225,0 0,5.38125 6.87,0 0,-5.38125 1.92125,0 0,12.885 -1.92125,0" />
        <path
           id="path10054"
           style="fill:#000000;fill-opacity:1;fill-rule:nonzero;stroke:none"
           d="m 635.88305,925.07215 -7.98125,0 0,-12.885 7.98125,0 0,1.51375 -6.05875,0 0,3.64 5.2025,0 0,1.51625 -5.2025,0 0,4.6975 6.05875,0 0,1.5175" />
        <path
           id="path10056"
           style="fill:#000000;fill-opacity:1;fill-rule:nonzero;stroke:none"
           d="m 385.07805,950.3684 -1.8925,0 -2.25375,-7.12375 c -0.14875,-0.48125 -0.25125,-0.90875 -0.34875,-1.415 l -0.0275,0 c -0.075,0.47875 -0.22625,0.96 -0.35375,1.415 l -2.09625,7.12375 -1.94375,0 -3.89125,-12.88375 1.9675,0 2.4,8.56625 c 0.18,0.62875 0.38,1.41125 0.5075,2.17 l 0.0238,0 c 0.1525,-0.75875 0.30375,-1.48875 0.50875,-2.17 l 2.045,-6.59625 -0.6075,-1.97 1.94625,0 2.5775,8.61375 c 0.17625,0.5575 0.33,1.415 0.4525,2.1225 l 0.0288,0 c 0.17625,-0.7075 0.35125,-1.5125 0.5275,-2.1225 l 2.4025,-8.61375 1.77,0 -3.7425,12.88375" />
        <path
           id="path10058"
           style="fill:#000000;fill-opacity:1;fill-rule:nonzero;stroke:none"
           d="m 392.2818,950.3684 1.91895,0 0,-12.88425 -1.91895,0 0,12.88425 z" />
        <path
           id="path10060"
           style="fill:#000000;fill-opacity:1;fill-rule:nonzero;stroke:none"
           d="m 400.9218,950.5709 c -1.5175,0 -2.7025,-0.3525 -3.48625,-0.70625 l 0,-1.67 c 0.98375,0.48125 2.2975,0.86125 3.31125,0.86125 1.89375,0 2.9275,-0.6325 2.9275,-2.04625 0,-1.215 -0.755,-1.76875 -2.65125,-2.5275 -2.17125,-0.8575 -3.46,-1.84375 -3.46,-3.91625 0,-2.095 1.69125,-3.31125 4.3675,-3.31125 1.41875,0 2.57875,0.40625 3.135,0.68375 l 0,1.6175 c -0.80875,-0.42875 -1.81875,-0.7825 -3.05375,-0.7825 -1.74625,0 -2.6075,0.57875 -2.6075,1.7925 0,1.26375 1.08875,1.7425 2.42875,2.27625 2.2725,0.9075 3.81625,1.79125 3.81625,4.115 0,2.17375 -1.74375,3.61375 -4.7275,3.61375" />
        <path
           id="path10062"
           style="fill:#000000;fill-opacity:1;fill-rule:nonzero;stroke:none"
           d="m 411.71305,950.5709 c -1.51875,0 -2.7025,-0.3525 -3.48625,-0.70625 l 0,-1.67 c 0.98375,0.48125 2.2975,0.86125 3.30875,0.86125 1.89375,0 2.92625,-0.6325 2.92625,-2.04625 0,-1.215 -0.75375,-1.76875 -2.64875,-2.5275 -2.1725,-0.8575 -3.46375,-1.84375 -3.46375,-3.91625 0,-2.095 1.69625,-3.31125 4.3725,-3.31125 1.41625,0 2.5775,0.40625 3.1325,0.68375 l 0,1.6175 c -0.80875,-0.42875 -1.81625,-0.7825 -3.0575,-0.7825 -1.74,0 -2.6025,0.57875 -2.6025,1.7925 0,1.26375 1.09,1.7425 2.4275,2.27625 2.2725,0.9075 3.81375,1.79125 3.81375,4.115 0,2.17375 -1.74125,3.61375 -4.7225,3.61375" />
        <path
           id="path10064"
           style="fill:#000000;fill-opacity:1;fill-rule:nonzero;stroke:none"
           d="m 427.95555,950.3684 -7.98,0 0,-12.88375 7.98,0 0,1.51375 -6.06125,0 0,3.64 5.205,0 0,1.515 -5.205,0 0,4.69875 6.06125,0 0,1.51625" />
        <path
           id="path10066"
           style="fill:#000000;fill-opacity:1;fill-rule:nonzero;stroke:none"
           d="m 440.36555,950.3684 -5.61,-8.565 c -0.3325,-0.505 -0.735,-1.1375 -1.08875,-1.74375 l -0.0225,0 c 0.0513,0.5325 0.0788,1.11375 0.0788,1.46625 l 0,8.8425 -1.77,0 0,-12.88375 1.9675,0 5.61,8.56625 c 0.45125,0.68125 0.835,1.31125 1.08625,1.81875 l 0.025,0 c -0.025,-0.5825 -0.025,-1.11375 -0.025,-1.5425 l 0,-8.8425 1.7675,0 0,12.88375 -2.01875,0" />
        <path
           id="path10068"
           style="fill:#000000;fill-opacity:1;fill-rule:nonzero;stroke:none"
           d="m 449.46055,950.5709 c -1.51625,0 -2.70125,-0.3525 -3.485,-0.70625 l 0,-1.67 c 0.985,0.48125 2.2975,0.86125 3.30875,0.86125 1.895,0 2.93,-0.6325 2.93,-2.04625 0,-1.215 -0.7575,-1.76875 -2.65375,-2.5275 -2.16875,-0.8575 -3.4575,-1.84375 -3.4575,-3.91625 0,-2.095 1.69125,-3.31125 4.3675,-3.31125 1.41875,0 2.57875,0.40625 3.135,0.68375 l 0,1.6175 c -0.80875,-0.42875 -1.82125,-0.7825 -3.05625,-0.7825 -1.74625,0 -2.605,0.57875 -2.605,1.7925 0,1.26375 1.08625,1.7425 2.42625,2.27625 2.275,0.9075 3.81625,1.79125 3.81625,4.115 0,2.17375 -1.74375,3.61375 -4.72625,3.61375" />
        <path
           id="path10070"
           style="fill:#000000;fill-opacity:1;fill-rule:nonzero;stroke:none"
           d="m 463.18055,950.5709 c -3.94,0 -6.3675,-2.6275 -6.3675,-6.4675 0,-3.79125 2.125,-6.84875 6.11625,-6.84875 1.7675,0 2.87875,0.33 3.51,0.5825 l 0,1.69125 c -0.7825,-0.40125 -1.77,-0.73 -3.1825,-0.73 -3.135,0 -4.44875,2.04375 -4.44875,5.305 0,3.08125 1.59625,4.9025 4.7,4.9025 1.2625,0 2.3,-0.2775 3.2075,-0.735 l 0,1.695 c -1.05875,0.45375 -2.24375,0.605 -3.535,0.605" />
        <path
           id="path10072"
           style="fill:#000000;fill-opacity:1;fill-rule:nonzero;stroke:none"
           d="m 478.92305,950.3684 0,-5.98875 -6.875,0 0,5.98875 -1.91875,0 0,-12.88375 1.91875,0 0,5.38125 6.875,0 0,-5.38125 1.92125,0 0,12.88375 -1.92125,0" />
        <path
           id="path10074"
           style="fill:#000000;fill-opacity:1;fill-rule:nonzero;stroke:none"
           d="m 490.67305,941.6784 c -0.2775,-0.80875 -0.65375,-1.87125 -0.9375,-2.75625 l -0.0487,0 c -0.3025,0.885 -0.68125,1.97125 -0.95875,2.75625 l -1.365,3.91375 4.62125,0 -1.31125,-3.91375 z m 2.95375,8.69 -1.11,-3.2575 -5.66,0 -1.16375,3.2575 -1.9675,0 4.875,-12.88375 2.3725,0 4.7025,12.88375 -2.04875,0" />
        <path
           id="path10076"
           style="fill:#000000;fill-opacity:1;fill-rule:nonzero;stroke:none"
           d="m 500.4018,938.99965 0,3.94 5.05125,0 0,1.46625 -5.05125,0 0,5.9625 -1.91875,0 0,-12.885 7.67875,0 0,1.51625 -5.76,0" />
        <path
           id="path10078"
           style="fill:#000000;fill-opacity:1;fill-rule:nonzero;stroke:none"
           d="m 517.05055,938.99965 -3.91875,0 0,11.36875 -1.91625,0 0,-11.36875 -3.69125,0 0,-1.51625 9.52625,0 0,1.51625" />
        <path
           id="path10080"
           style="fill:#000000;fill-opacity:1;fill-rule:nonzero;stroke:none"
           d="m 527.8143,950.3684 -7.98375,0 0,-12.88375 7.98375,0 0,1.51375 -6.06375,0 0,3.64 5.205,0 0,1.515 -5.205,0 0,4.69875 6.06375,0 0,1.51625" />
        <path
           id="path10082"
           style="fill:#000000;fill-opacity:1;fill-rule:nonzero;stroke:none"
           d="m 540.2193,950.3684 -5.6075,-8.565 c -0.3275,-0.505 -0.7325,-1.1375 -1.0875,-1.74375 l -0.0263,0 c 0.0537,0.5325 0.0762,1.11375 0.0762,1.46625 l 0,8.8425 -1.76625,0 0,-12.88375 1.96875,0 5.61,8.56625 c 0.45625,0.68125 0.8325,1.31125 1.08375,1.81875 l 0.0275,0 c -0.0275,-0.5825 -0.0275,-1.11375 -0.0275,-1.5425 l 0,-8.8425 1.7725,0 0,12.88375 -2.02375,0" />
      </g>
      <text
         id="text10154"
         y="975.44873"
         x="371.66345"
         style="font-size:21px;font-style:normal;font-weight:normal;fill:#000000;fill-opacity:1;stroke:none;font-family:Milo OT;-inkscape-font-specification:Milo OT"
         xml:space="preserve"><tspan
           y="975.44873"
           x="371.66345"
           id="tspan10156"
           sodipodi:role="line">Institut für Intelligente Systemtechnologien</tspan></text>
      <text
         xml:space="preserve"
         style="font-size:21px;font-style:normal;font-weight:normal;fill:#000000;fill-opacity:1;stroke:none;font-family:Milo OT;-inkscape-font-specification:Milo OT"
         x="371.66345"
         y="1001.4487"
         id="text5892"><tspan
           sodipodi:role="line"
           id="tspan5894"
           x="371.66345"
           y="1001.4487">Lehrstuhl für Angewandte Mechatronik</tspan></text>
      <g
         transform="matrix(3.4668548,0,0,3.4668548,-802.7367,-2034.3489)"
         id="g6445">
        <path
           style="fill:#f4a53a;fill-opacity:1;fill-rule:nonzero"
           id="path2247"
           d="m 302.09792,802.34025 11.74974,0 c 0,0 -3.83933,7.09909 -3.83933,13.5146 0,6.41419 4.21242,13.51327 16.24936,13.51327 14.71298,0 28.30861,-14.85398 28.30861,-27.02787 l 0.3511,0 c 0,16.13613 -18.73388,36.17987 -39.40693,36.17987 -9.65851,0 -19.25931,-6.95639 -19.25931,-19.33067 0,-8.90005 5.84676,-16.8492 5.84676,-16.8492 l 0,0 z"
           class="fil3" />
        <path
           style="fill:#f7d5a5;fill-opacity:1;fill-rule:nonzero"
           id="path2249"
           d="m 312.09608,815.42145 c 0,-4.48283 3.65474,-8.1187 8.16055,-8.1187 4.50747,0 8.16054,3.63587 8.16054,8.1187 0,4.48108 -3.65307,8.11695 -8.16054,8.11695 -4.50581,0 -8.16055,-3.63587 -8.16055,-8.11695 z"
           class="fil4" />
      </g>
    </g>
  </g>
</svg>
