<?xml version="1.0" encoding="UTF-8" standalone="no"?>
<!-- Created with Inkscape (http://www.inkscape.org/) -->

<svg
   xmlns:dc="http://purl.org/dc/elements/1.1/"
   xmlns:cc="http://creativecommons.org/ns#"
   xmlns:rdf="http://www.w3.org/1999/02/22-rdf-syntax-ns#"
   xmlns:svg="http://www.w3.org/2000/svg"
   xmlns="http://www.w3.org/2000/svg"
   xmlns:sodipodi="http://sodipodi.sourceforge.net/DTD/sodipodi-0.dtd"
   xmlns:inkscape="http://www.inkscape.org/namespaces/inkscape"
   width="338.93262"
   height="138.33896"
   id="svg1877"
   sodipodi:version="0.32"
   inkscape:version="0.47 r22583"
   version="1.0"
   sodipodi:docname="orig_Logo.svg">
  <defs
     id="defs1879">
    <inkscape:perspective
       sodipodi:type="inkscape:persp3d"
       inkscape:vp_x="0 : 93.080017 : 1"
       inkscape:vp_y="0 : 1000 : 0"
       inkscape:vp_z="303.98102 : 93.080017 : 1"
       inkscape:persp3d-origin="151.99051 : 62.053345 : 1"
       id="perspective2989" />
  </defs>
  <sodipodi:namedview
     id="base"
     pagecolor="#ffffff"
     bordercolor="#666666"
     borderopacity="1.0"
     gridtolerance="10000"
     guidetolerance="10"
     objecttolerance="10"
     inkscape:pageopacity="0.0"
     inkscape:pageshadow="2"
     inkscape:zoom="0.98994949"
     inkscape:cx="164.30321"
     inkscape:cy="26.599689"
     inkscape:document-units="px"
     inkscape:current-layer="layer1"
     inkscape:window-width="861"
     inkscape:window-height="638"
     inkscape:window-x="470"
     inkscape:window-y="27"
     showgrid="false"
     inkscape:window-maximized="0" />
  <metadata
     id="metadata1882">
    <rdf:RDF>
      <cc:Work
         rdf:about="">
        <dc:format>image/svg+xml</dc:format>
        <dc:type
           rdf:resource="http://purl.org/dc/dcmitype/StillImage" />
        <dc:title></dc:title>
      </cc:Work>
    </rdf:RDF>
  </metadata>
  <g
     inkscape:label="Layer 1"
     inkscape:groupmode="layer"
     id="layer1"
     transform="translate(-33.390823,-210.70673)">
    <g
       style="fill-rule:evenodd"
       id="Ebene_x0020_1"
       transform="matrix(1.6520801,0,0,1.6520801,109.78886,86.60264)">
      <metadata
         id="CorelCorpID_0Corel-Layer" />
      <path
         class="fil0"
         d="m 99.2291,75.1199 -1.5322,8.8803 -10.2887,0 -1.0293,6.1344 10.2887,0 -1.5322,8.8802 -10.2889,0 -1.3461,7.6553 10.2888,0 -1.5426,8.8803 -24.3745,0 6.9822,-40.4305 24.3748,0 z m -27.2425,0 -1.5322,8.8803 -16.3536,0 c -1.255,0 -2.0741,0.0963 -2.4612,0.2857 -0.384,0.1877 -0.6336,0.541 -0.722,1.0616 l -0.2087,1.0716 c -0.0446,0.2042 -0.0672,0.3778 -0.0722,0.541 -0.005,0.1633 0.0118,0.2961 0.0462,0.4185 0.1955,0.6941 1.7511,1.4699 4.6608,2.3069 1.1462,0.3367 2.0477,0.6022 2.7074,0.8063 3.2343,1.0106 5.4976,1.9801 6.7944,2.8886 1.2838,0.8982 2.1204,2.0211 2.4967,3.3581 0.1406,0.5002 0.2287,1.1024 0.2507,1.7966 0.0217,0.6941 -0.0177,1.3882 -0.1548,2.0617 l -1.3234,8.4619 c -0.3969,2.47 -1.3767,4.1746 -2.9117,5.1036 -1.5452,0.9287 -4.8148,1.3881 -9.796,1.3881 l -18.8729,0 1.5629,-8.8803 12.8712,0 c 2.2864,0 3.7351,-0.1836 4.3491,-0.5409 0.6036,-0.3573 0.9652,-1.0309 1.0817,-2.0312 l 0.3227,-2.1538 c 0.0596,-0.296 0.0783,-0.592 0.0721,-0.8675 -0.0061,-0.2757 -0.0445,-0.5207 -0.099,-0.7146 -0.293,-1.0411 -2.0837,-2.0721 -5.3879,-3.1132 -0.7906,-0.2347 -1.3964,-0.4286 -1.845,-0.5715 -3.7045,-1.1943 -6.0641,-2.1436 -7.0762,-2.8377 -1.0119,-0.694 -1.6702,-1.582 -1.9747,-2.6641 -0.1408,-0.5001 -0.217,-1.0614 -0.245,-1.7045 -0.0147,-0.6328 0.0287,-1.2758 0.1262,-1.9088 l 1.3211,-7.9616 c 0.2696,-1.6535 1.0153,-2.8093 2.2357,-3.4805 1.2098,-0.6654 3.3625,-1.0003 6.4246,-1.0003 l 23.713,0 0,0 z m -35.3969,0 -7.5327,43.6583 62.4206,0 -1.5425,8.8802 -76.4962,0 9.0649,-52.5385 14.0859,0 0,0 z"
         id="path10"
         style="fill:#00a4ce" />
    </g>
    <text
       xml:space="preserve"
       style="font-size:16px;font-style:normal;font-weight:normal;fill:#000000;fill-opacity:1;stroke:none;font-family:Bitstream Vera Sans"
       x="202.79219"
       y="322.85992"
       id="text3092"><tspan
         sodipodi:role="line"
         x="202.79219"
         y="322.85992"
         style="font-size:14px;font-style:normal;font-variant:normal;font-weight:bold;font-stretch:normal;text-align:center;text-anchor:middle;font-family:Arial;-inkscape-font-specification:Arial Bold"
         id="tspan3100">Friedrich-Alexander-Universität Erlangen-Nürnberg</tspan><tspan
         sodipodi:role="line"
         x="202.79219"
         y="336.42361"
         style="font-size:10px;font-style:normal;font-variant:normal;font-weight:normal;font-stretch:normal;text-align:center;text-anchor:middle;font-family:Arial;-inkscape-font-specification:Arial"
         id="tspan3102">Institut für Elektrotechnik, Elektronik  und Informationstechnik</tspan><tspan
         sodipodi:role="line"
         x="202.79219"
         y="348.92361"
         id="tspan3098"
         style="font-size:10px;font-style:normal;font-variant:normal;font-weight:normal;font-stretch:normal;text-align:center;text-anchor:middle;font-family:Arial;-inkscape-font-specification:Arial">Lehrstuhl für Sensorik</tspan></text>
  </g>
</svg>
