<?xml version="1.0" encoding="UTF-8" standalone="no"?>
<!-- Created with Inkscape (http://www.inkscape.org/) -->

<svg
   xmlns:dc="http://purl.org/dc/elements/1.1/"
   xmlns:cc="http://creativecommons.org/ns#"
   xmlns:rdf="http://www.w3.org/1999/02/22-rdf-syntax-ns#"
   xmlns:svg="http://www.w3.org/2000/svg"
   xmlns="http://www.w3.org/2000/svg"
   xmlns:xlink="http://www.w3.org/1999/xlink"
   xmlns:sodipodi="http://sodipodi.sourceforge.net/DTD/sodipodi-0.dtd"
   xmlns:inkscape="http://www.inkscape.org/namespaces/inkscape"
   width="443.92392"
   height="338.02698"
   id="svg1877"
   sodipodi:version="0.32"
   inkscape:version="0.47 r22583"
   version="1.0"
   sodipodi:docname="titelseite_logos.svg">
  <defs
     id="defs1879"><inkscape:perspective
   sodipodi:type="inkscape:persp3d"
   inkscape:vp_x="0 : 93.080017 : 1"
   inkscape:vp_y="0 : 1000 : 0"
   inkscape:vp_z="303.98102 : 93.080017 : 1"
   inkscape:persp3d-origin="151.99051 : 62.053345 : 1"
   id="perspective2989" />
<clipPath
   id="clipPath2877"
   clipPathUnits="userSpaceOnUse">
  <path
     id="path2879"
     d="m 0,226.771 226.772,0 0,-226.711 L 0,0.06 0,226.771 z" />
</clipPath>
<inkscape:perspective
   id="perspective2869"
   inkscape:persp3d-origin="0.5 : 0.33333333 : 1"
   inkscape:vp_z="1 : 0.5 : 1"
   inkscape:vp_y="0 : 1000 : 0"
   inkscape:vp_x="0 : 0.5 : 1"
   sodipodi:type="inkscape:persp3d" />
<clipPath
   id="clipPath3012"
   clipPathUnits="userSpaceOnUse">
  <path
     id="path3014"
     d="m 82.2,841.98 11.34,0 0,-91.66 -11.34,0 0,91.66 z" />
</clipPath>
<inkscape:perspective
   id="perspective2990"
   inkscape:persp3d-origin="0.5 : 0.33333333 : 1"
   inkscape:vp_z="1 : 0.5 : 1"
   inkscape:vp_y="0 : 1000 : 0"
   inkscape:vp_x="0 : 0.5 : 1"
   sodipodi:type="inkscape:persp3d" />
<pattern
   id="pattern3223"
   height="842"
   width="596"
   y="0"
   x="0"
   patternUnits="userSpaceOnUse">
  <g
     id="g3225" />
  <g
     id="g3227">
    <g
       id="g3229"
       clip-path="url(#clipPath3219)">
      <g
         id="g3231">
        <path
           id="path3233"
           style="fill:#0070af;fill-opacity:1;fill-rule:evenodd;stroke:none"
           d="m 405.59,280.953 c 5.004,0 9.051,-4.062 9.051,-9.078 l 0.019,-72.555 c 0,-5.015 -4.078,-9.078 -9.082,-9.078 l -72.555,0 c -5.007,0 -9.07,4.063 -9.07,9.078 l 0.004,72.555 c 0,5.016 4.055,9.078 9.059,9.078 l 72.574,0 z m -52.723,-53.801 -9.683,0 0,32.184 9.683,0 0,-32.184 z m -21.941,44.688 33.875,0 0,-9.684 -33.875,0 0,9.684 z m 20.355,-56.528 -3.25,0 -2.488,-10.066 -2.914,10.066 -2.332,0 -2.914,-10.066 -2.469,10.066 -3.25,0 4.262,-15.96 2.597,0 2.938,9.683 2.937,-9.683 2.602,0 4.281,15.96 z m 54.153,-15.785 0,15.965 -3.118,0 0,-9.773 -6.324,9.773 -2.777,0 0,-15.965 3.117,0 0,9.801 6.32,-9.801 2.782,0 z m -22.329,0 0,2.782 -7.398,0 0,3.879 6.301,0 0,2.781 -6.301,0 0,3.742 7.398,0 0,2.781 -10.515,0 0,-15.965 10.515,0 z m -24.304,0 3.117,0 0,15.965 -3.117,0 0,-15.965 z m 27.094,27.368 -0.516,0.043 c -9.078,0.949 -16.098,8.621 -16.098,17.953 l 0,26.949 9.817,0 -0.02,-26.711 c 0,-3.906 2.719,-7.418 6.363,-8.344 0.161,-0.039 0.286,-0.062 0.45,-0.094 l 0.004,-9.796 z m 2.937,9.812 c 0.148,0.027 0.258,0.043 0.402,0.078 3.645,0.926 6.36,4.438 6.36,8.344 l -0.082,26.711 9.879,0 0,-26.852 c 0.007,-9.332 -7.079,-17.09 -16.157,-18.05 l -0.398,-0.04 -0.004,9.809" />
      </g>
    </g>
  </g>
</pattern>
<clipPath
   id="clipPath3219"
   clipPathUnits="userSpaceOnUse">
  <path
     id="path3221"
     d="M 0,0 596,0 596,842 0,842 0,0 z" />
</clipPath>
<clipPath
   id="clipPath3213"
   clipPathUnits="userSpaceOnUse">
  <path
     id="path3215"
     d="m 323.953,280.843 90.707,0 0,-90.684 -90.707,0 0,90.684 z" />
</clipPath>
<pattern
   id="pattern3197"
   height="842"
   width="596"
   y="0"
   x="0"
   patternUnits="userSpaceOnUse">
  <g
     id="g3199" />
  <g
     id="g3201">
    <g
       id="g3203"
       clip-path="url(#clipPath3193)">
      <g
         id="g3205" />
    </g>
  </g>
</pattern>
<clipPath
   id="clipPath3193"
   clipPathUnits="userSpaceOnUse">
  <path
     id="path3195"
     d="M 0,0 596,0 596,842 0,842 0,0 z" />
</clipPath>
<clipPath
   id="clipPath3187"
   clipPathUnits="userSpaceOnUse">
  <path
     id="path3189"
     d="m 294.77,281.484 11.16,0 0,-90.215 -11.16,0 0,90.215 z" />
</clipPath>
<clipPath
   id="clipPath3139"
   clipPathUnits="userSpaceOnUse">
  <path
     id="path3141"
     d="m 0,0 595.27557,0 0,841.88977 L 0,841.88977 0,0 z" />
</clipPath>
<inkscape:perspective
   id="perspective3121"
   inkscape:persp3d-origin="0.5 : 0.33333333 : 1"
   inkscape:vp_z="1 : 0.5 : 1"
   inkscape:vp_y="0 : 1000 : 0"
   inkscape:vp_x="0 : 0.5 : 1"
   sodipodi:type="inkscape:persp3d" />

 <style
   id="style3362"
   type="text/css">
   
    .fil0 {fill:#CC0000}
    .fil1 {fill:white}
   
  </style>

  <inkscape:perspective
   id="perspective3374"
   inkscape:persp3d-origin="371.8754 : 350.83346 : 1"
   inkscape:vp_z="743.75079 : 526.25018 : 1"
   inkscape:vp_y="0 : 1000 : 0"
   inkscape:vp_x="0 : 526.25018 : 1"
   sodipodi:type="inkscape:persp3d" />
<inkscape:perspective
   id="perspective3464"
   inkscape:persp3d-origin="512 : 70 : 1"
   inkscape:vp_z="1024 : 105 : 1"
   inkscape:vp_y="0 : 1000 : 0"
   inkscape:vp_x="0 : 105 : 1"
   sodipodi:type="inkscape:persp3d" />
<inkscape:perspective
   id="perspective3545"
   inkscape:persp3d-origin="0.5 : 0.33333333 : 1"
   inkscape:vp_z="1 : 0.5 : 1"
   inkscape:vp_y="0 : 1000 : 0"
   inkscape:vp_x="0 : 0.5 : 1"
   sodipodi:type="inkscape:persp3d" />
</defs>
  <sodipodi:namedview
     id="base"
     pagecolor="#ffffff"
     bordercolor="#666666"
     borderopacity="1.0"
     gridtolerance="10000"
     guidetolerance="10"
     objecttolerance="10"
     inkscape:pageopacity="0.0"
     inkscape:pageshadow="2"
     inkscape:zoom="2.0342967"
     inkscape:cx="162.91695"
     inkscape:cy="160.65679"
     inkscape:document-units="px"
     inkscape:current-layer="layer1"
     inkscape:window-width="1982"
     inkscape:window-height="1327"
     inkscape:window-x="0"
     inkscape:window-y="0"
     showgrid="false"
     inkscape:window-maximized="0" />
  <metadata
     id="metadata1882">
    <rdf:RDF>
      <cc:Work
         rdf:about="">
        <dc:format>image/svg+xml</dc:format>
        <dc:type
           rdf:resource="http://purl.org/dc/dcmitype/StillImage" />
        <dc:title></dc:title>
      </cc:Work>
    </rdf:RDF>
  </metadata>
  <g
     inkscape:label="Layer 1"
     inkscape:groupmode="layer"
     id="layer1"
     transform="translate(47.576517,-46.828484)">
    <text
       xml:space="preserve"
       style="font-size:16px;font-style:normal;font-weight:normal;fill:#000000;fill-opacity:1;stroke:none;font-family:Bitstream Vera Sans"
       x="174.38936"
       y="348.85992"
       id="text3092"><tspan
         sodipodi:role="line"
         x="174.38936"
         y="348.85992"
         style="font-size:16px;font-style:normal;font-variant:normal;font-weight:bold;font-stretch:normal;text-align:center;text-anchor:middle;font-family:Arial;-inkscape-font-specification:Arial Bold"
         id="tspan3102">Friedrich-Alexander-Universität Erlangen-Nürnberg</tspan><tspan
         sodipodi:role="line"
         x="174.38936"
         y="365.90768"
         id="tspan3098"
         style="font-size:13px;font-style:normal;font-variant:normal;font-weight:normal;font-stretch:normal;text-align:center;text-anchor:middle;font-family:Arial;-inkscape-font-specification:Arial">Lehrstuhl für Sensorik</tspan><tspan
         sodipodi:role="line"
         x="174.38936"
         y="382.15768"
         style="font-size:13px;font-style:normal;font-variant:normal;font-weight:normal;font-stretch:normal;text-align:center;text-anchor:middle;font-family:Arial;-inkscape-font-specification:Arial"
         id="tspan3553">Lehrstuhl für Angewandte Mathematik 2</tspan></text>
    <g
       id="g3555"
       transform="translate(-29.723385,0)">
      <g
         id="g2871"
         inkscape:label="TU_Signet"
         transform="matrix(0.46887541,0,0,-0.46887541,87.24302,153.15583)">
        <g
           id="g2873">
          <g
             id="g2875"
             clip-path="url(#clipPath2877)">
            <g
               id="g2881"
               transform="translate(204.094,226.771)">
              <path
                 d="m 0,0 c 12.516,0 22.631,-10.158 22.631,-22.689 l 0.047,-181.395 c 0,-12.53 -10.193,-22.687 -22.709,-22.687 l -181.385,0 c -12.516,0 -22.678,10.157 -22.678,22.687 l 0.016,181.395 c 0,12.531 10.13,22.689 22.646,22.689 L 0,0 z m -131.801,-134.498 -24.213,0 0,80.462 24.213,0 0,-80.462 z m -24.213,0 z m -30.645,111.718 84.691,0 0,-24.213 -84.691,0 0,24.213 z m 50.893,-141.315 -8.128,0 -6.221,-25.168 -7.288,25.168 -5.829,0 -7.287,-25.168 -6.165,25.168 -8.128,0 10.65,-39.909 6.502,0 7.343,24.215 7.343,-24.215 6.502,0 10.706,39.909 z m 135.378,-39.463 0,39.91 -7.792,0 0,-24.439 -15.807,24.439 -6.95,0 0,-39.91 7.791,0 0,24.495 15.807,-24.495 6.951,0 z m -55.818,0 0,6.951 -18.497,0 0,9.697 15.751,0 0,6.951 -15.751,0 0,9.359 18.497,0 0,6.952 -26.289,0 0,-39.91 26.289,0 z m -60.768,0 7.792,0 0,39.91 -7.792,0 0,-39.91 z m 7.792,0 z m 59.942,68.418 -1.281,0.108 c -22.699,2.37 -40.252,21.551 -40.252,44.878 l 0,67.374 24.54,0 -0.04,-66.776 c 0,-9.766 6.791,-18.548 15.903,-20.861 0.401,-0.096 0.713,-0.16 1.122,-0.232 l 0.008,-24.491 z m 7.348,24.526 c 0.368,0.067 0.641,0.111 1.001,0.197 9.114,2.312 15.906,11.095 15.906,20.861 l -0.209,66.776 24.697,0 0,-67.127 c 0.023,-23.328 -17.692,-42.728 -40.394,-45.126 l -0.996,-0.103 -0.005,24.522"
                 style="fill:#0070af;fill-opacity:1;fill-rule:evenodd;stroke:none"
                 id="path2883" />
            </g>
          </g>
        </g>
      </g>
      <g
         transform="matrix(0.03269739,0,0,0.03269739,213.7926,46.076444)"
         id="Ebene_x0020_1-9">
  <metadata
   id="CorelCorpID_0Corel-Layer-7" />

  <path
   style="fill:#cc0000"
   class="fil0"
   d="M 315,23 C 156,23 27,152 27,311 l 0,2675 c 0,159 129,288 288,288 l 2675,0 c 159,0 288,-129 288,-288 l 0,-2675 C 3278,152 3149,23 2990,23 L 315,23 z"
   id="path3366" />

  <path
   style="fill:#ffffff"
   class="fil1"
   d="m 2341,2441 0,-914 c 0,-74 -15,-137 -46,-189 -31,-52 -89,-78 -175,-78 -86,0 -150,26 -193,79 -42,53 -63,126 -63,219 l 0,883 -387,0 0,-914 c 0,-74 -15,-137 -46,-189 -31,-52 -89,-78 -175,-78 -80,0 -142,26 -188,79 -45,53 -68,126 -68,219 l 0,883 -387,0 0,-1521 387,0 -3,178 c 36,-61 89,-110 159,-146 70,-36 141,-54 213,-54 99,0 179,21 238,62 59,41 104,97 133,167 53,-74 123,-131 210,-170 87,-39 175,-59 265,-59 91,0 170,14 235,43 66,29 119,68 159,117 41,50 70,108 89,175 19,67 29,137 29,211 l 0,997 -387,0 z"
   id="path3368" />

 </g>
    </g>
    <text
       id="text3382"
       y="181.8353"
       x="173.84273"
       style="font-size:16px;font-style:normal;font-weight:normal;fill:#000000;fill-opacity:1;stroke:none;font-family:Bitstream Vera Sans"
       xml:space="preserve"><tspan
         id="tspan3384"
         style="font-size:16px;font-style:normal;font-variant:normal;font-weight:bold;font-stretch:normal;text-align:center;text-anchor:middle;font-family:Arial;-inkscape-font-specification:Arial Bold"
         y="181.8353"
         x="173.84273"
         sodipodi:role="line">Technische Universität Wien</tspan><tspan
         style="font-size:13px;font-style:normal;font-variant:normal;font-weight:normal;font-stretch:normal;text-align:center;text-anchor:middle;font-family:Arial;-inkscape-font-specification:Arial"
         id="tspan3388"
         y="198.88307"
         x="173.84273"
         sodipodi:role="line">E325 A4 - Institut für Mechanik und Mechatronik</tspan></text>
    <g
       id="g3566"
       transform="translate(0,26)">
      <g
         transform="matrix(1.4848777,0,0,1.4848777,141.44351,103.32414)"
         id="Ebene_x0020_1"
         style="fill-rule:evenodd">
        <metadata
           id="CorelCorpID_0Corel-Layer" />
        <path
           style="fill:#00a4ce"
           id="path10"
           d="m 99.2291,75.1199 -1.5322,8.8803 -10.2887,0 -1.0293,6.1344 10.2887,0 -1.5322,8.8802 -10.2889,0 -1.3461,7.6553 10.2888,0 -1.5426,8.8803 -24.3745,0 6.9822,-40.4305 24.3748,0 z m -27.2425,0 -1.5322,8.8803 -16.3536,0 c -1.255,0 -2.0741,0.0963 -2.4612,0.2857 -0.384,0.1877 -0.6336,0.541 -0.722,1.0616 l -0.2087,1.0716 c -0.0446,0.2042 -0.0672,0.3778 -0.0722,0.541 -0.005,0.1633 0.0118,0.2961 0.0462,0.4185 0.1955,0.6941 1.7511,1.4699 4.6608,2.3069 1.1462,0.3367 2.0477,0.6022 2.7074,0.8063 3.2343,1.0106 5.4976,1.9801 6.7944,2.8886 1.2838,0.8982 2.1204,2.0211 2.4967,3.3581 0.1406,0.5002 0.2287,1.1024 0.2507,1.7966 0.0217,0.6941 -0.0177,1.3882 -0.1548,2.0617 l -1.3234,8.4619 c -0.3969,2.47 -1.3767,4.1746 -2.9117,5.1036 -1.5452,0.9287 -4.8148,1.3881 -9.796,1.3881 l -18.8729,0 1.5629,-8.8803 12.8712,0 c 2.2864,0 3.7351,-0.1836 4.3491,-0.5409 0.6036,-0.3573 0.9652,-1.0309 1.0817,-2.0312 l 0.3227,-2.1538 c 0.0596,-0.296 0.0783,-0.592 0.0721,-0.8675 -0.0061,-0.2757 -0.0445,-0.5207 -0.099,-0.7146 -0.293,-1.0411 -2.0837,-2.0721 -5.3879,-3.1132 -0.7906,-0.2347 -1.3964,-0.4286 -1.845,-0.5715 -3.7045,-1.1943 -6.0641,-2.1436 -7.0762,-2.8377 -1.0119,-0.694 -1.6702,-1.582 -1.9747,-2.6641 -0.1408,-0.5001 -0.217,-1.0614 -0.245,-1.7045 -0.0147,-0.6328 0.0287,-1.2758 0.1262,-1.9088 l 1.3211,-7.9616 c 0.2696,-1.6535 1.0153,-2.8093 2.2357,-3.4805 1.2098,-0.6654 3.3625,-1.0003 6.4246,-1.0003 l 23.713,0 0,0 z m -35.3969,0 -7.5327,43.6583 62.4206,0 -1.5425,8.8802 -76.4962,0 9.0649,-52.5385 14.0859,0 0,0 z"
           class="fil0" />
      </g>
      <path
         style="fill:#074777;fill-opacity:1;fill-rule:nonzero;stroke:none"
         id="path11106"
         d="m -47.575237,246.92402 0,5.63235 75.185748,0 1.68651,-5.63235 -76.872258,0 z m 0,8.26759 0,5.63107 72.725671,0 1.686509,-5.63107 -74.41218,0 z m 187.855697,10.8517 0,-2.65571 -19.93761,0 0,0.97687 c 0,1.63792 -0.12914,3.19785 -0.37464,4.65548 l 20.15114,0 c 0.0768,-0.96919 0.16111,-1.94351 0.16111,-2.97664 m -19.93761,-5.24365 19.93761,0 0,-5.63234 -19.93761,0 0,5.63234 z m 0,-8.22027 19.93761,0 0,-5.63235 -19.93761,0 0,5.63235 z m 0,-8.2203 19.93761,0 0,-5.63234 -19.93761,0 0,5.63234 z m 0,-8.22028 19.93761,0 0,-5.63363 -19.93761,0 0,5.63363 z m 0,-8.22156 19.93761,0 0,-5.63235 -19.93761,0 0,5.63235 z m 0,-8.21773 19.93761,0 0,-5.63363 -19.93761,0 0,5.63363 z m 19.45429,51.90581 -20.47464,0 c -0.75438,2.29258 -1.9678,4.21691 -3.74765,5.63491 l 22.7621,0 c 0.65721,-1.73254 1.12903,-3.6249 1.46019,-5.63491 m -2.5905,8.22285 -61.399609,0 c 1.068934,2.10462 2.391031,3.9714 3.890861,5.63362 l 53.614058,0 c 1.50239,-1.66222 2.82704,-3.529 3.89469,-5.63362 m -62.53119,-2.58923 22.73908,0 c -1.77089,-1.41671 -2.9728,-3.34104 -3.727195,-5.63362 l -20.46824,0 c 0.327329,2.00872 0.800417,3.90109 1.456355,5.63362 m -1.782407,-8.21772 20.152422,0 c -0.253166,-1.45764 -0.374634,-3.01628 -0.374634,-4.65803 l 0,-0.97432 -19.937614,0 0,2.65316 c 0,1.03568 0.07671,2.00743 0.159826,2.97919 m -0.159826,-8.22157 19.936331,0 0,-5.63234 -19.936331,0 0,5.63234 z m 0,-8.22027 19.936331,0 0,-5.63235 -19.936331,0 0,5.63235 z m 0,-8.2203 19.936331,0 0,-5.63234 -19.936331,0 0,5.63234 z m 0,-8.22028 19.936331,0 0,-5.63363 -19.936331,0 0,5.63363 z m 0,-8.22156 19.936331,0 0,-5.63235 -19.936331,0 0,5.63235 z m 0,-8.21773 19.936331,0 0,-5.63363 -19.936331,0 0,5.63363 z m 0.840058,73.98257 -2.126357,-5.63363 -21.071751,0 1.810534,5.63363 21.387574,0 z m -23.969119,-8.22029 20.867172,0 -2.130191,-5.63362 -20.57437,0 1.837389,5.63362 z m -50.055644,-8.22285 67.814475,0 -2.128909,-5.63362 -63.60652,0 -2.079046,5.63362 z m 3.035458,-8.21772 61.674514,0 -2.128912,-5.63235 -57.462721,0 -2.082881,5.63235 z m 39.096538,-8.22157 19.470917,0 -2.128913,-5.63234 -19.029787,0 1.687783,5.63234 z m -2.461351,-8.22027 18.827765,0 -2.127635,-5.63235 -18.385361,0 1.685231,5.63235 z m -2.460077,-8.2203 18.182057,0 -2.128908,-5.63234 -17.738376,0 1.685227,5.63234 z m -2.461355,-8.22028 17.537631,0 -2.128913,-5.63363 -32.895204,0 -2.081603,5.63363 17.799751,0 0.772289,-2.58155 0.22376,0 0.772289,2.58155 z m -16.530074,-8.22156 30.961925,0 -2.128913,-5.63235 -26.752687,0 -2.080325,5.63235 z m 3.035456,-8.21773 24.821966,0 -2.128913,-5.63363 -20.611449,0 -2.081604,5.63363 z m 10.952708,19.02723 -17.981312,0 -2.080325,5.63234 18.372576,0 1.689061,-5.63234 z m -79.332332,-10.8095 60.939302,0 0,-5.63235 -60.939302,0 0,5.63235 z m 0,-8.21773 60.939302,0 0,-5.63363 -60.939302,0 0,5.63363 z m 19.938887,10.80566 -19.938887,0 0,5.63363 19.938887,0 0,-5.63363 z m 0,8.22157 -19.938887,0 0,5.63234 19.938887,0 0,-5.63234 z m 0,24.66213 -19.938887,0 0,5.63235 19.938887,0 0,-5.63235 z m 0,8.21645 -19.938887,0 0,5.63362 19.938887,0 0,-5.63362 z m 0,8.22285 -19.938887,0 0,5.63362 19.938887,0 0,-5.63362 z m 0,8.22156 -19.938887,0 0,5.63363 19.938887,0 0,-5.63363 z m 23.194272,0 -2.080324,5.63363 21.276334,0 1.811812,-5.63363 -21.007822,0 z m 0.956413,-2.58666 20.881238,0 0.02557,-0.10229 -0.06393,0 1.728702,-5.53006 -20.5066,0 -2.079046,5.63363 z m 134.077985,2.58666 -48.182462,0 c 2.961298,2.48053 6.386735,4.34094 10.014198,5.63363 l 28.127204,0 c 3.63897,-1.29269 7.07337,-3.1531 10.03978,-5.63363" />
      <image
         xlink:href="file:///media/truecrypt1/CFS++/share/doc/auxilliaries/Pics/am2_logo.png"
         width="81.496063"
         height="81.496063"
         id="image3547"
         x="314.85135"
         y="213.1266" />
    </g>
  </g>
</svg>
